<svg width="30" height="30" viewBox="0 0 30 30" fill="none" xmlns="http://www.w3.org/2000/svg">
<path d="M6.66897 16.0717H13.9286V23.3313C13.9286 24.0448 14.2751 24.6431 15 24.6431C15.725 24.6431 16.0715 24.0448 16.0715 23.3313V16.0717H23.3311C24.0445 16.0717 24.6429 15.7252 24.6429 15.0003C24.6429 14.2753 24.0445 13.9289 23.3311 13.9289H16.0715V6.66922C16.0715 5.95579 15.725 5.35742 15 5.35742C14.2751 5.35742 13.9286 5.95579 13.9286 6.66922V13.9289H6.66897C5.95554 13.9289 5.35718 14.2753 5.35718 15.0003C5.35718 15.7252 5.95554 16.0717 6.66897 16.0717Z" fill="#8A919C"/>
</svg>
