<svg width="30" height="31" viewBox="0 0 30 31" fill="none" xmlns="http://www.w3.org/2000/svg">
<path d="M26.0083 13.9996H24.69C24.1344 9.22524 19.991 5.39258 15 5.39258C12.2409 5.39258 9.73601 6.59794 8.00331 8.48131C7.54189 8.93332 7.56072 9.53599 7.9374 9.88442C8.32349 10.2423 8.87908 10.2423 9.34992 9.80908C10.753 8.29297 12.7682 7.34187 15 7.34187C18.9739 7.34187 22.1851 10.2517 22.7219 13.9996H21.2811C20.556 13.9996 20.3582 14.5363 20.782 15.1202L23.0326 18.3031C23.381 18.7739 23.9084 18.7833 24.2474 18.3031L26.5074 15.1296C26.9312 14.5363 26.7428 13.9996 26.0083 13.9996ZM3.99173 16.269H5.31951C5.87511 21.0434 10.0185 24.876 15 24.876C17.778 24.876 20.2829 23.6613 22.0156 21.7779C22.4676 21.3259 22.4488 20.7232 22.0721 20.3748C21.686 20.017 21.1398 20.017 20.6596 20.4595C19.2753 21.9757 17.2601 22.9268 15 22.9268C11.0355 22.9268 7.82439 20.017 7.28763 16.269H8.71899C9.43468 16.269 9.64185 15.7323 9.21809 15.1484L6.95804 11.9655C6.61904 11.4947 6.09169 11.4853 5.75269 11.9655L3.49264 15.139C3.05947 15.7323 3.25722 16.269 3.99173 16.269Z" fill="#0E8EF3"/>
</svg>
