<svg width="14" height="15" viewBox="0 0 14 15" fill="none" xmlns="http://www.w3.org/2000/svg">
<path d="M6.99958 7.52218C8.82268 7.52218 10.2992 5.91002 10.2992 3.93624C10.2992 1.99261 8.82268 0.448242 6.99958 0.448242C5.18401 0.448242 3.69238 2.01521 3.69992 3.95131C3.70745 5.91755 5.17648 7.52218 6.99958 7.52218ZM6.99958 6.20382C5.95996 6.20382 5.07854 5.21694 5.07854 3.95131C5.07101 2.71582 5.95243 1.7666 6.99958 1.7666C8.05427 1.7666 8.92062 2.70075 8.92062 3.93624C8.92062 5.20187 8.04674 6.20382 6.99958 6.20382ZM2.29869 14.5283H11.6929C12.9962 14.5283 13.6215 14.114 13.6215 13.225C13.6215 11.1533 11.0375 8.39607 6.99958 8.39607C2.96164 8.39607 0.370117 11.1533 0.370117 13.225C0.370117 14.114 0.995396 14.5283 2.29869 14.5283ZM2.06515 13.21C1.88435 13.21 1.81655 13.1497 1.81655 13.0141C1.81655 11.8615 3.67732 9.71443 6.99958 9.71443C10.3143 9.71443 12.1751 11.8615 12.1751 13.0141C12.1751 13.1497 12.1073 13.21 11.9265 13.21H2.06515Z" fill="#0E8EF3"/>
</svg>
