<svg width="343" height="180" viewBox="0 0 343 180" fill="none" xmlns="http://www.w3.org/2000/svg">
<rect width="343" height="180" rx="16" fill="#FDC40F"/>
<mask id="mask0_3243_39258" style="mask-type:alpha" maskUnits="userSpaceOnUse" x="0" y="0" width="343" height="180">
<rect width="343" height="180" rx="16" fill="#FF9500"/>
</mask>
<g mask="url(#mask0_3243_39258)">
<path opacity="0.1" d="M399.399 133.438C411.647 188.882 362.978 240.501 303.549 251.928C244.121 263.356 11.6744 320.304 100.884 199.007C190.094 77.7087 298.666 61.9368 358.095 50.5094C417.524 39.082 387.15 77.9942 399.399 133.438Z" fill="white"/>
<path opacity="0.14" d="M409.801 187.34C404.659 243.746 342.274 280.336 281.815 275.538C221.355 270.741 -18.855 263.722 103.621 171.073C226.097 78.4235 334.998 92.0832 395.458 96.8809C455.917 101.679 414.944 130.935 409.801 187.34Z" fill="white"/>
</g>
<rect opacity="0.15" x="16" y="114" width="50" height="50" rx="25" fill="white"/>
<path d="M40.8694 125.667L33.7871 129.751L36.3911 131.26L40.8694 128.685L45.3479 131.26L47.9516 129.751L40.8694 125.667Z" fill="white"/>
<path d="M45.3479 133.394L47.9516 134.902V137.92L43.4733 140.496V145.647L40.8694 147.156L38.2657 145.647V140.496L33.7871 137.92V134.902L36.3911 133.394L40.8694 135.969L45.3479 133.394Z" fill="white"/>
<path d="M47.9513 140.053V143.071L45.3477 144.58V141.563L47.9513 140.053Z" fill="white"/>
<path d="M45.3213 146.714L49.7999 144.138V138.987L52.4035 137.478V145.647L45.3213 149.732V146.714Z" fill="white"/>
<path d="M49.799 133.836L47.1953 132.327L49.799 130.818L52.4027 132.327V135.345L49.799 136.854V133.836Z" fill="white"/>
<path d="M38.2637 150.824V147.806L40.8674 149.315L43.4713 147.806V150.824L40.8674 152.333L38.2637 150.824Z" fill="white"/>
<path d="M36.3911 144.58L33.7871 143.071V140.053L36.3911 141.563V144.58Z" fill="white"/>
<path d="M40.8674 133.836L38.2637 132.327L40.8674 130.818L43.4713 132.327L40.8674 133.836Z" fill="white"/>
<path d="M34.5416 132.327L31.9379 133.836V136.854L29.334 135.345V132.327L31.9379 130.818L34.5416 132.327Z" fill="white"/>
<path d="M29.334 137.478L31.9379 138.987V144.138L36.4162 146.714V149.732L29.334 145.647V137.478Z" fill="white"/>
</svg>
