<svg width="30" height="30" viewBox="0 0 30 30" fill="none" xmlns="http://www.w3.org/2000/svg">
<path d="M7.297 23.3218H22.9196C24.737 23.3218 25.7917 22.2672 25.7917 20.252V10.562C25.7917 8.54681 24.7276 7.49212 22.6936 7.49212H13.9641C13.2861 7.49212 12.8812 7.34145 12.3538 6.90827L11.8265 6.4751C11.1579 5.92892 10.6682 5.75 9.67946 5.75H7.01449C5.24412 5.75 4.19885 6.78585 4.19885 8.77281V20.252C4.19885 22.2766 5.26296 23.3218 7.297 23.3218ZM6.07281 8.9329C6.07281 8.07596 6.55307 7.62395 7.39117 7.62395H9.18037C9.84896 7.62395 10.2445 7.78404 10.7812 8.21722L11.3086 8.65981C11.9678 9.18715 12.4763 9.37549 13.465 9.37549H22.5711C23.4375 9.37549 23.9177 9.8275 23.9177 10.7315V11.2871H6.07281V8.9329ZM7.41942 21.4479C6.55307 21.4479 6.07281 20.9959 6.07281 20.0825V12.9351H23.9177V20.0919C23.9177 20.9959 23.4375 21.4479 22.5711 21.4479H7.41942Z" fill="#0E8EF3"/>
</svg>
