<svg width="30" height="31" viewBox="0 0 30 31" fill="none" xmlns="http://www.w3.org/2000/svg">
<path d="M9.82338 25.9127H19.2778C20.8368 25.9127 21.6012 25.1382 21.6012 23.4485V16.2973C21.6012 14.7986 20.9977 14.0242 19.7707 13.8633V11.5198C19.7707 7.69775 17.226 5.85715 14.5506 5.85715C11.8752 5.85715 9.33054 7.69775 9.33054 11.5198V13.8633C8.10348 14.0242 7.5 14.7986 7.5 16.2973V23.4485C7.5 25.1382 8.2644 25.9127 9.82338 25.9127ZM11.2617 11.3387C11.2617 8.99522 12.7502 7.70781 14.5506 7.70781C16.3409 7.70781 17.8395 8.99522 17.8395 11.3387V13.8331H11.2617V11.3387ZM10.1452 24.0922C9.70269 24.0922 9.48141 23.881 9.48141 23.3579V16.3878C9.48141 15.8547 9.70269 15.6636 10.1452 15.6636H18.966C19.4086 15.6636 19.6198 15.8547 19.6198 16.3878V23.3579C19.6198 23.881 19.4086 24.0922 18.966 24.0922H10.1452Z" fill="#0E8EF3"/>
</svg>
