<svg width="30" height="31" viewBox="0 0 30 31" fill="none" xmlns="http://www.w3.org/2000/svg">
<path d="M5.18774 24.01C5.18774 26.0534 6.24243 27.1081 8.25764 27.1081H17.0718C19.087 27.1081 20.1417 26.044 20.1417 24.01V22.2679H21.7426C23.7578 22.2679 24.8125 21.2038 24.8125 19.1697V11.721C24.8125 10.478 24.5488 9.68694 23.8049 8.92418L19.1153 4.14042C18.3996 3.41532 17.5521 3.13281 16.4691 3.13281H12.9284C10.9132 3.13281 9.8585 4.19692 9.8585 6.24037V7.97307H8.25764C6.24243 7.97307 5.18774 9.0466 5.18774 11.0806V24.01ZM19.1906 14.1034L14.0867 8.92418C13.371 8.19908 12.7589 8.00133 11.7325 7.98249V6.35338C11.7325 5.49644 12.1845 5.01618 13.0885 5.01618H17.0153V9.48919C17.0153 10.6569 17.6368 11.269 18.7951 11.269H22.9291V19.0473C22.9291 19.9136 22.4771 20.3939 21.5731 20.3939H20.1417V16.7778C20.1417 15.5066 19.9816 14.9133 19.1906 14.1034ZM18.5691 9.25377V5.77895L22.4394 9.71519H19.0305C18.7009 9.71519 18.5691 9.58336 18.5691 9.25377ZM7.0617 23.8876V11.2031C7.0617 10.3367 7.51371 9.85645 8.42714 9.85645H11.2993V14.9792C11.2993 16.3447 11.9679 17.0038 13.3239 17.0038H18.2678V23.8876C18.2678 24.7539 17.8157 25.2342 16.9023 25.2342H8.41772C7.51371 25.2342 7.0617 24.7539 7.0617 23.8876ZM13.5028 15.3559C13.1167 15.3559 12.9472 15.1958 12.9472 14.8003V10.2143L18.0135 15.3559H13.5028Z" fill="#0E8EF3"/>
</svg>
