<svg width="30" height="30" viewBox="0 0 30 30" fill="none" xmlns="http://www.w3.org/2000/svg">
<g clip-path="url(#clip0_2_54851)">
<path d="M20.5312 22.2988C19.2126 23.045 17.756 23.5154 16.25 23.6813V28.75H13.75V23.6813C11.2139 23.397 8.84969 22.2593 7.04518 20.4548C5.24067 18.6503 4.10298 16.2861 3.81871 13.75H6.33746C6.53234 15.0993 7.0397 16.3844 7.81911 17.5029C8.59852 18.6213 9.62842 19.5423 10.8267 20.1923C12.0251 20.8424 13.3586 21.2035 14.7212 21.2469C16.0838 21.2904 17.4377 21.0149 18.675 20.4425L16.7362 18.505C15.8052 18.7742 14.8243 18.8233 13.8711 18.6482C12.9179 18.4732 12.0184 18.0789 11.2438 17.4964C10.4692 16.914 9.84067 16.1594 9.40785 15.2922C8.97503 14.4251 8.7498 13.4692 8.74996 12.5V10.5175L1.74121 3.51001L3.50996 1.74126L28.2587 26.4913L26.49 28.2588L20.5312 22.2988ZM11.2912 13.0588L14.4412 16.2088C13.6486 16.089 12.9151 15.7186 12.3482 15.1518C11.7814 14.5849 11.4109 13.8514 11.2912 13.0588ZM24.2187 18.95L22.415 17.1475C23.0512 16.135 23.485 14.985 23.6612 13.75H26.1812C25.9749 15.6208 25.2999 17.4094 24.2187 18.95ZM20.5812 15.3138L18.6462 13.3788C18.7137 13.0963 18.75 12.8038 18.75 12.5V7.50001C18.7508 6.61839 18.4411 5.76465 17.8751 5.08872C17.309 4.41279 16.523 3.95789 15.6549 3.80391C14.7868 3.64993 13.8923 3.80672 13.1283 4.24674C12.3644 4.68676 11.7799 5.38187 11.4775 6.21001L9.60746 4.33876C10.3013 3.15453 11.3658 2.23164 12.6364 1.71258C13.907 1.19352 15.3131 1.10715 16.6377 1.46681C17.9623 1.82647 19.1316 2.61215 19.9652 3.70256C20.7988 4.79297 21.2503 6.12746 21.25 7.50001V12.5C21.2514 13.4773 21.0228 14.4412 20.5825 15.3138H20.5812Z" fill="#1A2E35"/>
</g>
<defs>
<clipPath id="clip0_2_54851">
<rect width="30" height="30" fill="white"/>
</clipPath>
</defs>
</svg>
