<svg width="36" height="14" viewBox="0 0 36 14" fill="none" xmlns="http://www.w3.org/2000/svg">
<path d="M4.08127 13.6444L0.428378 9.99149C0.166712 9.73006 0.0139462 9.37911 0.000908658 9.00946C-0.0121289 8.6398 0.115532 8.27896 0.358129 7.99975C0.778584 7.51731 1.13086 7.13198 1.41598 6.84686C10.5451 -2.28229 25.3447 -2.28229 34.4739 6.84686C34.759 7.13198 35.1123 7.51628 35.5317 7.99975C35.7743 8.27896 35.902 8.6398 35.8889 9.00946C35.8759 9.37911 35.7231 9.73006 35.4615 9.99149L31.8086 13.6444C31.6806 13.7727 31.5094 13.8488 31.3285 13.8579C31.1475 13.8671 30.9695 13.8087 30.8292 13.694C30.5679 13.4801 30.3571 13.3128 30.1929 13.1898C28.5548 11.9624 26.7406 10.9896 24.8117 10.3045C24.5069 10.196 24.3241 9.88508 24.3778 9.5669L25.0141 5.74458C20.475 3.93157 15.4128 3.93157 10.8736 5.74458L11.5079 9.5607C11.5338 9.71664 11.5041 9.87671 11.4241 10.013C11.3441 10.1493 11.2187 10.2532 11.0699 10.3066C9.14235 10.9927 7.32952 11.9661 5.69284 13.194C5.52859 13.3169 5.31681 13.4832 5.05855 13.696C4.91818 13.8103 4.7404 13.8684 4.55965 13.859C4.3789 13.8497 4.20806 13.7736 4.08024 13.6454L4.08127 13.6444Z" fill="white"/>
</svg>
