<svg width="24" height="24" viewBox="0 0 24 24" fill="none" xmlns="http://www.w3.org/2000/svg">
<path d="M23.6925 9.28994C23.6479 9.09638 23.5986 8.90469 23.5446 8.71486C23.4099 8.24032 23.2466 7.77776 23.0568 7.32913C22.9809 7.14966 22.9008 6.97245 22.8166 6.7976C22.7745 6.71017 22.7312 6.62331 22.687 6.53701C20.6993 2.65611 16.6598 0 12 0H11.9999H11.9998C7.34005 0 3.30048 2.65611 1.31279 6.53693C1.26859 6.62315 1.22545 6.71009 1.18327 6.79752C1.05691 7.0598 0.939769 7.32743 0.832346 7.59991C0.689061 7.96314 0.563019 8.33519 0.455192 8.71478C0.401278 8.90469 0.351978 9.09638 0.307293 9.28986C0.10629 10.1608 0 11.068 0 12C0 12.932 0.10629 13.8391 0.307293 14.7101C0.351978 14.9036 0.401278 15.0953 0.455192 15.2851C0.563019 15.6647 0.689142 16.0368 0.832346 16.4001C0.939769 16.6726 1.05691 16.9402 1.18327 17.2025C1.22545 17.2899 1.26859 17.3768 1.31279 17.4631C3.30056 21.3439 7.34005 24 11.9999 24H12H12C16.6599 24 20.6994 21.344 22.6871 17.4631C22.7313 17.3769 22.7745 17.2899 22.8166 17.2025C22.9009 17.0276 22.981 16.8503 23.0569 16.671C23.2467 16.2223 23.4099 15.7598 23.5447 15.2852C23.5986 15.0953 23.6479 14.9036 23.6926 14.7101C23.8936 13.8392 23.9999 12.932 23.9999 12C23.9999 11.068 23.8935 10.1609 23.6925 9.28994ZM17.3832 12L11.9999 19.0698L6.61659 12L11.9999 4.93012L17.3832 12Z" fill="#0E8EF3"/>
</svg>
