<svg width="60" height="60" viewBox="0 0 60 60" fill="none" xmlns="http://www.w3.org/2000/svg">
<path d="M58.1338 45.2773L38.4754 6.06584C36.7227 2.56988 33.3595 0.821899 29.9962 0.821899C26.633 0.821899 23.2697 2.56988 21.517 6.0186L1.85858 45.2301C-0.794121 50.474 1.95332 56.1431 6.59556 58.2218H6.54819C6.54819 58.2218 11.4746 61.0564 18.6275 57.088C22.796 55.529 27.4382 54.4896 29.9962 54.6314C32.5542 54.4896 37.1964 55.529 41.3649 57.088C48.5178 61.0564 53.4442 58.2218 53.4442 58.2218H53.3968C58.0864 56.1904 60.7865 50.5212 58.1338 45.2773ZM24.5961 8.42798L24.9276 7.71934C25.9698 5.64066 28.0067 4.60132 29.9962 4.60132C32.0331 4.60132 34.0226 5.59342 35.0648 7.71934L35.3964 8.42798C36.3437 10.8846 36.8648 13.483 36.8648 16.1285C36.8648 24.3015 34.3068 32.3328 29.9488 39.0885C25.6382 32.2856 23.0329 24.3015 23.0329 16.1285C23.0802 13.483 23.6487 10.9318 24.5961 8.42798ZM11.3799 55.3872C7.44821 55.3872 3.13757 51.2299 5.2692 46.978L19.3854 18.8214C19.9065 27.2778 22.8907 35.4981 27.6277 42.49C23.696 48.0646 18.438 55.4345 11.3799 55.3872ZM29.9962 50.663C28.1962 50.663 27.0119 50.9464 25.6856 51.3244C27.0593 49.8126 28.4804 47.6867 29.9962 45.5608C31.512 47.6867 32.8858 49.8126 34.3069 51.3244C32.9805 50.9464 31.7963 50.663 29.9962 50.663ZM48.6125 55.3872C41.6018 55.4345 36.3437 48.0646 32.3647 42.4427C37.1017 35.4981 40.086 27.2306 40.607 18.7741L54.7232 46.978C56.8548 51.2299 52.5442 55.3872 48.6125 55.3872Z" fill="#0E8EF3"/>
</svg>
