<svg width="25" height="20" viewBox="0 0 25 20" fill="none" xmlns="http://www.w3.org/2000/svg">
<path d="M3.93187 19.8729H20.4432C22.8796 19.8729 24.1602 18.6037 24.1602 16.1899V4.54021C24.1602 2.11507 22.8796 0.857178 20.4432 0.857178H3.93187C1.48407 0.857178 0.214844 2.11507 0.214844 4.54021V16.1899C0.214844 18.615 1.48407 19.8729 3.93187 19.8729ZM4.06786 17.6518C3.01395 17.6518 2.3577 17.0965 2.3577 15.9973V4.72153C2.3577 3.62228 3.01395 2.76375 4.06786 2.76375H20.3072C21.3498 2.76375 22.1791 3.62228 22.1791 4.72153V15.9973C22.1791 17.0965 21.3498 17.6518 20.3072 17.6518H18.8C17.8027 15.3966 15.2643 13.8668 12.2385 13.8668C9.2241 13.8668 6.68564 15.3966 5.67706 17.6518H4.06786ZM12.2385 12.2349C14.2104 12.2576 15.7402 10.5804 15.7402 8.41589C15.7402 6.35339 14.199 4.65353 12.2385 4.65353C10.2893 4.65353 8.73681 6.35339 8.74814 8.41589C8.74814 10.5804 10.278 12.2122 12.2385 12.2349Z" fill="#0E8EF3"/>
</svg>
