<svg width="24" height="24" viewBox="0 0 24 24" fill="none" xmlns="http://www.w3.org/2000/svg">
<path fill-rule="evenodd" clip-rule="evenodd" d="M0 12.3125C0 5.92671 5.17671 0.75 11.5625 0.75C17.9483 0.75 23.125 5.92671 23.125 12.3125C23.125 18.6983 17.9483 23.875 11.5625 23.875C5.17671 23.875 0 18.6983 0 12.3125ZM11.5625 2.39444C6.08491 2.39444 1.64444 6.83491 1.64444 12.3125C1.64444 14.9067 2.64061 17.2685 4.271 19.0358L4.36161 19.134L4.4717 19.0583C6.5331 17.6399 8.98793 16.8604 11.5625 16.8604C14.1373 16.8604 16.5925 17.6401 18.6543 19.0569L18.7643 19.1326L18.8549 19.0344C20.4848 17.2676 21.4806 14.9062 21.4806 12.3125C21.4806 6.83491 17.0401 2.39444 11.5625 2.39444ZM7.07882 10.6038C7.07882 8.12676 9.08544 6.12014 11.5625 6.12014C14.0396 6.12014 16.0462 8.12676 16.0462 10.6038C16.0462 13.0809 14.0396 15.0875 11.5625 15.0875C9.08544 15.0875 7.07882 13.0809 7.07882 10.6038ZM11.5625 7.76458C9.99365 7.76458 8.72326 9.03496 8.72326 10.6038C8.72326 12.1727 9.99365 13.4431 11.5625 13.4431C13.1314 13.4431 14.4017 12.1727 14.4017 10.6038C14.4017 9.03496 13.1314 7.76458 11.5625 7.76458ZM11.5625 18.5049C9.49687 18.5049 7.52176 19.0813 5.8212 20.1382L5.62467 20.2603L5.81309 20.3947C7.43472 21.5507 9.41945 22.2306 11.5625 22.2306C13.7051 22.2306 15.6895 21.551 17.3111 20.3956L17.4996 20.2613L17.3031 20.1391C15.6028 19.0811 13.6279 18.5049 11.5625 18.5049Z" fill="#0E8EF3"/>
</svg>
