<svg width="30" height="31" viewBox="0 0 30 31" fill="none" xmlns="http://www.w3.org/2000/svg">
<path d="M6.93132 24.8729H23.4426C25.8791 24.8729 27.1597 23.6037 27.1597 21.1899V9.54021C27.1597 7.11507 25.8791 5.85718 23.4426 5.85718H6.93132C4.48352 5.85718 3.21429 7.11507 3.21429 9.54021V21.1899C3.21429 23.615 4.48352 24.8729 6.93132 24.8729ZM7.06731 22.6518C6.0134 22.6518 5.35715 22.0965 5.35715 20.9973V9.72153C5.35715 8.62228 6.0134 7.76375 7.06731 7.76375H23.3066C24.3492 7.76375 25.1786 8.62228 25.1786 9.72153V20.9973C25.1786 22.0965 24.3492 22.6518 23.3066 22.6518H21.7994C20.8022 20.3966 18.2637 18.8668 15.238 18.8668C12.2236 18.8668 9.68509 20.3966 8.67651 22.6518H7.06731ZM15.238 17.2349C17.2098 17.2576 18.7397 15.5804 18.7397 13.4159C18.7397 11.3534 17.1985 9.65353 15.238 9.65353C13.2888 9.65353 11.7363 11.3534 11.7476 13.4159C11.7476 15.5804 13.2775 17.2122 15.238 17.2349Z" fill="#0E8EF3"/>
</svg>
