<svg width="30" height="30" viewBox="0 0 30 30" fill="none" xmlns="http://www.w3.org/2000/svg">
<path d="M5.18762 23.51C5.18762 25.5534 6.24231 26.6081 8.25752 26.6081H17.0717C19.0869 26.6081 20.1416 25.544 20.1416 23.51V21.7679H21.7425C23.7577 21.7679 24.8123 20.7038 24.8123 18.6697V11.221C24.8123 9.97796 24.5487 9.18694 23.8047 8.42418L19.1151 3.64042C18.3995 2.91532 17.552 2.63281 16.469 2.63281H12.9283C10.9131 2.63281 9.85838 3.69692 9.85838 5.74037V7.47307H8.25752C6.24231 7.47307 5.18762 8.5466 5.18762 10.5806V23.51ZM19.1905 13.6034L14.0865 8.42418C13.3709 7.69908 12.7588 7.50133 11.7323 7.48249V5.85338C11.7323 4.99644 12.1843 4.51618 13.0884 4.51618H17.0152V8.98919C17.0152 10.1569 17.6367 10.769 18.795 10.769H22.929V18.5473C22.929 19.4136 22.477 19.8939 21.5729 19.8939H20.1416V16.2778C20.1416 15.0066 19.9815 14.4133 19.1905 13.6034ZM18.569 8.75377V5.27895L22.4393 9.21519H19.0304C18.7008 9.21519 18.569 9.08336 18.569 8.75377ZM7.06158 23.3876V10.7031C7.06158 9.8367 7.51358 9.35645 8.42702 9.35645H11.2992V14.4792C11.2992 15.8447 11.9678 16.5038 13.3238 16.5038H18.2676V23.3876C18.2676 24.2539 17.8156 24.7342 16.9022 24.7342H8.4176C7.51358 24.7342 7.06158 24.2539 7.06158 23.3876ZM13.5027 14.8559C13.1166 14.8559 12.9471 14.6958 12.9471 14.3003V9.71429L18.0134 14.8559H13.5027Z" fill="#0E8EF3"/>
</svg>
