<svg width="24" height="24" viewBox="0 0 24 24" fill="none" xmlns="http://www.w3.org/2000/svg">
<mask id="mask0_1512_12942" style="mask-type:alpha" maskUnits="userSpaceOnUse" x="0" y="0" width="24" height="24">
<rect width="24" height="24" fill="#C4C4C4"/>
</mask>
<g mask="url(#mask0_1512_12942)">
<path d="M19.6667 4.85714H16.5238V3.52381C16.5238 2.66667 15.8571 2 15 2H9.28571C8.33333 2 7.66667 2.66667 7.66667 3.52381V4.7619H4.52381C3.7619 4.7619 3 5.52381 3 6.38095V8.28571C3 9.14286 3.66667 9.80952 4.52381 9.80952H4.90476V10.0952L5.7619 20.4762C5.7619 20.8571 5.95238 21.2381 6.2381 21.5238C6.52381 21.8095 7 22 7.38095 22H16.7143C17.5714 22 18.2381 21.3333 18.2381 20.4762L19.1905 9.80952H19.5714C20.4286 9.80952 21.0952 9.14286 21.0952 8.28571V6.38095C21.1905 5.52381 20.5238 4.85714 19.6667 4.85714ZM6.2381 9.90476H17.8571V10.0952L17 20.6667H7.19048V20.381L6.2381 9.90476ZM9 4.7619V3.33333H15.0952V4.7619H9ZM19.8571 6.19048V8.57143H4.33333V6.19048H19.8571Z" fill="white"/>
</g>
</svg>
