<svg width="19" height="24" viewBox="0 0 19 24" fill="none" xmlns="http://www.w3.org/2000/svg">
<path d="M11.9996 15.8467C12.2633 15.8391 12.5043 15.7412 12.7002 15.5303L18.4256 9.66922C18.5914 9.50349 18.6818 9.29255 18.6818 9.04395C18.6818 8.54674 18.29 8.14746 17.7928 8.14746C17.5518 8.14746 17.3182 8.2454 17.1449 8.41867L12.0071 13.6996L6.85421 8.41867C6.68094 8.25293 6.45494 8.14746 6.20633 8.14746C5.70912 8.14746 5.31738 8.54674 5.31738 9.04395C5.31738 9.29255 5.40778 9.50349 5.57352 9.66922L11.3065 15.5303C11.5099 15.7412 11.7359 15.8467 11.9996 15.8467Z" fill="#CFD2D6"/>
</svg>
