<svg width="40" height="40" viewBox="0 0 40 40" fill="none" xmlns="http://www.w3.org/2000/svg">
<path opacity="0.1" fill-rule="evenodd" clip-rule="evenodd" d="M20 40C31.0457 40 40 31.0457 40 20C40 8.9543 31.0457 0 20 0C8.9543 0 0 8.9543 0 20C0 31.0457 8.9543 40 20 40Z" fill="#0E8EF3"/>
<path d="M19.9996 19.8698C21.8227 19.8698 23.2992 18.2577 23.2992 16.2839C23.2992 14.3403 21.8227 12.7959 19.9996 12.7959C18.184 12.7959 16.6924 14.3629 16.6999 16.299C16.7074 18.2652 18.1765 19.8698 19.9996 19.8698ZM19.9996 18.5515C18.96 18.5515 18.0785 17.5646 18.0785 16.299C18.071 15.0635 18.9524 14.1143 19.9996 14.1143C21.0543 14.1143 21.9206 15.0484 21.9206 16.2839C21.9206 17.5495 21.0467 18.5515 19.9996 18.5515ZM15.2987 26.876H24.6929C25.9962 26.876 26.6215 26.4616 26.6215 25.5727C26.6215 23.501 24.0375 20.7437 19.9996 20.7437C15.9616 20.7437 13.3701 23.501 13.3701 25.5727C13.3701 26.4616 13.9954 26.876 15.2987 26.876ZM15.0652 25.5576C14.8843 25.5576 14.8165 25.4974 14.8165 25.3617C14.8165 24.2091 16.6773 22.0621 19.9996 22.0621C23.3143 22.0621 25.1751 24.2091 25.1751 25.3617C25.1751 25.4974 25.1073 25.5576 24.9265 25.5576H15.0652Z" fill="#0E8EF3"/>
</svg>
