<svg width="22" height="21" viewBox="0 0 22 21" fill="none" xmlns="http://www.w3.org/2000/svg">
<path d="M0.845679 20.6718H2.33802C2.67977 20.6718 2.81648 20.6034 3.0671 20.4098L3.83036 19.8288C4.25186 20.2503 4.87841 20.3414 5.50496 20.068L9.27568 18.4959C9.56048 18.382 9.70857 18.2681 9.89084 18.0858L20.8954 7.16099C21.989 6.06737 21.989 4.7573 20.884 3.6409L18.412 1.15746C17.307 0.0524495 15.9969 0.0410576 14.9033 1.13468L3.89871 12.0481C3.70505 12.2418 3.60252 12.3785 3.47721 12.6747L1.88234 16.434C1.62033 17.0378 1.68868 17.6301 2.11018 18.0972L0.469747 19.7946C0.116598 20.1705 0.287476 20.6718 0.845679 20.6718ZM16.1678 2.63841C16.464 2.35361 16.8171 2.34222 17.0905 2.62702L19.4145 4.96236C19.6993 5.24715 19.6879 5.58891 19.3803 5.8851L18.6398 6.62557L15.4159 3.39028L16.1678 2.63841ZM5.91507 12.8342L14.1856 4.6206L17.3981 7.8559L9.13898 16.0695L5.91507 12.8342ZM5.27713 18.0516C5.06068 18.1314 4.91259 18.1314 4.71892 17.9377L4.00123 17.2314C3.81896 17.0492 3.81896 16.8783 3.89871 16.6846L4.92398 14.3037L7.65803 17.0606L5.27713 18.0516Z" fill="#0E8EF3"/>
</svg>
