<svg width="32" height="32" viewBox="0 0 32 32" fill="none" xmlns="http://www.w3.org/2000/svg">
<g clip-path="url(#clip0_146_4987)">
<path d="M16.0002 15.9998C14.5335 15.9998 13.3335 14.7998 13.3335 13.3332C13.3335 11.8665 14.5335 10.6665 16.0002 10.6665C17.4668 10.6665 18.6668 11.8665 18.6668 13.3332C18.6668 14.7998 17.4668 15.9998 16.0002 15.9998ZM24.0002 13.5998C24.0002 8.75984 20.4668 5.33317 16.0002 5.33317C11.5335 5.33317 8.00016 8.75984 8.00016 13.5998C8.00016 16.7198 10.6002 20.8532 16.0002 25.7865C21.4002 20.8532 24.0002 16.7198 24.0002 13.5998ZM16.0002 2.6665C21.6002 2.6665 26.6668 6.95984 26.6668 13.5998C26.6668 18.0265 23.1068 23.2665 16.0002 29.3332C8.8935 23.2665 5.3335 18.0265 5.3335 13.5998C5.3335 6.95984 10.4002 2.6665 16.0002 2.6665Z" fill="#0E8EF3"/>
</g>
<defs>
<clipPath id="clip0_146_4987">
<rect width="32" height="32" fill="white"/>
</clipPath>
</defs>
</svg>
