<svg width="30" height="31" viewBox="0 0 30 31" fill="none" xmlns="http://www.w3.org/2000/svg">
<path d="M22.3073 24.0942C22.3073 23.5104 21.8836 23.0678 21.2997 23.0678H15.094C15.3483 23.0396 15.5931 22.9265 15.7815 22.7288L21.9777 16.5231C22.2038 16.2971 22.3073 16.0428 22.3073 15.7603C22.3073 15.1765 21.8742 14.7433 21.2997 14.7433C21.0078 14.7433 20.7441 14.8657 20.5558 15.0541L18.4088 17.1729L15.9698 19.9037L16.0451 17.8697V6.23989C16.0451 5.60896 15.6214 5.17578 14.9999 5.17578C14.3783 5.17578 13.9546 5.60896 13.9546 6.23989V17.8697L14.0299 19.8943L11.591 17.1729L9.44392 15.0541C9.25558 14.8657 8.99191 14.7433 8.69057 14.7433C8.11614 14.7433 7.69238 15.1765 7.69238 15.7603C7.69238 16.0428 7.79597 16.2971 8.02197 16.5231L14.2183 22.7288C14.4066 22.9265 14.6514 23.0396 14.9057 23.0678H8.71882C8.12556 23.0678 7.69238 23.5104 7.69238 24.0942C7.69238 24.6781 8.12556 25.1207 8.71882 25.1207H21.2997C21.8836 25.1207 22.3073 24.6781 22.3073 24.0942Z" fill="#0E8EF3"/>
</svg>
