<svg width="24" height="24" viewBox="0 0 24 24" fill="none" xmlns="http://www.w3.org/2000/svg">
<mask id="mask0" mask-type="alpha" maskUnits="userSpaceOnUse" x="0" y="0" width="24" height="24">
<rect width="24" height="24" fill="#C4C4C4"/>
</mask>
<g mask="url(#mask0)">
<path d="M19.5804 15.7424L17.3429 13.5095C16.5438 12.7121 15.1853 13.0311 14.8656 14.0677C14.6259 14.7855 13.8267 15.1842 13.1075 15.0247C11.5093 14.626 9.35166 12.5526 8.95209 10.878C8.71236 10.1602 9.19183 9.36278 9.91104 9.12358C10.9499 8.8046 11.2696 7.44895 10.4704 6.6515L8.23288 4.41866C7.59358 3.86045 6.63464 3.86045 6.07525 4.41866L4.55691 5.9338C3.03858 7.52869 4.71674 11.7551 8.47262 15.5031C12.2285 19.2511 16.4639 21.0055 18.0621 19.4106L19.5804 17.8955C20.1399 17.2575 20.1399 16.3006 19.5804 15.7424Z" fill="#1A2E35"/>
<path d="M17.5154 10C17.4366 10 17.3657 9.97242 17.3027 9.91726C17.2475 9.85423 17.2199 9.78331 17.2199 9.70452V6.72098H14.2955C14.2167 6.72098 14.1458 6.6934 14.0827 6.63824C14.0276 6.57521 14 6.50429 14 6.4255V5.51541C14 5.42873 14.0276 5.35782 14.0827 5.30266C14.1379 5.23962 14.2088 5.2081 14.2955 5.2081H17.2199V2.29548C17.2199 2.20881 17.2475 2.13789 17.3027 2.08274C17.3657 2.02758 17.4366 2 17.5154 2H18.5319C18.6185 2 18.6895 2.02758 18.7446 2.08274C18.8077 2.13789 18.8392 2.20881 18.8392 2.29548V5.2081H21.74C21.8267 5.2081 21.8976 5.23962 21.9527 5.30266C22.0158 5.35782 22.0473 5.42873 22.0473 5.51541V6.4255C22.0473 6.51217 22.0158 6.58309 21.9527 6.63824C21.8976 6.6934 21.8267 6.72098 21.74 6.72098H18.8392V9.70452C18.8392 9.79119 18.8077 9.86211 18.7446 9.91726C18.6895 9.97242 18.6185 10 18.5319 10H17.5154Z" fill="#1A2E35"/>
</g>
</svg>
