<svg width="30" height="31" viewBox="0 0 30 31" fill="none" xmlns="http://www.w3.org/2000/svg">
<path d="M15.0432 13.6166C15.6187 13.6166 15.9535 13.9305 15.964 14.5479L16.121 19.5806C16.1419 20.1875 15.6815 20.6374 15.0328 20.6374C14.3841 20.6374 13.9342 20.198 13.9551 19.5911L14.1016 14.5374C14.1225 13.941 14.4573 13.6166 15.0432 13.6166ZM15.0432 10.1429C15.7234 10.1429 16.2779 10.6242 16.2779 11.2938C16.2779 11.953 15.7338 12.4448 15.0432 12.4448C14.3631 12.4448 13.8086 11.953 13.8086 11.2938C13.8086 10.6346 14.3736 10.1429 15.0432 10.1429Z" fill="#0E8EF3"/>
<path d="M25.7137 15.5C25.7137 21.4173 20.9168 26.2143 14.9994 26.2143C9.08211 26.2143 4.28516 21.4173 4.28516 15.5C4.28516 9.58267 9.08211 4.78572 14.9994 4.78572C20.9168 4.78572 25.7137 9.58267 25.7137 15.5ZM6.10658 15.5C6.10658 20.4114 10.0881 24.3929 14.9994 24.3929C19.9108 24.3929 23.8923 20.4114 23.8923 15.5C23.8923 10.5886 19.9108 6.60715 14.9994 6.60715C10.0881 6.60715 6.10658 10.5886 6.10658 15.5Z" fill="#0E8EF3"/>
</svg>
