<svg width="30" height="31" viewBox="0 0 30 31" fill="none" xmlns="http://www.w3.org/2000/svg">
<path d="M10.6776 24.8957H19.3316C20.7818 24.8957 21.7141 24.02 21.7894 22.5698L22.4204 9.00949H23.4562C23.9365 9.00949 24.3037 8.63281 24.3037 8.16197C24.3037 7.69113 23.9271 7.33329 23.4562 7.33329H19.2751V5.92076C19.2751 4.47056 18.3523 3.62305 16.7797 3.62305H13.2013C11.6287 3.62305 10.7058 4.47056 10.7058 5.92076V7.33329H6.54356C6.07272 7.33329 5.69604 7.70054 5.69604 8.16197C5.69604 8.64223 6.07272 9.00949 6.54356 9.00949H7.57942L8.21034 22.5698C8.28568 24.0294 9.20853 24.8957 10.6776 24.8957ZM12.4668 6.00551C12.4668 5.52525 12.8058 5.2145 13.3237 5.2145H16.6573C17.1752 5.2145 17.5142 5.52525 17.5142 6.00551V7.33329H12.4668V6.00551ZM10.8659 23.2101C10.348 23.2101 9.9713 22.824 9.94305 22.2684L9.31212 9.00949H20.6594L20.0473 22.2684C20.0285 22.8334 19.6612 23.2101 19.1245 23.2101H10.8659ZM12.2219 21.694C12.6268 21.694 12.8811 21.4397 12.8717 21.0631L12.5892 11.213C12.5798 10.8364 12.3161 10.5915 11.93 10.5915C11.5345 10.5915 11.2802 10.8458 11.2897 11.2224L11.5722 21.0725C11.5816 21.4492 11.8452 21.694 12.2219 21.694ZM14.9999 21.694C15.3954 21.694 15.6685 21.4492 15.6685 21.0725V11.2224C15.6685 10.8458 15.3954 10.5915 14.9999 10.5915C14.6044 10.5915 14.3407 10.8458 14.3407 11.2224V21.0725C14.3407 21.4492 14.6044 21.694 14.9999 21.694ZM17.7779 21.7034C18.1545 21.7034 18.4182 21.4492 18.4276 21.0725L18.7101 11.2224C18.7196 10.8458 18.4653 10.6009 18.0698 10.6009C17.6837 10.6009 17.42 10.8458 17.4106 11.2224L17.1281 21.0725C17.1187 21.4397 17.3729 21.7034 17.7779 21.7034Z" fill="#E81E4E"/>
</svg>
