<svg width="42" height="31" viewBox="0 0 42 31" fill="none" xmlns="http://www.w3.org/2000/svg">
<path d="M19.3303 17.832H12.6652C12.2044 17.832 11.832 18.2044 11.832 18.6652C11.832 19.1259 12.2044 19.4983 12.6652 19.4983H19.3303C19.7902 19.4983 20.1635 19.1259 20.1635 18.6652C20.1635 18.2044 19.7911 17.832 19.3303 17.832Z" fill="#89909A"/>
<path d="M19.3303 15.0015H12.6652C12.2044 15.0015 11.832 15.3739 11.832 15.8346C11.832 16.2953 12.2044 16.6678 12.6652 16.6678H19.3303C19.7902 16.6678 20.1635 16.2953 20.1635 15.8346C20.1635 15.3739 19.7911 15.0015 19.3303 15.0015Z" fill="#89909A"/>
<path fill-rule="evenodd" clip-rule="evenodd" d="M25.266 16.5408C25.0039 11.5474 20.9923 7.66743 16.0277 7.75135C11.5056 7.82779 7.90396 10.7134 7.25699 15.1106C7.01392 16.7627 7.13055 18.4341 7.31419 19.7069C7.40553 20.34 7.51232 20.8668 7.59575 21.2335C7.63743 21.4167 7.67317 21.5594 7.69809 21.6549C7.71055 21.7027 7.72029 21.7386 7.7267 21.7618L7.73363 21.7867C7.73619 21.795 7.73907 21.8048 7.7422 21.8159C7.74877 21.8392 7.75644 21.8687 7.76458 21.9042C7.78086 21.9752 7.79898 22.0704 7.8139 22.1896C7.84376 22.4284 7.86053 22.7617 7.82496 23.1887C7.77158 23.8294 7.6011 24.673 7.18781 25.7182C7.42179 25.6604 7.67755 25.5917 7.94243 25.5169C8.5131 25.3556 9.09617 25.1742 9.53843 25.0324C9.7591 24.9617 9.9437 24.9012 10.0729 24.8584C10.1375 24.837 10.1882 24.8201 10.2225 24.8085L10.2615 24.7954L10.2736 24.7913L10.6051 24.679L10.9029 24.8596L10.9039 24.8602L10.9065 24.8617L10.926 24.8731C10.9445 24.8839 10.9739 24.9007 11.0135 24.9226C11.093 24.9665 11.2134 25.0308 11.3699 25.108C11.6835 25.2625 12.1395 25.4674 12.6997 25.6631C13.8264 26.0567 15.3391 26.4011 16.9469 26.2546C22.0157 25.7925 25.5288 21.5467 25.266 16.5408ZM10.4392 26.3171C10.5156 26.3573 10.605 26.4033 10.7068 26.4534C11.065 26.63 11.5777 26.86 12.2049 27.0791C13.4531 27.5152 15.1904 27.9209 17.0831 27.7484C22.9844 27.2104 27.0674 22.2427 26.764 16.4621C26.4613 10.6973 21.8092 6.1534 16.0023 6.25156C10.8253 6.33907 6.53802 9.69243 5.77297 14.8923C5.50109 16.7402 5.63446 18.5689 5.82956 19.9211C5.92758 20.6004 6.04235 21.1673 6.13313 21.5663C6.17856 21.7659 6.21808 21.924 6.24666 22.0335C6.26095 22.0883 6.27251 22.131 6.28072 22.1608L6.29044 22.1956L6.29326 22.2055L6.29414 22.2086L6.29445 22.2096C6.2945 22.2098 6.29466 22.2103 7.01498 22.0015L6.29445 22.2096L6.2988 22.2246L6.29936 22.2263C6.30009 22.2292 6.30117 22.2335 6.30251 22.2394C6.30772 22.2621 6.31696 22.3075 6.32549 22.3758C6.34253 22.512 6.35704 22.7412 6.33013 23.0642C6.27643 23.7088 6.05643 24.7416 5.34414 26.166C5.25878 26.3367 5.15214 26.7123 5.42366 27.0579C5.62662 27.3161 5.91171 27.367 6.00145 27.381C6.2303 27.4169 6.49624 27.3852 6.70134 27.3529C7.15583 27.2813 7.765 27.1257 8.35031 26.9604C8.94418 26.7925 9.54541 26.6054 9.99632 26.4608C10.168 26.4058 10.3185 26.3568 10.4392 26.3171Z" fill="#89909A"/>
<circle cx="31" cy="11" r="10" fill="#E9445A" stroke="white" stroke-width="2"/>
<path d="M30.848 16.13C30.172 16.13 29.587 16.0217 29.093 15.805C28.599 15.5797 28.222 15.2893 27.962 14.934C27.7107 14.5787 27.5763 14.2103 27.559 13.829C27.559 13.751 27.585 13.6903 27.637 13.647C27.689 13.595 27.754 13.569 27.832 13.569H28.417C28.5123 13.569 28.5903 13.5907 28.651 13.634C28.7117 13.6687 28.7593 13.7423 28.794 13.855C28.9067 14.297 29.1493 14.609 29.522 14.791C29.9033 14.973 30.3497 15.064 30.861 15.064C31.485 15.064 31.979 14.9167 32.343 14.622C32.7157 14.3187 32.902 13.8897 32.902 13.335C32.902 12.2777 32.2563 11.749 30.965 11.749H29.743C29.6563 11.749 29.5827 11.723 29.522 11.671C29.47 11.6103 29.444 11.5367 29.444 11.45V11.112C29.444 10.982 29.4917 10.8693 29.587 10.774L32.122 7.966H28.274C28.1873 7.966 28.1137 7.94 28.053 7.888C28.001 7.836 27.975 7.76667 27.975 7.68V7.212C27.975 7.11667 28.001 7.043 28.053 6.991C28.1137 6.93033 28.1873 6.9 28.274 6.9H33.422C33.5173 6.9 33.591 6.93033 33.643 6.991C33.7037 7.043 33.734 7.11667 33.734 7.212V7.641C33.734 7.73633 33.6907 7.836 33.604 7.94L31.069 10.787H31.277C32.161 10.813 32.8587 11.0427 33.37 11.476C33.89 11.9093 34.15 12.542 34.15 13.374C34.15 13.946 34.007 14.44 33.721 14.856C33.4437 15.2633 33.0537 15.5797 32.551 15.805C32.0483 16.0217 31.4807 16.13 30.848 16.13Z" fill="white"/>
</svg>
