<svg width="31" height="28" viewBox="0 0 31 28" fill="none" xmlns="http://www.w3.org/2000/svg">
<path d="M19.3303 14.832H12.6652C12.2044 14.832 11.832 15.2044 11.832 15.6652C11.832 16.1259 12.2044 16.4983 12.6652 16.4983H19.3303C19.7902 16.4983 20.1635 16.1259 20.1635 15.6652C20.1635 15.2044 19.7911 14.832 19.3303 14.832Z" fill="#0E8EF3"/>
<path d="M19.3303 12.0015H12.6652C12.2044 12.0015 11.832 12.3739 11.832 12.8346C11.832 13.2953 12.2044 13.6678 12.6652 13.6678H19.3303C19.7902 13.6678 20.1635 13.2953 20.1635 12.8346C20.1635 12.3739 19.7911 12.0015 19.3303 12.0015Z" fill="#0E8EF3"/>
<path fill-rule="evenodd" clip-rule="evenodd" d="M25.2661 13.5408C25.004 8.54736 20.9924 4.66743 16.0278 4.75135C11.5057 4.82779 7.90408 7.71337 7.25712 12.1106C7.01404 13.7627 7.13067 15.4341 7.31431 16.7069C7.40566 17.34 7.51244 17.8668 7.59587 18.2335C7.63755 18.4167 7.6733 18.5594 7.69822 18.6549C7.71067 18.7027 7.72041 18.7386 7.72682 18.7618L7.73375 18.7867C7.73631 18.795 7.73919 18.8048 7.74232 18.8159C7.74889 18.8392 7.75656 18.8687 7.7647 18.9042C7.78099 18.9752 7.7991 19.0704 7.81402 19.1896C7.84389 19.4284 7.86065 19.7617 7.82508 20.1887C7.7717 20.8294 7.60122 21.673 7.18793 22.7182C7.42191 22.6604 7.67767 22.5917 7.94255 22.5169C8.51322 22.3556 9.0963 22.1742 9.53855 22.0324C9.75922 21.9617 9.94383 21.9012 10.073 21.8584C10.1376 21.837 10.1883 21.8201 10.2227 21.8085L10.2617 21.7954L10.2737 21.7913L10.6053 21.679L10.9031 21.8596L10.904 21.8602L10.9066 21.8617L10.9261 21.8731C10.9446 21.8839 10.974 21.9007 11.0137 21.9226C11.0931 21.9665 11.2135 22.0308 11.37 22.108C11.6836 22.2625 12.1397 22.4674 12.6998 22.6631C13.8265 23.0567 15.3392 23.4011 16.947 23.2546C22.0158 22.7925 25.5289 18.5467 25.2661 13.5408ZM10.4393 23.3171C10.5157 23.3573 10.6052 23.4033 10.7069 23.4534C11.0652 23.63 11.5778 23.86 12.2051 24.0791C13.4532 24.5152 15.1905 24.9209 17.0832 24.7484C22.9845 24.2104 27.0675 19.2427 26.7641 13.4621C26.4614 7.69727 21.8093 3.1534 16.0024 3.25156C10.8255 3.33907 6.53815 6.69243 5.77309 11.8923C5.50121 13.7402 5.63458 15.5689 5.82968 16.9211C5.9277 17.6004 6.04247 18.1673 6.13326 18.5663C6.17868 18.7659 6.21821 18.924 6.24678 19.0335C6.26107 19.0883 6.27264 19.131 6.28084 19.1608L6.29056 19.1956L6.29339 19.2055L6.29427 19.2086L6.29457 19.2096C6.29462 19.2098 6.29478 19.2103 7.0151 19.0015L6.29457 19.2096L6.29892 19.2246L6.29948 19.2263C6.30022 19.2292 6.30129 19.2335 6.30263 19.2394C6.30784 19.2621 6.31708 19.3075 6.32561 19.3758C6.34265 19.512 6.35717 19.7412 6.33026 20.0642C6.27655 20.7088 6.05656 21.7416 5.34426 23.166C5.2589 23.3367 5.15226 23.7123 5.42378 24.0579C5.62674 24.3161 5.91183 24.367 6.00157 24.381C6.23042 24.4169 6.49637 24.3852 6.70146 24.3529C7.15595 24.2813 7.76512 24.1257 8.35043 23.9604C8.9443 23.7925 9.54553 23.6054 9.99645 23.4608C10.1681 23.4058 10.3186 23.3568 10.4393 23.3171Z" fill="#0E8EF3"/>
</svg>
