<svg width="40" height="40" viewBox="0 0 40 40" fill="none" xmlns="http://www.w3.org/2000/svg">
<path opacity="0.1" fill-rule="evenodd" clip-rule="evenodd" d="M20 40C31.0457 40 40 31.0457 40 20C40 8.9543 31.0457 0 20 0C8.9543 0 0 8.9543 0 20C0 31.0457 8.9543 40 20 40Z" fill="#0E8EF3"/>
<path d="M13.5586 26.243H26.4333C28.0681 26.243 28.9118 25.3917 28.9118 23.7796V15.6434C28.9118 14.0312 28.0681 13.1875 26.4333 13.1875H13.5586C11.9314 13.1875 11.0801 14.0312 11.0801 15.6434V23.7796C11.0801 25.3993 11.9314 26.243 13.5586 26.243ZM12.5792 15.779C12.5792 15.0558 12.9634 14.6942 13.6565 14.6942H26.3354C27.0285 14.6942 27.4127 15.0558 27.4127 15.779V16.3214H12.5792V15.779ZM13.6565 24.7363C12.9634 24.7363 12.5792 24.3747 12.5792 23.6515V18.0918H27.4127V23.6515C27.4127 24.3747 27.0285 24.7363 26.3354 24.7363H13.6565ZM14.6811 23.3728H16.5268C16.9713 23.3728 17.2726 23.079 17.2726 22.6571V21.2559C17.2726 20.834 16.9713 20.5402 16.5268 20.5402H14.6811C14.2441 20.5402 13.9428 20.834 13.9428 21.2559V22.6571C13.9428 23.079 14.2441 23.3728 14.6811 23.3728Z" fill="#0E8EF3"/>
</svg>
