<svg width="40" height="40" viewBox="0 0 40 40" fill="none" xmlns="http://www.w3.org/2000/svg">
<path opacity="0.1" fill-rule="evenodd" clip-rule="evenodd" d="M20 40C31.0457 40 40 31.0457 40 20C40 8.9543 31.0457 0 20 0C8.9543 0 0 8.9543 0 20C0 31.0457 8.9543 40 20 40Z" fill="#0E8EF3"/>
<path d="M19.9996 19.8694C21.8227 19.8694 23.2992 18.2573 23.2992 16.2835C23.2992 14.3399 21.8227 12.7955 19.9996 12.7955C18.184 12.7955 16.6924 14.3625 16.6999 16.2986C16.7074 18.2648 18.1765 19.8694 19.9996 19.8694ZM19.9996 18.5511C18.96 18.5511 18.0785 17.5642 18.0785 16.2986C18.071 15.0631 18.9524 14.1138 19.9996 14.1138C21.0543 14.1138 21.9206 15.048 21.9206 16.2835C21.9206 17.5491 21.0467 18.5511 19.9996 18.5511ZM15.2987 26.8756H24.6929C25.9962 26.8756 26.6215 26.4612 26.6215 25.5723C26.6215 23.5006 24.0375 20.7433 19.9996 20.7433C15.9616 20.7433 13.3701 23.5006 13.3701 25.5723C13.3701 26.4612 13.9954 26.8756 15.2987 26.8756ZM15.0652 25.5572C14.8843 25.5572 14.8165 25.4969 14.8165 25.3613C14.8165 24.2087 16.6773 22.0617 19.9996 22.0617C23.3143 22.0617 25.1751 24.2087 25.1751 25.3613C25.1751 25.4969 25.1073 25.5572 24.9265 25.5572H15.0652Z" fill="#0E8EF3"/>
</svg>
