<svg width="24" height="24" viewBox="0 0 24 24" fill="none" xmlns="http://www.w3.org/2000/svg">
<mask id="mask0_1457_5158" style="mask-type:alpha" maskUnits="userSpaceOnUse" x="0" y="0" width="24" height="24">
<rect width="24" height="24" fill="white"/>
</mask>
<g mask="url(#mask0_1457_5158)">
<mask id="mask1_1457_5158" style="mask-type:alpha" maskUnits="userSpaceOnUse" x="0" y="0" width="24" height="24">
<rect width="24" height="24" fill="white"/>
</mask>
<g mask="url(#mask1_1457_5158)">
</g>
<g clip-path="url(#clip0_1457_5158)">
<path d="M7.18879 5.90241C7.01969 5.73331 6.7852 5.63635 6.54582 5.63635C6.30645 5.63635 6.07187 5.73331 5.90277 5.90241C5.73367 6.07151 5.63672 6.30604 5.63672 6.54545C5.63672 6.78487 5.73367 7.01877 5.90277 7.1885C6.07242 7.3576 6.30641 7.45456 6.54582 7.45456C6.78523 7.45456 7.01914 7.3576 7.18879 7.1885C7.35789 7.01881 7.45492 6.78487 7.45492 6.54545C7.45492 6.30604 7.35785 6.07209 7.18879 5.90241Z" fill="#1A2E35"/>
<path d="M10.1818 2H2.9091C2.40703 2 2 2.40703 2 2.9091V10.1818C2 10.6839 2.40703 11.0909 2.9091 11.0909H10.1818C10.6839 11.0909 11.0909 10.6839 11.0909 10.1818V2.9091C11.0909 2.40703 10.6839 2 10.1818 2ZM9.27273 9.27273H3.81816V3.81816H9.27269V9.27273H9.27273Z" fill="#1A2E35"/>
<path d="M18.097 5.90241C17.9273 5.73331 17.6934 5.63635 17.454 5.63635C17.2146 5.63635 16.9801 5.73331 16.811 5.90241C16.6419 6.07209 16.5449 6.30604 16.5449 6.54545C16.5449 6.78487 16.6419 7.01877 16.811 7.1885C16.9801 7.3576 17.2146 7.45456 17.454 7.45456C17.6934 7.45456 17.9273 7.3576 18.097 7.1885C18.2661 7.01881 18.3631 6.78487 18.3631 6.54545C18.3631 6.30604 18.2661 6.07209 18.097 5.90241Z" fill="#1A2E35"/>
<path d="M21.09 2H13.8173C13.3152 2 12.9082 2.40703 12.9082 2.9091V10.1818C12.9082 10.6839 13.3152 11.0909 13.8173 11.0909H21.09C21.5921 11.0909 21.9991 10.6839 21.9991 10.1818V2.9091C21.9991 2.40703 21.5921 2 21.09 2ZM20.181 9.27273H14.7264V3.81816H20.1809V9.27273H20.181Z" fill="#1A2E35"/>
<path d="M7.18879 16.8115C7.01914 16.6424 6.7852 16.5454 6.54582 16.5454C6.30645 16.5454 6.07242 16.6424 5.90277 16.8115C5.73367 16.9812 5.63672 17.2151 5.63672 17.4545C5.63672 17.6939 5.73367 17.9285 5.90277 18.0976C6.07242 18.2667 6.30641 18.3636 6.54582 18.3636C6.78523 18.3636 7.01914 18.2667 7.18879 18.0976C7.35789 17.9279 7.45492 17.6939 7.45492 17.4545C7.45488 17.2151 7.35785 16.9812 7.18879 16.8115Z" fill="#1A2E35"/>
<path d="M10.1818 12.9091H2.9091C2.40703 12.9091 2 13.3161 2 13.8181V21.0909C2 21.5929 2.40703 22 2.9091 22H10.1818C10.6839 22 11.0909 21.5929 11.0909 21.0909V13.8181C11.0909 13.3161 10.6839 12.9091 10.1818 12.9091ZM9.27273 20.1818H3.81816V14.7272H9.27269V20.1818H9.27273Z" fill="#1A2E35"/>
<path d="M18.0601 16.5454H17.454C16.952 16.5454 16.5449 16.9524 16.5449 17.4545C16.5449 17.9566 16.952 18.3636 17.454 18.3636H18.0601C18.5621 18.3636 18.9692 17.9566 18.9692 17.4545C18.9692 16.9524 18.5621 16.5454 18.0601 16.5454Z" fill="#1A2E35"/>
<path d="M21.0918 18.3636C20.5897 18.3636 20.1827 18.7707 20.1827 19.2727V20.1818H18.0614C17.5594 20.1818 17.1523 20.5889 17.1523 21.091C17.1523 21.593 17.5594 22.0001 18.0614 22.0001H21.0918C21.5938 22 22.0009 21.593 22.0009 21.0909V19.2727C22.0009 18.7707 21.5938 18.3636 21.0918 18.3636Z" fill="#1A2E35"/>
<path d="M13.8173 16.5454C13.3152 16.5454 12.9082 16.9524 12.9082 17.4545V18.6666C12.9082 19.1687 13.3152 19.5757 13.8173 19.5757C14.3194 19.5757 14.7264 19.1687 14.7264 18.6666V17.4545C14.7264 16.9524 14.3194 16.5454 13.8173 16.5454Z" fill="#1A2E35"/>
<path d="M18.0612 12.9091H16.2431C15.741 12.9091 15.334 13.3161 15.334 13.8182C15.334 14.3202 15.741 14.7273 16.2431 14.7273H18.0612C18.5633 14.7273 18.9704 14.3202 18.9704 13.8182C18.9704 13.3161 18.5633 12.9091 18.0612 12.9091Z" fill="#1A2E35"/>
</g>
</g>
<defs>
<clipPath id="clip0_1457_5158">
<rect width="20" height="20" fill="white" transform="translate(2 2)"/>
</clipPath>
</defs>
</svg>
