<svg width="20" height="20" viewBox="0 0 20 20" fill="none" xmlns="http://www.w3.org/2000/svg">
<mask id="mask0" mask-type="alpha" maskUnits="userSpaceOnUse" x="0" y="0" width="20" height="20">
<rect width="20" height="20" fill="#E81E62"/>
</mask>
<g mask="url(#mask0)">
<path d="M19.4134 0.586376C18.6313 -0.195498 17.3586 -0.195419 16.5765 0.586376L11.202 5.95871L11.0869 5.84367C10.0875 4.84457 8.4938 4.74695 7.37982 5.61675L0.229367 11.1993C0.0946664 11.3044 0.0115484 11.4623 0.00111474 11.6329C-0.00931897 11.8034 0.0538694 11.9703 0.174736 12.0911L7.91193 19.8253C8.02417 19.9375 8.1761 20 8.33378 20C8.34589 20 8.35808 19.9996 8.37028 19.9989C8.54089 19.9884 8.69884 19.9053 8.80404 19.7707L14.3887 12.623C15.2587 11.5095 15.1611 9.91639 14.1617 8.91729L14.039 8.79464L19.4134 3.42219C20.1955 2.64036 20.1955 1.36821 19.4134 0.586376ZM8.27879 18.5049L6.53926 16.7661L8.67797 14.4138C8.89958 14.17 8.88157 13.7928 8.63772 13.5712C8.39384 13.3497 8.01647 13.3677 7.79486 13.6115L5.69448 15.9216L4.07991 14.3077L6.39096 12.2081C6.6348 11.9865 6.65282 11.6093 6.43121 11.3656C6.20952 11.1219 5.83227 11.1038 5.58834 11.3253L3.23513 13.4632L1.4956 11.7244L7.14097 7.31687L12.688 12.8618L8.27879 18.5049ZM13.4482 11.8887L13.428 11.9146L8.08849 6.57706L8.1144 6.55687C8.75398 6.05746 9.66921 6.11351 10.2431 6.68718L10.7801 7.22394L12.7732 9.21628L13.3178 9.76069C13.8918 10.3344 13.9478 11.2492 13.4482 11.8887ZM18.5696 2.57868L13.1951 7.95105L12.0458 6.80218L17.4203 1.42985C17.7372 1.11309 18.2528 1.11317 18.5696 1.42985C18.8864 1.74661 18.8864 2.26192 18.5696 2.57868Z" fill="#E81E62"/>
</g>
</svg>
