<svg width="32" height="32" viewBox="0 0 32 32" fill="none" xmlns="http://www.w3.org/2000/svg">
<circle opacity="0.1" cx="16" cy="16" r="16" fill="#3E9AE2"/>
<path d="M24.3333 10.8937C23.732 11.1546 23.0961 11.3271 22.4453 11.4057C23.1319 10.9956 23.6463 10.3504 23.8933 9.58973C23.2482 9.97378 22.5419 10.2444 21.8053 10.3897C21.3129 9.85579 20.6573 9.50037 19.9412 9.37921C19.225 9.25806 18.4889 9.37802 17.8483 9.72028C17.2077 10.0625 16.6989 10.6078 16.4015 11.2704C16.1042 11.933 16.0351 12.6756 16.2053 13.3817C14.9009 13.3158 13.6249 12.9761 12.4602 12.3848C11.2956 11.7935 10.2684 10.9639 9.44531 9.94973C9.15662 10.4539 9.00493 11.0248 9.00531 11.6057C9.00429 12.1452 9.13669 12.6766 9.39072 13.1526C9.64475 13.6285 10.0125 14.0343 10.4613 14.3337C9.93969 14.3195 9.42922 14.1796 8.97331 13.9257V13.9657C8.97722 14.7216 9.24211 15.453 9.72316 16.0361C10.2042 16.6192 10.8719 17.0182 11.6133 17.1657C11.3279 17.2526 11.0316 17.2984 10.7333 17.3017C10.5268 17.2993 10.3209 17.2806 10.1173 17.2457C10.3284 17.896 10.737 18.4642 11.2862 18.8715C11.8353 19.2787 12.4978 19.5046 13.1813 19.5177C12.0271 20.4259 10.602 20.9216 9.13331 20.9257C8.8659 20.9266 8.5987 20.9106 8.33331 20.8777C9.83286 21.8459 11.5804 22.3599 13.3653 22.3577C14.5971 22.3705 15.819 22.1377 16.9598 21.673C18.1006 21.2082 19.1373 20.5208 20.0095 19.6509C20.8816 18.781 21.5717 17.746 22.0394 16.6065C22.507 15.4669 22.7429 14.2455 22.7333 13.0137C22.7333 12.8777 22.7333 12.7337 22.7333 12.5897C23.3611 12.1216 23.9025 11.5477 24.3333 10.8937Z" fill="#3E9AE2"/>
</svg>
