<svg width="32" height="32" viewBox="0 0 32 32" fill="none" xmlns="http://www.w3.org/2000/svg">
<circle cx="16" cy="16" r="16" fill="#0E8EF3"/>
<path d="M24.3334 10.8937C23.732 11.1546 23.0961 11.3271 22.4454 11.4057C23.1319 10.9956 23.6464 10.3504 23.8934 9.58973C23.2482 9.97378 22.542 10.2444 21.8054 10.3897C21.313 9.85579 20.6573 9.50037 19.9412 9.37921C19.2251 9.25806 18.489 9.37802 17.8484 9.72028C17.2078 10.0625 16.6989 10.6078 16.4016 11.2704C16.1042 11.933 16.0352 12.6756 16.2054 13.3817C14.9009 13.3158 13.6249 12.9761 12.4603 12.3848C11.2957 11.7935 10.2685 10.9639 9.44537 9.94973C9.15668 10.4539 9.00499 11.0248 9.00537 11.6057C9.00435 12.1452 9.13675 12.6766 9.39078 13.1526C9.64481 13.6285 10.0126 14.0343 10.4614 14.3337C9.93976 14.3195 9.42928 14.1796 8.97337 13.9257V13.9657C8.97728 14.7216 9.24217 15.453 9.72323 16.0361C10.2043 16.6192 10.872 17.0182 11.6134 17.1657C11.328 17.2526 11.0317 17.2984 10.7334 17.3017C10.5269 17.2993 10.3209 17.2806 10.1174 17.2457C10.3285 17.896 10.7371 18.4642 11.2862 18.8715C11.8354 19.2787 12.4978 19.5046 13.1814 19.5177C12.0271 20.4259 10.6021 20.9216 9.13337 20.9257C8.86596 20.9266 8.59876 20.9106 8.33337 20.8777C9.83292 21.8459 11.5804 22.3599 13.3654 22.3577C14.5971 22.3705 15.8191 22.1377 16.9599 21.673C18.1006 21.2082 19.1374 20.5208 20.0095 19.6509C20.8817 18.781 21.5717 17.746 22.0394 16.6065C22.5071 15.4669 22.743 14.2455 22.7334 13.0137C22.7334 12.8777 22.7334 12.7337 22.7334 12.5897C23.3611 12.1216 23.9026 11.5477 24.3334 10.8937Z" fill="white"/>
</svg>
