<svg width="24" height="19" viewBox="0 0 24 19" fill="none" xmlns="http://www.w3.org/2000/svg">
<path d="M3.44971 18.9437H20.5319C22.5659 18.9437 23.6394 17.8891 23.6394 15.8738V5.98615C23.6394 3.97095 22.5659 2.91626 20.5319 2.91626H17.9611C17.2266 2.91626 16.9911 2.79384 16.5297 2.31358L15.7858 1.51315C15.2961 0.995222 14.797 0.740967 13.8365 0.740967H10.098C9.13749 0.740967 8.64781 0.995222 8.14872 1.51315L7.40479 2.31358C6.95278 2.78442 6.70794 2.91626 5.97342 2.91626H3.44971C1.41567 2.91626 0.351562 3.97095 0.351562 5.98615V15.8738C0.351562 17.8891 1.41567 18.9437 3.44971 18.9437ZM3.57213 17.0698C2.71519 17.0698 2.22552 16.6178 2.22552 15.7043V6.15566C2.22552 5.25164 2.71519 4.79963 3.57213 4.79963H6.5196C7.36712 4.79963 7.80029 4.64896 8.28055 4.13103L8.99623 3.34002C9.52358 2.76559 9.80608 2.61492 10.6348 2.61492H13.2997C14.1284 2.61492 14.4109 2.76559 14.9289 3.3306L15.6539 4.13103C16.1342 4.64896 16.5674 4.79963 17.4149 4.79963H20.4095C21.2758 4.79963 21.7561 5.25164 21.7561 6.15566V15.7043C21.7561 16.6178 21.2758 17.0698 20.4095 17.0698H3.57213ZM11.9908 15.8268C14.8158 15.8268 17.0759 13.5667 17.0759 10.7322C17.0759 7.89777 14.8158 5.63773 11.9908 5.63773C9.17515 5.63773 6.91511 7.89777 6.91511 10.7322C6.91511 13.5667 9.17515 15.8268 11.9908 15.8268ZM17.3961 7.36101C17.3961 8.04844 17.9517 8.5852 18.6297 8.57579C19.2889 8.57579 19.8444 8.03903 19.8444 7.36101C19.8444 6.70183 19.2794 6.13682 18.6297 6.13682C17.9517 6.13682 17.3961 6.70183 17.3961 7.36101ZM11.9908 14.1129C10.1357 14.1129 8.61956 12.6062 8.61956 10.7322C8.61956 8.84888 10.1263 7.3516 11.9908 7.3516C13.8647 7.3516 15.3714 8.84888 15.3714 10.7322C15.3714 12.6062 13.8647 14.1129 11.9908 14.1129Z" fill="#0E8EF3"/>
</svg>
