<svg width="24" height="24" viewBox="0 0 24 24" fill="none" xmlns="http://www.w3.org/2000/svg">
<mask id="mask0" mask-type="alpha" maskUnits="userSpaceOnUse" x="0" y="0" width="24" height="24">
<rect width="24" height="24" fill="#C4C4C4"/>
</mask>
<g mask="url(#mask0)">
<path d="M11.25 3.49824C11.6642 3.49824 12 3.16245 12 2.74824C12 2.33402 11.6642 1.99824 11.25 1.99824L6 1.99824C3.79086 1.99824 2 3.7891 2 5.99824L2 17.9982C2 20.2074 3.79086 21.9982 6 21.9982H18C20.2091 21.9982 22 20.2074 22 17.9982V12.7482C22 12.334 21.6642 11.9982 21.25 11.9982C20.8358 11.9982 20.5 12.334 20.5 12.7482V17.9982C20.5 19.3789 19.3807 20.4982 18 20.4982H6C4.61929 20.4982 3.5 19.3789 3.5 17.9982L3.5 5.99824C3.5 4.61752 4.61929 3.49824 6 3.49824L11.25 3.49824Z" fill="black"/>
<path fill-rule="evenodd" clip-rule="evenodd" d="M21.2803 2.71791C20.2971 1.73466 18.7029 1.73466 17.7197 2.71791L9.33613 11.1014C9.00567 11.4319 8.76487 11.8411 8.63648 12.2905L7.77886 15.2922C7.70403 15.5541 7.77707 15.836 7.96967 16.0286C8.16227 16.2212 8.44415 16.2942 8.70604 16.2194L11.7077 15.3618C12.1571 15.2334 12.5663 14.9926 12.8968 14.6621L21.2803 6.27857C22.2636 5.29532 22.2636 3.70116 21.2803 2.71791ZM18.7803 3.77857C19.1778 3.3811 19.8222 3.3811 20.2197 3.77857C20.6171 4.17603 20.6171 4.82044 20.2197 5.21791L11.8361 13.6014C11.6859 13.7517 11.4999 13.8611 11.2956 13.9195C10.5531 14.1316 9.86662 13.4451 10.0788 12.7026C10.1371 12.4983 10.2466 12.3123 10.3968 12.1621L18.7803 3.77857Z" fill="black"/>
</g>
</svg>
