<svg width="25" height="24" viewBox="0 0 25 24" fill="none" xmlns="http://www.w3.org/2000/svg">
<path fill-rule="evenodd" clip-rule="evenodd" d="M14.0262 2.4215C13.0647 2.14699 12.0495 2 11 2C4.92487 2 0 6.92487 0 13C0 19.0751 4.92487 24 11 24C17.0751 24 22 19.0751 22 13C22 12.3969 21.9515 11.8051 21.8581 11.2284L19.895 11.621C19.9641 12.0706 20 12.5311 20 13C20 17.9706 15.9706 22 11 22C6.02944 22 2 17.9706 2 13C2 8.02944 6.02944 4 11 4C11.8285 4 12.6309 4.11195 13.3928 4.32156L14.0262 2.4215Z" fill="#222222"/>
<path fill-rule="evenodd" clip-rule="evenodd" d="M10.9998 19C8.49976 19 6.55257 16.8931 6.55257 16.8931C6.05859 16.6462 5.85836 16.0455 6.10535 15.5515C6.35234 15.0575 6.95302 14.8573 7.447 15.1043C7.447 15.1043 8.99981 16.8807 10.9998 16.8807C12.9998 16.8807 14.5526 15.1043 14.5526 15.1043C15.0465 14.8573 15.6472 15.0575 15.8942 15.5515C16.1412 16.0455 15.941 16.6462 15.447 16.8931C15.447 16.8931 13.4998 19 10.9998 19Z" fill="#222222"/>
<path fill-rule="evenodd" clip-rule="evenodd" d="M12.5 11C12.5 10.1716 13.1716 9.5 14 9.5H14.01C14.8384 9.5 15.51 10.1716 15.51 11C15.51 11.8284 14.8384 12.5 14.01 12.5H14C13.1716 12.5 12.5 11.8284 12.5 11Z" fill="#222222"/>
<path fill-rule="evenodd" clip-rule="evenodd" d="M6.5 11C6.5 10.1716 7.17157 9.5 8 9.5H8.01C8.83843 9.5 9.51 10.1716 9.51 11C9.51 11.8284 8.83843 12.5 8.01 12.5H8C7.17157 12.5 6.5 11.8284 6.5 11Z" fill="#222222"/>
<path fill-rule="evenodd" clip-rule="evenodd" d="M21.3468 7.60299C21.3468 8.21381 20.8254 8.69456 20.2166 8.64514C19.6725 8.60096 19.2539 8.14558 19.2557 7.59965L19.2626 5.43588L17.0988 5.44279C16.5529 5.44453 16.0975 5.02597 16.0533 4.48182C16.0039 3.87301 16.4846 3.35164 17.0955 3.35164H19.2692L19.277 0.902985C19.2786 0.422439 19.6686 0.0336914 20.1491 0.0336914H20.5768C21.0021 0.0336914 21.3468 0.378444 21.3468 0.803716V3.35164H23.8947C24.32 3.35164 24.6647 3.69639 24.6647 4.12166V4.54933C24.6647 5.02988 24.276 5.41987 23.7955 5.4214L21.3468 5.42922V7.60299Z" fill="#222222"/>
</svg>
