<svg width="24" height="24" viewBox="0 0 24 24" fill="none" xmlns="http://www.w3.org/2000/svg">
<mask id="mask0" mask-type="alpha" maskUnits="userSpaceOnUse" x="0" y="0" width="24" height="24">
<rect width="24" height="24" fill="#C4C4C4"/>
</mask>
<g mask="url(#mask0)">
<path d="M23.5705 18.2754L15.4857 2.15576C14.7648 0.718585 13.3816 0 11.9984 0C10.6153 0 9.23205 0.718585 8.51123 2.13633L0.426355 18.256C-0.664617 20.4117 0.465318 22.7423 2.37452 23.5968H2.35504C2.35504 23.5968 4.38113 24.7621 7.32285 23.1307C9.03724 22.4898 10.9464 22.0625 11.9984 22.1208C13.0505 22.0625 14.9597 22.4898 16.674 23.1307C19.6158 24.7621 21.6419 23.5968 21.6419 23.5968H21.6224C23.5511 22.7617 24.6615 20.4311 23.5705 18.2754ZM9.77754 3.12682L9.91391 2.8355C10.3425 1.98097 11.1802 1.5537 11.9984 1.5537C12.8362 1.5537 13.6544 1.96154 14.083 2.8355L14.2194 3.12682C14.609 4.13672 14.8233 5.20489 14.8233 6.29248C14.8233 9.65235 13.7713 12.954 11.979 15.7312C10.2061 12.9345 9.13465 9.65235 9.13465 6.29248C9.15413 5.20489 9.38791 4.15614 9.77754 3.12682ZM4.34216 22.4315C2.72519 22.4315 0.952359 20.7224 1.82903 18.9745L7.63456 7.39949C7.84886 10.8759 9.0762 14.2552 11.0244 17.1295C9.40739 19.4212 7.24493 22.4509 4.34216 22.4315ZM11.9984 20.4894C11.2581 20.4894 10.7711 20.6059 10.2256 20.7613C10.7906 20.1398 11.375 19.2659 11.9984 18.3919C12.6219 19.2659 13.1868 20.1398 13.7713 20.7613C13.2258 20.6059 12.7387 20.4894 11.9984 20.4894ZM19.6547 22.4315C16.7714 22.4509 14.609 19.4212 12.9725 17.1101C14.9207 14.2552 16.148 10.8565 16.3623 7.38007L22.1679 18.9745C23.0445 20.7224 21.2717 22.4315 19.6547 22.4315Z" fill="#0E8EF3"/>
</g>
</svg>
