<svg width="30" height="30" viewBox="0 0 30 30" fill="none" xmlns="http://www.w3.org/2000/svg">
<path d="M14.9999 24.3666C20.3393 24.3666 24.737 19.9595 24.737 14.6296C24.737 9.29966 20.3205 4.89258 14.9905 4.89258C10.0372 4.89258 5.89383 8.68757 5.33824 13.4996C5.92208 13.3677 6.69427 13.3301 7.31578 13.4337C7.87137 9.68576 11.0731 6.84187 14.9905 6.84187C19.3128 6.84187 22.7971 10.3073 22.7971 14.6296C22.7971 16.6919 22.0061 18.5564 20.6971 19.9407C19.7272 18.8672 17.6743 17.8878 14.9905 17.8878C14.1524 17.8878 13.3708 17.982 12.6646 18.1515C12.7776 18.6035 12.8341 19.0744 12.8341 19.5546C12.8341 21.0896 12.2408 22.5115 11.2803 23.6133C12.4291 24.0935 13.691 24.3666 14.9999 24.3666ZM14.9905 16.3435C16.8174 16.3529 18.2393 14.7991 18.2393 12.7839C18.2393 10.8817 16.808 9.29025 14.9905 9.29025C13.1825 9.29025 11.7323 10.8817 11.7511 12.7839C11.7605 14.7991 13.1636 16.3246 14.9905 16.3435ZM6.63776 24.4137C9.27448 24.4137 11.4874 22.2102 11.4874 19.5546C11.4874 16.8991 9.30273 14.7049 6.63776 14.7049C3.98221 14.7049 1.78809 16.8991 1.78809 19.5546C1.78809 22.2196 3.98221 24.4137 6.63776 24.4137ZM5.33824 21.8241C5.07457 22.0972 4.65081 22.0595 4.39655 21.8052C4.1423 21.551 4.10463 21.1272 4.37772 20.8636L5.7055 19.5358L4.47189 18.2928C4.22705 18.0385 4.21763 17.6242 4.47189 17.3887C4.71673 17.1439 5.13107 17.1439 5.37591 17.3887L6.61893 18.6223L7.94671 17.2946C8.2198 17.0215 8.62472 17.0592 8.87898 17.3228C9.14265 17.5771 9.18032 17.982 8.90723 18.2551L7.57945 19.5829L8.81306 20.8165C9.0579 21.0707 9.06731 21.4851 8.81306 21.7299C8.56822 21.9747 8.16329 21.9747 7.90904 21.7299L6.66602 20.4963L5.33824 21.8241Z" fill="#E81E4E"/>
</svg>
