<svg width="16" height="15" viewBox="0 0 16 15" fill="none" xmlns="http://www.w3.org/2000/svg">
<path d="M3.22405 14.4454C3.55552 14.6412 4.03013 14.5885 4.29381 14.2043L12.9573 1.3371C13.2436 0.915225 13.0929 0.448149 12.7464 0.244745C12.4224 0.0639418 11.9855 0.131743 11.7068 0.546085L3.04325 13.3756C2.74944 13.805 2.87751 14.242 3.22405 14.4454ZM3.45759 7.35635C5.18276 7.35635 6.23744 5.99279 6.23744 3.80055C6.23744 1.59324 5.17522 0.267346 3.45759 0.267346C1.74749 0.267346 0.677734 1.60077 0.677734 3.80055C0.677734 6.00033 1.73996 7.35635 3.45759 7.35635ZM3.45759 6.11333C2.63644 6.11333 2.16936 5.28465 2.16936 3.80055C2.16936 2.33905 2.64397 1.51037 3.45759 1.51037C4.27121 1.51037 4.74581 2.33152 4.74581 3.80055C4.74581 5.28465 4.27874 6.11333 3.45759 6.11333ZM12.5354 14.4529C14.2606 14.4529 15.3153 13.0893 15.3153 10.8971C15.3153 8.68978 14.2455 7.36389 12.5354 7.36389C10.8178 7.36389 9.74805 8.69731 9.74805 10.8971C9.74805 13.0969 10.8103 14.4529 12.5354 14.4529ZM12.5354 13.2099C11.7143 13.2099 11.2472 12.3812 11.2472 10.8971C11.2472 9.43559 11.7218 8.60691 12.5354 8.60691C13.3491 8.60691 13.8161 9.42806 13.8161 10.8971C13.8161 12.3812 13.3491 13.2099 12.5354 13.2099Z" fill="#0E8EF3"/>
</svg>
