<svg width="25" height="24" viewBox="0 0 25 24" fill="none" xmlns="http://www.w3.org/2000/svg">
<path d="M16.1447 12.6226H9.20185C8.72192 12.6226 8.33398 13.0105 8.33398 13.4904C8.33398 13.9704 8.72192 14.3583 9.20185 14.3583H16.1447C16.6238 14.3583 17.0126 13.9704 17.0126 13.4904C17.0126 13.0105 16.6246 12.6226 16.1447 12.6226Z" fill="#89909B"/>
<path d="M16.1447 8.67407H9.20185C8.72192 8.67407 8.33398 9.062 8.33398 9.54194C8.33398 10.0219 8.72192 10.4098 9.20185 10.4098H16.1447C16.6238 10.4098 17.0126 10.0219 17.0126 9.54194C17.0126 9.062 16.6246 8.67407 16.1447 8.67407Z" fill="#89909B"/>
<path fill-rule="evenodd" clip-rule="evenodd" d="M23.2422 11.2466C22.9378 5.93379 18.2797 1.80569 12.5149 1.89498C7.26398 1.97631 3.08185 5.04646 2.33061 9.72497C2.04836 11.4828 2.18378 13.261 2.39702 14.6152C2.50309 15.2888 2.62709 15.8494 2.72396 16.2395C2.77236 16.4343 2.81387 16.5862 2.84281 16.6878C2.85727 16.7387 2.86858 16.7769 2.87602 16.8016L2.88406 16.828C2.88704 16.8369 2.89038 16.8473 2.89402 16.8591C2.90165 16.884 2.91056 16.9153 2.92001 16.953C2.93892 17.0286 2.95996 17.1299 2.97727 17.2568C3.01195 17.5108 3.03142 17.8655 2.99011 18.3198C2.92814 19.0014 2.73017 19.899 2.25028 21.011C2.52197 20.9495 2.81895 20.8764 3.12652 20.7968C3.78917 20.6252 4.46622 20.4322 4.97976 20.2814C5.23599 20.2061 5.45035 20.1417 5.60037 20.0962C5.67536 20.0734 5.73422 20.0554 5.77413 20.0432L5.81942 20.0292L5.83345 20.0249L6.21839 19.9053L6.56419 20.0975L6.5653 20.0981L6.56833 20.0997L6.59093 20.1119C6.61241 20.1233 6.64654 20.1412 6.69262 20.1645C6.78483 20.2112 6.92464 20.2797 7.10644 20.3617C7.47054 20.5262 8.00009 20.7441 8.65054 20.9524C9.95884 21.3712 11.7153 21.7376 13.5823 21.5817C19.468 21.0901 23.5474 16.5727 23.2422 11.2466ZM6.02572 21.6482C6.11437 21.691 6.21829 21.7399 6.33643 21.7933C6.75241 21.9811 7.34765 22.2258 8.07603 22.459C9.5254 22.923 11.5427 23.3546 13.7404 23.171C20.5928 22.5987 25.334 17.3132 24.9816 11.1629C24.6302 5.02933 19.2283 0.194832 12.4854 0.299268C6.47408 0.392375 1.49576 3.96022 0.607402 9.49266C0.291701 11.4587 0.446567 13.4044 0.673112 14.8431C0.786932 15.5659 0.9202 16.1691 1.02561 16.5935C1.07836 16.806 1.12426 16.9741 1.15744 17.0907C1.17403 17.149 1.18746 17.1944 1.19699 17.226L1.20827 17.2631L1.21155 17.2736L1.21258 17.2769L1.21293 17.278C1.21298 17.2782 1.21317 17.2788 2.04959 17.0565L1.21293 17.278L1.21798 17.294L1.21863 17.2958C1.21948 17.2988 1.22073 17.3034 1.22229 17.3097C1.22834 17.3338 1.23906 17.3822 1.24898 17.4548C1.26876 17.5997 1.28561 17.8436 1.25437 18.1873C1.19201 18.8731 0.936552 19.972 0.109457 21.4875C0.0103346 21.6691 -0.113493 22.0687 0.201788 22.4364C0.437458 22.7112 0.7685 22.7653 0.872705 22.7802C1.13844 22.8183 1.44725 22.7846 1.6854 22.7503C2.21315 22.6741 2.92049 22.5086 3.60014 22.3326C4.28973 22.1541 4.98786 21.9549 5.51145 21.8012C5.71082 21.7426 5.88555 21.6904 6.02572 21.6482Z" fill="#89909B"/>
</svg>
