<svg width="343" height="180" viewBox="0 0 343 180" fill="none" xmlns="http://www.w3.org/2000/svg">
<rect width="343" height="180" rx="16" fill="#FF9E14"/>
<mask id="mask0_2677_38553" style="mask-type:alpha" maskUnits="userSpaceOnUse" x="0" y="0" width="343" height="180">
<rect width="343" height="180" rx="16" fill="#FF9500"/>
</mask>
<g mask="url(#mask0_2677_38553)">
<path opacity="0.7" d="M399.399 133.438C411.647 188.882 362.978 240.501 303.549 251.928C244.121 263.356 11.6744 320.304 100.884 199.007C190.094 77.7087 298.666 61.9368 358.095 50.5094C417.524 39.082 387.15 77.9942 399.399 133.438Z" fill="#FFAB33"/>
<path opacity="0.5" d="M409.801 187.34C404.659 243.746 342.274 280.336 281.815 275.538C221.355 270.741 -18.855 263.722 103.621 171.073C226.097 78.4235 334.998 92.0832 395.458 96.8809C455.917 101.679 414.944 130.935 409.801 187.34Z" fill="#FFB854"/>
</g>
<rect opacity="0.15" x="16" y="100" width="60" height="60" rx="30" fill="white"/>
<mask id="mask1_2677_38553" style="mask-type:alpha" maskUnits="userSpaceOnUse" x="26" y="110" width="40" height="40">
<rect x="66" y="150" width="40" height="40" transform="rotate(-180 66 150)" fill="#C4C4C4"/>
</mask>
<g mask="url(#mask1_2677_38553)">
<path d="M58.2281 134.044C57.6971 132.82 56.6734 131.803 55.1569 130.993C57.4908 130.521 58.8612 129.027 59.2693 126.51C59.4243 125.599 59.3785 124.762 59.1316 123.996C58.8845 123.23 58.4556 122.553 57.8427 121.963C57.2306 121.373 56.5301 120.861 55.7432 120.426C54.9561 119.992 54.0289 119.581 52.9621 119.194L54.3256 114.105L51.1329 113.25L49.8073 118.197C49.2545 118.049 48.4077 117.837 47.2672 117.56L48.6036 112.572L45.4105 111.717L44.047 116.805C43.5871 116.697 42.915 116.524 42.0304 116.287L37.6404 115.089L36.753 118.4L39.0543 119.017C40.1048 119.299 40.5973 119.921 40.5317 120.885L38.9788 126.68C39.1172 126.717 39.2258 126.754 39.3052 126.789L38.9733 126.7L36.7983 134.818C36.5039 135.475 36.0111 135.711 35.3199 135.525L33.0187 134.909L31.3857 138.432L35.5325 139.543C35.7952 139.614 36.1742 139.719 36.6703 139.858C37.166 139.998 37.5382 140.102 37.7871 140.168L36.4073 145.317L39.601 146.173L40.9645 141.085C41.5412 141.254 42.3825 141.486 43.4883 141.783L42.1303 146.851L45.3231 147.706L46.7028 142.557C47.8509 142.807 48.8833 142.976 49.8004 143.063C50.718 143.149 51.6201 143.143 52.5064 143.041C53.3926 142.939 54.1684 142.725 54.8337 142.398C55.4991 142.072 56.1051 141.592 56.653 140.959C57.1997 140.327 57.65 139.546 58.0027 138.615C58.6844 136.793 58.7592 135.269 58.2281 134.044ZM46.3555 121.211C46.4523 121.237 46.7262 121.306 47.1772 121.42C47.6285 121.534 48.0034 121.627 48.3024 121.7C48.6014 121.773 48.9977 121.897 49.4916 122.073C49.9853 122.248 50.3958 122.416 50.7233 122.576C51.0507 122.735 51.4014 122.949 51.7742 123.214C52.1478 123.48 52.4288 123.758 52.6178 124.046C52.8073 124.335 52.9423 124.674 53.0228 125.064C53.1038 125.454 53.0847 125.87 52.9657 126.315C52.8647 126.692 52.7106 127.018 52.5033 127.295C52.2963 127.571 52.0398 127.78 51.7354 127.922C51.4309 128.064 51.1259 128.178 50.8218 128.262C50.518 128.346 50.1491 128.381 49.7162 128.366C49.2834 128.351 48.9077 128.33 48.5894 128.302C48.2708 128.274 47.8808 128.21 47.4192 128.108C46.9576 128.005 46.6082 127.927 46.3716 127.87C46.1347 127.814 45.8134 127.728 45.4073 127.612C45.0011 127.496 44.7639 127.429 44.6947 127.41L46.3555 121.211ZM51.3897 137.298C51.175 137.573 50.9338 137.797 50.6652 137.97C50.3965 138.143 50.0692 138.272 49.6839 138.356C49.2985 138.441 48.9321 138.494 48.5856 138.516C48.2385 138.539 47.8297 138.53 47.3592 138.491C46.8877 138.451 46.4788 138.403 46.1307 138.346C45.7832 138.289 45.3719 138.207 44.8963 138.102C44.4212 137.996 44.0519 137.908 43.7894 137.837C43.5267 137.767 43.1959 137.674 42.7968 137.56C42.3974 137.447 42.1428 137.375 42.0322 137.345L43.861 130.52C43.9715 130.549 44.3016 130.631 44.8514 130.763C45.4012 130.896 45.8484 131.009 46.194 131.102C46.5395 131.194 47.0113 131.342 47.6088 131.546C48.2059 131.749 48.7012 131.946 49.0945 132.138C49.4874 132.33 49.9064 132.576 50.3523 132.876C50.7978 133.175 51.1404 133.487 51.3797 133.811C51.6188 134.135 51.7915 134.513 51.8978 134.945C52.0045 135.378 51.9927 135.836 51.8628 136.321C51.7617 136.698 51.6042 137.024 51.3897 137.298Z" fill="white"/>
</g>
</svg>
