<svg width="343" height="180" viewBox="0 0 343 180" fill="none" xmlns="http://www.w3.org/2000/svg">
<rect width="343" height="180" rx="16" fill="#FF9703"/>
<mask id="mask0_3243_39225" style="mask-type:alpha" maskUnits="userSpaceOnUse" x="0" y="0" width="343" height="180">
<rect width="343" height="180" rx="16" fill="#FF9500"/>
</mask>
<g mask="url(#mask0_3243_39225)">
<path opacity="0.7" d="M399.399 133.438C411.647 188.882 362.978 240.501 303.549 251.928C244.121 263.356 11.6744 320.304 100.884 199.007C190.094 77.7087 298.666 61.9368 358.095 50.5094C417.524 39.082 387.15 77.9942 399.399 133.438Z" fill="#FFAB33"/>
<path opacity="0.5" d="M409.801 187.34C404.659 243.746 342.274 280.336 281.815 275.538C221.355 270.741 -18.855 263.722 103.621 171.073C226.097 78.4235 334.998 92.0832 395.458 96.8809C455.917 101.679 414.944 130.935 409.801 187.34Z" fill="#FFB854"/>
</g>
<rect opacity="0.15" x="16" y="114" width="50" height="50" rx="25" fill="white"/>
<mask id="mask1_3243_39225" style="mask-type:alpha" maskUnits="userSpaceOnUse" x="24" y="122" width="34" height="34">
<rect x="57.667" y="155.667" width="33.3333" height="33.3333" transform="rotate(-180 57.667 155.667)" fill="#C4C4C4"/>
</mask>
<g mask="url(#mask1_3243_39225)">
<path d="M51.1911 142.371C50.7485 141.35 49.8954 140.503 48.6317 139.827C50.5766 139.435 51.7187 138.19 52.0587 136.092C52.1879 135.333 52.1497 134.635 51.944 133.997C51.7381 133.359 51.3806 132.794 50.8699 132.303C50.3598 131.811 49.776 131.384 49.1203 131.022C48.4644 130.66 47.6917 130.318 46.8028 129.995L47.939 125.755L45.2784 125.042L44.1737 129.165C43.713 129.041 43.0074 128.864 42.057 128.633L43.1707 124.477L40.5097 123.764L39.3735 128.005C38.9902 127.914 38.4301 127.77 37.693 127.572L34.0346 126.574L33.2952 129.334L35.2129 129.848C36.0883 130.082 36.4987 130.601 36.444 131.404L35.15 136.234C35.2653 136.264 35.3558 136.295 35.422 136.325L35.1454 136.251L33.3329 143.015C33.0876 143.562 32.6769 143.759 32.1009 143.605L30.1833 143.091L28.8224 146.027L32.2781 146.953C32.497 147.011 32.8128 147.099 33.2263 147.215C33.6393 147.332 33.9495 147.418 34.1569 147.474L33.0071 151.765L35.6685 152.478L36.8047 148.237C37.2853 148.378 37.9864 148.572 38.9079 148.819L37.7762 153.043L40.4369 153.756L41.5866 149.465C42.5434 149.673 43.4037 149.814 44.168 149.886C44.9326 149.958 45.6844 149.952 46.423 149.867C47.1614 149.783 47.808 149.604 48.3624 149.332C48.9169 149.06 49.4219 148.66 49.8784 148.133C50.3341 147.606 50.7094 146.955 51.0032 146.18C51.5713 144.661 51.6336 143.391 51.1911 142.371ZM41.2972 131.676C41.3779 131.697 41.6061 131.756 41.982 131.85C42.3581 131.945 42.6705 132.023 42.9196 132.083C43.1688 132.144 43.4991 132.248 43.9107 132.394C44.3221 132.54 44.6642 132.68 44.937 132.813C45.2099 132.946 45.5022 133.124 45.8128 133.345C46.1242 133.567 46.3583 133.798 46.5158 134.039C46.6737 134.279 46.7862 134.562 46.8533 134.887C46.9208 135.211 46.9049 135.559 46.8057 135.929C46.7215 136.243 46.5931 136.515 46.4204 136.746C46.2479 136.976 46.0341 137.15 45.7805 137.269C45.5267 137.387 45.2726 137.482 45.0191 137.552C44.766 137.622 44.4585 137.651 44.0978 137.638C43.7372 137.626 43.424 137.608 43.1588 137.585C42.8933 137.562 42.5683 137.508 42.1837 137.423C41.7989 137.338 41.5078 137.272 41.3106 137.225C41.1132 137.178 40.8455 137.107 40.5071 137.01C40.1686 136.913 39.9709 136.857 39.9132 136.842L41.2972 131.676ZM45.4924 145.082C45.3135 145.311 45.1125 145.498 44.8887 145.642C44.6647 145.786 44.392 145.894 44.0709 145.964C43.7497 146.034 43.4444 146.078 43.1556 146.097C42.8664 146.116 42.5257 146.109 42.1336 146.076C41.7407 146.043 41.4 146.002 41.1099 145.955C40.8203 145.908 40.4775 145.84 40.0812 145.752C39.6853 145.663 39.3776 145.59 39.1588 145.531C38.9399 145.473 38.6642 145.395 38.3316 145.301C37.9988 145.206 37.7867 145.146 37.6944 145.121L39.2185 139.433C39.3106 139.458 39.5856 139.526 40.0438 139.636C40.502 139.747 40.8746 139.841 41.1626 139.918C41.4506 139.995 41.8437 140.118 42.3416 140.288C42.8392 140.457 43.2519 140.622 43.5798 140.782C43.9071 140.942 44.2563 141.146 44.6279 141.396C44.9992 141.646 45.2847 141.906 45.4841 142.176C45.6833 142.446 45.8272 142.761 45.9158 143.121C46.0048 143.482 45.9949 143.864 45.8867 144.268C45.8024 144.582 45.6712 144.853 45.4924 145.082Z" fill="white"/>
</g>
</svg>
