<svg width="320" height="180" viewBox="0 0 320 180" fill="none" xmlns="http://www.w3.org/2000/svg">
<rect width="320" height="180" rx="16" fill="#FF9E14"/>
<mask id="mask0_1684_27123" style="mask-type:alpha" maskUnits="userSpaceOnUse" x="0" y="0" width="320" height="180">
<rect width="320" height="180" rx="16" fill="#FF9500"/>
</mask>
<g mask="url(#mask0_1684_27123)">
<path opacity="0.7" d="M372.617 133.438C384.044 188.882 338.639 240.501 283.195 251.928C227.751 263.356 10.8918 320.304 94.1195 199.007C177.347 77.7087 278.639 61.9368 334.083 50.5094C389.527 39.082 361.19 77.9942 372.617 133.438Z" fill="#FFAB33"/>
<path opacity="0.5" d="M382.322 187.34C377.524 243.746 319.323 280.336 262.917 275.538C206.512 270.741 -17.5906 263.722 96.6726 171.073C210.936 78.4235 312.534 92.0832 368.94 96.8809C425.346 101.679 387.119 130.935 382.322 187.34Z" fill="#FFB854"/>
</g>
<rect opacity="0.15" x="20" y="100" width="60" height="60" rx="30" fill="white"/>
<mask id="mask1_1684_27123" style="mask-type:alpha" maskUnits="userSpaceOnUse" x="30" y="110" width="40" height="40">
<rect x="70" y="150" width="40" height="40" transform="rotate(-180 70 150)" fill="#C4C4C4"/>
</mask>
<g mask="url(#mask1_1684_27123)">
<path d="M62.2281 134.044C61.6971 132.82 60.6734 131.803 59.1569 130.993C61.4908 130.521 62.8612 129.027 63.2693 126.51C63.4243 125.599 63.3785 124.762 63.1316 123.996C62.8845 123.23 62.4556 122.553 61.8427 121.963C61.2306 121.373 60.5301 120.861 59.7432 120.426C58.9561 119.992 58.0289 119.581 56.9621 119.194L58.3256 114.105L55.1329 113.25L53.8073 118.197C53.2545 118.049 52.4077 117.837 51.2672 117.56L52.6036 112.572L49.4105 111.717L48.047 116.805C47.5871 116.697 46.915 116.524 46.0304 116.287L41.6404 115.089L40.753 118.4L43.0543 119.017C44.1048 119.299 44.5973 119.921 44.5317 120.885L42.9788 126.68C43.1172 126.717 43.2258 126.754 43.3052 126.789L42.9733 126.7L40.7983 134.818C40.5039 135.475 40.0111 135.711 39.3199 135.525L37.0187 134.909L35.3857 138.432L39.5325 139.543C39.7952 139.614 40.1742 139.719 40.6703 139.858C41.166 139.998 41.5382 140.102 41.7871 140.168L40.4073 145.317L43.601 146.173L44.9645 141.085C45.5412 141.254 46.3825 141.486 47.4883 141.783L46.1303 146.851L49.3231 147.706L50.7028 142.557C51.8509 142.807 52.8833 142.976 53.8004 143.063C54.718 143.149 55.6201 143.143 56.5064 143.041C57.3926 142.939 58.1684 142.725 58.8337 142.398C59.4991 142.072 60.1051 141.592 60.653 140.959C61.1997 140.327 61.65 139.546 62.0027 138.615C62.6844 136.793 62.7592 135.269 62.2281 134.044ZM50.3555 121.211C50.4523 121.237 50.7262 121.306 51.1772 121.42C51.6285 121.534 52.0034 121.627 52.3024 121.7C52.6014 121.773 52.9977 121.897 53.4916 122.073C53.9853 122.248 54.3958 122.416 54.7233 122.576C55.0507 122.735 55.4014 122.949 55.7742 123.214C56.1478 123.48 56.4288 123.758 56.6178 124.046C56.8073 124.335 56.9423 124.674 57.0228 125.064C57.1038 125.454 57.0847 125.87 56.9657 126.315C56.8647 126.692 56.7106 127.018 56.5033 127.295C56.2963 127.571 56.0398 127.78 55.7354 127.922C55.4309 128.064 55.1259 128.178 54.8218 128.262C54.518 128.346 54.1491 128.381 53.7162 128.366C53.2834 128.351 52.9077 128.33 52.5894 128.302C52.2708 128.274 51.8808 128.21 51.4192 128.108C50.9576 128.005 50.6082 127.927 50.3716 127.87C50.1347 127.814 49.8134 127.728 49.4073 127.612C49.0011 127.496 48.7639 127.429 48.6947 127.41L50.3555 121.211ZM55.3897 137.298C55.175 137.573 54.9338 137.797 54.6652 137.97C54.3965 138.143 54.0692 138.272 53.6839 138.356C53.2985 138.441 52.9321 138.494 52.5856 138.516C52.2385 138.539 51.8297 138.53 51.3592 138.491C50.8877 138.451 50.4788 138.403 50.1307 138.346C49.7832 138.289 49.3719 138.207 48.8963 138.102C48.4212 137.996 48.0519 137.908 47.7894 137.837C47.5267 137.767 47.1959 137.674 46.7968 137.56C46.3974 137.447 46.1428 137.375 46.0322 137.345L47.861 130.52C47.9715 130.549 48.3016 130.631 48.8514 130.763C49.4012 130.896 49.8484 131.009 50.194 131.102C50.5395 131.194 51.0113 131.342 51.6088 131.546C52.2059 131.749 52.7012 131.946 53.0945 132.138C53.4874 132.33 53.9064 132.576 54.3523 132.876C54.7978 133.175 55.1404 133.487 55.3797 133.811C55.6188 134.135 55.7915 134.513 55.8978 134.945C56.0045 135.378 55.9927 135.836 55.8628 136.321C55.7617 136.698 55.6042 137.024 55.3897 137.298Z" fill="white"/>
</g>
</svg>
