<svg width="30" height="31" viewBox="0 0 30 31" fill="none" xmlns="http://www.w3.org/2000/svg">
<path d="M6.05406 25.3092C7.6926 26.9478 9.61363 26.9666 11.2239 25.3563C12.3445 24.2357 13.5122 21.6461 14.388 20.5537L16.3467 22.5218C17.1377 23.3223 18.1076 23.3223 18.8798 22.5501L20.1228 21.2976C20.7444 20.6761 20.8668 19.9416 20.4713 19.2636L24.3698 15.365C25.4716 14.2633 25.4434 12.9449 24.3228 11.8243L16.9211 4.41322C15.8382 3.33029 14.0301 3.77288 13.6629 5.40199C12.9095 8.66964 12.7683 9.44182 11.9019 10.7884C11.2804 10.5248 10.6212 10.6754 10.0562 11.2404L8.8132 12.4835C8.04102 13.2556 8.04102 14.2162 8.84145 15.0166L10.8002 16.9753C9.72664 17.8511 7.12759 19.0188 6.00698 20.1394C4.3967 21.7496 4.40612 23.6707 6.05406 25.3092ZM18.3054 14.4139C18.7668 14.8753 21.2434 13.5476 22.317 12.3893L22.995 13.0579C23.3811 13.4534 23.3811 13.8866 23.0138 14.2538L19.2942 17.9829L13.2674 11.9467C14.3315 10.3082 14.5292 9.11223 15.2826 6.33426C15.3862 5.91992 15.7252 5.80692 16.0077 6.08942L20.3771 10.4588C20.1323 11.9561 19.313 13.0673 18.3242 14.0561C18.2018 14.1691 18.2206 14.3292 18.3054 14.4139ZM10.3481 13.5193L11.0827 12.8036C11.2898 12.5965 11.5158 12.5871 11.7324 12.8036L18.5596 19.6309C18.7668 19.838 18.7668 20.0735 18.5502 20.2806L17.844 21.0057C17.6274 21.2223 17.392 21.2317 17.1754 21.0151L14.9153 18.7363C14.5292 18.3502 14.0113 18.3878 13.5687 18.8116C12.8342 19.5367 11.5535 22.616 10.0562 24.1133C9.19929 24.9796 8.16344 24.9702 7.26884 24.0944C6.39307 23.1998 6.39307 22.1546 7.25 21.3071C8.7567 19.8098 11.8266 18.5291 12.5517 17.7946C12.9755 17.352 13.0131 16.8341 12.627 16.448L10.3481 14.1785C10.141 13.9619 10.141 13.7359 10.3481 13.5193ZM8.6437 23.8496C9.25579 23.8496 9.75489 23.3505 9.75489 22.7384C9.75489 22.1263 9.25579 21.6178 8.6437 21.6178C8.02219 21.6178 7.52309 22.1263 7.52309 22.7384C7.52309 23.3505 8.02219 23.8496 8.6437 23.8496Z" fill="#0E8EF3"/>
</svg>
