<svg width="30" height="30" viewBox="0 0 30 30" fill="none" xmlns="http://www.w3.org/2000/svg">
<path d="M7.41943 20.9757H11.2992C11.3651 22.7649 12.8341 24.4222 15 24.4222C17.1565 24.4222 18.6349 22.7837 18.7102 20.9757H22.5806C23.5599 20.9757 24.1626 20.4389 24.1626 19.629C24.1626 18.6214 23.2492 17.7645 22.3922 16.9452C21.7236 16.2955 21.5635 14.996 21.4411 13.6682C21.3093 10.118 20.264 7.74498 17.8156 6.85979C17.4484 5.60735 16.4031 4.65625 15 4.65625C13.5969 4.65625 12.5516 5.60735 12.1938 6.85979C9.73598 7.74498 8.70013 10.118 8.55887 13.6682C8.43645 14.996 8.27637 16.2955 7.60777 16.9452C6.75084 17.7645 5.8374 18.6214 5.8374 19.629C5.8374 20.4389 6.44008 20.9757 7.41943 20.9757ZM8.13511 19.2241V19.1111C8.37995 18.838 8.92613 18.3389 9.38756 17.8116C10.0373 17.0677 10.3387 15.6928 10.4328 13.9036C10.5458 10.1274 11.7135 8.85617 13.2202 8.45124C13.4556 8.38532 13.5781 8.27232 13.5969 8.01807C13.644 7.06696 14.1807 6.42662 15 6.42662C15.8287 6.42662 16.356 7.06696 16.4031 8.01807C16.4219 8.27232 16.5538 8.38532 16.7798 8.45124C18.2959 8.85617 19.4542 10.1274 19.5672 13.9036C19.6708 15.6928 19.9721 17.0677 20.6124 17.8116C21.0739 18.3389 21.6012 18.838 21.8461 19.1111V19.2241H8.13511ZM15 22.9061C13.9359 22.9061 13.1731 22.1433 13.1072 20.9757H16.9022C16.8457 22.1339 16.0735 22.9061 15 22.9061Z" fill="#0E8EF3"/>
</svg>
