<svg width="30" height="31" viewBox="0 0 30 31" fill="none" xmlns="http://www.w3.org/2000/svg">
<g clip-path="url(#clip0_686_3908)">
<path d="M3.83167 15.0166C3.83167 17.3614 4.98994 18.7551 7.15581 19.0565L9.29344 23.7649C9.83962 24.9797 10.6024 25.5729 11.7418 25.5729C13.2203 25.5729 14.2844 24.5088 13.9642 22.842L13.305 19.3955C15.97 19.9134 18.6538 20.8833 21.1304 22.3053C21.4694 23.3223 22.3829 23.9815 23.5788 23.9815C25.0949 23.9815 26.159 22.9174 26.159 21.3918V7.1724C26.159 5.64687 25.0949 4.58276 23.5788 4.58276C22.3546 4.58276 21.4223 5.27961 21.1022 6.34372C18.1924 8.067 14.4727 9.19702 11.5064 9.51719H8.06925C5.31953 9.51719 3.83167 10.958 3.83167 13.6135V15.0166ZM22.7784 21.3918V7.1724C22.7784 6.70156 23.0985 6.37197 23.5788 6.37197C24.0496 6.37197 24.3698 6.70156 24.3698 7.1724V21.3918C24.3698 21.8627 24.0496 22.1923 23.5788 22.1923C23.0985 22.1923 22.7784 21.8627 22.7784 21.3918ZM11.7983 17.3708V11.2593C15.1036 10.8638 18.2394 9.92212 20.9892 8.37776V20.2618C18.1829 18.6798 15.0754 17.7664 11.7983 17.3708ZM8.06925 17.3238C6.31771 17.3238 5.62087 16.6646 5.62087 15.0166V13.6135C5.62087 11.9656 6.31771 11.3064 8.06925 11.3064H10.0091V17.3238H8.06925ZM10.9696 23.2658L9.01093 19.113H11.4499C11.4781 19.113 11.5158 19.1224 11.5535 19.1224L12.3257 23.068C12.4293 23.5671 12.1467 23.8873 11.723 23.8873C11.3463 23.8873 11.1674 23.6896 10.9696 23.2658Z" fill="#0E8EF3"/>
</g>
<defs>
<clipPath id="clip0_686_3908">
<rect width="30" height="30" fill="white" transform="translate(0 0.5)"/>
</clipPath>
</defs>
</svg>
