<svg width="30" height="30" viewBox="0 0 30 30" fill="none" xmlns="http://www.w3.org/2000/svg">
<path d="M6.44946 23.4437H23.5316C25.5657 23.4437 26.6392 22.3891 26.6392 20.3738V10.4862C26.6392 8.47095 25.5657 7.41626 23.5316 7.41626H21.0268C20.2922 7.41626 20.0568 7.29384 19.5954 6.81358L18.8515 6.01315C18.3618 5.49522 17.8627 5.24097 16.9022 5.24097H13.0318C12.0713 5.24097 11.5722 5.49522 11.0826 6.01315L10.3386 6.81358C9.88661 7.28442 9.64178 7.41626 8.90726 7.41626H6.44946C4.41542 7.41626 3.35132 8.47095 3.35132 10.4862V20.3738C3.35132 22.3891 4.41542 23.4437 6.44946 23.4437ZM14.9905 20.4869C12.1749 20.4869 9.91487 18.2268 9.91487 15.4018C9.91487 12.5673 12.1749 10.3072 14.9905 10.3072C17.8156 10.3072 20.0756 12.5673 20.0756 15.4018C20.0756 18.2268 17.8156 20.4869 14.9905 20.4869ZM20.6783 11.9363C20.6783 11.2678 21.2528 10.6839 21.9402 10.6839C22.6182 10.6839 23.1926 11.2678 23.1926 11.9363C23.1926 12.6332 22.6182 13.1794 21.9402 13.1888C21.2528 13.1888 20.6783 12.6426 20.6783 11.9363ZM14.9905 18.7824C16.8645 18.7824 18.3712 17.2757 18.3712 15.4018C18.3712 13.5184 16.8645 12.0117 14.9905 12.0117C13.126 12.0117 11.6193 13.5184 11.6193 15.4018C11.6193 17.2757 13.1354 18.7824 14.9905 18.7824Z" fill="white"/>
</svg>
