<svg width="30" height="31" viewBox="0 0 30 31" fill="none" xmlns="http://www.w3.org/2000/svg">
<path d="M4.84568 25.6718H6.33802C6.67977 25.6718 6.81648 25.6034 7.0671 25.4098L7.83036 24.8288C8.25186 25.2503 8.87841 25.3414 9.50496 25.068L13.2757 23.4959C13.5605 23.382 13.7086 23.2681 13.8908 23.0858L24.8954 12.161C25.989 11.0674 25.989 9.7573 24.884 8.6409L22.412 6.15746C21.307 5.05245 19.9969 5.04106 18.9033 6.13468L7.89871 17.0481C7.70505 17.2418 7.60252 17.3785 7.47721 17.6747L5.88234 21.434C5.62033 22.0378 5.68868 22.6301 6.11018 23.0972L4.46975 24.7946C4.1166 25.1705 4.28748 25.6718 4.84568 25.6718ZM20.1678 7.63841C20.464 7.35361 20.8171 7.34222 21.0905 7.62702L23.4145 9.96236C23.6993 10.2472 23.6879 10.5889 23.3803 10.8851L22.6398 11.6256L19.4159 8.39028L20.1678 7.63841ZM9.91507 17.8342L18.1856 9.6206L21.3981 12.8559L13.139 21.0695L9.91507 17.8342ZM9.27713 23.0516C9.06068 23.1314 8.91259 23.1314 8.71892 22.9377L8.00123 22.2314C7.81896 22.0492 7.81896 21.8783 7.89871 21.6846L8.92398 19.3037L11.658 22.0606L9.27713 23.0516Z" fill="#0E8EF3"/>
</svg>
