<svg width="40" height="40" viewBox="0 0 40 40" fill="none" xmlns="http://www.w3.org/2000/svg">
<rect width="40" height="40" rx="20" fill="#0E8EF3"/>
<path d="M28.1479 11.8661C27.7658 11.4767 27.2813 11.2033 26.7504 11.0777C26.2195 10.952 25.6639 10.9792 25.1479 11.1561L10.9979 15.8861C10.4272 16.0729 9.92854 16.4323 9.57081 16.9145C9.21307 17.3968 9.01387 17.9783 9.0007 18.5786C8.98753 19.179 9.16104 19.7686 9.49728 20.2661C9.83352 20.7636 10.3159 21.1445 10.8779 21.3561L16.1179 23.3561C16.2372 23.4017 16.3458 23.4715 16.437 23.5609C16.5282 23.6504 16.6 23.7577 16.6479 23.8761L18.6479 29.1261C18.8514 29.6801 19.2209 30.1579 19.7058 30.4943C20.1908 30.8307 20.7676 31.0094 21.3579 31.0061H21.4279C22.0289 30.9952 22.6114 30.7964 23.0938 30.4378C23.5762 30.0791 23.9343 29.5785 24.1179 29.0061L28.8479 14.8361C29.0199 14.3251 29.0455 13.7761 28.9218 13.2512C28.7981 12.7263 28.53 12.2466 28.1479 11.8661ZM26.9979 14.2061L22.2179 28.3861C22.1623 28.5656 22.0509 28.7226 21.8997 28.8341C21.7486 28.9457 21.5657 29.006 21.3779 29.0061C21.1911 29.0092 21.0078 28.9553 20.8524 28.8517C20.697 28.7481 20.5769 28.5997 20.5079 28.4261L18.5079 23.1761C18.3629 22.7946 18.1392 22.4479 17.8515 22.1585C17.5638 21.8691 17.2185 21.6434 16.8379 21.4961L11.5879 19.4961C11.4107 19.4312 11.2585 19.3123 11.1526 19.1562C11.0468 19.0001 10.9926 18.8147 10.9979 18.6261C10.998 18.4383 11.0583 18.2554 11.1698 18.1042C11.2814 17.9531 11.4384 17.8416 11.6179 17.7861L25.7979 13.0561C25.9607 12.9898 26.1392 12.972 26.3119 13.0049C26.4846 13.0379 26.644 13.1202 26.7709 13.2418C26.8979 13.3634 26.9868 13.5192 27.0271 13.6904C27.0674 13.8615 27.0572 14.0406 26.9979 14.2061Z" fill="white"/>
</svg>
