<svg width="16" height="15" viewBox="0 0 16 15" fill="none" xmlns="http://www.w3.org/2000/svg">
<path d="M3.22405 14.793C3.55552 14.9889 4.03013 14.9362 4.29381 14.5519L12.9573 1.68476C13.2436 1.26288 13.0929 0.795806 12.7464 0.592402C12.4224 0.411598 11.9855 0.479399 11.7068 0.893741L3.04325 13.7233C2.74944 14.1527 2.87751 14.5896 3.22405 14.793ZM3.45759 7.70401C5.18276 7.70401 6.23744 6.34045 6.23744 4.14821C6.23744 1.9409 5.17522 0.615002 3.45759 0.615002C1.74749 0.615002 0.677734 1.94843 0.677734 4.14821C0.677734 6.34798 1.73996 7.70401 3.45759 7.70401ZM3.45759 6.46098C2.63644 6.46098 2.16936 5.6323 2.16936 4.14821C2.16936 2.68671 2.64397 1.85803 3.45759 1.85803C4.27121 1.85803 4.74581 2.67918 4.74581 4.14821C4.74581 5.6323 4.27874 6.46098 3.45759 6.46098ZM12.5354 14.8005C14.2606 14.8005 15.3153 13.437 15.3153 11.2447C15.3153 9.03744 14.2455 7.71154 12.5354 7.71154C10.8178 7.71154 9.74805 9.04497 9.74805 11.2447C9.74805 13.4445 10.8103 14.8005 12.5354 14.8005ZM12.5354 13.5575C11.7143 13.5575 11.2472 12.7288 11.2472 11.2447C11.2472 9.78325 11.7218 8.95457 12.5354 8.95457C13.3491 8.95457 13.8161 9.77572 13.8161 11.2447C13.8161 12.7288 13.3491 13.5575 12.5354 13.5575Z" fill="#0E8EF3"/>
</svg>
