<svg width="24" height="24" viewBox="0 0 24 24" fill="none" xmlns="http://www.w3.org/2000/svg">
<mask id="mask0_1460_7166" style="mask-type:alpha" maskUnits="userSpaceOnUse" x="0" y="0" width="24" height="24">
<rect width="24" height="24" fill="#C4C4C4"/>
</mask>
<g mask="url(#mask0_1460_7166)">
<path d="M3.248 5.009C3.083 5.406 3 5.825 3 6.255C3 6.685 3.083 7.104 3.247 7.501C3.412 7.897 3.649 8.253 3.953 8.557C4.257 8.861 4.613 9.098 5.009 9.262C6.206 9.758 7.637 9.475 8.556 8.557C9.171 7.942 9.509 7.124 9.509 6.255C9.509 5.386 9.171 4.568 8.556 3.953C7.941 3.338 7.124 3 6.254 3C5.824 3 5.405 3.083 5.008 3.248C4.612 3.412 4.257 3.65 3.953 3.953C3.649 4.257 3.412 4.613 3.248 5.009ZM5.021 5.021C5.68 4.362 6.83 4.362 7.489 5.021C7.819 5.351 8 5.789 8 6.255C8 6.721 7.818 7.159 7.488 7.489C7.158 7.819 6.72 8 6.254 8C5.788 8 5.35 7.818 5.021 7.489C4.692 7.16 4.509 6.721 4.509 6.255C4.509 5.789 4.691 5.351 5.021 5.021Z" fill="#0E8EF3"/>
<path d="M19.555 14.953C18.94 14.339 18.122 14 17.253 14C16.384 14 15.566 14.339 14.951 14.953C14.337 15.568 13.998 16.386 13.998 17.255C13.998 18.124 14.337 18.942 14.951 19.557C15.566 20.171 16.384 20.51 17.253 20.51C18.122 20.51 18.94 20.171 19.555 19.557C20.169 18.942 20.508 18.124 20.508 17.255C20.508 16.386 20.169 15.568 19.555 14.953ZM18.487 18.488C18.163 18.813 17.713 19 17.254 19C16.795 19 16.345 18.813 16.021 18.488C15.696 18.164 15.509 17.714 15.509 17.255C15.509 16.796 15.696 16.346 16.021 16.022C16.669 15.372 17.839 15.372 18.488 16.022C18.813 16.346 19 16.796 19 17.255C19 17.714 18.812 18.164 18.487 18.488Z" fill="#0E8EF3"/>
<path d="M4.68356 19.8936L19.8926 4.68457L18.8249 3.61685L3.61584 18.8259L4.68356 19.8936Z" fill="#0E8EF3"/>
</g>
</svg>
