<svg width="67" height="67" viewBox="0 0 67 67" fill="none" xmlns="http://www.w3.org/2000/svg">
<mask id="mask0" mask-type="alpha" maskUnits="userSpaceOnUse" x="0" y="0" width="67" height="67">
<rect width="67" height="67" fill="#EEF4FB"/>
</mask>
<g mask="url(#mask0)">
<path d="M27.8284 42H43C44.1046 42 45 41.1046 45 40V26C45 24.8954 44.1046 24 43 24H27.8942C27.3252 24 26.7831 24.2424 26.4037 24.6664L19.7616 32.09C19.0538 32.8811 19.0873 34.0873 19.8378 34.8378L26.4142 41.4142C26.7893 41.7893 27.298 42 27.8284 42Z" stroke="#0E8EF3" stroke-width="1.5"/>
<path fill-rule="evenodd" clip-rule="evenodd" d="M31.6826 29.2034C31.4114 28.9322 30.9717 28.9322 30.7005 29.2034C30.4293 29.4746 30.4293 29.9143 30.7005 30.1855L33.1876 32.6726C33.3684 32.8534 33.3684 33.1466 33.1876 33.3274L30.7005 35.8145C30.4293 36.0857 30.4293 36.5254 30.7005 36.7966C30.9717 37.0678 31.4114 37.0678 31.6826 36.7966L34.4997 33.9794L37.3169 36.7966C37.5881 37.0678 38.0278 37.0678 38.299 36.7966C38.5702 36.5254 38.5702 36.0857 38.299 35.8145L35.8119 33.3274C35.6311 33.1466 35.6311 32.8534 35.8119 32.6726L38.299 30.1855C38.5702 29.9143 38.5702 29.4746 38.299 29.2034C38.0278 28.9322 37.5881 28.9322 37.3169 29.2034L34.4997 32.0206L31.6826 29.2034Z" fill="#0E8EF3"/>
</g>
</svg>
