<svg width="155" height="176" viewBox="0 0 155 176" fill="none" xmlns="http://www.w3.org/2000/svg">
<g clip-path="url(#clip0)">
<path d="M128.199 80.2792L92.778 9.4697C89.6199 3.15657 83.5599 0 77.4999 0C71.4399 0 65.3799 3.15657 62.2218 9.38439L26.8006 80.1939C22.0208 89.6636 26.9713 99.9011 35.3358 103.655H35.2504C35.2504 103.655 44.1271 108.774 57.0153 101.607C64.5263 98.792 72.8909 96.9152 77.4999 97.1711C82.1089 96.9152 90.4735 98.792 97.9845 101.607C110.873 108.774 119.749 103.655 119.749 103.655H119.664C128.114 99.9864 132.979 89.7489 128.199 80.2792ZM67.7697 13.7353L68.3672 12.4556C70.2449 8.70189 73.9151 6.82501 77.4999 6.82501C81.1701 6.82501 84.7549 8.61658 86.6326 12.4556L87.2301 13.7353C88.9371 18.1716 89.876 22.8638 89.876 27.6413C89.876 42.4004 85.267 56.9035 77.4145 69.1032C69.6475 56.8182 64.9531 42.4004 64.9531 27.6413C65.0384 22.8638 66.0627 18.2569 67.7697 13.7353ZM43.9564 98.5361C36.8721 98.5361 29.1051 91.0286 32.9459 83.3505L58.381 32.5041C59.3198 47.7751 64.697 62.6195 73.2323 75.2458C66.148 85.3126 56.6739 98.6214 43.9564 98.5361ZM77.4999 90.0048C74.2565 90.0048 72.1227 90.5167 69.7328 91.1992C72.208 88.4692 74.7686 84.6301 77.4999 80.7911C80.2312 84.6301 82.7064 88.4692 85.267 91.1992C82.8771 90.5167 80.7433 90.0048 77.4999 90.0048ZM111.043 98.5361C98.4112 98.6214 88.9371 85.3126 81.7675 75.1604C90.3028 62.6195 95.68 47.6898 96.6188 32.4188L122.054 83.3505C125.895 91.0286 118.128 98.5361 111.043 98.5361Z" fill="white"/>
<path d="M21.5942 135.306C21.0821 134.282 20.0579 133.6 18.9483 133.6C17.7534 133.6 16.7292 134.282 16.3024 135.391L0.256136 171.82C-0.426683 173.27 0.256136 175.062 1.79248 175.659C2.21924 175.829 2.56065 175.915 2.98741 175.915C4.09699 175.915 5.20658 175.232 5.71869 174.123L11.6934 160.388H26.5447L32.8608 174.208C33.5436 175.659 35.2506 176.341 36.787 175.659C38.238 174.976 38.9208 173.27 38.238 171.734L21.5942 135.306ZM14.2539 154.501L18.9483 143.752L23.8988 154.501H14.2539Z" fill="white"/>
<path d="M154.744 171.734L138.1 135.306C137.588 134.282 136.564 133.6 135.454 133.6C134.259 133.6 133.235 134.282 132.808 135.391L116.847 171.82C116.165 173.27 116.847 175.062 118.384 175.659C118.811 175.829 119.152 175.915 119.579 175.915C120.688 175.915 121.798 175.232 122.31 174.123L128.285 160.388H143.136L149.452 174.208C150.135 175.659 151.842 176.341 153.378 175.659C154.744 174.976 155.427 173.27 154.744 171.734ZM130.76 154.501L135.454 143.752L140.405 154.501H130.76Z" fill="white"/>
<path d="M70.9279 133.856C69.3063 133.856 67.9406 135.135 67.9406 136.841V159.62C67.9406 165.421 63.2462 170.113 57.4423 170.113C51.6383 170.113 46.9439 165.421 46.9439 159.62V136.5C46.9439 134.879 45.6636 133.514 43.9566 133.514C42.2495 133.514 40.9692 134.879 40.9692 136.5V159.62C40.9692 168.663 48.3095 176 57.3569 176C66.4043 176 73.7446 168.663 73.7446 159.62V136.841C73.8299 135.135 72.5496 133.856 70.9279 133.856Z" fill="white"/>
<path d="M113.86 146.652C113.86 139.145 107.715 133.002 100.204 133.002H83.8162C82.1945 133.002 80.8289 134.282 80.8289 135.988C80.8289 136.244 80.8289 136.415 80.9142 136.671C80.8289 136.841 80.8289 137.097 80.8289 137.353V173.185C80.8289 174.806 82.1091 176.171 83.8162 176.171C85.5232 176.171 86.8035 174.891 86.8035 173.185V138.974H100.204C104.471 138.974 107.971 142.472 107.971 146.738C107.971 151.003 104.471 154.501 100.204 154.501H98.4968C97.3872 154.501 96.363 155.098 95.8509 156.122C95.3388 157.146 95.4241 158.255 96.1069 159.193L107.544 174.891C108.142 175.659 108.995 176.085 109.934 176.085C110.532 176.085 111.129 175.915 111.641 175.488C112.921 174.55 113.263 172.673 112.324 171.393L103.874 159.876C109.593 158.084 113.86 152.88 113.86 146.652Z" fill="white"/>
</g>
<defs>
<clipPath id="clip0">
<rect width="155" height="176" fill="white"/>
</clipPath>
</defs>
</svg>
