<svg width="24" height="24" viewBox="0 0 24 24" fill="none" xmlns="http://www.w3.org/2000/svg">
<mask id="mask0" mask-type="alpha" maskUnits="userSpaceOnUse" x="0" y="0" width="24" height="24">
<rect width="24" height="24" fill="white"/>
</mask>
<g mask="url(#mask0)">
<path d="M19.8321 10.5529C19.447 10.5529 19.1344 10.8654 19.1344 11.2506V18.6928C19.1344 18.9988 19.0098 19.2984 18.7939 19.5151C18.5781 19.7319 18.2776 19.8556 17.9716 19.8556H6.80826C6.5022 19.8556 6.20265 19.731 5.9859 19.5151C5.76914 19.2993 5.64541 18.9988 5.64541 18.6928V11.2506C5.64541 10.8654 5.33284 10.5529 4.94771 10.5529C4.56257 10.5529 4.25 10.8654 4.25 11.2506V18.6928C4.25 19.3756 4.51606 20.0184 4.9998 20.5012C5.48355 20.984 6.12544 21.251 6.80826 21.251H17.9716C18.6544 21.251 19.2972 20.985 19.78 20.5012C20.2628 20.0175 20.5298 19.3756 20.5298 18.6928V11.2506C20.5298 10.8654 20.2173 10.5529 19.8321 10.5529Z" fill="white"/>
<path d="M9.16215 6.1619L11.6925 3.63155V14.0413C11.6925 14.4265 12.0051 14.739 12.3902 14.739C12.7753 14.739 13.0879 14.4265 13.0879 14.0413V3.63248L15.6183 6.16283C15.7541 6.29866 15.9327 6.3675 16.1113 6.3675C16.2899 6.3675 16.4685 6.29959 16.6044 6.16283C16.8769 5.89026 16.8769 5.44838 16.6044 5.17581L12.8833 1.45471C12.8191 1.39052 12.7419 1.33935 12.6563 1.304C12.486 1.2333 12.2935 1.2333 12.1232 1.304C12.0376 1.33935 11.9604 1.39052 11.8962 1.45471L8.17513 5.17581C7.90256 5.44838 7.90256 5.89026 8.17513 6.16283C8.4477 6.43541 8.88958 6.43448 9.16215 6.1619Z" fill="white"/>
</g>
</svg>
