<svg width="30" height="31" viewBox="0 0 30 31" fill="none" xmlns="http://www.w3.org/2000/svg">
<g clip-path="url(#clip0_413_9338)">
<path d="M14.8 15.5C13.59 15.5 12.6 14.51 12.6 13.3C12.6 12.09 13.59 11.1 14.8 11.1C16.01 11.1 17 12.09 17 13.3C17 14.51 16.01 15.5 14.8 15.5ZM21.4 13.52C21.4 9.527 18.485 6.7 14.8 6.7C11.115 6.7 8.2 9.527 8.2 13.52C8.2 16.0499 10.2722 19.3874 14.5731 23.3655C14.7006 23.4834 14.8994 23.4834 15.0269 23.3655C19.3278 19.3874 21.4 16.0499 21.4 13.52ZM14.8 4.5C19.42 4.5 23.6 8.042 23.6 13.52C23.6 17.1263 20.7361 21.3868 15.0189 26.3123C14.8939 26.42 14.7061 26.42 14.5811 26.3123C8.8639 21.3868 6 17.1263 6 13.52C6 8.042 10.18 4.5 14.8 4.5Z" fill="#0E8EF3"/>
</g>
<defs>
<clipPath id="clip0_413_9338">
<rect width="30" height="30" fill="white" transform="translate(0 0.5)"/>
</clipPath>
</defs>
</svg>
