<svg width="18" height="19" viewBox="0 0 18 19" fill="none" xmlns="http://www.w3.org/2000/svg">
<path d="M0.729094 16.1333C0.280852 16.5816 0.259507 17.382 0.739766 17.8516C1.20935 18.3212 2.00979 18.3105 2.45803 17.8623L8.98956 11.3201L15.5318 17.8623C15.9907 18.3212 16.7804 18.3212 17.25 17.8516C17.7089 17.3713 17.7196 16.5922 17.25 16.1333L10.7185 9.59112L17.25 3.05959C17.7196 2.60068 17.7196 1.81092 17.25 1.34133C16.7698 0.882414 15.9907 0.871742 15.5318 1.33066L8.98956 7.87286L2.45803 1.33066C2.00979 0.882414 1.19868 0.861069 0.739766 1.34133C0.270179 1.81092 0.280852 2.61135 0.729094 3.05959L7.2713 9.59112L0.729094 16.1333Z" fill="white"/>
</svg>
