<svg width="22" height="24" viewBox="0 0 22 24" fill="none" xmlns="http://www.w3.org/2000/svg">
<path d="M18.1721 12.1565L10.2852 20.0435C8.28943 22.0499 5.59998 21.8578 3.88172 20.1288C2.14211 18.3999 1.95 15.7318 3.96709 13.7147L14.7463 2.93556C15.9202 1.76159 17.6705 1.55881 18.8124 2.70076C19.9544 3.85339 19.741 5.59299 18.567 6.75629L7.9906 17.354C7.52101 17.8343 6.96605 17.6955 6.62453 17.3754C6.31503 17.0445 6.18696 16.4895 6.65655 16.0093L14.0312 8.63464C14.4047 8.25043 14.4261 7.69546 14.0632 7.3326C13.7004 6.99108 13.1454 7.00175 12.7719 7.37529L5.36518 14.782C4.21256 15.9346 4.25525 17.6955 5.2798 18.7201C6.38974 19.83 8.06531 19.798 9.21793 18.6454L19.8477 8.00496C21.9181 5.94518 21.8434 3.22371 20.0291 1.4094C18.2468 -0.362225 15.4826 -0.490295 13.4122 1.58016L2.56901 12.434C-0.13112 15.1448 0.0503114 19.0296 2.51564 21.4949C4.9703 23.9389 8.86574 24.131 11.5659 21.4309L19.5062 13.5013C19.869 13.1384 19.869 12.4767 19.4955 12.1352C19.1433 11.751 18.5456 11.8043 18.1721 12.1565Z" fill="white"/>
</svg>
