<svg width="24" height="23" viewBox="0 0 24 23" fill="none" xmlns="http://www.w3.org/2000/svg">
<path d="M21.4348 5.54744H21.1413V2.71039C21.1413 1.52634 20.1733 0.562988 18.9835 0.562988H3.33307C1.60603 0.562988 0.182087 1.87762 0.0177109 3.55409C-0.00739245 3.67255 0.00154657 2.61701 0.00154657 18.966C0.00154657 20.7942 1.49603 22.2815 3.33302 22.2815H21.4348C22.6246 22.2815 23.5925 21.3182 23.5925 20.1341V7.69485C23.5926 6.5108 22.6246 5.54744 21.4348 5.54744ZM3.33307 2.03803H18.9835C19.356 2.03803 19.6591 2.33966 19.6591 2.71044V5.54749H3.33307C2.34223 5.54749 1.53109 4.76791 1.48589 3.79276C1.53104 2.81756 2.34218 2.03803 3.33307 2.03803ZM21.4348 20.8065H3.33307C2.31332 20.8065 1.48371 19.9809 1.48371 18.966V6.46351C2.01315 6.81644 2.64935 7.02244 3.33307 7.02244H21.4348C21.8074 7.02244 22.1105 7.32407 22.1105 7.69485V10.6847H16.5336C14.6343 10.6847 13.0891 12.2225 13.0891 14.1126C13.0891 16.0028 14.6343 17.5405 16.5336 17.5405H22.1105V20.1341C22.1105 20.5049 21.8074 20.8065 21.4348 20.8065ZM22.1105 16.0656H16.5336C15.4516 16.0656 14.5713 15.1895 14.5713 14.1127C14.5713 13.0358 15.4515 12.1598 16.5336 12.1598H22.1105V16.0656Z" fill="#0E8EF3"/>
<path d="M16.8074 15.1816C17.4005 15.1816 17.8814 14.7031 17.8814 14.1128C17.8814 13.5225 17.4005 13.0439 16.8074 13.0439C16.2142 13.0439 15.7334 13.5225 15.7334 14.1128C15.7334 14.7031 16.2142 15.1816 16.8074 15.1816Z" fill="#0E8EF3"/>
</svg>
