<svg width="20" height="20" viewBox="0 0 20 20" fill="none" xmlns="http://www.w3.org/2000/svg">
<path d="M17.3095 10.2791C17.7371 10.0878 18.115 9.8147 18.4323 9.46894C18.7496 9.12226 18.9877 8.72132 19.1413 8.279C19.2967 7.82657 19.3574 7.3539 19.3243 6.87388C19.2958 6.4665 19.1983 6.07292 19.0365 5.70325L18.9445 5.52669C18.1123 3.86317 16.8368 2.46816 15.2542 1.49156C13.6744 0.515886 11.8573 0 9.99881 0C8.13573 0 6.3168 0.517725 4.73604 1.49708C3.15528 2.47644 1.88073 3.87328 1.05127 5.53589C0.221808 7.19941 -0.127633 9.05789 0.04157 10.909C0.210773 12.762 0.891264 14.5257 2.00856 16.0109C3.12585 17.496 4.63305 18.639 6.36462 19.3158C7.52789 19.7692 8.75002 20 9.99973 20C10.6048 20 11.2127 19.9439 11.8085 19.8345C12.2582 19.7499 12.6831 19.5788 13.0684 19.3241C13.4518 19.0712 13.7774 18.7484 14.033 18.3668C14.3089 17.9493 14.4965 17.4886 14.5894 16.9985C14.6841 16.5083 14.6795 16.0118 14.5756 15.5207C14.5167 15.2099 14.4845 14.8936 14.4809 14.5791C14.4845 13.6622 14.753 12.7739 15.257 12.0088C15.7618 11.2428 16.4708 10.6451 17.3095 10.2791ZM13.8932 11.1499C13.2284 12.1725 12.8762 13.3588 12.8725 14.5781C12.8734 15.0011 12.9157 15.4269 12.9994 15.8435C13.0583 16.1166 13.0619 16.3971 13.0104 16.6748C12.958 16.9516 12.8532 17.2109 12.6978 17.4463C12.5654 17.6523 12.3934 17.827 12.1865 17.964C11.9823 18.0983 11.7479 18.1912 11.5078 18.2307C11.0159 18.3236 10.5119 18.3705 10.0135 18.3705H9.99237C8.86496 18.3705 7.76698 18.148 6.72602 17.7075C5.68413 17.267 4.75719 16.6316 3.97095 15.8205C3.1847 15.0094 2.5787 14.0641 2.1704 13.0084C1.76211 11.9546 1.57359 10.8474 1.60854 9.71723C1.68119 7.6169 2.52812 5.63152 3.9921 4.12617C5.45607 2.61989 7.41754 1.71778 9.51419 1.5872H9.99053C11.5538 1.5872 13.0831 2.024 14.4119 2.84795C15.7398 3.67189 16.8092 4.84804 17.5054 6.24948C17.7279 6.71203 17.761 7.23252 17.6001 7.71714L17.5936 7.75576C17.51 7.99025 17.3821 8.2036 17.2111 8.38935C17.041 8.57419 16.8405 8.7204 16.6134 8.82431C15.4988 9.32365 14.559 10.1283 13.8932 11.1499Z" fill="#0E8EF3"/>
<path d="M9.99897 16.329C10.4434 16.329 10.8036 15.9687 10.8036 15.5244C10.8036 15.08 10.4434 14.7197 9.99897 14.7197C9.55458 14.7197 9.19434 15.08 9.19434 15.5244C9.19434 15.9687 9.55458 16.329 9.99897 16.329Z" fill="#0E8EF3"/>
<path d="M6.09956 14.6885C6.54394 14.6885 6.90419 14.3282 6.90419 13.8839C6.90419 13.4395 6.54394 13.0792 6.09956 13.0792C5.65517 13.0792 5.29492 13.4395 5.29492 13.8839C5.29492 14.3282 5.65517 14.6885 6.09956 14.6885Z" fill="#0E8EF3"/>
<path d="M9.99995 10.8124C10.4443 10.8124 10.8046 10.4521 10.8046 10.0078C10.8046 9.56337 10.4443 9.20312 9.99995 9.20312C9.55556 9.20312 9.19531 9.56337 9.19531 10.0078C9.19531 10.4521 9.55556 10.8124 9.99995 10.8124Z" fill="#0E8EF3"/>
<path d="M4.48237 10.8042C4.92676 10.8042 5.287 10.444 5.287 9.99958C5.287 9.55519 4.92676 9.19495 4.48237 9.19495C4.03798 9.19495 3.67773 9.55519 3.67773 9.99958C3.67773 10.444 4.03798 10.8042 4.48237 10.8042Z" fill="#0E8EF3"/>
<path d="M6.09956 6.88124C6.54394 6.88124 6.90419 6.52099 6.90419 6.07661C6.90419 5.63222 6.54394 5.27197 6.09956 5.27197C5.65517 5.27197 5.29492 5.63222 5.29492 6.07661C5.29492 6.52099 5.65517 6.88124 6.09956 6.88124Z" fill="#0E8EF3"/>
<path d="M9.99995 5.29494C10.4443 5.29494 10.8046 4.93469 10.8046 4.4903C10.8046 4.04592 10.4443 3.68567 9.99995 3.68567C9.55556 3.68567 9.19531 4.04592 9.19531 4.4903C9.19531 4.93469 9.55556 5.29494 9.99995 5.29494Z" fill="#0E8EF3"/>
<path d="M13.9023 6.91799C14.3467 6.91799 14.7069 6.55774 14.7069 6.11335C14.7069 5.66896 14.3467 5.30872 13.9023 5.30872C13.4579 5.30872 13.0977 5.66896 13.0977 6.11335C13.0977 6.55774 13.4579 6.91799 13.9023 6.91799Z" fill="#0E8EF3"/>
</svg>
