<svg width="15" height="14" viewBox="0 0 15 14" fill="none" xmlns="http://www.w3.org/2000/svg">
<path d="M14.2002 8.67001V13.6341H11.2944V8.9727C11.2944 7.82247 10.8706 7.03548 9.84145 7.03548C9.05446 7.03548 8.57015 7.58032 8.38854 8.06462C8.328 8.24624 8.26746 8.48839 8.26746 8.79108V13.6341H5.36163C5.36163 13.6341 5.42217 5.76418 5.36163 4.97718H8.26746V6.18794C8.63069 5.58256 9.35715 4.73503 10.8706 4.73503C12.7473 4.73503 14.2002 6.00633 14.2002 8.67001ZM2.33472 0.800049C1.36611 0.800049 0.700195 1.46597 0.700195 2.3135C0.700195 3.16104 1.30558 3.82696 2.27419 3.82696C3.30333 3.82696 3.90872 3.16104 3.90872 2.3135C3.96925 1.40543 3.36387 0.800049 2.33472 0.800049ZM0.881809 13.6341H3.78764V4.97718H0.881809V13.6341Z" fill="white"/>
</svg>
