<svg width="31" height="28" viewBox="0 0 31 28" fill="none" xmlns="http://www.w3.org/2000/svg">
<path d="M23.1709 8.99586H22.922V6.5792C22.922 5.5706 22.1015 4.75 21.0928 4.75H7.82558C6.36153 4.75 5.15442 5.86983 5.01508 7.29788C4.99379 7.39878 5.00137 6.49965 5.00137 20.4261C5.00137 21.9833 6.26828 23.2503 7.82554 23.2503H23.1708C24.1795 23.2503 25 22.4297 25 21.4211V10.8251C25.0001 9.81646 24.1795 8.99586 23.1709 8.99586ZM7.82558 6.00647H21.0928C21.4087 6.00647 21.6656 6.26341 21.6656 6.57924V8.9959H7.82558C6.98562 8.9959 6.298 8.33184 6.25968 7.50118C6.29797 6.67049 6.98558 6.00647 7.82558 6.00647ZM23.1709 21.9938H7.82558C6.96112 21.9938 6.25784 21.2905 6.25784 20.4261V9.77618C6.70666 10.0768 7.24598 10.2523 7.82558 10.2523H23.1709C23.4867 10.2523 23.7436 10.5092 23.7436 10.8251V13.3719H19.016C17.406 13.3719 16.0961 14.6818 16.0961 16.2919C16.0961 17.9019 17.406 19.2118 19.016 19.2118H23.7436V21.4211C23.7436 21.7369 23.4867 21.9938 23.1709 21.9938ZM23.7436 17.9554H19.016C18.0988 17.9554 17.3525 17.2092 17.3525 16.2919C17.3525 15.3746 18.0987 14.6284 19.016 14.6284H23.7436V17.9554Z" fill="#89909A"/>
<path d="M19.2478 17.2022C19.7507 17.2022 20.1583 16.7946 20.1583 16.2918C20.1583 15.789 19.7507 15.3813 19.2478 15.3813C18.745 15.3813 18.3374 15.789 18.3374 16.2918C18.3374 16.7946 18.745 17.2022 19.2478 17.2022Z" fill="#89909A"/>
</svg>
