<svg width="19" height="15" viewBox="0 0 19 15" fill="none" xmlns="http://www.w3.org/2000/svg">
<path d="M18.5404 2.40995C17.9104 2.67995 17.1904 2.85995 16.4704 2.94995C17.1904 2.49995 17.8204 1.77995 18.0904 0.969954C17.3704 1.41995 16.6504 1.68995 15.7504 1.86995C15.1204 1.14995 14.1304 0.699951 13.1404 0.699951C11.1604 0.699951 9.54038 2.31995 9.54038 4.29995C9.54038 4.56995 9.54039 4.83995 9.63039 5.10995C6.66039 4.92995 3.96039 3.48995 2.16039 1.32995C1.89039 1.86995 1.71039 2.49995 1.71039 3.12995C1.71039 4.38995 2.34039 5.46995 3.33039 6.09995C2.70039 6.09995 2.16039 5.91995 1.71039 5.64995C1.71039 7.35995 2.97038 8.88995 4.59038 9.15995C4.32038 9.24995 3.96039 9.24995 3.60039 9.24995C3.33039 9.24995 3.15039 9.24995 2.88039 9.15995C3.33039 10.5999 4.68039 11.6799 6.30039 11.6799C5.04039 12.6699 3.51039 13.2099 1.80039 13.2099C1.53039 13.2099 1.26039 13.21 0.900391 13.12C2.52039 14.11 4.41039 14.74 6.48039 14.74C13.1404 14.74 16.7404 9.24995 16.7404 4.47995V4.02995C17.4604 3.75995 18.0904 3.12995 18.5404 2.40995Z" fill="white"/>
</svg>
