<svg width="20" height="20" viewBox="0 0 20 20" fill="none" xmlns="http://www.w3.org/2000/svg">
<mask id="mask0_820_27179" style="mask-type:alpha" maskUnits="userSpaceOnUse" x="0" y="0" width="20" height="20">
<rect width="20" height="20" fill="#C4C4C4"/>
</mask>
<g mask="url(#mask0_820_27179)">
<path d="M18.2488 3.84332H9.86175V3.75115L9.76958 3.65899C9.76958 3.65899 9.67742 3.47465 9.58525 3.38249L9.49309 3.19816C9.12442 2.73733 8.84793 2.46083 8.47926 2.2765C8.1106 2.09217 7.74194 2 7.18894 2H1.65899C0.737327 2 0 2.73733 0 3.65899V16.5622C0 17.4839 0.737327 18.3134 1.65899 18.3134H18.2488C19.1705 18.3134 20 17.576 20 16.5622V5.5023C20 4.58065 19.2627 3.84332 18.2488 3.84332ZM18.4332 9.09677V16.7465H1.56682V9.09677H18.4332ZM1.56682 7.52995V3.56682H7.28111C7.46544 3.56682 7.64977 3.56682 7.8341 3.75115C7.92627 3.84332 8.01843 3.93548 8.20276 4.21198L8.29493 4.30415C8.3871 4.39631 8.47926 4.48848 8.47926 4.58065C8.75576 4.85714 9.03226 5.04147 9.21659 5.22581C9.49309 5.41014 9.67742 5.41014 9.95392 5.41014H18.4332V7.52995H1.56682Z" fill="#0E8EF3"/>
</g>
</svg>
