<svg width="24" height="24" viewBox="0 0 24 24" fill="none" xmlns="http://www.w3.org/2000/svg">
<mask id="mask0_1460_7180" style="mask-type:alpha" maskUnits="userSpaceOnUse" x="0" y="0" width="24" height="24">
<rect width="24" height="24" fill="#C4C4C4"/>
</mask>
<g mask="url(#mask0_1460_7180)">
<path d="M17.206 5.4H11.3V2.5H12.761C12.965 2.5 13.157 2.422 13.3 2.279C13.444 2.137 13.523 1.949 13.523 1.75C13.523 1.55 13.444 1.362 13.3 1.221C13.157 1.078 12.965 1 12.761 1H10.539C10.338 1 10.142 1.081 9.999 1.221C9.856 1.362 9.778 1.55 9.778 1.75V5.4H6.094C5 5.4 3.972 5.822 3.198 6.587C2.425 7.352 2 8.369 2 9.45V16.051C2 16.247 2.081 16.44 2.222 16.579C2.364 16.719 2.56 16.8 2.761 16.8H9.778V21.55C9.778 21.746 9.859 21.94 9.999 22.078C10.283 22.359 10.794 22.358 11.079 22.078C11.219 21.94 11.3 21.747 11.3 21.55V16.8H20.539C20.743 16.8 20.935 16.721 21.079 16.578C21.22 16.439 21.301 16.246 21.301 16.05V9.45C21.301 8.369 20.875 7.353 20.103 6.588C19.34 5.833 18.285 5.4 17.206 5.4ZM13.682 7.432C13.311 8.041 13.114 8.739 13.111 9.451V15.299H3.522V9.45C3.522 8.768 3.79 8.128 4.277 7.646C4.763 7.165 5.409 6.9 6.094 6.9H14.006L13.682 7.432ZM19.777 15.299H14.633V9.45C14.633 8.768 14.901 8.127 15.388 7.645C16.361 6.684 18.05 6.684 19.023 7.645C19.509 8.126 19.777 8.767 19.777 9.45V15.299Z" fill="#0E8EF3"/>
<path d="M9.42736 9.80005H7.20536C7.00436 9.80005 6.80836 9.88105 6.66536 10.021C6.52236 10.163 6.44336 10.351 6.44336 10.55C6.44336 10.75 6.52236 10.938 6.66536 11.079C6.80736 11.22 7.00336 11.3 7.20536 11.3H9.42736C9.62836 11.3 9.82436 11.219 9.96736 11.079C10.1094 10.938 10.1874 10.75 10.1874 10.55C10.1874 10.35 10.1084 10.162 9.96636 10.021C9.82436 9.88005 9.62736 9.80005 9.42736 9.80005Z" fill="#0E8EF3"/>
</g>
</svg>
