<svg width="12" height="9" viewBox="0 0 12 9" fill="none" xmlns="http://www.w3.org/2000/svg">
<path d="M2.15198 8.79971H9.83895C10.7543 8.79971 11.2374 8.3251 11.2374 7.41826V2.96879C11.2374 2.06195 10.7543 1.58734 9.83895 1.58734H8.68209C8.35156 1.58734 8.24562 1.53225 8.03798 1.31614L7.70321 0.955941C7.48286 0.722874 7.25827 0.608459 6.82603 0.608459H5.14371C4.71148 0.608459 4.49112 0.722874 4.26653 0.955941L3.93176 1.31614C3.72836 1.52801 3.61818 1.58734 3.28765 1.58734H2.15198C1.23666 1.58734 0.757812 2.06195 0.757812 2.96879V7.41826C0.757812 8.3251 1.23666 8.79971 2.15198 8.79971ZM2.20707 7.95643C1.82145 7.95643 1.60109 7.75302 1.60109 7.34198V3.04507C1.60109 2.63826 1.82145 2.43486 2.20707 2.43486H3.53343C3.91481 2.43486 4.10974 2.36706 4.32586 2.13399L4.64791 1.77803C4.88522 1.51954 5.01235 1.45174 5.38525 1.45174H6.58449C6.9574 1.45174 7.08452 1.51954 7.31759 1.77379L7.64389 2.13399C7.86 2.36706 8.05493 2.43486 8.43631 2.43486H9.78386C10.1737 2.43486 10.3898 2.63826 10.3898 3.04507V7.34198C10.3898 7.75302 10.1737 7.95643 9.78386 7.95643H2.20707ZM5.99547 7.39707C7.26674 7.39707 8.28376 6.38005 8.28376 5.10454C8.28376 3.82902 7.26674 2.812 5.99547 2.812C4.72843 2.812 3.71141 3.82902 3.71141 5.10454C3.71141 6.38005 4.72843 7.39707 5.99547 7.39707ZM8.42784 3.58748C8.42784 3.89682 8.67786 4.13837 8.98296 4.13413C9.27959 4.13413 9.52961 3.89259 9.52961 3.58748C9.52961 3.29085 9.27535 3.03659 8.98296 3.03659C8.67786 3.03659 8.42784 3.29085 8.42784 3.58748ZM5.99547 6.62583C5.16066 6.62583 4.47841 5.94781 4.47841 5.10454C4.47841 4.25702 5.15642 3.58324 5.99547 3.58324C6.83874 3.58324 7.51676 4.25702 7.51676 5.10454C7.51676 5.94781 6.83874 6.62583 5.99547 6.62583Z" fill="white"/>
</svg>
