<svg width="30" height="31" viewBox="0 0 30 31" fill="none" xmlns="http://www.w3.org/2000/svg">
<path d="M14.9906 24.8666C20.33 24.8666 24.737 20.4595 24.737 15.1296C24.737 9.79966 20.3205 5.39258 14.9812 5.39258C9.65124 5.39258 5.25357 9.79966 5.25357 15.1296C5.25357 20.4595 9.66066 24.8666 14.9906 24.8666ZM14.9906 18.3878C12.335 18.3878 10.2728 19.3389 9.27457 20.4313C7.99387 19.047 7.21228 17.1825 7.21228 15.1296C7.21228 10.8073 10.6683 7.34187 14.9812 7.34187C19.3035 7.34187 22.7783 10.8073 22.7878 15.1296C22.7878 17.1825 22.0062 19.047 20.716 20.4407C19.7179 19.3389 17.6556 18.3878 14.9906 18.3878ZM14.9906 16.8435C16.8175 16.8623 18.2394 15.2991 18.2394 13.2839C18.2394 11.3817 16.8081 9.79025 14.9906 9.79025C13.1826 9.79025 11.7418 11.3817 11.7512 13.2839C11.7606 15.2991 13.1731 16.8341 14.9906 16.8435Z" fill="#0E8EF3"/>
</svg>
