<svg width="30" height="30" viewBox="0 0 30 30" fill="none" xmlns="http://www.w3.org/2000/svg">
<path d="M14.9904 24.3666C20.3298 24.3666 24.7369 19.9595 24.7369 14.6296C24.7369 9.29966 20.3204 4.89258 14.981 4.89258C9.65109 4.89258 5.25342 9.29966 5.25342 14.6296C5.25342 19.9595 9.66051 24.3666 14.9904 24.3666ZM9.3215 8.72524C10.2538 7.83064 11.4026 7.14321 12.6739 6.75711C12.0053 7.42571 11.4403 8.37681 11.0165 9.52567C10.3574 9.3185 9.78292 9.04541 9.3215 8.72524ZM17.3164 6.76653C18.5877 7.15262 19.7271 7.83064 20.6594 8.73465C20.198 9.05483 19.633 9.3185 18.9738 9.53509C18.55 8.37681 17.985 7.43513 17.3164 6.76653ZM12.3255 9.85526C12.8434 8.47098 13.5497 7.45396 14.3313 7.0867V10.0624C13.6156 10.0342 12.947 9.96826 12.3255 9.85526ZM15.6496 7.0867C16.4312 7.45396 17.1469 8.47098 17.6554 9.85526C17.0433 9.96826 16.3653 10.0342 15.6496 10.0624V7.0867ZM6.8072 13.9704C6.93903 12.379 7.5323 10.9099 8.45515 9.70459C9.02016 10.1283 9.76409 10.4956 10.6304 10.7687C10.3856 11.7386 10.2349 12.8216 10.1878 13.9704H6.8072ZM19.793 13.9704C19.7554 12.8216 19.5953 11.7386 19.3504 10.7687C20.2168 10.4956 20.9607 10.1283 21.5257 9.70459C22.4486 10.9099 23.0419 12.379 23.1737 13.9704H19.793ZM15.6496 13.9704V11.3808C16.4877 11.3525 17.2976 11.2584 18.0415 11.1077C18.2581 11.9835 18.4088 12.9534 18.4464 13.9704H15.6496ZM11.5345 13.9704C11.5815 12.9534 11.7228 11.9835 11.9394 11.1077C12.6927 11.2584 13.4932 11.3525 14.3313 11.3808V13.9704H11.5345ZM6.8072 15.2888H10.1878C10.2255 16.4565 10.3856 17.5488 10.6399 18.5376C9.78292 18.8107 9.03899 19.1685 8.47398 19.5829C7.54171 18.3681 6.93903 16.8896 6.8072 15.2888ZM11.5345 15.2888H14.3313V17.9255C13.5026 17.9538 12.6927 18.0479 11.9488 18.1986C11.7228 17.304 11.5815 16.3152 11.5345 15.2888ZM15.6496 17.9255V15.2888H18.4558C18.4088 16.3152 18.2581 17.304 18.0321 18.1986C17.2882 18.0479 16.4877 17.9538 15.6496 17.9255ZM19.3504 18.5376C19.5953 17.5488 19.7554 16.4565 19.8025 15.2888H23.1737C23.0419 16.8896 22.4392 18.3681 21.5069 19.5829C20.9419 19.1685 20.2074 18.8107 19.3504 18.5376ZM15.6496 19.2439C16.3653 19.2721 17.0245 19.338 17.646 19.451C17.1375 20.8071 16.4312 21.8147 15.6496 22.1819V19.2439ZM12.3443 19.451C12.9564 19.338 13.625 19.2721 14.3313 19.2439V22.1819C13.5591 21.8147 12.8528 20.8071 12.3443 19.451ZM9.34975 20.5528C9.81117 20.242 10.3762 19.9784 11.0259 19.7712C11.4403 20.9012 12.0053 21.8335 12.6551 22.4927C11.4026 22.116 10.2726 21.438 9.34975 20.5528ZM18.9644 19.7712C19.6141 19.9784 20.1791 20.242 20.6406 20.5528C19.7083 21.438 18.5783 22.116 17.3258 22.4927C17.985 21.8335 18.5406 20.9012 18.9644 19.7712Z" fill="#0E8EF3"/>
</svg>
