<svg width="18" height="21" viewBox="0 0 18 21" fill="none" xmlns="http://www.w3.org/2000/svg">
<path d="M9.00007 0.452148C8.29569 0.452148 7.80476 0.94308 7.80476 1.64746V14.8279L7.90081 17.1438L5.12598 14.0488L2.70333 11.6369C2.48989 11.4234 2.19106 11.2847 1.84954 11.2847C1.19852 11.2847 0.718262 11.7756 0.718262 12.448C0.718262 12.7575 0.835658 13.0456 1.0918 13.3018L8.11426 20.3456C8.34905 20.591 8.66922 20.7191 9.00007 20.7191C9.32024 20.7191 9.64042 20.591 9.87521 20.3456L16.9083 13.3018C17.1645 13.0456 17.2819 12.7575 17.2819 12.448C17.2819 11.7756 16.7909 11.2847 16.1399 11.2847C15.8091 11.2847 15.5103 11.4234 15.2968 11.6369L12.8635 14.0488L10.0993 17.1332L10.1847 14.8279V1.64746C10.1847 0.94308 9.69378 0.452148 9.00007 0.452148Z" fill="white"/>
</svg>
