<svg width="27" height="36" viewBox="0 0 27 36" fill="none" xmlns="http://www.w3.org/2000/svg">
<path d="M23.625 13.5H22.5V9C22.5 4.0365 18.4635 0 13.5 0C8.5365 0 4.5 4.0365 4.5 9V13.5H3.375C1.515 13.5 0 15.0135 0 16.875V32.625C0 34.4865 1.515 36 3.375 36H23.625C25.485 36 27 34.4865 27 32.625V16.875C27 15.0135 25.485 13.5 23.625 13.5ZM7.5 9C7.5 5.691 10.191 3 13.5 3C16.809 3 19.5 5.691 19.5 9V13.5H7.5V9ZM15 25.083V28.5C15 29.328 14.3295 30 13.5 30C12.6705 30 12 29.328 12 28.5V25.083C11.1075 24.5625 10.5 23.6055 10.5 22.5C10.5 20.8455 11.8455 19.5 13.5 19.5C15.1545 19.5 16.5 20.8455 16.5 22.5C16.5 23.6055 15.8925 24.5625 15 25.083Z" fill="#1A2E35"/>
</svg>
