<svg width="30" height="31" viewBox="0 0 30 31" fill="none" xmlns="http://www.w3.org/2000/svg">
<path fill-rule="evenodd" clip-rule="evenodd" d="M12.7344 15.3477C14.8613 15.3477 16.584 13.4668 16.584 11.1641C16.584 8.89648 14.8613 7.09473 12.7344 7.09473C10.6162 7.09473 8.87598 8.92285 8.88477 11.1816C8.89355 13.4756 10.6074 15.3477 12.7344 15.3477ZM12.7344 13.8096C11.5215 13.8096 10.4932 12.6582 10.4932 11.1816C10.4844 9.74023 11.5127 8.63281 12.7344 8.63281C13.9648 8.63281 14.9756 9.72266 14.9756 11.1641C14.9756 12.6406 13.9561 13.8096 12.7344 13.8096ZM7.25 23.5215H18.21C19.7305 23.5215 20.46 23.0381 20.46 22.001C20.46 19.584 17.4453 16.3672 12.7344 16.3672C8.02344 16.3672 5 19.584 5 22.001C5 23.0381 5.72949 23.5215 7.25 23.5215ZM6.97754 21.9834C6.7666 21.9834 6.6875 21.9131 6.6875 21.7549C6.6875 20.4102 8.8584 17.9053 12.7344 17.9053C16.6016 17.9053 18.7725 20.4102 18.7725 21.7549C18.7725 21.9131 18.6934 21.9834 18.4824 21.9834H6.97754ZM22.7754 9.625C23.2586 9.625 23.6504 10.0168 23.6504 10.5V12.625H25.7754C26.2586 12.625 26.6504 13.0168 26.6504 13.5C26.6504 13.9832 26.2586 14.375 25.7754 14.375H23.6504V16.5C23.6504 16.9832 23.2586 17.375 22.7754 17.375C22.2921 17.375 21.9004 16.9832 21.9004 16.5V14.375H19.7754C19.2921 14.375 18.9004 13.9832 18.9004 13.5C18.9004 13.0168 19.2921 12.625 19.7754 12.625H21.9004V10.5C21.9004 10.0168 22.2921 9.625 22.7754 9.625Z" fill="#0E8EF3"/>
</svg>
