<svg width="24" height="24" viewBox="0 0 24 24" fill="none" xmlns="http://www.w3.org/2000/svg">
<mask id="mask0_1460_7154" style="mask-type:alpha" maskUnits="userSpaceOnUse" x="0" y="0" width="24" height="24">
<rect width="24" height="24" fill="#C4C4C4"/>
</mask>
<g mask="url(#mask0_1460_7154)">
<path d="M14.3004 11.45H10.1004C9.88139 11.45 9.67439 11.365 9.51739 11.209C9.36139 11.053 9.27539 10.846 9.27539 10.625C9.27539 10.405 9.36039 10.198 9.51739 10.042C9.67339 9.88595 9.88039 9.79995 10.1004 9.79995H15.5754V8.29995H12.9504V6.19995H11.4504V8.29995H10.1004C9.47939 8.29995 8.89539 8.54195 8.45639 8.98095C8.02339 9.41395 7.77539 10.013 7.77539 10.625C7.77539 11.237 8.02439 11.836 8.45639 12.27C8.89539 12.708 9.47939 12.95 10.1004 12.95H14.3004C14.5214 12.95 14.7284 13.036 14.8844 13.192C15.0374 13.345 15.1254 13.557 15.1254 13.775C15.1254 13.991 15.0384 14.203 14.8854 14.357C14.7294 14.514 14.5214 14.6 14.3004 14.6H8.82539V16.101H11.4504V18.201H12.9504V16.101H14.3004C14.9214 16.101 15.5054 15.859 15.9454 15.42C16.3834 14.98 16.6264 14.396 16.6264 13.775C16.6264 13.153 16.3844 12.569 15.9454 12.13C15.5054 11.692 14.9214 11.45 14.3004 11.45Z" fill="#0E8EF3"/>
<path d="M12.2 2C6.576 2 2 6.576 2 12.2C2 17.824 6.576 22.4 12.2 22.4C17.824 22.4 22.4 17.824 22.4 12.2C22.4 6.576 17.824 2 12.2 2ZM18.352 18.352C16.708 19.995 14.523 20.9 12.2 20.9C9.877 20.9 7.692 19.995 6.048 18.351C4.405 16.709 3.5 14.524 3.5 12.2C3.5 9.876 4.405 7.691 6.047 6.048C7.691 4.405 9.876 3.5 12.2 3.5C14.524 3.5 16.709 4.405 18.351 6.048C19.995 7.692 20.9 9.877 20.9 12.2C20.9 14.523 19.995 16.708 18.352 18.352Z" fill="#0E8EF3"/>
</g>
</svg>
