<svg width="248" height="140" viewBox="0 0 248 140" fill="none" xmlns="http://www.w3.org/2000/svg">
<path fill-rule="evenodd" clip-rule="evenodd" d="M62 104H153C153.515 104 154.017 103.944 154.5 103.839C154.983 103.944 155.485 104 156 104H208C211.866 104 215 100.866 215 97C215 93.134 211.866 90 208 90H202C198.134 90 195 86.866 195 83C195 79.134 198.134 76 202 76H221C224.866 76 228 72.866 228 69C228 65.134 224.866 62 221 62H199C202.866 62 206 58.866 206 55C206 51.134 202.866 48 199 48H135C138.866 48 142 44.866 142 41C142 37.134 138.866 34 135 34H78C74.134 34 71 37.134 71 41C71 44.866 74.134 48 78 48H38C34.134 48 31 51.134 31 55C31 58.866 34.134 62 38 62H63C66.866 62 70 65.134 70 69C70 72.866 66.866 76 63 76H23C19.134 76 16 79.134 16 83C16 86.866 19.134 90 23 90H62C58.134 90 55 93.134 55 97C55 100.866 58.134 104 62 104ZM225 104C228.866 104 232 100.866 232 97C232 93.134 228.866 90 225 90C221.134 90 218 93.134 218 97C218 100.866 221.134 104 225 104Z" fill="#F3F7FF"/>
<path fill-rule="evenodd" clip-rule="evenodd" d="M68.9525 40.5174L151.977 27.2257C153.613 26.9637 155.152 28.0777 155.414 29.7137C155.414 29.717 155.415 29.7203 155.415 29.7235L163.537 81.5556C163.793 83.1887 162.68 84.721 161.048 84.9823L78.0227 98.274C76.3867 98.5359 74.8481 97.422 74.5862 95.786C74.5857 95.7827 74.5851 95.7794 74.5846 95.7762L66.4629 43.9441C66.207 42.311 67.3203 40.7787 68.9525 40.5174Z" fill="white"/>
<path d="M82.3448 97.4234L79.1615 97.9482C76.9748 98.3085 74.9214 96.756 74.575 94.4805L67.0499 45.0391C66.7036 42.7636 68.1955 40.6268 70.3822 40.2664L150.558 27.0519C152.745 26.6916 154.798 28.2441 155.145 30.5196C155.482 32.7367 155.751 34.5036 155.952 35.8203M156.523 39.5758C156.705 40.7685 156.864 41.8129 157 42.7091" stroke="#0E8EF3" stroke-width="2.5" stroke-linecap="round"/>
<path fill-rule="evenodd" clip-rule="evenodd" d="M72.977 42.7922L148.737 30.9612C150.369 30.7063 151.9 31.8186 152.162 33.4494L159.522 79.2685C159.785 80.9043 158.672 82.4435 157.036 82.7063C157.032 82.707 157.027 82.7077 157.023 82.7083L81.2629 94.5394C79.631 94.7943 78.1 93.682 77.838 92.0511L70.4779 46.2321C70.2151 44.5962 71.3282 43.0571 72.9641 42.7943C72.9684 42.7936 72.9727 42.7929 72.977 42.7922Z" fill="#F2F7FC"/>
<path d="M169.75 47.25H91.25C89.0409 47.25 87.25 49.0409 87.25 51.25V99.75C87.25 101.959 89.0409 103.75 91.25 103.75H169.75C171.959 103.75 173.75 101.959 173.75 99.75V51.25C173.75 49.0409 171.959 47.25 169.75 47.25Z" fill="white" stroke="#0E8EF3" stroke-width="2.5"/>
<path d="M172.5 59H88.5V73H172.5V59Z" fill="#F2F7FC"/>
<path d="M102.289 59H95.0926M173.171 59H107.331H173.171ZM167.171 72H88.3315H167.171ZM124.062 91H95.7546H124.062Z" stroke="#0E8EF3" stroke-width="2.5" stroke-linecap="round" stroke-linejoin="round"/>
</svg>
