<svg width="40" height="40" viewBox="0 0 40 40" fill="none" xmlns="http://www.w3.org/2000/svg">
<path opacity="0.1" fill-rule="evenodd" clip-rule="evenodd" d="M20 40C31.0457 40 40 31.0457 40 20C40 8.9543 31.0457 0 20 0C8.9543 0 0 8.9543 0 20C0 31.0457 8.9543 40 20 40Z" fill="#0E8EF3"/>
<path d="M26.1718 16.104H18.4576V17.6625H26.1718V27.0131H13.829V17.6625H15.3718V20.7794H16.9147V14.5456H20.5433C21.0956 14.5456 21.5433 14.0979 21.5433 13.5456V12.4287C21.5433 11.8764 21.0956 11.4287 20.5433 11.4287H18.4576H16.3718C15.8196 11.4287 15.3718 11.8764 15.3718 12.4287V16.104H13.829C12.9804 16.104 12.2861 16.8053 12.2861 17.6625V27.0131C12.2861 27.8703 12.9804 28.5716 13.829 28.5716H26.1718C27.0204 28.5716 27.7147 27.8703 27.7147 27.0131V17.6625C27.7147 16.8053 27.0204 16.104 26.1718 16.104Z" fill="#0E8EF3"/>
</svg>
