<svg width="30" height="31" viewBox="0 0 30 31" fill="none" xmlns="http://www.w3.org/2000/svg">
<path d="M10.6776 24.895H19.3316C20.7818 24.895 21.7141 24.0192 21.7894 22.569L22.4204 9.00875H23.4562C23.9365 9.00875 24.3037 8.63208 24.3037 8.16124C24.3037 7.6904 23.9271 7.33255 23.4562 7.33255H19.2751V5.92003C19.2751 4.46983 18.3523 3.62231 16.7797 3.62231H13.2013C11.6287 3.62231 10.7058 4.46983 10.7058 5.92003V7.33255H6.54356C6.07272 7.33255 5.69604 7.69981 5.69604 8.16124C5.69604 8.6415 6.07272 9.00875 6.54356 9.00875H7.57942L8.21034 22.569C8.28568 24.0286 9.20853 24.895 10.6776 24.895ZM12.4668 6.00478C12.4668 5.52452 12.8058 5.21376 13.3237 5.21376H16.6573C17.1752 5.21376 17.5142 5.52452 17.5142 6.00478V7.33255H12.4668V6.00478ZM10.8659 23.2094C10.348 23.2094 9.9713 22.8233 9.94305 22.2677L9.31212 9.00875H20.6594L20.0473 22.2677C20.0285 22.8327 19.6612 23.2094 19.1245 23.2094H10.8659ZM12.2219 21.6933C12.6268 21.6933 12.8811 21.439 12.8717 21.0623L12.5892 11.2123C12.5798 10.8356 12.3161 10.5908 11.93 10.5908C11.5345 10.5908 11.2802 10.845 11.2897 11.2217L11.5722 21.0717C11.5816 21.4484 11.8452 21.6933 12.2219 21.6933ZM14.9999 21.6933C15.3954 21.6933 15.6685 21.4484 15.6685 21.0717V11.2217C15.6685 10.845 15.3954 10.5908 14.9999 10.5908C14.6044 10.5908 14.3407 10.845 14.3407 11.2217V21.0717C14.3407 21.4484 14.6044 21.6933 14.9999 21.6933ZM17.7779 21.7027C18.1545 21.7027 18.4182 21.4484 18.4276 21.0717L18.7101 11.2217C18.7196 10.845 18.4653 10.6002 18.0698 10.6002C17.6837 10.6002 17.42 10.845 17.4106 11.2217L17.1281 21.0717C17.1187 21.439 17.3729 21.7027 17.7779 21.7027Z" fill="#E81E4E"/>
</svg>
