<svg width="30" height="30" viewBox="0 0 30 30" fill="none" xmlns="http://www.w3.org/2000/svg">
<path d="M12.5 9.02503L8.25375 12.5H3.75V17.5H8.25375L12.5 20.975V9.02503ZM7.36125 20H2.5C2.16848 20 1.85054 19.8683 1.61612 19.6339C1.3817 19.3995 1.25 19.0815 1.25 18.75V11.25C1.25 10.9185 1.3817 10.6006 1.61612 10.3661C1.85054 10.1317 2.16848 10 2.5 10H7.36125L13.9787 4.58503C14.0703 4.50996 14.1813 4.46245 14.2988 4.44802C14.4164 4.43359 14.5356 4.45284 14.6426 4.50352C14.7496 4.55421 14.84 4.63425 14.9032 4.73432C14.9665 4.83439 15.0001 4.95038 15 5.06878V24.9313C15.0001 25.0497 14.9665 25.1657 14.9032 25.2657C14.84 25.3658 14.7496 25.4458 14.6426 25.4965C14.5356 25.5472 14.4164 25.5665 14.2988 25.552C14.1813 25.5376 14.0703 25.4901 13.9787 25.415L7.3625 20H7.36125ZM25.5175 15L29.9375 19.42L28.17 21.1875L23.75 16.7675L19.33 21.1875L17.5625 19.42L21.9825 15L17.5625 10.58L19.33 8.81253L23.75 13.2325L28.17 8.81253L29.9375 10.58L25.5175 15Z" fill="#1A2E35"/>
</svg>
