<svg width="343" height="180" viewBox="0 0 343 180" fill="none" xmlns="http://www.w3.org/2000/svg">
<rect width="343" height="180" rx="16" fill="#121315"/>
<mask id="mask0_3243_39241" style="mask-type:alpha" maskUnits="userSpaceOnUse" x="0" y="0" width="343" height="180">
<rect width="343" height="180" rx="16" fill="#FF9500"/>
</mask>
<g mask="url(#mask0_3243_39241)">
<path opacity="0.1" d="M399.399 133.438C411.647 188.882 362.978 240.501 303.549 251.928C244.121 263.356 11.6744 320.304 100.884 199.007C190.094 77.7087 298.666 61.9368 358.095 50.5094C417.524 39.082 387.15 77.9942 399.399 133.438Z" fill="white"/>
<path opacity="0.1" d="M409.801 187.34C404.659 243.746 342.274 280.336 281.815 275.538C221.355 270.741 -18.855 263.722 103.621 171.073C226.097 78.4235 334.998 92.0832 395.458 96.8809C455.917 101.679 414.944 130.935 409.801 187.34Z" fill="white"/>
</g>
<rect opacity="0.05" x="16" y="114" width="50" height="50" rx="25" fill="white"/>
<mask id="mask1_3243_39241" style="mask-type:alpha" maskUnits="userSpaceOnUse" x="27" y="125" width="28" height="28">
<rect x="27.666" y="125.667" width="26.6667" height="26.6667" fill="#C4C4C4"/>
</mask>
<g mask="url(#mask1_3243_39241)">
<path d="M31 139.833L41 152.333L51 139.833L41 144L31 139.833ZM36.3682 143.876L40.359 145.539L41 145.806V149.666L36.3682 143.876Z" fill="white"/>
<path d="M51 139L41 125.667L31 139L41 142.333L51 139ZM41 137.333L33.7272 138.142L41 128.444V137.333Z" fill="white"/>
</g>
</svg>
