<svg width="250" height="143" viewBox="0 0 250 143" fill="none" xmlns="http://www.w3.org/2000/svg">
<path fill-rule="evenodd" clip-rule="evenodd" d="M63 110H154C154.515 110 155.017 109.944 155.5 109.839C155.983 109.944 156.485 110 157 110H209C212.866 110 216 106.866 216 103C216 99.134 212.866 96 209 96H203C199.134 96 196 92.866 196 89C196 85.134 199.134 82 203 82H222C225.866 82 229 78.866 229 75C229 71.134 225.866 68 222 68H200C203.866 68 207 64.866 207 61C207 57.134 203.866 54 200 54H136C139.866 54 143 50.866 143 47C143 43.134 139.866 40 136 40H79C75.134 40 72 43.134 72 47C72 50.866 75.134 54 79 54H39C35.134 54 32 57.134 32 61C32 64.866 35.134 68 39 68H64C67.866 68 71 71.134 71 75C71 78.866 67.866 82 64 82H24C20.134 82 17 85.134 17 89C17 92.866 20.134 96 24 96H63C59.134 96 56 99.134 56 103C56 106.866 59.134 110 63 110ZM226 110C229.866 110 233 106.866 233 103C233 99.134 229.866 96 226 96C222.134 96 219 99.134 219 103C219 106.866 222.134 110 226 110Z" fill="#F2F7FC"/>
<path fill-rule="evenodd" clip-rule="evenodd" d="M86.2783 115.123L82.2081 115.695C80.0205 116.002 77.9978 114.478 77.6904 112.291L66.5565 33.0691C66.2491 30.8815 67.7733 28.8588 69.9609 28.5513L148.192 17.5567C150.38 17.2492 152.402 18.7734 152.71 20.961C152.71 20.961 153.422 26.0264 153.667 27.7688" fill="white"/>
<path fill-rule="evenodd" clip-rule="evenodd" d="M88.805 110.712L85.1092 111.238C83.1227 111.52 81.2886 110.139 81.0126 108.153L71.0174 36.2279C70.7414 34.2417 72.128 32.4028 74.1145 32.1204L145.152 22.0237C147.138 21.7413 148.973 23.1225 149.249 25.1087L150.108 31.2894C150.154 31.6239 153.223 53.8233 159.313 97.8878C159.619 100.1 158.093 102.145 155.905 102.454C155.882 102.457 155.858 102.461 155.835 102.463L88.805 110.712Z" fill="#F2F7FC"/>
<path d="M86.2783 115.123L82.2081 115.695C80.0205 116.002 77.9978 114.478 77.6904 112.291L66.5565 33.0691C66.2491 30.8815 67.7733 28.8588 69.9609 28.5513L148.192 17.5567C150.38 17.2492 152.402 18.7734 152.71 20.961C152.71 20.961 153.422 26.0264 153.667 27.7688" stroke="#0E8EF3" stroke-width="2.5" stroke-linecap="round"/>
<path d="M154.5 32.3799L155 35.5003" stroke="#0E8EF3" stroke-width="2.5" stroke-linecap="round"/>
<path d="M99.8221 36.4886C99.9809 34.9782 101.334 33.8824 102.844 34.0411L181.412 42.2989C182.922 42.4577 184.018 43.8108 183.859 45.3213L175.497 124.883C175.338 126.394 173.985 127.489 172.475 127.331L93.9073 119.073C92.3969 118.914 91.3011 117.561 91.4598 116.05L99.8221 36.4886Z" fill="white" stroke="#0E8EF3" stroke-width="2.5"/>
<path fill-rule="evenodd" clip-rule="evenodd" d="M106.693 45.2548C106.866 43.607 108.343 42.4116 109.99 42.5848L172.645 49.1701C174.293 49.3433 175.488 50.8195 175.315 52.4673L169.775 105.177C169.602 106.825 168.126 108.02 166.478 107.847L103.823 101.262C102.175 101.088 100.98 99.6122 101.153 97.9645L106.693 45.2548Z" fill="white"/>
<path fill-rule="evenodd" clip-rule="evenodd" d="M109.741 85.8779L119.538 79.2699C121.172 78.1681 123.365 78.4201 124.706 79.8639L131.879 87.5869C132.237 87.9723 132.833 88.0144 133.242 87.6832L148.581 75.2536C150.429 73.7564 153.167 74.1925 154.459 76.1897L164.44 91.627L165.873 94.0189L165.187 102.144C165.139 102.704 164.639 103.115 164.08 103.053L107.117 96.7246C106.575 96.6644 106.182 96.1816 106.232 95.639L106.987 87.4404L109.741 85.8779Z" fill="#F2F7FC"/>
<path d="M107.936 45.3855C108.037 44.4243 108.899 43.727 109.86 43.828L172.515 50.4133C173.476 50.5143 174.173 51.3754 174.072 52.3366L168.532 105.046C168.431 106.007 167.57 106.705 166.609 106.604L103.954 100.018C102.993 99.9174 102.295 99.0563 102.396 98.0951L107.936 45.3855Z" stroke="#0E8EF3" stroke-width="2.5"/>
<circle cx="122.032" cy="61.9498" r="6" transform="rotate(6 122.032 61.9498)" fill="#F2F7FC" stroke="#0E8EF3" stroke-width="2.5"/>
<path d="M107.729 87.4251C111.666 84.7067 119.538 79.27 119.538 79.27C121.172 78.1682 123.365 78.4202 124.706 79.864L131.879 87.587C132.238 87.9724 132.833 88.0145 133.242 87.6834L148.582 75.2537C150.298 73.863 152.817 74.1269 154.208 75.8433C154.297 75.9542 154.381 76.0699 154.459 76.1898C154.459 76.1898 163.427 90.4205 165.523 93.7458" stroke="#0E8EF3" stroke-width="2.5" stroke-linecap="round"/>
</svg>
