<svg width="30" height="31" viewBox="0 0 30 31" fill="none" xmlns="http://www.w3.org/2000/svg">
<path d="M13.7475 23.8975C14.4726 23.8975 15.0188 23.3607 15.0188 22.6262V19.255H15.2542C18.6913 19.255 20.7913 20.2626 22.2697 23.0123C22.6464 23.6997 23.0984 23.8598 23.5975 23.8598C24.2567 23.8598 24.7652 23.2383 24.7652 22.0423C24.7652 15.2057 21.7424 11.034 15.2542 11.034H15.0188V7.68164C15.0188 6.94713 14.4726 6.36328 13.7287 6.36328C13.2296 6.36328 12.8717 6.57045 12.3255 7.07896L4.8674 14.0286C4.50014 14.377 4.35889 14.7725 4.35889 15.1304C4.35889 15.4788 4.50014 15.8837 4.8674 16.2321L12.3255 23.2289C12.8246 23.6997 13.2296 23.8975 13.7475 23.8975ZM13.1448 21.4679C13.0977 21.4679 13.0412 21.4397 12.9847 21.3926L6.55301 15.3093C6.47768 15.234 6.44943 15.1869 6.44943 15.1304C6.44943 15.0739 6.47768 15.0268 6.55301 14.9515L12.9847 8.81166C13.0318 8.76458 13.0883 8.73633 13.1448 8.73633C13.2296 8.73633 13.2861 8.79283 13.2861 8.87758V12.4372C13.2861 12.6537 13.3802 12.7479 13.5968 12.7479H14.8022C20.8666 12.7479 22.9948 16.7501 23.1549 21.2419C23.1549 21.3078 23.1267 21.3361 23.0796 21.3361C23.0419 21.3361 23.0231 21.3078 22.9948 21.2513C21.8742 18.8971 19.1151 17.5317 14.8022 17.5317H13.5968C13.3802 17.5317 13.2861 17.6258 13.2861 17.8424V21.3172C13.2861 21.4114 13.2296 21.4679 13.1448 21.4679Z" fill="#0E8EF3"/>
</svg>
