<svg width="20" height="24" viewBox="0 0 20 24" fill="none" xmlns="http://www.w3.org/2000/svg">
<path d="M18.5478 14.7991C18.1989 13.9947 17.5262 13.3262 16.5298 12.7938C18.0633 12.4841 18.9638 11.5023 19.2319 9.84853C19.3338 9.25006 19.3037 8.69967 19.1415 8.19651C18.9791 7.6932 18.6973 7.24805 18.2946 6.86052C17.8924 6.47276 17.4321 6.13629 16.915 5.85081C16.3979 5.5653 15.7886 5.29536 15.0877 5.04124L15.9836 1.6976L13.8857 1.13548L13.0147 4.38623C12.6514 4.28889 12.0951 4.14927 11.3456 3.96744L12.2238 0.69016L10.1256 0.127967L9.22972 3.47161C8.92753 3.40016 8.48589 3.28665 7.90465 3.13091L5.02009 2.34365L4.43702 4.5197L5.94913 4.92487C6.63941 5.10983 6.96297 5.51895 6.91988 6.15199L5.8995 9.96009C5.99045 9.98446 6.06181 10.0085 6.11399 10.0319L5.89592 9.97348L4.46676 15.3071C4.27333 15.7387 3.9495 15.8939 3.49533 15.7722L1.9833 15.367L0.910283 17.682L3.63504 18.4121C3.80764 18.4584 4.05665 18.5275 4.38268 18.6191C4.7084 18.7112 4.95292 18.7791 5.11645 18.8229L4.20988 22.2063L6.30835 22.7686L7.20426 19.425C7.58319 19.5362 8.13603 19.689 8.86262 19.8837L7.9703 23.2139L10.0682 23.776L10.9748 20.3926C11.7291 20.5569 12.4075 20.668 13.0102 20.7248C13.6131 20.7817 14.2058 20.7772 14.7882 20.7103C15.3705 20.6437 15.8803 20.5028 16.3174 20.2881C16.7546 20.0737 17.1528 19.7583 17.5128 19.3428C17.8721 18.927 18.168 18.4137 18.3997 17.8025C18.8476 16.6051 18.8968 15.6037 18.5478 14.7991ZM10.7466 6.36635C10.8102 6.38339 10.9902 6.42923 11.2865 6.50386C11.5831 6.57843 11.8294 6.63975 12.0258 6.6876C12.2223 6.73557 12.4827 6.81721 12.8073 6.93261C13.1316 7.04796 13.4014 7.15825 13.6165 7.26322C13.8317 7.36819 14.0621 7.50818 14.3071 7.68286C14.5526 7.85756 14.7372 8.03983 14.8614 8.22951C14.9859 8.41928 15.0746 8.64223 15.1275 8.89817C15.1807 9.15416 15.1682 9.42809 15.09 9.71995C15.0236 9.96765 14.9223 10.1823 14.7862 10.364C14.6502 10.5456 14.4816 10.683 14.2816 10.7763C14.0815 10.8697 13.8811 10.9441 13.6813 10.9995C13.4817 11.055 13.2393 11.0778 12.9548 11.0679C12.6705 11.058 12.4236 11.044 12.2144 11.0259C12.0051 11.0077 11.7488 10.9652 11.4455 10.8981C11.1422 10.831 10.9126 10.7791 10.7571 10.7421C10.6015 10.7051 10.3904 10.6485 10.1235 10.5724C9.85664 10.4962 9.7008 10.4519 9.65528 10.4397L10.7466 6.36635ZM14.0544 16.937C13.9134 17.1174 13.7549 17.2647 13.5784 17.3787C13.4018 17.4922 13.1868 17.577 12.9336 17.6322C12.6804 17.6878 12.4396 17.7226 12.2119 17.7375C11.9839 17.7526 11.7152 17.7466 11.4061 17.7208C11.0963 17.6947 10.8276 17.6628 10.5989 17.6254C10.3705 17.5879 10.1003 17.5344 9.78775 17.465C9.47558 17.3953 9.23294 17.3375 9.06044 17.2913C8.88785 17.245 8.67048 17.1842 8.40824 17.1093C8.1458 17.0346 7.97853 16.9873 7.90581 16.9679L9.10753 12.483C9.18011 12.5024 9.397 12.5559 9.75825 12.643C10.1195 12.7303 10.4134 12.8046 10.6405 12.8654C10.8675 12.9263 11.1775 13.0233 11.5701 13.1572C11.9624 13.2905 12.2879 13.4202 12.5463 13.5464C12.8045 13.6725 13.0798 13.8339 13.3728 14.031C13.6655 14.2279 13.8906 14.4328 14.0479 14.6455C14.205 14.8586 14.3185 15.1067 14.3883 15.3909C14.4584 15.6751 14.4507 15.9765 14.3653 16.295C14.2988 16.5429 14.1954 16.7566 14.0544 16.937Z" fill="#EC9B3C"/>
</svg>
