<svg width="24" height="24" viewBox="0 0 24 24" fill="none" xmlns="http://www.w3.org/2000/svg">
<mask id="mask0_1460_7191" style="mask-type:alpha" maskUnits="userSpaceOnUse" x="0" y="0" width="24" height="24">
<rect width="24" height="24" fill="#C4C4C4"/>
</mask>
<g mask="url(#mask0_1460_7191)">
</g>
<g clip-path="url(#clip0_1460_7191)">
<mask id="mask1_1460_7191" style="mask-type:alpha" maskUnits="userSpaceOnUse" x="0" y="0" width="25" height="25">
<path d="M24.418 0.0830078H0.417969V24.083H24.418V0.0830078Z" fill="#C4C4C4"/>
</mask>
<g mask="url(#mask1_1460_7191)">
<path d="M17.417 21.167H7.417C6.772 21.167 6.166 20.916 5.709 20.459C5.251 20.002 5 19.396 5 18.75V5.417C5 4.771 5.251 4.164 5.708 3.708C6.165 3.251 6.771 3 7.417 3H14.084C14.283 3 14.474 3.079 14.614 3.22L19.614 8.22C19.755 8.361 19.834 8.552 19.834 8.75V18.75C19.834 19.386 19.576 20.008 19.126 20.458C18.669 20.916 18.062 21.167 17.417 21.167ZM7.417 4.5C7.172 4.5 6.942 4.596 6.768 4.769C6.595 4.941 6.5 5.172 6.5 5.417V18.75C6.5 18.991 6.598 19.227 6.768 19.397C6.941 19.57 7.172 19.666 7.416 19.666H17.416C17.661 19.666 17.892 19.57 18.064 19.397C18.235 19.226 18.333 18.991 18.333 18.75V9.06L13.773 4.5H7.417Z" fill="#0E8EF3"/>
<path d="M15.749 17H9.08203C8.66803 17 8.33203 16.664 8.33203 16.25C8.33203 15.836 8.66803 15.5 9.08203 15.5H15.749C16.163 15.5 16.499 15.836 16.499 16.25C16.499 16.664 16.163 17 15.749 17Z" fill="#0E8EF3"/>
<path d="M15.749 13.667H9.08203C8.66803 13.667 8.33203 13.331 8.33203 12.917C8.33203 12.503 8.66803 12.167 9.08203 12.167H15.749C16.163 12.167 16.499 12.503 16.499 12.917C16.499 13.331 16.163 13.667 15.749 13.667Z" fill="#0E8EF3"/>
<path d="M10.749 10.333H9.08203C8.66803 10.333 8.33203 9.99701 8.33203 9.58301C8.33203 9.16901 8.66803 8.83301 9.08203 8.83301H10.749C11.163 8.83301 11.499 9.16901 11.499 9.58301C11.499 9.99701 11.163 10.333 10.749 10.333Z" fill="#0E8EF3"/>
<path d="M19.082 9.5H14.082C13.668 9.5 13.332 9.164 13.332 8.75V3.75C13.332 3.336 13.668 3 14.082 3C14.496 3 14.832 3.336 14.832 3.75V8H19.082C19.496 8 19.832 8.336 19.832 8.75C19.832 9.164 19.497 9.5 19.082 9.5Z" fill="#0E8EF3"/>
</g>
</g>
<defs>
<clipPath id="clip0_1460_7191">
<rect width="14.833" height="18.167" fill="white" transform="translate(5 3)"/>
</clipPath>
</defs>
</svg>
