<svg width="24" height="24" viewBox="0 0 24 24" fill="none" xmlns="http://www.w3.org/2000/svg">
<mask id="mask0" mask-type="alpha" maskUnits="userSpaceOnUse" x="0" y="0" width="24" height="24">
<rect width="24" height="24" fill="#C4C4C4"/>
</mask>
<g mask="url(#mask0)">
<path d="M7 12.75C7 13.8546 6.10457 14.75 5 14.75C3.89543 14.75 3 13.8546 3 12.75C3 11.6454 3.89543 10.75 5 10.75C6.10457 10.75 7 11.6454 7 12.75Z" fill="black"/>
<path d="M14 12.75C14 13.8546 13.1046 14.75 12 14.75C10.8954 14.75 10 13.8546 10 12.75C10 11.6454 10.8954 10.75 12 10.75C13.1046 10.75 14 11.6454 14 12.75Z" fill="black"/>
<path d="M19 14.75C20.1046 14.75 21 13.8546 21 12.75C21 11.6454 20.1046 10.75 19 10.75C17.8954 10.75 17 11.6454 17 12.75C17 13.8546 17.8954 14.75 19 14.75Z" fill="black"/>
</g>
</svg>
