<svg width="20" height="20" viewBox="0 0 20 20" fill="none" xmlns="http://www.w3.org/2000/svg">
<mask id="mask0" style="mask-type:alpha" maskUnits="userSpaceOnUse" x="0" y="0" width="20" height="20">
<rect width="20" height="20" fill="#C4C4C4"/>
</mask>
<g mask="url(#mask0)">
<path d="M10 19C5.00909 19 1 14.9909 1 10C1 5.00909 5.00909 1 10 1C14.9909 1 19 5.00909 19 10C19 14.9909 14.9909 19 10 19ZM10 2.22727C5.66364 2.22727 2.22727 5.74545 2.22727 10C2.22727 14.2545 5.74545 17.7727 10 17.7727C14.2545 17.7727 17.7727 14.2545 17.7727 10C17.7727 5.74545 14.3364 2.22727 10 2.22727Z" fill="#0E8EF3"/>
<path d="M12.7624 9.10465C13.4159 9.10465 13.976 8.54453 13.976 7.89107C13.976 7.2376 13.4159 6.67749 12.7624 6.67749C12.1089 6.67749 11.5488 7.2376 11.5488 7.89107C11.5488 8.54453 12.1089 9.10465 12.7624 9.10465Z" fill="#0E8EF3"/>
<path d="M7.62764 9.10465C8.28111 9.10465 8.84122 8.54453 8.84122 7.89107C8.84122 7.2376 8.28111 6.67749 7.62764 6.67749C6.97417 6.67749 6.41406 7.2376 6.41406 7.89107C6.41406 8.54453 6.97417 9.10465 7.62764 9.10465Z" fill="#0E8EF3"/>
<path d="M14.1632 11.4384C13.7898 11.2517 13.4164 11.3451 13.2297 11.7185C13.2297 11.8119 12.3895 13.1188 10.1491 13.1188C8.00199 13.1188 7.25517 11.8119 7.25517 11.7185C7.06847 11.3451 6.69506 11.2517 6.32165 11.4384C5.94824 11.6251 5.85489 11.9986 6.04159 12.372C6.04159 12.4653 7.06847 14.5191 10.2424 14.5191C13.3231 14.5191 14.4433 12.4653 14.5366 12.372C14.5366 12.0919 14.4433 11.6251 14.1632 11.4384Z" fill="#0E8EF3"/>
</g>
</svg>
