<svg width="30" height="31" viewBox="0 0 30 31" fill="none" xmlns="http://www.w3.org/2000/svg">
<path d="M4.84568 25.6725H6.33802C6.67977 25.6725 6.81648 25.6042 7.0671 25.4105L7.83036 24.8295C8.25186 25.251 8.87841 25.3421 9.50496 25.0687L13.2757 23.4967C13.5605 23.3827 13.7086 23.2688 13.8908 23.0866L24.8954 12.1617C25.989 11.0681 25.989 9.75804 24.884 8.64163L22.412 6.1582C21.307 5.05318 19.9969 5.04179 18.9033 6.13541L7.89871 17.0488C7.70505 17.2425 7.60252 17.3792 7.47721 17.6754L5.88234 21.4347C5.62033 22.0385 5.68868 22.6309 6.11018 23.0979L4.46975 24.7953C4.1166 25.1713 4.28748 25.6725 4.84568 25.6725ZM20.1678 7.63914C20.464 7.35435 20.8171 7.34295 21.0905 7.62775L23.4145 9.96309C23.6993 10.2479 23.6879 10.5896 23.3803 10.8858L22.6398 11.6263L19.4159 8.39101L20.1678 7.63914ZM9.91507 17.8349L18.1856 9.62133L21.3981 12.8566L13.139 21.0702L9.91507 17.8349ZM9.27713 23.0524C9.06068 23.1321 8.91259 23.1321 8.71892 22.9385L8.00123 22.2322C7.81896 22.0499 7.81896 21.879 7.89871 21.6854L8.92398 19.3044L11.658 22.0613L9.27713 23.0524Z" fill="#0E8EF3"/>
</svg>
