<svg width="30" height="31" viewBox="0 0 30 31" fill="none" xmlns="http://www.w3.org/2000/svg">
<path d="M15.0002 26.2142C20.8756 26.2142 25.7251 21.3647 25.7251 15.4997C25.7251 9.63468 20.8652 4.78516 14.9898 4.78516C9.12481 4.78516 4.28564 9.63468 4.28564 15.4997C4.28564 21.3647 9.13517 26.2142 15.0002 26.2142ZM15.0002 24.0796C10.2439 24.0796 6.44099 20.256 6.44099 15.4997C6.44099 10.7434 10.2439 6.93014 14.9898 6.93014C19.7461 6.93014 23.5698 10.7434 23.5801 15.4997C23.5905 20.256 19.7565 24.0796 15.0002 24.0796ZM11.9951 14.5464C12.6065 14.5464 13.1246 14.0075 13.1246 13.2511C13.1246 12.4947 12.6065 11.9558 11.9951 11.9558C11.3941 11.9558 10.8864 12.4947 10.8864 13.2511C10.8864 14.0075 11.3941 14.5464 11.9951 14.5464ZM18.0363 14.5464C18.6477 14.5464 19.1658 14.0075 19.1658 13.2511C19.1658 12.4947 18.6477 11.9558 18.0363 11.9558C17.425 11.9558 16.9276 12.4947 16.9276 13.2511C16.9276 14.0075 17.425 14.5464 18.0363 14.5464ZM11.363 18.4529C11.363 19.1472 12.8241 20.5876 14.9898 20.5876C17.1659 20.5876 18.627 19.1472 18.627 18.4529C18.627 18.2042 18.3783 18.0799 18.1503 18.1939C17.3939 18.5876 16.5027 19.0539 14.9898 19.0539C13.4873 19.0539 12.5962 18.5876 11.8397 18.1939C11.6117 18.0799 11.363 18.2042 11.363 18.4529Z" fill="#0E8EF3"/>
</svg>
