<svg width="24" height="24" viewBox="0 0 24 24" fill="none" xmlns="http://www.w3.org/2000/svg">
<mask id="mask0_820:25413" style="mask-type:alpha" maskUnits="userSpaceOnUse" x="0" y="0" width="24" height="24">
<rect width="24" height="24" fill="#C4C4C4"/>
</mask>
<g mask="url(#mask0_820:25413)">
<path fill-rule="evenodd" clip-rule="evenodd" d="M20.6706 19.1674L15.7422 14.2371C16.6256 13.0322 17.0988 11.5755 17.0922 10.0815C17.0754 6.18154 13.921 3.0226 10.0211 3.00007C8.15478 2.99163 6.36258 3.72995 5.04378 5.05057C3.72498 6.37118 2.98912 8.16438 3.00012 10.0307C3.01698 13.931 6.17162 17.0902 10.0719 17.1128C11.572 17.1193 13.034 16.6405 14.2397 15.7479L14.2449 15.744L19.1688 20.6705C19.435 20.9498 19.8317 21.0628 20.2051 20.9658C20.5786 20.8689 20.8701 20.5771 20.9668 20.2035C21.0635 19.83 20.9501 19.4334 20.6706 19.1674ZM10.0668 15.701C6.94679 15.6831 4.42311 13.1559 4.40942 10.0359C4.40099 8.54301 4.98973 7.10874 6.04458 6.05233C7.09942 4.99591 8.53282 4.40504 10.0257 4.41124C13.1457 4.42919 15.6694 6.95631 15.6831 10.0764C15.6915 11.5692 15.1028 13.0035 14.0479 14.0599C12.9931 15.1163 11.5597 15.7072 10.0668 15.701Z" fill="#0E8EF3"/>
</g>
</svg>
