<svg width="30" height="31" viewBox="0 0 30 31" fill="none" xmlns="http://www.w3.org/2000/svg">
<path d="M7.41992 21.4766H11.2997C11.3656 23.2658 12.8346 24.9231 15.0005 24.9231C17.1569 24.9231 18.6354 23.2846 18.7107 21.4766H22.5811C23.5604 21.4766 24.1631 20.9398 24.1631 20.1299C24.1631 19.1223 23.2497 18.2654 22.3927 17.4461C21.7241 16.7964 21.564 15.4969 21.4416 14.1691C21.3098 10.6189 20.2645 8.24588 17.8161 7.36069C17.4489 6.10825 16.4036 5.15715 15.0005 5.15715C13.5974 5.15715 12.5521 6.10825 12.1943 7.36069C9.73647 8.24588 8.70061 10.6189 8.55936 14.1691C8.43694 15.4969 8.27686 16.7964 7.60826 17.4461C6.75133 18.2654 5.83789 19.1223 5.83789 20.1299C5.83789 20.9398 6.44057 21.4766 7.41992 21.4766ZM8.1356 19.725V19.612C8.38044 19.3389 8.92662 18.8398 9.38804 18.3125C10.0378 17.5686 10.3391 16.1937 10.4333 14.4045C10.5463 10.6283 11.714 9.35707 13.2207 8.95214C13.4561 8.88622 13.5785 8.77322 13.5974 8.51897C13.6445 7.56786 14.1812 6.92752 15.0005 6.92752C15.8292 6.92752 16.3565 7.56786 16.4036 8.51897C16.4224 8.77322 16.5543 8.88622 16.7803 8.95214C18.2964 9.35707 19.4547 10.6283 19.5677 14.4045C19.6712 16.1937 19.9726 17.5686 20.6129 18.3125C21.0744 18.8398 21.6017 19.3389 21.8465 19.612V19.725H8.1356ZM15.0005 23.407C13.9364 23.407 13.1736 22.6442 13.1077 21.4766H16.9027C16.8462 22.6348 16.074 23.407 15.0005 23.407Z" fill="#0E8EF3"/>
</svg>
