<svg width="20" height="20" viewBox="0 0 20 20" fill="none" xmlns="http://www.w3.org/2000/svg">
<mask id="mask0_1631_11773" style="mask-type:alpha" maskUnits="userSpaceOnUse" x="0" y="0" width="20" height="20">
<rect width="20" height="20" fill="#C4C4C4"/>
</mask>
<g mask="url(#mask0_1631_11773)">
<path d="M17 3.57143H14.1714V2.37143C14.1714 1.6 13.5714 1 12.8 1H7.65714C6.8 1 6.2 1.6 6.2 2.37143V3.48571H3.37143C2.68571 3.48571 2 4.17143 2 4.94286V6.65714C2 7.42857 2.6 8.02857 3.37143 8.02857H3.71429V8.28571L4.48571 17.6286C4.48571 17.9714 4.65714 18.3143 4.91429 18.5714C5.17143 18.8286 5.6 19 5.94286 19H14.3429C15.1143 19 15.7143 18.4 15.7143 17.6286L16.5714 8.02857H16.9143C17.6857 8.02857 18.2857 7.42857 18.2857 6.65714V4.94286C18.3714 4.17143 17.7714 3.57143 17 3.57143ZM4.91429 8.11429H15.3714V8.28571L14.6 17.8H5.77143V17.5429L4.91429 8.11429ZM7.4 3.48571V2.2H12.8857V3.48571H7.4ZM17.1714 4.77143V6.91429H3.2V4.77143H17.1714Z" fill="#E81E62"/>
</g>
</svg>
