<svg width="14" height="19" viewBox="0 0 14 19" fill="none" xmlns="http://www.w3.org/2000/svg">
<path d="M1.69617 18.4596H4.20419C5.21807 18.4596 5.74102 17.9367 5.74102 16.9228V2.23751C5.74102 1.20229 5.21807 0.711356 4.20419 0.700684H1.69617C0.682289 0.700684 0.15934 1.22363 0.15934 2.23751V16.9228C0.148667 17.9367 0.671617 18.4596 1.69617 18.4596ZM9.80722 18.4596H12.3046C13.3184 18.4596 13.8414 17.9367 13.8414 16.9228V2.23751C13.8414 1.20229 13.3184 0.700684 12.3046 0.700684H9.80722C8.78267 0.700684 8.27039 1.22363 8.27039 2.23751V16.9228C8.27039 17.9367 8.78267 18.4596 9.80722 18.4596Z" fill="white"/>
</svg>
