<svg width="24" height="24" viewBox="0 0 24 24" fill="none" xmlns="http://www.w3.org/2000/svg">
<g clip-path="url(#clip0_1763_34497)">
<rect width="24" height="24" rx="12" fill="#0E8EF3"/>
<path d="M17.9853 8.55156C17.1494 8.55154 16.3476 8.21943 15.7565 7.62829C15.1654 7.03714 14.8333 6.2354 14.8333 5.39941H12.5813V14.2178C12.5809 14.6199 12.4539 15.0116 12.2185 15.3375C11.983 15.6634 11.6509 15.9069 11.2693 16.0335C10.8877 16.1601 10.4759 16.1633 10.0924 16.0428C9.70878 15.9224 9.37286 15.6842 9.13221 15.3621C8.89155 15.04 8.75837 14.6504 8.75153 14.2484C8.7447 13.8464 8.86456 13.4525 9.09413 13.1224C9.32369 12.7923 9.65132 12.5429 10.0306 12.4094C10.4098 12.2759 10.8215 12.2652 11.2072 12.3788V10.1896C10.3875 10.0791 9.55365 10.2213 8.81693 10.5971C8.0802 10.973 7.47568 11.5647 7.08408 12.2932C6.69248 13.0217 6.53244 13.8523 6.62533 14.6741C6.71822 15.4959 7.05963 16.2699 7.60396 16.8926C8.14829 17.5152 8.86963 17.9571 9.67166 18.159C10.4737 18.3609 11.3183 18.3134 12.0925 18.0227C12.8668 17.732 13.534 17.212 14.005 16.5321C14.476 15.8523 14.7284 15.0449 14.7284 14.2178L14.7941 9.76041C15.7194 10.4397 16.8377 10.8051 17.9856 10.8034L17.9853 8.55156Z" fill="white"/>
</g>
<defs>
<clipPath id="clip0_1763_34497">
<rect width="24" height="24" fill="white"/>
</clipPath>
</defs>
</svg>
