<svg width="32" height="32" viewBox="0 0 32 32" fill="none" xmlns="http://www.w3.org/2000/svg">
<path d="M6.87891 25.0066H25.0999C27.2695 25.0066 28.4146 23.8816 28.4146 21.7321V11.1852C28.4146 9.03564 27.2695 7.91064 25.0999 7.91064H22.3577C21.5742 7.91064 21.3231 7.78006 20.8309 7.26779L20.0374 6.41399C19.5151 5.86154 18.9827 5.59033 17.9581 5.59033H13.9704C12.9459 5.59033 12.4235 5.86154 11.8912 6.41399L11.0977 7.26779C10.6155 7.77002 10.3544 7.91064 9.57087 7.91064H6.87891C4.70926 7.91064 3.57422 9.03564 3.57422 11.1852V21.7321C3.57422 23.8816 4.70926 25.0066 6.87891 25.0066ZM7.00949 23.0077C6.09542 23.0077 5.5731 22.5256 5.5731 21.5513V11.366C5.5731 10.4017 6.09542 9.91957 7.00949 9.91957H10.1535C11.0575 9.91957 11.5195 9.75886 12.0318 9.2064L12.7952 8.36265C13.3577 7.74993 13.659 7.58922 14.543 7.58922H17.3856C18.2695 7.58922 18.5709 7.74993 19.1233 8.35261L19.8968 9.2064C20.409 9.75886 20.8711 9.91957 21.7751 9.91957H24.9693C25.8934 9.91957 26.4057 10.4017 26.4057 11.366V21.5513C26.4057 22.5256 25.8934 23.0077 24.9693 23.0077H7.00949ZM15.9894 21.6818C19.0028 21.6818 21.4135 19.2711 21.4135 16.2477C21.4135 13.2243 19.0028 10.8135 15.9894 10.8135C12.986 10.8135 10.5753 13.2243 10.5753 16.2477C10.5753 19.2711 12.986 21.6818 15.9894 21.6818ZM21.755 12.6517C21.755 13.385 22.3477 13.9575 23.0709 13.9475C23.774 13.9475 24.3666 13.3749 24.3666 12.6517C24.3666 11.9486 23.764 11.3459 23.0709 11.3459C22.3477 11.3459 21.755 11.9486 21.755 12.6517ZM15.9894 19.8537C14.0106 19.8537 12.3934 18.2466 12.3934 16.2477C12.3934 14.2388 14.0006 12.6417 15.9894 12.6417C17.9883 12.6417 19.5954 14.2388 19.5954 16.2477C19.5954 18.2466 17.9883 19.8537 15.9894 19.8537Z" fill="#121315"/>
</svg>
