<svg width="30" height="30" viewBox="0 0 30 30" fill="none" xmlns="http://www.w3.org/2000/svg">
<path d="M13.8164 22.8947C13.8164 22.3393 14.2667 21.889 14.8221 21.889C15.3775 21.889 15.8277 22.3393 15.8277 22.8947V25.9115C15.8277 26.4669 15.3775 26.9172 14.8221 26.9172C14.2667 26.9172 13.8164 26.4669 13.8164 25.9115V22.8947Z" fill="#89909B"/>
<path d="M21.6423 15.7554C20.8299 18.6576 18.1116 20.8292 14.8216 20.8292C11.5316 20.8292 8.81333 18.6576 8.00096 15.7554H5.771C6.62669 19.8865 10.3536 22.9959 14.8216 22.9959C19.2896 22.9959 23.0166 19.8865 23.8723 15.7554H21.6423Z" fill="#89909B"/>
<path d="M22.5415 16.7554C21.569 19.3063 19.3069 21.2542 16.5189 21.8249C16.4865 21.7737 16.4519 21.724 16.4152 21.6761C19.1609 21.1402 21.3874 19.246 22.3609 16.7554H22.5415ZM7.28233 16.7554C8.25597 19.2462 10.4828 21.1405 13.2288 21.6762C13.1921 21.7242 13.1575 21.7738 13.1251 21.8251C10.3368 21.2546 8.07434 19.3065 7.10173 16.7554H7.28233ZM14.8164 23.9959C14.8182 23.9959 14.8199 23.9959 14.8216 23.9959C14.8236 23.9959 14.8257 23.9959 14.8277 23.9959V25.9115L14.8276 25.9133L14.8276 25.9136C14.8274 25.9139 14.827 25.9146 14.826 25.9155C14.8252 25.9163 14.8245 25.9168 14.8242 25.917C14.8241 25.917 14.8241 25.9171 14.824 25.9171C14.824 25.9171 14.8239 25.9171 14.8239 25.9171L14.8238 25.9171L14.8221 25.9172L14.8203 25.9171L14.82 25.9171L14.8202 25.9171C14.8202 25.9171 14.8199 25.917 14.8194 25.9166C14.819 25.9164 14.8186 25.916 14.8181 25.9155C14.817 25.9144 14.8165 25.9136 14.8165 25.9134C14.8165 25.9134 14.8165 25.9134 14.8165 25.9134L14.8165 25.9133L14.8164 25.9115V23.9959ZM11.2031 7.70167C11.2031 5.70368 12.8228 4.08398 14.8208 4.08398C16.8188 4.08398 18.4385 5.70368 18.4385 7.70167V13.8524C18.4385 15.8504 16.8188 17.4701 14.8208 17.4701C12.8228 17.4701 11.2031 15.8504 11.2031 13.8524V7.70167Z" stroke="#89909B" stroke-width="2"/>
</svg>
