<svg width="20" height="20" viewBox="0 0 20 20" fill="none" xmlns="http://www.w3.org/2000/svg">
<mask id="mask0_1631_11767" style="mask-type:alpha" maskUnits="userSpaceOnUse" x="0" y="0" width="20" height="20">
<rect width="20" height="20" fill="#C4C4C4"/>
</mask>
<g mask="url(#mask0_1631_11767)">
<path d="M18.9 7C19.3 6.6 19.6 6 19.6 5.4C19.6 4.8 19.4 4.2 18.9 3.8L15.8 0.7C15.4 0.3 14.8 0 14.2 0C13.6 0 13 0.2 12.6 0.7L1.3 12C0.6 12.6 0.1 13.6 0 14.6V19.6H4.9C6 19.5 6.9 19.1 7.6 18.3L18.9 7ZM13.8 1.8C14 1.6 14.5 1.6 14.7 1.8L17.8 4.9C17.9 5 18 5.2 18 5.4C18 5.6 17.9 5.7 17.8 5.9L15.3 8.4L11.3 4.4L13.8 1.8ZM4.9 18H1.6V14.7C1.6 14.2 1.9 13.6 2.4 13.2L10.1 5.5L14.1 9.5L6.4 17.2C6 17.7 5.5 18 4.9 18Z" fill="#0E8EF3"/>
</g>
</svg>
