<svg width="30" height="31" viewBox="0 0 30 31" fill="none" xmlns="http://www.w3.org/2000/svg">
<g clip-path="url(#clip0_413_11947)">
<path fill-rule="evenodd" clip-rule="evenodd" d="M18.6023 8.24096C18.4018 8.04666 18.3992 7.72577 18.5967 7.52833L19.6491 6.47589C19.8433 6.28167 20.1579 6.28048 20.3535 6.47322L26.6308 12.6562C26.9494 12.97 26.7272 13.5124 26.2799 13.5124H21.4625L9.25001 13.5126C8.97386 13.5126 8.75 13.2887 8.75 13.0126V11.5126C8.75 11.2364 8.97385 11.0126 9.24999 11.0126L20.9687 11.0124C21.1484 11.0124 21.237 10.7938 21.1079 10.6687L18.6023 8.24096Z" fill="#0E8EF3"/>
<path fill-rule="evenodd" clip-rule="evenodd" d="M18.6023 8.24096C18.4018 8.04666 18.3992 7.72577 18.5967 7.52833L19.6491 6.47589C19.8433 6.28167 20.1579 6.28048 20.3535 6.47322L26.6308 12.6562C26.9494 12.97 26.7272 13.5124 26.2799 13.5124H21.4625L9.25001 13.5126C8.97386 13.5126 8.75 13.2887 8.75 13.0126V11.5126C8.75 11.2364 8.97385 11.0126 9.24999 11.0126L20.9687 11.0124C21.1484 11.0124 21.237 10.7938 21.1079 10.6687L18.6023 8.24096Z" fill="#0E8EF3"/>
<path fill-rule="evenodd" clip-rule="evenodd" d="M11.4978 22.022C11.7041 22.2151 11.7094 22.5407 11.5096 22.7405L10.4608 23.7894C10.2676 23.9826 9.95509 23.9849 9.75902 23.7947L3.38499 17.6091C3.06272 17.2964 3.28412 16.7503 3.7332 16.7503H8.5375L20.75 16.7501C21.0261 16.7501 21.25 16.974 21.25 17.2501V18.7502C21.25 19.0263 21.0261 19.2502 20.75 19.2502L9.04373 19.2504C8.86236 19.2504 8.77465 19.4724 8.90705 19.5964L11.4978 22.022Z" fill="#0E8EF3"/>
<path fill-rule="evenodd" clip-rule="evenodd" d="M11.4978 22.022C11.7041 22.2151 11.7094 22.5407 11.5096 22.7405L10.4608 23.7894C10.2676 23.9826 9.95509 23.9849 9.75902 23.7947L3.38499 17.6091C3.06272 17.2964 3.28412 16.7503 3.7332 16.7503H8.5375L20.75 16.7501C21.0261 16.7501 21.25 16.974 21.25 17.2501V18.7502C21.25 19.0263 21.0261 19.2502 20.75 19.2502L9.04373 19.2504C8.86236 19.2504 8.77465 19.4724 8.90705 19.5964L11.4978 22.022Z" fill="#0E8EF3"/>
</g>
<defs>
<clipPath id="clip0_413_11947">
<rect width="30" height="30" fill="white" transform="translate(0 0.5)"/>
</clipPath>
</defs>
</svg>
