<svg width="22" height="19" viewBox="0 0 22 19" fill="none" xmlns="http://www.w3.org/2000/svg">
<path d="M17.6 4.22222H20.9C21.1917 4.22222 21.4715 4.33343 21.6778 4.53139C21.8841 4.72934 22 4.99783 22 5.27778V17.9444C22 18.2244 21.8841 18.4929 21.6778 18.6908C21.4715 18.8888 21.1917 19 20.9 19H1.1C0.808262 19 0.528473 18.8888 0.322183 18.6908C0.115892 18.4929 0 18.2244 0 17.9444V1.05556C0 0.775605 0.115892 0.50712 0.322183 0.309165C0.528473 0.11121 0.808262 0 1.1 0H17.6V4.22222ZM2.2 6.33333V16.8889H19.8V6.33333H2.2ZM2.2 2.11111V4.22222H15.4V2.11111H2.2ZM14.3 10.5556H17.6V12.6667H14.3V10.5556Z" fill="#0E8EF3"/>
</svg>
