<svg width="17" height="18" viewBox="0 0 17 18" fill="none" xmlns="http://www.w3.org/2000/svg">
<path fill-rule="evenodd" clip-rule="evenodd" d="M4.09091 2.45455V1.63636C4.09091 0.732625 4.82353 0 5.72727 0H10.6364C11.5401 0 12.2727 0.732625 12.2727 1.63636V2.45455H14.7273C15.631 2.45455 16.3636 3.18717 16.3636 4.09091V5.72727C16.3636 6.63101 15.631 7.36364 14.7273 7.36364H14.6617L13.9091 16.3636C13.9091 17.2674 13.1765 18 12.2727 18H4.09091C3.18717 18 2.45455 17.2674 2.45737 16.4316L1.70171 7.36364H1.63636C0.732625 7.36364 0 6.63101 0 5.72727V4.09091C0 3.18717 0.732625 2.45455 1.63636 2.45455H4.09091ZM4.09091 4.09091H1.63636V5.72727H14.7273V4.09091H12.2727H4.09091ZM3.34349 7.36364L4.09091 16.3636H12.2727L12.2756 16.2957L13.0199 7.36364H3.34349ZM10.6364 2.45455V1.63636H5.72727V2.45455H10.6364Z" fill="white"/>
</svg>
