<svg width="30" height="28" viewBox="0 0 30 28" fill="none" xmlns="http://www.w3.org/2000/svg">
<path d="M15 4C9.47715 4 5 8.47715 5 14C5 19.5228 9.47715 24 15 24C20.5228 24 25 19.5228 25 14C24.9941 8.47962 20.5204 4.0059 15 4ZM15 22.5714C10.2661 22.5714 6.42856 18.7339 6.42856 14C6.42856 9.26612 10.2661 5.42856 15 5.42856C19.7339 5.42856 23.5714 9.26612 23.5714 14C23.5663 18.7318 19.7318 22.5663 15 22.5714Z" fill="#89909A"/>
<path d="M19.8633 8.81568C19.6627 8.71574 19.4269 8.71574 19.2263 8.81568L13.1655 11.8457C13.027 11.9149 12.9147 12.0272 12.8455 12.1657L9.81552 18.2264C9.63961 18.5795 9.78325 19.0084 10.1363 19.1843C10.3369 19.2842 10.5728 19.2842 10.7734 19.1843L16.8341 16.1543C16.9726 16.0851 17.0849 15.9728 17.1541 15.8343L20.1841 9.77352C20.36 9.42045 20.2164 8.99163 19.8633 8.81568ZM12.052 16.9478L13.6805 13.6907L15.3091 15.3193L12.052 16.9478ZM16.3191 14.3093L14.6905 12.6807L17.9477 11.0521L16.3191 14.3093Z" fill="#89909A"/>
</svg>
