<svg width="20" height="20" viewBox="0 0 20 20" fill="none" xmlns="http://www.w3.org/2000/svg">
<path d="M10 10.9989C9.69555 10.9954 9.39732 11.0852 9.14544 11.2562C8.89357 11.4273 8.70015 11.6714 8.59121 11.9557C8.48228 12.2401 8.46306 12.5509 8.53615 12.8465C8.60923 13.1421 8.77111 13.4082 9 13.6089V14.9989C9 15.2642 9.10536 15.5185 9.29289 15.7061C9.48043 15.8936 9.73478 15.9989 10 15.9989C10.2652 15.9989 10.5196 15.8936 10.7071 15.7061C10.8946 15.5185 11 15.2642 11 14.9989V13.6089C11.2289 13.4082 11.3908 13.1421 11.4639 12.8465C11.5369 12.5509 11.5177 12.2401 11.4088 11.9557C11.2999 11.6714 11.1064 11.4273 10.8546 11.2562C10.6027 11.0852 10.3045 10.9954 10 10.9989ZM15 6.99894H7V4.99894C6.99854 4.40513 7.17334 3.82424 7.50226 3.32985C7.83118 2.83545 8.29942 2.44979 8.84768 2.2217C9.39594 1.99362 9.99956 1.93337 10.5821 2.04859C11.1646 2.16381 11.6999 2.44931 12.12 2.86894C12.4959 3.25301 12.7649 3.72877 12.9 4.24894C12.9328 4.37633 12.9904 4.49599 13.0695 4.60112C13.1486 4.70624 13.2476 4.79476 13.3609 4.86161C13.4742 4.92847 13.5995 4.97236 13.7298 4.99078C13.86 5.00919 13.9926 5.00177 14.12 4.96894C14.2474 4.93611 14.3671 4.87851 14.4722 4.79944C14.5773 4.72036 14.6658 4.62135 14.7327 4.50806C14.7995 4.39477 14.8434 4.26943 14.8618 4.13918C14.8802 4.00893 14.8728 3.87633 14.84 3.74894C14.6122 2.88374 14.1603 2.09388 13.53 1.45894C12.8302 0.761309 11.9393 0.286679 10.97 0.0949864C10.0006 -0.0967066 8.99614 0.00313342 8.08346 0.381899C7.17078 0.760665 6.3908 1.40137 5.84201 2.22312C5.29321 3.04486 5.00021 4.01079 5 4.99894V6.99894C4.20435 6.99894 3.44129 7.31501 2.87868 7.87762C2.31607 8.44023 2 9.20329 2 9.99894V16.9989C2 17.7946 2.31607 18.5577 2.87868 19.1203C3.44129 19.6829 4.20435 19.9989 5 19.9989H15C15.7956 19.9989 16.5587 19.6829 17.1213 19.1203C17.6839 18.5577 18 17.7946 18 16.9989V9.99894C18 9.20329 17.6839 8.44023 17.1213 7.87762C16.5587 7.31501 15.7956 6.99894 15 6.99894ZM16 16.9989C16 17.2642 15.8946 17.5185 15.7071 17.7061C15.5196 17.8936 15.2652 17.9989 15 17.9989H5C4.73478 17.9989 4.48043 17.8936 4.29289 17.7061C4.10536 17.5185 4 17.2642 4 16.9989V9.99894C4 9.73373 4.10536 9.47937 4.29289 9.29184C4.48043 9.1043 4.73478 8.99894 5 8.99894H15C15.2652 8.99894 15.5196 9.1043 15.7071 9.29184C15.8946 9.47937 16 9.73373 16 9.99894V16.9989Z" fill="#0E8EF3"/>
<mask id="mask0_845_31434" style="mask-type:alpha" maskUnits="userSpaceOnUse" x="0" y="0" width="20" height="20">
<rect width="20" height="20" fill="#C4C4C4"/>
</mask>
<g mask="url(#mask0_845_31434)">
</g>
</svg>
