<svg width="298" height="254" viewBox="0 0 298 254" fill="none" xmlns="http://www.w3.org/2000/svg">
<path d="M212.518 93.5365C213.067 93.8109 213.433 94.5428 213.342 95.1832L212.518 101.77C214.897 103.783 217.001 106.161 218.739 108.814H225.417C226.149 108.814 226.698 109.272 226.973 109.912L229.809 118.054C229.992 118.695 229.809 119.426 229.26 119.884L224.045 124.001C224.32 127.111 224.137 130.313 223.496 133.332L228.162 137.998C228.619 138.455 228.802 139.279 228.436 139.827L224.686 147.604C224.411 148.244 223.679 148.61 223.039 148.518L216.452 147.695C214.439 150.074 212.061 152.178 209.408 153.916V160.594C209.408 161.326 208.95 161.875 208.31 162.15L200.168 164.986C199.527 165.169 198.796 164.986 198.338 164.437L194.221 159.222C191.111 159.497 187.909 159.314 184.89 158.673L180.224 163.339C179.767 163.796 178.944 163.979 178.395 163.613L170.619 159.862C169.978 159.588 169.612 158.856 169.704 158.216L170.527 151.629C168.148 149.616 166.044 147.238 164.306 144.585H157.628C156.896 144.585 156.347 144.127 156.073 143.487L153.237 135.345C153.054 134.704 153.237 133.972 153.785 133.515L159 129.398C158.726 126.288 158.909 123.086 159.549 120.067L154.883 115.401C154.426 114.944 154.243 114.12 154.609 113.571L158.36 105.795C158.634 105.155 159.366 104.789 160.006 104.88L166.593 105.704C168.606 103.325 170.984 101.221 173.637 99.4829V92.8046C173.637 92.0727 174.095 91.5238 174.735 91.2494L182.877 88.4133C183.518 88.2304 184.25 88.4133 184.707 88.9622L188.824 94.1769C191.934 93.9024 195.136 94.0854 198.155 94.7258L202.821 90.0601C203.278 89.6026 204.102 89.4197 204.651 89.7856L212.518 93.5365ZM217.641 110.827L217.367 110.37C215.629 107.534 213.433 105.063 210.872 103.051L210.414 102.685L211.329 95.2746L204.102 91.7983L198.796 97.1043L198.247 97.0129C195.045 96.281 191.751 96.098 188.458 96.464L187.909 96.5554L183.335 90.7004L175.742 93.3535V100.855L175.284 101.13C172.448 102.868 169.978 105.063 167.966 107.625L167.6 108.082L160.189 107.168L156.713 114.395L162.019 119.701L161.928 120.25C161.196 123.452 161.013 126.745 161.379 130.039L161.47 130.588L155.615 135.162L158.268 142.755H165.77L166.044 143.212C167.783 146.048 169.978 148.518 172.54 150.531L172.997 150.897L172.082 158.307L179.31 161.784L184.616 156.478L185.164 156.569C188.366 157.301 191.66 157.484 194.953 157.118L195.502 157.026L200.076 162.881L207.67 160.228V152.727L208.127 152.452C210.963 150.714 213.433 148.518 215.446 145.957L215.812 145.499L223.222 146.414L226.698 139.187L221.392 133.881L221.484 133.332C222.216 130.13 222.399 126.837 222.033 123.543L221.941 122.994L227.796 118.42L225.143 110.827H217.641ZM201.906 107.442C206.846 110.004 210.506 114.303 212.335 119.609C214.256 125.098 213.891 131.045 211.329 136.351C208.767 141.566 204.285 145.591 198.796 147.421C193.307 149.342 187.36 148.976 182.054 146.414C176.839 143.853 172.814 139.37 170.984 133.881C169.063 128.392 169.429 122.445 171.991 117.139C172.631 115.767 173.546 114.395 174.461 113.206C174.827 112.748 175.467 112.657 175.925 113.023C176.382 113.389 176.474 114.029 176.108 114.486C175.284 115.584 174.461 116.773 173.912 118.054C171.625 122.811 171.259 128.209 172.997 133.241C174.735 138.272 178.303 142.298 183.06 144.585C187.818 146.872 193.215 147.238 198.247 145.499C203.278 143.761 207.304 140.193 209.591 135.436C211.878 130.679 212.244 125.281 210.506 120.25C208.767 115.218 205.2 111.193 200.442 108.906C197.24 107.351 193.581 106.71 190.105 106.985C189.556 107.076 189.007 106.619 189.007 106.07C188.915 105.521 189.373 104.972 189.922 104.972C193.856 104.606 197.789 105.338 201.357 107.076C201.449 107.259 201.723 107.351 201.906 107.442Z" fill="#CCCCCC"/>
<path d="M195.685 118.969C198.978 120.707 200.899 124.55 200.167 128.483C199.71 130.771 198.338 132.692 196.416 133.973C194.495 135.253 192.117 135.711 189.83 135.253C185.164 134.247 182.145 129.673 183.06 124.916C184.066 120.25 188.64 117.231 193.397 118.146C194.129 118.329 194.953 118.603 195.685 118.969ZM188.457 132.509C189.006 132.783 189.555 133.058 190.196 133.149C191.934 133.515 193.672 133.149 195.227 132.234C196.691 131.228 197.697 129.764 198.063 128.026C198.795 124.458 196.508 120.89 192.94 120.158C191.202 119.793 189.464 120.158 187.908 121.073C186.445 122.08 185.438 123.543 185.072 125.282C184.432 128.209 185.896 131.137 188.457 132.509Z" fill="#CCCCCC"/>
<path d="M278.387 106.344C278.845 106.619 279.119 106.985 279.211 107.533L279.851 111.01C281.406 111.742 282.779 112.565 284.151 113.663L287.536 112.657C288.176 112.474 288.908 112.657 289.274 113.297L292.293 117.414C292.659 117.963 292.659 118.694 292.293 119.335L290.28 122.262C290.921 123.818 291.287 125.464 291.47 127.111L294.58 128.758C295.22 129.124 295.495 129.764 295.403 130.404L294.58 135.436C294.489 136.076 293.94 136.625 293.299 136.808L289.823 137.449C289.091 139.004 288.268 140.376 287.17 141.748L288.176 145.133C288.359 145.774 288.176 146.506 287.536 146.872L283.419 149.891C282.87 150.256 282.138 150.256 281.498 149.891L278.57 147.878C277.015 148.518 275.368 148.884 273.722 149.067L272.075 152.178C271.709 152.818 271.069 153.092 270.428 153.001L265.397 152.178C264.756 152.086 264.207 151.537 264.024 150.897L263.384 147.42C261.829 146.689 260.456 145.865 259.084 144.767L255.699 145.774C255.059 145.957 254.327 145.774 253.961 145.133L250.942 141.017C250.576 140.468 250.576 139.736 250.942 139.095L252.955 136.168C252.314 134.613 251.948 132.966 251.765 131.319L248.655 129.673C248.015 129.307 247.74 128.666 247.832 128.026L248.655 122.994C248.746 122.354 249.295 121.805 249.936 121.622L253.412 120.982C254.144 119.426 254.967 118.054 256.065 116.682L255.059 113.297C254.876 112.657 255.059 111.925 255.699 111.559L259.816 108.54C260.365 108.174 261.097 108.174 261.737 108.54L264.665 110.552C266.22 109.912 267.867 109.546 269.513 109.363L271.16 106.253C271.526 105.612 272.166 105.338 272.807 105.429L277.838 106.253C278.021 106.253 278.204 106.253 278.387 106.344ZM277.564 112.839L276.832 108.631L273.081 107.991L271.069 111.742L270.337 111.833C268.507 111.925 266.677 112.382 264.939 113.114L264.299 113.388L260.822 110.918L257.712 113.114L258.993 117.231L258.535 117.78C257.346 119.243 256.34 120.799 255.608 122.537L255.333 123.177L251.125 123.909L250.485 127.66L254.235 129.673L254.327 130.404C254.419 132.234 254.876 134.064 255.608 135.802L255.882 136.442L253.412 139.919L255.608 143.029L259.725 141.748L260.274 142.206C261.737 143.487 263.292 144.401 265.031 145.133L265.671 145.408L266.403 149.616L270.154 150.256L272.166 146.506L272.898 146.414C274.728 146.323 276.558 145.865 278.296 145.133L278.936 144.859L282.413 147.329L285.523 145.133L284.242 141.017L284.7 140.468C285.889 139.004 286.895 137.449 287.627 135.711L287.902 135.07L292.11 134.338L292.75 130.587L288.999 128.575L288.908 127.843C288.817 126.013 288.359 124.184 287.627 122.445L287.353 121.805L289.823 118.329L287.627 115.218L283.51 116.499L282.962 116.041C281.498 114.852 279.943 113.846 278.204 113.114L277.564 112.839ZM283.053 147.786C283.053 147.786 282.962 147.786 283.053 147.786V147.786ZM278.021 117.231C283.053 119.884 285.981 125.464 285.066 131.411C283.876 138.821 276.924 143.853 269.513 142.663C262.103 141.474 257.072 134.521 258.261 127.111C258.444 126.196 258.627 125.19 258.993 124.275C259.267 123.635 259.999 123.269 260.639 123.543C261.28 123.818 261.646 124.549 261.371 125.19C261.097 125.922 260.914 126.654 260.731 127.477C259.725 133.515 263.841 139.187 269.879 140.102C275.917 141.108 281.589 136.991 282.504 130.953C283.51 124.915 279.394 119.243 273.356 118.329C271.343 118.054 269.33 118.237 267.501 118.969C266.86 119.243 266.128 118.877 265.854 118.237C265.58 117.597 265.945 116.865 266.586 116.59C268.873 115.675 271.343 115.401 273.813 115.767C275.368 116.041 276.741 116.59 278.021 117.231Z" fill="#E6E6E5"/>
<path d="M206.571 62.8896C206.022 62.6152 205.564 62.0663 205.473 61.3344L204.649 56.5772C202.637 55.6624 200.716 54.4731 198.886 53.0094L194.312 54.3816C193.397 54.6561 192.482 54.2901 191.933 53.5583L187.908 47.9777C187.359 47.2459 187.359 46.2395 187.908 45.4162L190.652 41.4824C189.829 39.3782 189.372 37.1826 189.097 34.8955L184.889 32.6084C184.066 32.151 183.608 31.2361 183.791 30.3213L184.889 23.5515C185.072 22.6366 185.712 21.9047 186.627 21.7218L191.384 20.8984C192.299 18.8858 193.488 16.9646 194.952 15.1349L193.58 10.5607C193.305 9.64588 193.671 8.73105 194.403 8.18214L199.984 4.15683C200.716 3.60793 201.722 3.60793 202.545 4.15683L206.479 6.90136C208.583 6.078 210.779 5.62058 213.066 5.34613L215.353 1.13785C215.81 0.314497 216.725 -0.142921 217.64 0.040047L224.41 1.13785C225.325 1.32082 226.057 1.96122 226.24 2.87606L227.063 7.63323C229.076 8.54807 230.997 9.73736 232.827 11.2011L237.401 9.82885C238.316 9.55439 239.23 9.92034 239.779 10.6522L243.805 16.2327C244.354 16.9646 244.354 17.9709 243.805 18.7943L241.06 22.7281C241.884 24.8322 242.341 27.0279 242.615 29.315L246.824 31.6021C247.647 32.0595 248.104 32.9743 247.921 33.8892L246.824 40.659C246.641 41.5738 246 42.3057 245.085 42.4887L240.328 43.312C239.413 45.3247 238.224 47.2459 236.76 49.0755L238.133 53.6497C238.407 54.5646 238.041 55.4794 237.309 56.0283L231.729 60.0536C230.997 60.6025 229.991 60.6025 229.167 60.0536L225.233 57.3091C223.129 58.1325 220.934 58.5899 218.647 58.8643L216.359 63.0726C215.902 63.896 214.987 64.3534 214.072 64.1704L207.303 63.0726C207.028 63.0726 206.845 62.9811 206.571 62.8896ZM207.668 54.1986L208.675 59.8707L213.706 60.694L216.451 55.5709L217.366 55.4794C219.836 55.2965 222.306 54.7475 224.684 53.7412L225.508 53.3753L230.265 56.6687L234.382 53.6497L232.735 48.1607L233.375 47.4288C235.022 45.5077 236.394 43.4035 237.309 41.0249L237.675 40.2016L243.347 39.1953L244.171 34.1636L239.047 31.4191L238.956 30.5043C238.773 28.0342 238.224 25.5641 237.218 23.1855L236.852 22.3622L240.145 17.605L237.126 13.4882L231.637 15.1349L230.905 14.4945C228.984 12.8478 226.88 11.4756 224.501 10.5607L223.678 10.1948L222.672 4.52278L217.64 3.69941L214.896 8.82253L213.981 8.914C211.511 9.09697 209.041 9.64588 206.662 10.6522L205.839 11.0181L201.082 7.72472L196.965 10.7437L198.612 16.2327L197.971 16.9646C196.324 18.8858 194.952 20.9899 194.037 23.3685L193.671 24.1919L187.999 25.1982L187.176 30.2298L192.299 32.9743L192.391 33.8892C192.574 36.3592 193.122 38.8293 194.129 41.2079L194.495 42.0313L191.201 46.7884L194.22 50.9052L199.709 49.2585L200.441 49.8989C202.362 51.5456 204.466 52.9179 206.845 53.8327L207.668 54.1986ZM207.028 48.2522C200.35 44.6843 196.324 37.1826 197.605 29.315C199.16 19.4347 208.583 12.5734 218.464 14.2201C228.344 15.7753 235.205 25.1982 233.558 35.0785C233.375 36.3592 233.01 37.64 232.552 38.8293C232.186 39.7442 231.271 40.1101 230.356 39.8356C229.442 39.4697 229.076 38.4634 229.35 37.64C229.716 36.6337 229.991 35.6274 230.174 34.621C231.454 26.5704 225.965 18.9773 217.915 17.605C209.864 16.3242 202.271 21.8133 200.899 29.8639C199.618 37.9145 205.107 45.5076 213.158 46.8799C215.811 47.3373 218.555 46.9714 221.025 45.9651C221.94 45.5991 222.855 46.0566 223.221 46.8799C223.587 47.7948 223.129 48.7096 222.306 49.0755C219.287 50.2648 215.902 50.6308 212.7 50.1733C210.687 49.8074 208.766 49.167 207.028 48.2522Z" fill="#E6E6E5"/>
<path d="M169.154 6.07808C169.429 6.26105 169.612 6.62699 169.52 6.99292L168.789 10.3778C169.978 11.5671 170.893 12.8479 171.716 14.3117L175.192 14.6776C175.558 14.6776 175.833 14.952 175.924 15.318L177.022 19.7092C177.114 20.0751 176.931 20.4411 176.656 20.6241L173.729 22.5452C173.729 24.1919 173.454 25.8387 172.997 27.3939L175.192 30.0469C175.467 30.3214 175.467 30.6873 175.284 31.0533L172.905 34.8956C172.722 35.17 172.356 35.353 171.99 35.2615L168.605 34.5296C167.416 35.7189 166.135 36.6338 164.672 37.4571L164.306 40.9335C164.306 41.2995 164.031 41.5739 163.665 41.6654L159.274 42.7632C158.908 42.8547 158.542 42.6717 158.359 42.3973L156.438 39.4698C154.791 39.4698 153.145 39.1953 151.589 38.7379L148.936 40.9335C148.662 41.208 148.296 41.208 147.93 41.025L144.088 38.6464C143.813 38.4635 143.63 38.0975 143.722 37.7316L144.454 34.3467C143.264 33.1574 142.35 31.8766 141.526 30.4129L138.05 30.0469C137.684 30.0469 137.409 29.7725 137.318 29.4065L136.22 25.0153C136.129 24.6494 136.312 24.2834 136.586 24.1005L139.514 22.1793C139.514 20.5326 139.788 18.8859 140.245 17.3306L138.05 14.6776C137.775 14.4031 137.775 14.0372 137.958 13.6713L140.337 9.82892C140.52 9.55447 140.886 9.37151 141.252 9.46299L144.637 10.1949C145.826 9.00558 147.107 8.09074 148.57 7.26738L148.936 3.79098C148.936 3.42504 149.211 3.15059 149.577 3.0591L153.968 1.9613C154.334 1.86981 154.7 2.05278 154.883 2.32723L156.804 5.25472C158.451 5.25472 160.097 5.52917 161.653 5.98659L164.306 3.79098C164.58 3.51653 164.946 3.51652 165.312 3.69949L169.154 6.07808ZM170.984 15.4095L170.893 15.135C170.069 13.5798 169.063 12.2075 167.874 10.9267L167.691 10.7438L168.514 6.90143L164.946 4.70582L161.927 7.17589L161.653 7.0844C160.006 6.5355 158.268 6.26105 156.53 6.26105H156.255L154.151 2.96762L150.034 3.97395L149.668 7.90777L149.394 7.99924C147.839 8.8226 146.466 9.82893 145.186 11.0182L145.003 11.2012L141.16 10.3778L138.965 13.9457L141.435 16.9647L141.343 17.2391C140.794 18.8859 140.52 20.6241 140.52 22.3623V22.6367L137.226 24.7408L138.233 28.8576L142.167 29.2236L142.258 29.498C143.081 31.0532 144.088 32.4255 145.277 33.7063L145.46 33.8892L144.637 37.7316L148.205 39.9272L151.224 37.4571L151.498 37.5486C153.145 38.0975 154.883 38.372 156.621 38.372H156.896L159 41.6654L163.116 40.6591L163.482 36.7253L163.757 36.6338C165.312 35.8104 166.684 34.8041 167.965 33.6148L168.148 33.4318L171.99 34.2552L174.186 30.6873L171.716 27.6683L171.807 27.3939C172.356 25.7472 172.631 24.009 172.631 22.2708V21.9963L175.924 19.8922L174.918 15.7754L170.984 15.4095ZM162.842 12.8479C165.312 14.4946 166.959 16.8732 167.691 19.7092C168.423 22.7282 167.965 25.7472 166.318 28.4002C164.763 31.0532 162.202 32.8829 159.183 33.6148C156.164 34.3467 153.145 33.8892 150.492 32.2425C147.839 30.6873 146.009 28.1258 145.277 25.1068C144.545 22.0878 145.003 19.0688 146.649 16.4158C147.107 15.6839 147.564 15.0435 148.113 14.4946C148.296 14.3117 148.662 14.3117 148.845 14.4946C149.028 14.6776 149.028 15.0435 148.845 15.2265C148.296 15.7754 147.839 16.3243 147.473 16.9647C146.009 19.3433 145.551 22.1793 146.283 24.8323C146.924 27.5769 148.571 29.864 150.949 31.2362C153.328 32.7 156.164 33.1574 158.817 32.4255C161.561 31.7851 163.848 30.1384 165.221 27.7598C166.684 25.3812 167.142 22.5452 166.41 19.8922C165.769 17.1477 164.123 14.8605 161.744 13.4883C160.097 12.482 158.268 11.9331 156.438 11.9331C156.164 11.9331 155.889 11.6586 155.889 11.3842C155.889 11.1097 156.164 10.8353 156.438 10.8353C158.542 10.8353 160.555 11.4756 162.293 12.482C162.659 12.6649 162.751 12.7564 162.842 12.8479Z" fill="#0E8EF3"/>
<path d="M159 18.5204C160.647 19.6183 161.47 21.7224 160.83 23.735C160.464 24.9243 159.64 25.8392 158.634 26.3881C157.536 26.937 156.347 27.0285 155.158 26.754C152.779 26.0221 151.407 23.4606 152.139 20.9905C152.87 18.6119 155.432 17.2397 157.902 17.9715C158.268 18.1545 158.634 18.3375 159 18.5204ZM154.609 25.2903C154.883 25.4732 155.158 25.5647 155.524 25.7477C156.438 26.0221 157.353 25.9307 158.176 25.4732C159 25.0158 159.64 24.2839 159.915 23.4606C160.464 21.6309 159.457 19.6183 157.628 19.0694C156.713 18.7949 155.798 18.8864 154.975 19.3438C154.151 19.8012 153.511 20.5331 153.236 21.3565C152.688 22.8202 153.328 24.4669 154.609 25.2903Z" fill="#0E8EF3"/>
<path d="M36.4109 94.6351C36.2279 94.6351 35.9535 94.4522 35.9535 94.2692C35.862 93.9948 36.045 93.7203 36.3194 93.7203C36.3194 93.7203 36.6854 93.6288 37.2343 93.5373C37.5087 93.4458 37.7832 93.6288 37.7832 93.9033C37.8746 94.1777 37.6917 94.4522 37.4172 94.4522C36.8683 94.5437 36.5024 94.6351 36.5024 94.6351C36.5024 94.6351 36.5024 94.6351 36.4109 94.6351ZM38.6065 94.2692C38.4236 94.2692 38.1491 94.0862 38.1491 93.9033C38.0576 93.6288 38.2406 93.3544 38.5151 93.3544C38.7895 93.2629 39.1555 93.2629 39.4299 93.1714C39.7044 93.0799 39.9788 93.2629 39.9788 93.5373C40.0703 93.8118 39.8873 94.0862 39.6128 94.0862C39.3384 94.0862 38.9725 94.1777 38.6065 94.2692C38.698 94.2692 38.6065 94.2692 38.6065 94.2692ZM40.8022 93.9033C40.5277 93.9033 40.3448 93.7203 40.3448 93.5373C40.3448 93.2629 40.4363 92.9884 40.7107 92.9884C40.9852 92.8969 41.3511 92.897 41.6256 92.8055C41.9 92.8055 42.083 92.8969 42.1744 93.1714C42.1744 93.4458 42.0829 93.6288 41.8085 93.7203C41.534 93.7203 41.1681 93.8118 40.8022 93.9033C40.8937 93.8118 40.8022 93.9033 40.8022 93.9033ZM42.9978 93.5373C42.7234 93.5373 42.5404 93.3544 42.5404 93.1714C42.5404 92.8969 42.7233 92.714 42.9063 92.6225C43.1807 92.6225 43.5466 92.531 43.8211 92.531C44.0955 92.531 44.2786 92.714 44.3701 92.897C44.3701 93.1714 44.1871 93.3544 44.0041 93.4458C43.7297 93.4458 43.3638 93.4458 42.9978 93.5373C43.0893 93.5373 42.9978 93.5373 42.9978 93.5373ZM52.7866 93.2629H52.6951C52.4207 93.1714 52.1462 93.1714 51.7803 93.0799C51.5058 93.0799 51.3229 92.8054 51.3229 92.531C51.3229 92.2565 51.5973 92.0736 51.8717 92.0736C52.2377 92.1651 52.6036 92.1651 52.878 92.2566C53.1525 92.348 53.244 92.6225 53.244 92.8055C53.244 93.0799 53.061 93.2629 52.7866 93.2629ZM45.1934 93.2629C44.9189 93.2629 44.7359 93.0799 44.7359 92.8055C44.7359 92.531 44.9189 92.348 45.1934 92.2566C45.5593 92.2566 45.8337 92.1651 46.1082 92.1651C46.3827 92.1651 46.5657 92.348 46.6572 92.6225C46.6572 92.8969 46.4742 93.0799 46.1998 93.1714C45.9253 93.1714 45.5593 93.1714 45.1934 93.2629C45.2848 93.2629 45.1934 93.2629 45.1934 93.2629ZM47.4805 92.9884C47.206 92.9884 47.023 92.8054 47.023 92.531C47.023 92.2565 47.206 92.0736 47.4805 91.9821C47.8464 91.9821 48.1209 91.9821 48.4869 91.8906C48.7613 91.8906 48.9443 92.0736 48.9443 92.348C48.9443 92.6225 48.7613 92.8055 48.4869 92.8055C48.1209 92.9884 47.7549 92.9884 47.4805 92.9884ZM50.5909 92.9884C50.3165 92.9884 49.9506 92.9884 49.6761 92.9884C49.4016 92.9884 49.2187 92.8054 49.2187 92.531C49.2187 92.2565 49.4016 92.0736 49.6761 92.0736C50.042 92.0736 50.3165 92.0736 50.6824 92.0736C50.9569 92.0736 51.1398 92.348 51.1398 92.531C51.0483 92.714 50.8654 92.9884 50.5909 92.9884Z" fill="#CCCCCC"/>
<path d="M294.669 146.415L297.871 188.04L269.694 190.235C270.243 188.497 270.518 186.668 270.335 184.746C269.786 177.336 263.748 171.847 256.886 172.396C250.025 172.945 244.902 179.349 245.451 186.668C245.634 188.589 246.091 190.418 246.915 191.974L164.305 198.378C164.853 199.658 165.219 201.122 165.311 202.586C165.86 209.905 160.737 216.308 153.875 216.857C147.014 217.406 140.976 211.826 140.427 204.507C140.336 203.043 140.427 201.579 140.793 200.207L112.616 202.403L109.414 160.778L137.317 158.582C137.134 159.68 137.042 160.869 137.134 162.058C137.683 169.377 143.721 174.958 150.582 174.409C157.443 173.86 162.566 167.456 162.017 160.137C161.926 158.948 161.651 157.759 161.286 156.752L244.079 150.348C242.981 148.61 242.34 146.506 242.157 144.219C241.609 136.9 246.732 130.496 253.593 129.947C260.454 129.399 266.492 134.979 267.041 142.298C267.224 144.585 266.858 146.689 266.126 148.61L294.669 146.415Z" fill="#48AEFF"/>
<path d="M296.591 212.192V236.435C296.591 245.4 288.632 252.719 278.386 254H128.992C118.655 252.811 110.787 245.4 110.787 236.435V212.192H138.964C138.507 213.564 138.324 214.936 138.324 216.491C138.324 223.902 143.904 229.848 150.766 229.848C157.627 229.848 163.207 223.902 163.207 216.491C163.207 215.028 162.933 213.564 162.567 212.192H245.452C244.811 210.545 244.354 208.715 244.354 206.794C244.354 199.384 249.934 193.438 256.796 193.438C263.657 193.438 269.238 199.384 269.238 206.794C269.238 208.715 268.872 210.545 268.14 212.192H296.591Z" fill="#0E8EF3"/>
<path d="M139.239 106.528L136.952 103.509C129.542 108.632 123.321 109.821 118.289 108.906C118.746 113.389 119.661 117.872 121.125 122.355C132.378 118.238 139.239 106.528 139.239 106.528Z" fill="url(#paint0_linear_1997_28310)"/>
<path d="M36.8681 241.833C36.8681 241.833 35.2214 244.394 34.8555 251.713C34.8555 252.353 35.3128 252.994 36.0447 252.994H48.944C49.4929 252.994 49.8588 252.445 49.6759 251.988C48.944 249.792 46.6569 244.303 41.5337 241.192L36.8681 241.833Z" fill="#0F487A"/>
<path d="M36.3193 236.983L37.0513 243.113C37.1427 243.662 37.5087 244.028 38.0576 244.119C38.7894 244.211 39.7958 244.302 40.8021 244.119C41.7169 243.936 42.3573 243.204 42.3573 242.29V236.435L36.3193 236.983Z" fill="url(#paint1_linear_1997_28310)"/>
<path d="M68.7043 241.192C68.7043 241.192 66.2342 245.034 66.3257 250.249C66.3257 251.53 67.332 252.445 68.6128 252.445H88.5563C89.4711 252.445 89.8371 251.255 89.1052 250.706C85.3543 248.053 77.8527 243.113 72.5466 241.101H68.7043V241.192Z" fill="#0F487A"/>
<path d="M66.6924 234.605L68.2477 242.107C68.4306 242.93 69.254 243.479 70.0774 243.296C70.6263 243.204 71.1752 242.93 71.8156 242.564C72.456 242.198 72.7303 241.466 72.6389 240.734L70.9922 231.586L66.6924 234.605Z" fill="url(#paint2_linear_1997_28310)"/>
<path d="M39.1549 129.855C39.1549 129.855 33.7574 134.613 32.751 140.376C31.7447 146.14 35.587 239.088 35.587 239.088C35.587 239.088 40.9846 240.002 43.7291 238.264C43.7291 238.264 47.0226 177.885 49.4927 163.979C49.4927 163.979 62.6664 226.463 66.3258 237.807C66.3258 237.807 71.5404 238.447 73.1871 237.441C73.1871 237.441 69.7107 156.386 65.4109 142.023L39.1549 129.855Z" fill="#B4B4B4"/>
<path d="M49.4928 161.693C49.4013 161.693 49.3098 161.601 49.2183 161.51L46.9312 152.819L42.0826 149.708C41.9911 149.617 41.8995 149.434 41.991 149.342C42.0825 149.251 42.2655 149.159 42.357 149.251L47.2971 152.453C47.3886 152.453 47.3886 152.544 47.3886 152.636L49.6757 161.418C49.7672 161.51 49.6757 161.693 49.4928 161.693Z" fill="#919091"/>
<path d="M96.5164 82.1924C74.6517 75.88 67.8818 79.3564 67.8818 79.3564L75.2006 98.3851C75.2006 98.3851 97.1568 102.319 115.271 93.3535C112.984 89.6026 111.611 85.6688 110.879 82.7413C106.488 83.5647 101.64 83.6562 96.5164 82.1924Z" fill="#272F87"/>
<path d="M137.958 56.486C138.05 55.7542 137.135 55.3882 136.677 55.9371L132.652 61.4262C131.829 62.524 131.463 63.8048 131.371 65.0855L131.646 68.8364C131.554 70.5746 130.822 72.3128 129.45 73.4106C126.157 76.1551 119.387 81.0038 110.879 82.742C111.611 85.761 112.983 89.6033 115.27 93.3542C121.949 90.0607 127.986 85.0291 132.378 77.4359C133.75 77.2529 134.848 76.2466 135.031 74.8743L137.958 56.486Z" fill="url(#paint3_linear_1997_28310)"/>
<path d="M99.8999 86.1262C91.9408 77.5267 76.663 73.5929 67.8805 72.0377C64.0382 71.3058 60.1958 73.5014 58.8236 77.1608C54.8897 87.8644 44.0946 115.584 41.9905 120.341C40.2523 124.275 38.5141 128.117 37.3248 130.496C36.6844 131.96 37.2333 133.607 38.697 134.338C46.1073 137.906 59.4639 141.932 64.8615 143.578C66.0508 143.944 67.2402 143.029 67.2402 141.749C67.2402 140.742 67.5145 139.644 68.0634 138.73L88.5559 104.606C96.4235 119.335 113.897 124.733 122.496 121.714C121.033 117.231 120.118 112.748 119.66 108.265C106.944 106.07 99.8999 86.1262 99.8999 86.1262Z" fill="#333CA0"/>
<path d="M79.9572 56.2109L73.1875 72.861C73.1875 72.861 81.055 78.2586 87.276 77.8012L90.6609 62.8893L79.9572 56.2109Z" fill="url(#paint4_linear_1997_28310)"/>
<path d="M91.4838 44.8673C91.6667 45.0503 96.4238 62.3408 96.4238 62.3408L86.5436 64.8109L79.5908 49.1671C79.5908 49.1671 88.9222 41.208 91.4838 44.8673Z" fill="url(#paint5_linear_1997_28310)"/>
<path d="M83.3408 51.5454L86.3597 60.0534C86.3597 60.1449 86.4513 60.2364 86.5428 60.3279C86.9087 60.8768 88.4639 62.798 90.385 61.0598C92.0318 59.5045 93.587 58.1323 95.0507 57.8578C95.6911 57.7663 96.3316 58.1323 96.5145 58.7727C96.972 60.3279 97.8867 63.8958 98.1612 67.0977C98.2527 67.7381 97.7953 68.3785 97.1549 68.47C95.2337 68.8359 91.1169 69.4763 87.732 69.2933C87.2746 69.2933 86.8172 69.0189 86.6342 68.5615C85.7194 66.4573 82.7919 60.2364 81.694 58.5897C80.6877 57.0345 78.2176 57.126 77.2113 57.2174C76.8454 57.2174 76.5709 57.126 76.2965 56.943C75.3816 56.1196 73.6435 54.107 76.1135 51.7284C76.6624 51.1795 76.571 50.3561 76.1135 49.8987C75.1072 48.8924 73.9179 47.1542 75.6561 45.0501C77.3943 42.8544 79.7729 43.2204 81.1452 43.7693C81.6941 43.9522 82.3344 43.7693 82.7004 43.2204C82.8833 42.9459 83.1579 42.6715 83.7068 42.7629C84.4386 42.8544 85.079 42.2141 85.079 41.4822C85.079 40.1099 85.5364 38.2802 88.0065 37.5484C92.3062 36.1761 95.0508 40.3844 95.3252 43.4948C95.5997 46.6053 90.8425 47.7946 88.0065 47.6116C85.9023 47.4286 84.2556 49.5328 83.6152 50.6306C83.2493 50.8136 83.1578 51.1795 83.3408 51.5454Z" fill="#192E35"/>
<path d="M82.701 61.7919C82.701 61.7919 81.9692 56.3943 79.7736 56.1199C77.4865 55.8454 75.2909 57.6751 77.578 60.7856C80.3225 64.5364 82.701 61.7919 82.701 61.7919Z" fill="#F9BABA"/>
<path d="M137.593 106.527L150.492 107.076L157.719 94.4512C158.085 93.8108 157.536 93.079 156.896 93.2619C153.785 93.9023 151.315 97.9276 150.126 100.032C149.669 100.855 148.754 101.404 147.839 101.313C145.643 101.13 141.709 100.764 139.788 100.764C137.501 100.764 136.312 103.325 136.403 104.514C136.403 104.697 136.495 104.88 136.495 104.88L137.593 106.527Z" fill="url(#paint6_linear_1997_28310)"/>
<path d="M36.5939 94.7258C36.3195 94.8173 36.045 94.6343 35.9535 94.3598C35.862 94.0854 36.045 93.811 36.3194 93.7195C36.6854 93.628 36.9598 93.5365 36.9598 93.5365C37.2342 93.445 37.5088 93.628 37.6002 93.9024C37.6917 94.1769 37.5087 94.4513 37.2343 94.5428C37.2343 94.5428 36.9599 94.6343 36.5939 94.7258Z" fill="#CCCCCC"/>
<path d="M106.122 194.444C106.03 194.444 105.847 194.535 105.756 194.535C105.481 194.627 105.207 194.444 105.115 194.169C105.024 193.895 105.207 193.62 105.481 193.529C105.847 193.437 106.305 193.346 106.67 193.254C106.945 193.163 107.219 193.346 107.311 193.62C107.402 193.895 107.219 194.169 106.945 194.261C106.762 194.352 106.488 194.444 106.122 194.444ZM104.2 194.901C104.109 194.901 104.109 194.901 104.2 194.901C103.743 194.993 103.377 195.084 102.92 195.176C102.645 195.267 102.371 194.993 102.279 194.718C102.188 194.444 102.462 194.169 102.737 194.078C103.194 193.986 103.56 193.895 104.017 193.895C104.292 193.803 104.566 193.986 104.658 194.352C104.658 194.535 104.475 194.81 104.2 194.901ZM108.683 193.895C108.409 193.986 108.134 193.803 108.043 193.529C107.951 193.254 108.134 192.98 108.409 192.889C108.775 192.797 109.232 192.706 109.598 192.614C109.872 192.523 110.147 192.706 110.238 192.98C110.33 193.254 110.147 193.529 109.872 193.62C109.506 193.712 109.14 193.803 108.683 193.895ZM101.273 195.359C100.815 195.45 100.449 195.45 99.9921 195.542C99.7176 195.542 99.4432 195.359 99.4432 195.084C99.4432 194.81 99.6262 194.535 99.9006 194.535C100.358 194.444 100.724 194.444 101.181 194.352C101.456 194.352 101.73 194.535 101.822 194.81C101.73 195.084 101.547 195.267 101.273 195.359ZM98.3454 195.816C97.888 195.908 97.4306 195.908 97.0646 195.999C96.7902 195.999 96.5157 195.816 96.5157 195.542C96.5157 195.267 96.6987 194.993 96.9732 194.993C97.4306 194.901 97.7964 194.901 98.2539 194.81C98.5283 194.81 98.8028 194.993 98.8028 195.267C98.8028 195.45 98.6199 195.725 98.3454 195.816ZM95.4179 196.09C95.4179 196.182 95.4179 196.182 95.4179 196.09C94.9604 196.182 94.503 196.182 94.1371 196.182C93.8626 196.182 93.5882 195.999 93.5882 195.725C93.5882 195.45 93.7712 195.176 94.0456 195.176C94.503 195.176 94.869 195.084 95.3264 195.084C95.6009 195.084 95.8753 195.267 95.8753 195.542C95.8753 195.816 95.6923 196.09 95.4179 196.09ZM92.4904 196.365C92.4904 196.456 92.3989 196.456 92.4904 196.365C92.033 196.365 91.5756 196.456 91.1182 196.456C90.8437 196.456 90.5693 196.273 90.5693 195.999C90.5693 195.725 90.7522 195.45 91.0267 195.45C91.4841 195.45 91.85 195.359 92.3074 195.359C92.5818 195.359 92.8564 195.542 92.8564 195.816C92.9479 196.09 92.7649 196.365 92.4904 196.365ZM89.5629 196.639C89.5629 196.639 89.4714 196.639 89.5629 196.639C89.1054 196.639 88.648 196.731 88.1906 196.731C87.9161 196.731 87.6417 196.548 87.6417 196.273C87.6417 195.999 87.8247 195.725 88.0991 195.725C88.5566 195.725 88.9225 195.725 89.3799 195.633C89.6544 195.633 89.9288 195.816 89.9288 196.09C90.0203 196.365 89.8373 196.548 89.5629 196.639ZM86.6354 196.731C86.5439 196.731 86.5439 196.731 86.6354 196.731C86.0865 196.731 85.7206 196.731 85.2632 196.731C84.9887 196.731 84.7143 196.548 84.7143 196.182C84.7143 195.908 84.8972 195.633 85.2632 195.633C85.7206 195.633 86.0865 195.633 86.544 195.633C86.8184 195.633 87.0928 195.816 87.0928 196.182C87.0014 196.456 86.8184 196.731 86.6354 196.731ZM83.6164 196.822H83.5249C83.0675 196.822 82.7016 196.822 82.2441 196.822C81.9697 196.822 81.6953 196.548 81.6953 196.273C81.6953 195.999 81.9697 195.725 82.2441 195.725C82.7016 195.725 83.0675 195.725 83.5249 195.725C83.7994 195.725 84.0738 195.999 84.0738 196.273C84.0738 196.548 83.8908 196.731 83.6164 196.822ZM80.6889 196.822H80.5975C80.1401 196.822 79.7741 196.822 79.3167 196.822C79.0422 196.822 78.7678 196.548 78.7678 196.273C78.7678 195.999 79.0422 195.725 79.3167 195.725C79.7741 195.725 80.1401 195.725 80.5975 195.725C80.8719 195.725 81.1464 195.999 81.1464 196.273C81.1464 196.548 80.9634 196.731 80.6889 196.822ZM77.7615 196.731H77.6699C77.2125 196.731 76.8467 196.731 76.3892 196.639C76.1148 196.639 75.8403 196.365 75.9318 196.09C75.9318 195.816 76.2062 195.542 76.4807 195.633C76.9381 195.633 77.3041 195.633 77.7615 195.725C78.0359 195.725 78.3104 195.999 78.2189 196.273C78.1274 196.456 77.9445 196.639 77.7615 196.731ZM74.8339 196.548C74.8339 196.548 74.7425 196.548 74.651 196.548C74.1936 196.548 73.8276 196.456 73.3702 196.456C73.0958 196.456 72.8213 196.182 72.9128 195.908C72.9128 195.633 73.1872 195.359 73.4617 195.45C73.9191 195.45 74.2851 195.542 74.7425 195.542C75.0169 195.542 75.2914 195.816 75.1999 196.09C75.1999 196.365 75.0169 196.548 74.8339 196.548ZM71.9065 196.365C71.815 196.365 71.8149 196.365 71.7235 196.365C71.266 196.365 70.9002 196.273 70.4428 196.273C70.1683 196.273 69.9854 195.999 69.9854 195.725C69.9854 195.45 70.2598 195.267 70.5342 195.267C70.9917 195.267 71.3576 195.359 71.815 195.359C72.0895 195.359 72.2725 195.633 72.2725 195.908C72.2725 196.09 72.0895 196.273 71.9065 196.365ZM68.9789 196.09C68.8875 196.09 68.8875 196.09 68.796 196.09C68.3386 195.999 67.9726 195.999 67.5152 195.908C67.2408 195.908 67.0578 195.633 67.0578 195.359C67.0578 195.084 67.3322 194.901 67.6067 194.901C68.0641 194.993 68.4301 194.993 68.8875 195.084C69.1619 195.084 69.3449 195.359 69.3449 195.633C69.3449 195.816 69.1619 195.999 68.9789 196.09ZM66.0515 195.725C65.96 195.725 65.9601 195.725 65.8686 195.725C65.4111 195.633 65.0452 195.633 64.5878 195.542C64.3133 195.542 64.1303 195.267 64.1303 194.993C64.1303 194.718 64.4048 194.535 64.6792 194.535C65.1367 194.627 65.5026 194.627 65.96 194.718C66.2345 194.718 66.4174 194.993 66.4174 195.267C66.4174 195.45 66.2345 195.633 66.0515 195.725ZM63.124 195.267C63.0326 195.267 63.0325 195.267 62.941 195.267C62.4836 195.176 62.1176 195.176 61.6602 195.084C61.3858 194.993 61.2028 194.81 61.2028 194.444C61.2943 194.169 61.4773 193.986 61.8432 193.986C62.2092 194.078 62.6666 194.169 63.124 194.169C63.3985 194.169 63.5815 194.444 63.5815 194.81C63.49 195.084 63.307 195.267 63.124 195.267ZM60.1965 194.81C60.105 194.81 60.105 194.81 60.0136 194.81C59.5561 194.718 59.1902 194.627 58.7328 194.535C58.4583 194.444 58.2753 194.169 58.2753 193.895C58.3668 193.62 58.6412 193.437 58.9157 193.437C59.2816 193.529 59.7391 193.62 60.105 193.712C60.3795 193.803 60.5624 194.078 60.5624 194.352C60.5624 194.535 60.3795 194.718 60.1965 194.81ZM57.3605 194.169C57.269 194.169 57.1776 194.169 57.1776 194.169C56.7202 194.078 56.3542 193.986 55.9882 193.895C55.7138 193.803 55.5308 193.529 55.6223 193.254C55.7138 192.98 55.9883 192.797 56.2627 192.889C56.6287 192.98 57.086 193.071 57.452 193.163C57.7264 193.254 57.9094 193.529 57.8179 193.803C57.7264 193.986 57.5435 194.169 57.3605 194.169ZM54.433 193.529C54.3416 193.529 54.25 193.529 54.25 193.529C53.8841 193.437 53.4267 193.346 53.0608 193.254C52.7863 193.163 52.6033 192.889 52.6948 192.614C52.7863 192.34 53.0607 192.157 53.3352 192.248C53.7011 192.34 54.1586 192.431 54.5245 192.523C54.799 192.614 54.982 192.889 54.8905 193.163C54.799 193.346 54.616 193.529 54.433 193.529ZM51.597 192.889C51.5055 192.889 51.4141 192.889 51.3226 192.889C50.9566 192.797 50.4992 192.706 50.1332 192.523C49.8588 192.431 49.6758 192.157 49.7673 191.882C49.8588 191.608 50.1333 191.425 50.4077 191.516C50.7737 191.608 51.231 191.699 51.597 191.882C51.8714 191.974 52.0544 192.248 51.9629 192.523C51.9629 192.706 51.7799 192.797 51.597 192.889ZM48.761 192.065C48.6695 192.065 48.5781 192.065 48.4866 192.065C48.1206 191.974 47.6632 191.791 47.2972 191.699C47.0228 191.608 46.8398 191.333 46.9313 191.059C47.0228 190.784 47.2973 190.601 47.5717 190.693C47.9377 190.784 48.395 190.967 48.761 191.059C49.0354 191.15 49.2184 191.425 49.1269 191.699C49.1269 191.882 48.9439 192.065 48.761 192.065ZM45.925 191.242C45.8335 191.242 45.742 191.242 45.6505 191.242C45.2845 191.15 44.8272 190.967 44.4613 190.876C44.1868 190.784 44.0038 190.51 44.0953 190.236C44.1868 189.961 44.4612 189.778 44.7356 189.87C45.1016 189.961 45.559 190.144 45.925 190.236C46.1994 190.327 46.3824 190.601 46.2909 190.876C46.2909 191.059 46.108 191.15 45.925 191.242ZM43.1805 190.236C43.089 190.236 42.9974 190.236 42.906 190.236C42.54 190.053 42.0827 189.961 41.7167 189.778C41.4423 189.687 41.3508 189.412 41.4422 189.138C41.5337 188.863 41.8082 188.772 42.0827 188.863C42.4486 189.046 42.906 189.138 43.2719 189.321C43.5464 189.412 43.7294 189.687 43.5464 189.961C43.4549 190.144 43.3634 190.236 43.1805 190.236ZM40.4359 189.229C40.3445 189.229 40.2529 189.229 40.1614 189.229C39.7955 189.046 39.3382 188.955 38.9722 188.772C38.6978 188.68 38.6062 188.314 38.6977 188.131C38.7892 187.857 39.1552 187.765 39.3382 187.857C39.7041 188.04 40.1615 188.131 40.5274 188.314C40.8018 188.406 40.8934 188.68 40.8019 188.955C40.7104 189.046 40.6189 189.229 40.4359 189.229ZM37.6914 188.131C37.5999 188.131 37.5084 188.131 37.4169 188.131C37.051 187.948 36.5936 187.765 36.2277 187.582C35.9532 187.491 35.8617 187.125 35.9532 186.851C36.0447 186.576 36.4107 186.485 36.6851 186.576C37.051 186.759 37.4169 186.942 37.8743 187.034C38.1488 187.125 38.2403 187.491 38.1488 187.674C37.9659 187.948 37.8744 188.131 37.6914 188.131ZM35.0383 186.942C34.9469 186.942 34.8554 186.942 34.6724 186.942C34.3065 186.759 33.9406 186.576 33.4832 186.393C33.2087 186.302 33.1172 185.936 33.2087 185.661C33.3002 185.387 33.6661 185.295 33.9406 185.387C34.3065 185.57 34.6724 185.753 35.0383 185.936C35.3128 186.027 35.4043 186.393 35.3128 186.668C35.3128 186.759 35.1298 186.942 35.0383 186.942ZM32.3853 185.661C32.2938 185.661 32.1109 185.661 32.0194 185.661C31.6535 185.478 31.2875 185.295 30.9216 185.112C30.6471 185.021 30.5557 184.655 30.7386 184.381C30.8301 184.106 31.196 184.015 31.4704 184.198C31.8364 184.381 32.2024 184.563 32.5683 184.746C32.8428 184.838 32.9342 185.204 32.8427 185.478C32.6597 185.478 32.4768 185.57 32.3853 185.661ZM29.7323 184.289C29.6409 184.289 29.4579 184.289 29.3664 184.198C29.0004 184.015 28.6344 183.74 28.2685 183.557C27.9941 183.374 27.9026 183.1 28.0856 182.825C28.2685 182.551 28.543 182.459 28.8175 182.642C29.1834 182.825 29.5493 183.1 29.9153 183.283C30.1897 183.466 30.2812 183.74 30.0982 184.015C30.0067 184.106 29.9153 184.198 29.7323 184.289ZM27.1707 182.825C27.0793 182.825 26.8963 182.825 26.8048 182.734C26.4388 182.551 26.073 182.276 25.707 182.093C25.4326 181.91 25.4325 181.636 25.524 181.362C25.7069 181.087 25.9814 181.087 26.2559 181.179C26.6218 181.362 26.9877 181.636 27.3537 181.819C27.6281 182.002 27.7197 182.276 27.5367 182.551C27.4452 182.734 27.3537 182.734 27.1707 182.825ZM24.7007 181.27C24.6092 181.27 24.4262 181.27 24.3348 181.179C23.9688 180.904 23.6028 180.721 23.2369 180.447C22.9624 180.264 22.9624 179.989 23.1454 179.715C23.3284 179.44 23.6029 179.44 23.8773 179.623C24.2433 179.898 24.6092 180.081 24.8836 180.355C25.1581 180.538 25.158 180.813 25.0666 181.087C24.9751 181.087 24.7922 181.179 24.7007 181.27ZM22.322 179.532C22.1391 179.532 22.0477 179.532 21.9562 179.44C21.5903 179.166 21.2242 178.983 20.9498 178.709C20.6753 178.526 20.6753 178.251 20.8583 177.977C21.0413 177.702 21.3158 177.702 21.5902 177.885C21.9562 178.16 22.2306 178.343 22.5965 178.617C22.871 178.8 22.871 179.074 22.688 179.349C22.505 179.44 22.4135 179.532 22.322 179.532ZM19.9435 177.794C19.7605 177.794 19.669 177.794 19.486 177.702C19.1201 177.428 18.8457 177.153 18.4797 176.879C18.2968 176.696 18.2053 176.33 18.3883 176.147C18.5713 175.964 18.9371 175.873 19.1201 176.055C19.3945 176.33 19.7606 176.604 20.1265 176.879C20.3095 177.062 20.4009 177.428 20.218 177.611C20.1265 177.702 20.035 177.794 19.9435 177.794ZM17.6564 175.964C17.4734 175.964 17.2904 175.964 17.1989 175.872C16.9245 175.598 16.5586 175.324 16.2841 175.049C16.1011 174.866 16.0097 174.5 16.2841 174.317C16.4671 174.134 16.8331 174.043 17.016 174.317C17.2905 174.592 17.6564 174.866 17.9309 175.141C18.1138 175.324 18.2053 175.69 18.0223 175.872C17.8394 175.872 17.7479 175.872 17.6564 175.964ZM15.4607 173.951C15.2778 173.951 15.0948 173.951 15.0033 173.86C14.7289 173.585 14.3629 173.311 14.0885 172.945C13.9055 172.762 13.9055 172.396 14.0885 172.213C14.2714 172.03 14.6374 172.03 14.8204 172.213C15.0948 172.488 15.3693 172.762 15.7352 173.128C15.9182 173.311 15.9182 173.677 15.7352 173.86C15.6437 173.86 15.5522 173.951 15.4607 173.951ZM13.4481 171.847C13.2652 171.847 13.0822 171.847 12.9907 171.664C12.7162 171.39 12.4418 171.024 12.1673 170.749C11.9844 170.566 11.9844 170.2 12.1673 170.018C12.3503 169.835 12.7163 169.835 12.8992 170.018C13.1737 170.292 13.4482 170.658 13.7226 170.932C13.9056 171.115 13.9056 171.481 13.7226 171.664C13.6311 171.756 13.5396 171.847 13.4481 171.847ZM11.4355 169.652C11.2525 169.652 11.0695 169.652 10.8865 169.469C10.6121 169.103 10.3377 168.828 10.0633 168.462C9.88028 168.279 9.88026 167.913 10.1547 167.73C10.3377 167.547 10.7036 167.547 10.8865 167.822C11.161 168.188 11.4354 168.462 11.7099 168.828C11.8929 169.011 11.8929 169.377 11.6184 169.56C11.6184 169.56 11.527 169.652 11.4355 169.652ZM9.60583 167.364C9.42286 167.364 9.23981 167.364 9.05684 167.182C8.78239 166.816 8.508 166.45 8.32503 166.175C8.14206 165.901 8.23353 165.626 8.41649 165.443C8.69095 165.26 8.96544 165.352 9.14841 165.535C9.42286 165.901 9.60577 166.175 9.88022 166.541C10.0632 166.816 9.97172 167.09 9.78876 167.273C9.78876 167.273 9.69732 167.364 9.60583 167.364ZM7.95907 164.894C7.77611 164.894 7.50168 164.894 7.41019 164.711C7.13574 164.346 6.9527 163.98 6.76974 163.614C6.58677 163.339 6.67832 163.065 6.95277 162.882C7.22722 162.699 7.50161 162.79 7.68458 163.065C7.86754 163.431 8.14206 163.797 8.32503 164.163C8.508 164.437 8.41645 164.711 8.142 164.894C8.05051 164.894 8.05056 164.894 7.95907 164.894ZM6.40389 162.424C6.22092 162.424 5.94638 162.333 5.85489 162.15C5.67193 161.784 5.39752 161.418 5.21455 161.052C5.12307 160.778 5.21451 160.503 5.39747 160.32C5.67193 160.229 5.94642 160.32 6.12939 160.503C6.31236 160.869 6.49528 161.235 6.76974 161.601C6.9527 161.875 6.86126 162.15 6.58681 162.333C6.49533 162.424 6.49537 162.424 6.40389 162.424ZM5.03163 159.771C4.75717 159.863 4.57412 159.68 4.48263 159.497C4.29966 159.131 4.11672 158.765 3.93375 158.308C3.84227 158.033 3.93379 157.759 4.20825 157.576C4.4827 157.484 4.75708 157.576 4.94005 157.85C5.12302 158.216 5.30608 158.582 5.48905 158.948C5.58053 159.222 5.489 159.497 5.21455 159.68C5.12307 159.771 5.12311 159.771 5.03163 159.771ZM3.84229 157.118C3.56784 157.21 3.38489 157.027 3.29341 156.844C3.11044 156.478 3.01895 156.02 2.83599 155.654C2.7445 155.38 2.83592 155.106 3.11037 155.014C3.38482 154.923 3.65934 155.014 3.75083 155.289C3.93379 155.655 4.02528 156.112 4.20825 156.478C4.39122 156.661 4.20822 157.027 3.84229 157.118C3.93377 157.118 3.93377 157.118 3.84229 157.118ZM2.83599 154.374C2.56153 154.465 2.28701 154.282 2.19553 154.008C2.10405 153.642 1.92117 153.184 1.82968 152.819C1.7382 152.544 1.92108 152.27 2.19553 152.178C2.46998 152.087 2.7445 152.27 2.83599 152.544C2.92747 152.91 3.11046 153.367 3.20194 153.733C3.29343 153.916 3.20192 154.282 2.83599 154.374C2.92747 154.374 2.83599 154.374 2.83599 154.374ZM2.01261 151.538C1.73815 151.629 1.46375 151.446 1.37226 151.172C1.28078 150.806 1.18925 150.348 1.09776 149.891C1.00628 149.617 1.18927 149.342 1.46372 149.251C1.73818 149.159 2.01258 149.342 2.10407 149.617C2.19555 149.983 2.28708 150.44 2.37856 150.806C2.47005 151.172 2.37854 151.446 2.01261 151.538ZM1.37226 148.702C1.09781 148.793 0.82329 148.61 0.731806 148.244C0.640322 147.787 0.548882 147.421 0.548882 146.964C0.548882 146.689 0.731851 146.415 1.0063 146.323C1.28076 146.323 1.55516 146.506 1.64665 146.781C1.73813 147.146 1.7382 147.604 1.82968 147.97C1.82968 148.336 1.64671 148.61 1.37226 148.702ZM0.914841 145.774C0.548905 145.774 0.365869 145.591 0.274385 145.317C0.182901 144.859 0.182924 144.493 0.182924 144.036C0.182924 143.762 0.365892 143.487 0.640344 143.487C0.914797 143.487 1.18923 143.67 1.18923 143.945C1.18923 144.402 1.28069 144.768 1.28069 145.225C1.37217 145.408 1.18929 145.683 0.914841 145.774ZM0.731806 142.847C0.640322 142.847 0.640322 142.847 0.731806 142.847C0.365869 142.847 0.0914618 142.664 0.0914618 142.389C0.0914618 141.932 0.0914841 141.566 0 141.109C0 140.834 0.182946 140.56 0.548882 140.56C0.823335 140.56 1.09776 140.743 1.09776 141.109C1.09776 141.566 1.09774 141.932 1.18923 142.389C1.09774 142.572 0.914774 142.755 0.731806 142.847ZM0.640344 139.919H0.548882C0.27443 139.919 0 139.645 0 139.37C0 138.913 0 138.547 0 138.09C0 137.815 0.27443 137.541 0.548882 137.541C0.823335 137.541 1.09776 137.815 1.09776 138.09C1.09776 138.547 1.09776 138.913 1.09776 139.37C1.00628 139.645 0.823312 139.828 0.640344 139.919ZM0.731806 136.9C0.731806 136.9 0.640366 136.9 0.548882 136.9C0.27443 136.9 -2.23364e-05 136.626 0.0914618 136.351C0.0914618 135.894 0.182924 135.528 0.182924 135.071C0.182924 134.796 0.457354 134.613 0.731806 134.613C1.00626 134.613 1.18923 134.888 1.18923 135.162C1.18923 135.528 1.09776 135.985 1.09776 136.443C1.09776 136.717 0.914774 136.9 0.731806 136.9ZM1.0063 133.973C0.914819 133.973 0.914752 133.973 0.823268 133.973C0.548815 133.973 0.365847 133.698 0.365847 133.424C0.457331 132.966 0.457398 132.601 0.548882 132.143C0.548882 131.869 0.82329 131.686 1.18923 131.686C1.46368 131.686 1.64665 131.96 1.64665 132.326C1.55516 132.692 1.55521 133.149 1.46372 133.515C1.37224 133.79 1.18927 133.973 1.0063 133.973ZM1.46372 131.137C1.37224 131.137 1.37217 131.137 1.28069 131.137C1.00624 131.045 0.823268 130.771 0.823268 130.496C0.914752 130.039 1.00628 129.673 1.09776 129.216C1.18925 128.941 1.46366 128.758 1.73811 128.85C2.01256 128.941 2.19555 129.216 2.10407 129.49C2.01258 129.856 1.92117 130.313 1.82968 130.679C1.82968 130.862 1.64669 131.045 1.46372 131.137ZM2.10407 128.209C2.01258 128.209 1.92117 128.209 1.82968 128.209C1.55523 128.118 1.37224 127.843 1.46372 127.569C1.55521 127.203 1.64671 126.746 1.82968 126.38C1.92117 126.105 2.19557 125.922 2.47003 126.014C2.74448 126.105 2.92747 126.38 2.83599 126.654C2.7445 127.02 2.56151 127.477 2.47003 127.843C2.47003 128.026 2.28704 128.209 2.10407 128.209ZM2.92745 125.465C2.83596 125.465 2.74443 125.465 2.65295 125.465C2.3785 125.373 2.19562 125.099 2.2871 124.824C2.47007 124.458 2.56156 124.001 2.74452 123.635C2.83601 123.361 3.11042 123.269 3.38487 123.361C3.65932 123.452 3.75085 123.727 3.65936 124.001C3.4764 124.367 3.38491 124.824 3.20194 125.19C3.29343 125.282 3.11042 125.373 2.92745 125.465ZM4.02521 122.72C3.93373 122.72 3.84231 122.72 3.75083 122.72C3.47637 122.629 3.38485 122.263 3.47633 122.08C3.6593 121.714 3.84224 121.256 4.02521 120.891C4.1167 120.616 4.48268 120.525 4.75713 120.616C5.03158 120.708 5.12311 121.074 5.03163 121.348C4.84866 121.714 4.6656 122.08 4.48263 122.446C4.29966 122.537 4.20818 122.629 4.02521 122.72ZM5.21455 119.976C5.12307 119.976 4.94008 119.976 4.84859 119.884C4.57414 119.793 4.4827 119.427 4.66567 119.152C4.84864 118.786 5.03156 118.42 5.30601 118.055C5.48898 117.78 5.76348 117.689 6.03793 117.872C6.31238 118.055 6.40382 118.329 6.22085 118.603C6.03788 118.969 5.85494 119.335 5.67197 119.701C5.58049 119.884 5.39752 119.976 5.21455 119.976ZM6.67827 117.414C6.58679 117.414 6.4038 117.414 6.31231 117.323C6.03786 117.14 5.94642 116.865 6.12939 116.591C6.31236 116.225 6.58677 115.859 6.76974 115.493C6.9527 115.219 7.2272 115.219 7.50165 115.31C7.77611 115.493 7.77606 115.767 7.68458 116.042C7.50161 116.408 7.2272 116.774 7.04423 117.14C6.95275 117.323 6.86124 117.414 6.67827 117.414ZM8.32503 114.944C8.23355 114.944 8.05056 114.944 7.95907 114.853C7.68462 114.67 7.68464 114.395 7.86761 114.121C8.14206 113.755 8.32497 113.389 8.59942 113.114C8.78239 112.84 9.05688 112.84 9.33134 113.023C9.60579 113.206 9.60577 113.48 9.4228 113.755C9.14834 114.121 8.96544 114.395 8.69099 114.761C8.50802 114.853 8.41652 114.944 8.32503 114.944ZM10.0633 112.657C9.88028 112.657 9.7888 112.657 9.60583 112.566C9.42286 112.383 9.33129 112.017 9.51426 111.834C9.78871 111.468 10.0632 111.193 10.3376 110.827C10.5206 110.644 10.8866 110.553 11.0696 110.736C11.2525 110.919 11.344 111.285 11.161 111.468C10.8866 111.742 10.6121 112.108 10.3376 112.474C10.2462 112.566 10.1547 112.565 10.0633 112.657ZM11.9844 110.37C11.8014 110.37 11.6185 110.37 11.527 110.278C11.344 110.095 11.344 109.729 11.527 109.547C11.8014 109.272 12.0759 108.906 12.4418 108.632C12.6248 108.449 12.9907 108.449 13.1736 108.632C13.3566 108.815 13.3566 109.181 13.1736 109.364C12.8992 109.638 12.6248 110.004 12.3504 110.278C12.1674 110.278 12.0759 110.37 11.9844 110.37ZM13.997 108.266C13.814 108.266 13.6311 108.266 13.5396 108.083C13.3566 107.9 13.3566 107.534 13.5396 107.351C13.814 107.076 14.18 106.802 14.4544 106.436C14.6374 106.253 15.0034 106.253 15.1863 106.436C15.3693 106.619 15.3693 106.985 15.1863 107.168C14.9119 107.442 14.546 107.717 14.2715 107.991C14.18 108.174 14.0885 108.266 13.997 108.266ZM16.1926 106.253C16.0097 106.253 15.8267 106.253 15.7352 106.07C15.5523 105.887 15.5522 105.521 15.8267 105.338C16.1011 105.064 16.4671 104.789 16.833 104.515C17.016 104.332 17.3819 104.332 17.5649 104.606C17.7479 104.881 17.7479 105.155 17.4734 105.338C17.199 105.613 16.8331 105.887 16.5586 106.162C16.3756 106.253 16.2841 106.253 16.1926 106.253ZM18.4797 104.423C18.2968 104.423 18.1138 104.423 17.9309 104.24C17.7479 104.057 17.8394 103.692 18.0223 103.509C18.3883 103.234 18.6627 102.96 19.0286 102.777C19.3031 102.594 19.5776 102.685 19.7605 102.868C19.9435 103.143 19.8521 103.417 19.6691 103.6C19.3031 103.874 19.0286 104.057 18.6627 104.332C18.5712 104.332 18.5712 104.423 18.4797 104.423ZM20.8583 102.685C20.6753 102.685 20.4924 102.685 20.3094 102.502C20.1265 102.228 20.2179 101.953 20.4009 101.77C20.7668 101.496 21.1327 101.313 21.4072 101.039C21.6816 100.856 21.9561 100.947 22.1391 101.221C22.3221 101.496 22.2306 101.77 21.9562 101.953C21.5903 102.228 21.2242 102.411 20.9498 102.685C20.9498 102.594 20.8583 102.685 20.8583 102.685ZM23.2369 101.039C23.0539 101.039 22.7795 101.038 22.688 100.764C22.505 100.49 22.5966 100.215 22.871 100.032C23.237 99.8492 23.6029 99.5747 23.9688 99.3918C24.2432 99.2088 24.5177 99.3003 24.7007 99.5748C24.8837 99.8492 24.7921 100.124 24.5177 100.307C24.1517 100.49 23.7858 100.764 23.4199 100.947C23.4199 101.038 23.3284 101.039 23.2369 101.039ZM25.7985 99.5748C25.6155 99.5748 25.3411 99.4833 25.2496 99.3003C25.0666 99.0259 25.1581 98.7514 25.4325 98.5684C25.7985 98.3855 26.1645 98.111 26.5304 97.928C26.8048 97.8366 27.0792 97.928 27.2622 98.111C27.3537 98.3855 27.2622 98.6599 27.0793 98.8429C26.7133 99.0259 26.3473 99.2088 25.9814 99.4833C25.8899 99.4833 25.89 99.4833 25.7985 99.5748ZM28.4515 98.111C28.2686 98.2025 27.9941 98.0195 27.9027 97.8366C27.8112 97.5621 27.9026 97.2876 28.177 97.1047C28.543 96.9217 28.909 96.7388 29.2749 96.5558C29.5494 96.4643 29.8238 96.5558 30.0067 96.8302C30.0982 97.1047 30.0068 97.3791 29.7323 97.5621C29.3664 97.7451 29.0004 97.928 28.6345 98.111C28.543 98.111 28.4515 98.111 28.4515 98.111ZM31.1046 96.8302C30.8301 96.9217 30.6471 96.7388 30.5556 96.5558C30.4641 96.2813 30.5557 96.0069 30.8301 95.8239C31.196 95.6409 31.6535 95.458 32.0194 95.275C32.2939 95.1835 32.5683 95.275 32.6598 95.5495C32.7513 95.8239 32.6597 96.0983 32.3853 96.1898C32.0194 96.3728 31.6535 96.5558 31.1961 96.6472C31.1046 96.8302 31.1046 96.8302 31.1046 96.8302ZM33.7575 95.7324C33.4831 95.8239 33.3002 95.6409 33.2087 95.3665C33.1172 95.092 33.2087 94.8176 33.4832 94.7261C33.8491 94.5431 34.3065 94.4517 34.6724 94.2687C34.9468 94.1772 35.2214 94.2687 35.3128 94.5431C35.4043 94.8176 35.3128 95.092 35.0383 95.1835C34.6724 95.3665 34.3065 95.5494 33.7575 95.7324C33.849 95.7324 33.849 95.7324 33.7575 95.7324Z" fill="#CCCCCC"/>
<path d="M119.935 190.51C119.661 190.601 119.478 190.418 119.295 190.144C119.204 189.869 119.295 189.595 119.57 189.503C119.753 189.412 119.935 189.32 120.118 189.32C120.393 189.229 120.667 189.32 120.759 189.595C120.85 189.869 120.759 190.144 120.484 190.235C120.393 190.327 120.21 190.418 119.935 190.51C120.027 190.51 119.935 190.51 119.935 190.51Z" fill="white"/>
<path d="M111.519 193.163C111.244 193.254 110.97 193.071 110.878 192.797C110.787 192.522 110.97 192.248 111.244 192.156C111.61 192.065 112.068 191.973 112.433 191.79C112.708 191.699 112.982 191.882 113.074 192.156C113.165 192.431 112.982 192.705 112.708 192.797C112.342 192.98 111.976 193.071 111.519 193.163Z" fill="white"/>
<path d="M114.355 192.431C114.08 192.523 113.806 192.34 113.714 192.065C113.623 191.791 113.806 191.516 114.08 191.425C114.446 191.333 114.904 191.15 115.27 191.059C115.544 190.967 115.818 191.15 115.91 191.425C116.001 191.699 115.818 191.974 115.544 192.065C115.269 192.157 114.812 192.248 114.355 192.431C114.355 192.34 114.355 192.431 114.355 192.431Z" fill="white"/>
<path d="M117.192 191.516C116.917 191.607 116.643 191.424 116.551 191.15C116.46 190.875 116.643 190.601 116.917 190.509C117.283 190.418 117.741 190.235 118.106 190.143C118.381 190.052 118.655 190.235 118.747 190.418C118.838 190.692 118.655 190.967 118.472 191.058C118.015 191.241 117.649 191.333 117.192 191.516Z" fill="white"/>
<path d="M125.059 193.804C123.87 191.791 125.425 188.955 126.614 186.851C129.725 187.034 133.018 186.485 135.946 185.113L128.901 194.17C127.803 195.451 125.699 194.902 125.059 193.804ZM123.412 187.492C123.138 186.943 122.772 186.668 122.406 186.394C123.138 186.485 124.144 186.577 125.059 186.668C124.601 187.492 124.144 188.223 123.87 188.955C123.87 188.498 123.778 188.04 123.412 187.492ZM118.655 182.917C118.015 181.728 118.655 179.807 120.393 179.624L132.286 178.801C129.542 180.447 127.254 182.734 125.699 185.296C123.229 185.204 119.844 185.021 118.655 182.917ZM136.677 178.618H136.952C137.867 178.526 138.507 178.984 138.873 179.532C139.239 180.081 139.239 180.905 138.69 181.545L138.507 181.728C137.867 182.46 137.043 183.009 136.128 183.466C133.384 184.93 130.274 185.57 127.255 185.479C128.81 183.009 131.005 180.905 133.841 179.441C134.756 179.075 135.671 178.709 136.677 178.618ZM130.091 194.81L139.879 182.277C140.794 181.179 140.794 179.898 140.154 178.892C139.605 177.886 138.416 177.245 136.952 177.337L120.393 178.435C118.198 178.618 116.734 180.356 116.825 182.094C116.825 182.094 116.734 184.015 119.295 185.387C120.576 186.302 121.674 187.492 122.04 188.315C122.497 189.047 122.955 190.602 123.138 192.066C123.046 194.81 124.784 195.817 124.784 195.817C126.34 196.64 128.718 196.457 130.091 194.81Z" fill="white"/>
<path d="M130.913 6.44468C130.913 6.44468 130.73 6.3532 130.364 6.26172L130.913 6.44468Z" fill="#CCCCCC"/>
<path d="M87.6417 142.482C87.2757 142.482 86.8184 142.482 86.4524 142.482C86.178 142.482 85.995 142.207 85.995 141.933C85.995 141.658 86.2695 141.475 86.5439 141.475C86.9098 141.475 87.3672 141.475 87.7331 141.475C88.0076 141.475 88.2821 141.658 88.2821 141.933C88.0992 142.207 87.9161 142.482 87.6417 142.482ZM89.197 142.39C88.9225 142.39 88.7395 142.207 88.648 141.933C88.648 141.658 88.8309 141.384 89.1054 141.384C89.4713 141.384 89.9288 141.292 90.2947 141.292C90.5692 141.292 90.8436 141.475 90.8436 141.75C90.8436 142.024 90.6607 142.299 90.3862 142.299C90.1117 142.299 89.6544 142.39 89.197 142.39ZM84.8057 142.39C84.3483 142.39 83.9823 142.299 83.5249 142.299C83.2504 142.299 83.0675 142.024 83.0675 141.75C83.0675 141.475 83.3419 141.292 83.6163 141.292C83.9823 141.292 84.4398 141.384 84.8057 141.384C85.0801 141.384 85.2631 141.658 85.2631 141.933C85.2631 142.207 85.0801 142.39 84.8057 142.39ZM92.033 142.024C91.7585 142.024 91.5756 141.841 91.4841 141.658C91.3926 141.384 91.5755 141.109 91.8499 141.109C92.2159 141.018 92.5818 140.926 93.0393 140.835C93.3137 140.743 93.5881 140.926 93.6796 141.201C93.7711 141.475 93.5882 141.75 93.3138 141.841C92.9478 141.841 92.4904 141.933 92.033 142.024ZM81.9697 142.024H81.8782C81.5123 141.933 81.0548 141.933 80.6889 141.841C80.4145 141.75 80.2315 141.567 80.3229 141.292C80.4144 141.018 80.5974 140.835 80.8718 140.926C81.2378 141.018 81.6952 141.109 82.0612 141.109C82.3356 141.109 82.5186 141.384 82.5186 141.658C82.4271 141.841 82.2442 142.024 81.9697 142.024ZM94.7775 141.384C94.5945 141.384 94.3201 141.292 94.3201 141.018C94.2286 140.743 94.4116 140.469 94.686 140.377C95.052 140.286 95.4178 140.103 95.7838 140.012C96.0582 139.92 96.3326 140.012 96.4241 140.286C96.5156 140.56 96.4242 140.835 96.1497 140.926C95.7838 141.109 95.4178 141.201 94.9604 141.384C94.8689 141.384 94.7775 141.384 94.7775 141.384ZM79.2252 141.475H79.1337C78.7678 141.384 78.3103 141.292 77.9444 141.201C77.6699 141.109 77.4869 140.835 77.5784 140.56C77.6699 140.286 77.9444 140.103 78.2189 140.194C78.5848 140.286 79.0422 140.377 79.4081 140.469C79.6826 140.56 79.8655 140.835 79.7741 141.109C79.6826 141.384 79.4996 141.475 79.2252 141.475ZM97.339 140.286C97.156 140.286 96.973 140.195 96.8815 140.012C96.7901 139.737 96.8816 139.463 97.0646 139.371C97.4305 139.188 97.7964 139.005 98.0709 138.822C98.3453 138.639 98.6197 138.731 98.7112 139.005C98.8027 139.28 98.8028 139.554 98.5283 139.646C98.1624 139.829 97.7965 140.012 97.4305 140.194C97.522 140.286 97.4305 140.286 97.339 140.286ZM76.4807 140.835C76.3892 140.835 76.3891 140.835 76.2976 140.835C75.9317 140.743 75.4743 140.56 75.1084 140.469C74.8339 140.377 74.7424 140.103 74.7424 139.829C74.8339 139.554 75.1083 139.463 75.3828 139.463C75.7487 139.554 76.1147 139.737 76.5721 139.829C76.8466 139.92 77.0296 140.195 76.9381 140.469C76.9381 140.652 76.7551 140.743 76.4807 140.835ZM73.8276 139.92C73.7361 139.92 73.7362 139.92 73.6447 139.92C73.2787 139.829 72.9128 139.646 72.4553 139.463C72.1809 139.371 72.0894 139.097 72.1808 138.822C72.2723 138.548 72.5468 138.456 72.8213 138.548C73.1872 138.731 73.5531 138.822 73.9191 139.005C74.1935 139.097 74.285 139.371 74.1936 139.646C74.1936 139.829 74.0106 139.92 73.8276 139.92ZM99.8091 138.822C99.6261 138.822 99.4432 138.731 99.3517 138.639C99.1687 138.456 99.2602 138.09 99.4431 137.907C99.7176 137.724 100.084 137.45 100.358 137.176C100.541 136.993 100.907 136.993 101.09 137.267C101.273 137.45 101.273 137.816 100.998 137.999C100.724 138.273 100.358 138.456 99.992 138.731C99.992 138.822 99.9006 138.822 99.8091 138.822ZM71.1745 138.914C71.083 138.914 70.9916 138.914 70.9916 138.914C70.6257 138.731 70.2597 138.639 69.8937 138.456C69.6193 138.365 69.5279 138.09 69.6193 137.816C69.7108 137.541 69.9852 137.45 70.2597 137.541C70.6256 137.724 70.9916 137.816 71.3576 137.999C71.632 138.09 71.7234 138.365 71.632 138.639C71.5405 138.822 71.3575 138.914 71.1745 138.914ZM101.913 137.084C101.822 137.084 101.639 136.993 101.547 136.901C101.364 136.718 101.364 136.352 101.547 136.169C101.822 135.895 102.096 135.62 102.371 135.346C102.554 135.163 102.828 135.163 103.103 135.346C103.285 135.529 103.285 135.803 103.103 136.078C102.828 136.352 102.554 136.718 102.279 136.993C102.188 136.993 102.096 137.084 101.913 137.084ZM68.613 137.724C68.5216 137.724 68.43 137.724 68.3385 137.633C67.7896 137.358 67.4238 137.176 67.2408 137.084C66.9663 136.993 66.8748 136.627 67.0577 136.444C67.1492 136.169 67.5152 136.078 67.6982 136.261C67.8812 136.352 68.2471 136.535 68.796 136.81C69.0704 136.901 69.1619 137.267 69.0705 137.45C68.979 137.633 68.796 137.724 68.613 137.724ZM66.0514 136.535C65.96 136.535 65.8684 136.535 65.7769 136.444C65.411 136.261 65.0451 136.078 64.6792 135.895C64.4047 135.803 64.3133 135.437 64.4963 135.254C64.5877 134.98 64.9536 134.888 65.1366 135.071C65.5025 135.254 65.8684 135.437 66.2344 135.62C66.5088 135.712 66.6004 136.078 66.4174 136.261C66.4174 136.352 66.2344 136.535 66.0514 136.535ZM103.743 134.98C103.651 134.98 103.56 134.98 103.468 134.888C103.285 134.705 103.194 134.431 103.377 134.157C103.56 133.882 103.834 133.516 104.017 133.15C104.2 132.876 104.475 132.876 104.749 132.967C105.024 133.15 105.024 133.425 104.932 133.699C104.749 134.065 104.475 134.431 104.292 134.705C104.109 134.888 103.926 134.98 103.743 134.98ZM63.5814 135.163C63.4899 135.163 63.3984 135.163 63.3069 135.071C62.941 134.888 62.5751 134.705 62.2092 134.522C61.9347 134.431 61.8432 134.065 62.0261 133.882C62.1176 133.608 62.4836 133.516 62.6666 133.699C63.0325 133.882 63.3984 134.065 63.7643 134.248C64.0388 134.339 64.1302 134.705 63.9473 134.888C63.9473 135.071 63.7644 135.163 63.5814 135.163ZM61.1113 133.882C61.0198 133.882 60.9284 133.882 60.8369 133.791C60.471 133.608 60.105 133.425 59.739 133.15C59.4646 132.967 59.3731 132.693 59.5561 132.51C59.7391 132.235 60.0135 132.144 60.1964 132.327C60.5624 132.51 60.9283 132.693 61.2027 132.967C61.4772 133.059 61.5687 133.425 61.3858 133.608C61.4773 133.791 61.2942 133.882 61.1113 133.882ZM105.207 132.51C105.115 132.51 105.024 132.51 105.024 132.51C104.749 132.418 104.658 132.144 104.749 131.869C104.932 131.503 105.024 131.138 105.207 130.772C105.298 130.497 105.573 130.406 105.847 130.497C106.121 130.589 106.213 130.863 106.122 131.138C106.03 131.503 105.847 131.961 105.664 132.327C105.573 132.418 105.39 132.51 105.207 132.51ZM58.7327 132.418C58.6412 132.418 58.5497 132.418 58.4582 132.327C58.0923 132.144 57.7264 131.869 57.4519 131.686C57.1775 131.503 57.1775 131.229 57.269 130.955C57.3605 130.68 57.7263 130.68 58.0008 130.772C58.3667 130.955 58.6413 131.229 59.0072 131.412C59.2817 131.595 59.2816 131.869 59.1901 132.144C59.0072 132.327 58.8242 132.418 58.7327 132.418ZM106.03 129.857H105.938C105.664 129.765 105.481 129.491 105.573 129.308C105.664 128.942 105.756 128.576 105.756 128.119C105.756 127.844 106.03 127.661 106.304 127.661C106.579 127.661 106.762 127.936 106.762 128.21C106.67 128.667 106.67 129.033 106.579 129.399C106.487 129.674 106.213 129.765 106.03 129.857ZM56.2627 130.955C56.1712 130.955 56.0797 130.955 55.9882 130.863C55.6223 130.68 55.3478 130.406 54.9819 130.223C54.7074 130.04 54.7074 129.765 54.7989 129.491C54.8903 129.216 55.2563 129.216 55.5308 129.308C55.8967 129.491 56.1711 129.765 56.5371 129.948C56.8115 130.131 56.8116 130.406 56.7201 130.68C56.6286 130.863 56.4457 130.955 56.2627 130.955ZM53.9756 129.399C53.8841 129.399 53.7926 129.399 53.7011 129.308C53.3352 129.033 53.0607 128.85 52.6948 128.576C52.5118 128.393 52.4204 128.119 52.6033 127.844C52.7863 127.661 53.0607 127.57 53.3351 127.753C53.7011 127.936 53.9755 128.21 54.3414 128.393C54.6159 128.576 54.616 128.85 54.433 129.125C54.25 129.308 54.0671 129.399 53.9756 129.399ZM106.304 127.021C106.03 127.021 105.756 126.746 105.756 126.472C105.756 126.197 105.756 125.923 105.756 125.649C105.756 125.557 105.756 125.466 105.756 125.283C105.756 125.008 105.939 124.734 106.213 124.734C106.487 124.734 106.762 124.917 106.762 125.191C106.762 125.283 106.762 125.374 106.762 125.557C106.762 125.831 106.762 126.197 106.762 126.472C106.853 126.838 106.579 127.021 106.304 127.021ZM51.6885 127.753C51.597 127.753 51.5055 127.753 51.414 127.661C51.048 127.387 50.7736 127.204 50.4077 126.929C50.2247 126.746 50.1333 126.472 50.3162 126.197C50.4992 126.014 50.7736 125.923 51.048 126.106C51.3225 126.38 51.6884 126.563 52.0543 126.838C52.2373 127.021 52.3289 127.295 52.1459 127.57C51.9629 127.661 51.78 127.753 51.6885 127.753ZM49.4014 126.106C49.3099 126.106 49.2184 126.106 49.0354 126.014C48.761 125.74 48.395 125.466 48.1206 125.283C47.9376 125.1 47.8461 124.825 48.0291 124.551C48.2121 124.368 48.4865 124.276 48.7609 124.459C49.0354 124.734 49.4013 124.917 49.6758 125.191C49.8587 125.374 49.9502 125.648 49.7672 125.923C49.6757 126.014 49.5843 126.106 49.4014 126.106ZM106.213 124.185C105.939 124.185 105.756 124.002 105.664 123.727C105.573 123.361 105.573 122.995 105.481 122.538C105.39 122.264 105.573 121.989 105.847 121.989C106.121 121.898 106.396 122.081 106.396 122.355C106.487 122.721 106.579 123.178 106.579 123.544C106.67 123.91 106.487 124.185 106.213 124.185ZM47.2057 124.276C47.1143 124.276 46.9313 124.276 46.8398 124.185C46.5653 123.91 46.1994 123.636 45.9249 123.361C45.742 123.178 45.6505 122.904 45.8335 122.63C46.0164 122.447 46.2908 122.355 46.5653 122.538C46.8397 122.813 47.2057 123.087 47.4801 123.361C47.6631 123.544 47.7547 123.819 47.5717 124.093C47.4802 124.276 47.3887 124.276 47.2057 124.276ZM45.1016 122.447C45.0101 122.447 44.8271 122.447 44.7356 122.355C44.4611 122.081 44.0952 121.806 43.8208 121.532C43.6378 121.349 43.6378 120.983 43.8208 120.8C44.0037 120.617 44.3697 120.617 44.5527 120.8C44.8271 121.074 45.1016 121.349 45.4675 121.623C45.6505 121.806 45.6505 122.172 45.4675 122.355C45.376 122.355 45.193 122.447 45.1016 122.447ZM42.9975 120.525C42.906 120.525 42.723 120.525 42.6315 120.342C42.3571 120.068 42.0826 119.794 41.8082 119.519C41.6252 119.336 41.6252 118.97 41.8082 118.787C41.9911 118.604 42.3571 118.604 42.5401 118.787C42.8145 119.062 43.0889 119.336 43.3633 119.611C43.5463 119.794 43.5463 120.159 43.3633 120.342C43.2719 120.434 43.1805 120.525 42.9975 120.525ZM41.0762 118.513C40.8933 118.513 40.8019 118.421 40.7104 118.33C40.4359 118.055 40.1615 117.781 39.887 117.415C39.704 117.232 39.704 116.866 39.887 116.683C40.07 116.5 40.4358 116.5 40.6188 116.683C40.8933 116.958 41.1677 117.232 41.4422 117.598C41.6252 117.781 41.6252 118.147 41.4422 118.33C41.3507 118.421 41.1677 118.513 41.0762 118.513ZM39.1551 116.409C38.9721 116.409 38.8806 116.317 38.7891 116.226C38.5147 115.951 38.2403 115.585 37.9659 115.311C37.7829 115.128 37.7829 114.762 38.0573 114.579C38.2403 114.396 38.6062 114.396 38.7891 114.67C39.0636 114.945 39.3381 115.311 39.521 115.585C39.704 115.768 39.704 116.134 39.4296 116.317C39.4296 116.409 39.3381 116.409 39.1551 116.409ZM37.4169 114.213C37.2339 114.213 37.1425 114.122 37.051 114.03C36.7766 113.756 36.5936 113.39 36.3191 113.115C36.1361 112.932 36.2276 112.566 36.4106 112.383C36.5935 112.2 36.9595 112.292 37.1425 112.475C37.4169 112.749 37.5998 113.115 37.8743 113.39C38.0573 113.573 37.9658 113.939 37.7828 114.122C37.5999 114.213 37.5084 114.213 37.4169 114.213ZM35.6788 112.017C35.4958 112.017 35.4043 111.926 35.2213 111.834C34.9469 111.468 34.7639 111.194 34.4894 110.828C34.3065 110.645 34.3979 110.279 34.5809 110.096C34.7639 109.913 35.1298 110.005 35.3128 110.188C35.4958 110.554 35.7702 110.828 36.0446 111.194C36.2276 111.377 36.1361 111.743 35.9531 111.926C35.8617 112.017 35.7702 112.017 35.6788 112.017ZM34.1235 109.73C33.9405 109.73 33.7575 109.639 33.666 109.547C33.4831 109.181 33.2087 108.907 33.0257 108.541C32.8427 108.267 32.9342 107.992 33.2086 107.809C33.4831 107.626 33.7576 107.718 33.9405 107.992C34.1235 108.358 34.3979 108.632 34.5809 108.998C34.7639 109.273 34.6724 109.547 34.398 109.73C34.3065 109.639 34.2149 109.73 34.1235 109.73ZM32.5683 107.26C32.3853 107.26 32.2023 107.169 32.1109 106.986C31.9279 106.62 31.7449 106.254 31.4704 105.888C31.3789 105.613 31.379 105.339 31.6534 105.248C31.9279 105.156 32.2023 105.156 32.2938 105.431C32.4768 105.796 32.6598 106.162 32.9342 106.437C33.1172 106.711 33.0257 106.986 32.7512 107.169C32.7512 107.26 32.6598 107.26 32.5683 107.26ZM31.196 104.79C31.013 104.79 30.8301 104.699 30.7386 104.516C30.5556 104.15 30.3727 103.784 30.1897 103.418C30.0982 103.143 30.1897 102.869 30.3726 102.777C30.6471 102.686 30.9215 102.777 31.013 102.96C31.196 103.326 31.379 103.692 31.562 104.058C31.6535 104.333 31.5619 104.607 31.3789 104.699C31.3789 104.79 31.2875 104.79 31.196 104.79ZM30.0067 102.32C29.8237 102.32 29.6407 102.229 29.5493 102.046C29.3663 101.68 29.1833 101.314 29.0918 100.948C29.0004 100.673 29.0919 100.399 29.3663 100.307C29.6408 100.216 29.9152 100.307 30.0067 100.582C30.1896 100.948 30.3726 101.314 30.4641 101.68C30.5556 101.954 30.4642 102.229 30.1897 102.32C30.0982 102.32 30.0982 102.32 30.0067 102.32ZM28.9089 99.7585C28.7259 99.7585 28.543 99.667 28.4515 99.484C28.2685 99.1181 28.177 98.7522 27.9941 98.3863C27.9026 98.1118 27.994 97.8373 28.2685 97.7459C28.5429 97.6544 28.8174 97.7458 28.9089 98.0203C29.0919 98.3862 29.1834 98.7522 29.3663 99.1181C29.4578 99.3926 29.3663 99.667 29.0918 99.7585C29.0004 99.7585 28.9089 99.7585 28.9089 99.7585ZM27.9026 97.1055C27.7196 97.1055 27.4452 97.014 27.4452 96.7395C27.3537 96.3736 27.1707 96.0077 27.0792 95.5502C26.9877 95.2758 27.1707 95.0013 27.4452 94.9098C27.7196 94.8184 27.9941 95.0013 28.0855 95.2758C28.177 95.6417 28.36 96.0077 28.4515 96.3736C28.543 96.648 28.36 96.9225 28.177 97.014C27.994 97.1055 27.9026 97.1055 27.9026 97.1055ZM26.9878 94.4524C26.8048 94.4524 26.5303 94.3609 26.5303 94.0865C26.4389 93.7206 26.3474 93.2631 26.1644 92.8972C26.0729 92.6228 26.2559 92.3483 26.5303 92.2568C26.8048 92.1653 27.0792 92.3483 27.1707 92.6227C27.2622 92.9887 27.3537 93.3546 27.5367 93.812C27.6281 94.0865 27.4451 94.3609 27.1707 94.4524C27.0792 94.3609 27.0793 94.4524 26.9878 94.4524ZM26.2559 91.7079C25.9814 91.7079 25.7984 91.5249 25.7984 91.342C25.7069 90.976 25.6154 90.5186 25.5239 90.1527C25.4325 89.8782 25.6154 89.6038 25.8899 89.5123C26.1643 89.4208 26.4389 89.6038 26.5303 89.8782C26.6218 90.2442 26.7133 90.7016 26.8047 91.0675C26.8962 91.342 26.7132 91.6164 26.4388 91.7079C26.3473 91.7079 26.3473 91.7079 26.2559 91.7079ZM25.707 88.9634C25.4325 88.9634 25.2496 88.7804 25.1581 88.5975C25.0666 88.2315 24.9751 87.7741 24.9751 87.4082C24.8836 87.1337 25.0666 86.8593 25.341 86.8593C25.6155 86.7678 25.8899 86.9507 25.8899 87.2252C25.9814 87.5911 26.0729 88.0485 26.0729 88.4145C26.1644 88.5974 26.0729 88.8719 25.707 88.9634ZM25.2495 86.1274C24.9751 86.1274 24.7922 85.9444 24.7007 85.6699C24.6092 85.304 24.6091 84.8466 24.5176 84.4807C24.5176 84.2062 24.7006 83.9318 24.9751 83.9318C25.2495 83.9318 25.5239 84.1147 25.5239 84.3892C25.6154 84.7551 25.6155 85.2125 25.707 85.5785C25.707 85.8529 25.524 86.1274 25.2495 86.1274ZM24.8836 83.3828C24.6091 83.3828 24.4262 83.1999 24.3347 82.9254C24.3347 82.5595 24.2432 82.1021 24.2432 81.7361C24.2432 81.4617 24.4262 81.1872 24.7007 81.1872C24.9751 81.1872 25.2495 81.3702 25.2495 81.6446C25.2495 82.0106 25.341 82.468 25.341 82.834C25.341 83.1084 25.158 83.3828 24.8836 83.3828ZM24.6091 80.5469C24.3346 80.5469 24.1517 80.3639 24.0602 80.0894C24.0602 79.7235 24.0602 79.2661 23.9688 78.9001C23.9688 78.6257 24.1517 78.3512 24.4262 78.3512C24.7006 78.3512 24.9751 78.5342 24.9751 78.8086C24.9751 79.1746 24.975 79.632 25.0665 79.9979C25.158 80.2724 24.975 80.5469 24.6091 80.5469C24.7006 80.5469 24.6091 80.5469 24.6091 80.5469ZM24.5176 77.7108C24.2432 77.7108 23.9688 77.5279 23.9688 77.2534C23.9688 76.8875 23.9688 76.43 23.9688 76.0641C23.9688 75.7897 24.1517 75.6067 24.5176 75.6067C24.7921 75.6067 24.9751 75.7897 24.9751 76.1556C24.9751 76.5215 24.9751 76.979 24.9751 77.3449C25.0665 77.5279 24.7921 77.7108 24.5176 77.7108ZM24.6091 74.9663C24.6091 74.9663 24.5176 74.9663 24.6091 74.9663C24.3346 74.9663 24.0602 74.6919 24.0602 74.4174C24.0602 74.0515 24.0602 73.5941 24.0602 73.2281C24.0602 72.9537 24.3346 72.7707 24.6091 72.7707C24.8835 72.7707 25.0665 73.0451 25.0665 73.3196C25.0665 73.6855 25.0665 74.143 25.0665 74.5089C25.0665 74.6919 24.7921 74.8748 24.6091 74.9663ZM24.7007 72.1303C24.3347 72.1303 24.1517 71.8559 24.1517 71.5814C24.1517 71.2155 24.2432 70.758 24.2432 70.3921C24.2432 70.1177 24.5177 69.9347 24.7921 69.9347C25.0666 69.9347 25.2495 70.2092 25.2495 70.4836C25.2495 70.8495 25.1581 71.307 25.1581 71.6729C25.1581 71.9473 24.9751 72.1303 24.7007 72.1303ZM24.9751 69.2943C24.9751 69.2943 24.8836 69.2943 24.9751 69.2943C24.6091 69.2943 24.4262 69.0198 24.4262 68.7454C24.4262 68.3794 24.5176 67.922 24.6091 67.5561C24.6091 67.2816 24.8836 67.0987 25.1581 67.0987C25.4325 67.0987 25.6155 67.3731 25.6155 67.6476C25.524 68.0135 25.5239 68.4709 25.5239 68.8369C25.4325 69.1113 25.158 69.2943 24.9751 69.2943ZM25.341 66.5498C25.2495 66.5498 25.2495 66.5498 25.341 66.5498C24.9751 66.5498 24.7921 66.2753 24.7921 66.0009C24.8836 65.6349 24.8836 65.1775 24.9751 64.8116C24.9751 64.5371 25.2495 64.3542 25.5239 64.3542C25.7984 64.3542 25.9814 64.6286 25.9814 64.9031C25.8899 65.269 25.8899 65.7264 25.7984 66.0924C25.7984 66.3668 25.524 66.5498 25.341 66.5498ZM25.7984 63.7138H25.707C25.4325 63.6223 25.2495 63.4393 25.341 63.1649C25.4325 62.7989 25.5239 62.3415 25.5239 61.9756C25.6154 61.7011 25.7985 61.5182 26.0729 61.6096C26.3474 61.7011 26.5303 61.8841 26.4388 62.1585C26.3473 62.5245 26.2559 62.9819 26.2559 63.3478C26.1644 63.5308 25.9814 63.7138 25.7984 63.7138ZM26.3473 60.9692H26.2559C25.9814 60.8778 25.7984 60.6033 25.8899 60.3289C25.9814 59.9629 26.0729 59.5055 26.1644 59.1396C26.2559 58.8651 26.5303 58.6821 26.8047 58.7736C27.0792 58.8651 27.2622 59.1396 27.1707 59.414C27.0792 59.78 26.9877 60.2374 26.8962 60.6033C26.7132 60.7863 26.5303 60.9692 26.3473 60.9692ZM26.9878 58.2247C26.9878 58.2247 26.8962 58.2247 26.8047 58.2247C26.5303 58.1332 26.3473 57.8588 26.4388 57.5843C26.5303 57.2184 26.6218 56.761 26.7133 56.395C26.8048 56.1206 27.0792 55.9376 27.3536 56.0291C27.6281 56.1206 27.8111 56.395 27.7196 56.6695C27.6281 57.0354 27.5367 57.4014 27.4452 57.8588C27.3537 58.0417 27.1707 58.2247 26.9878 58.2247ZM27.7196 55.4802C27.6281 55.4802 27.6281 55.4802 27.5367 55.4802C27.2622 55.3887 27.0792 55.1143 27.1707 54.8398C27.2622 54.4739 27.3537 54.0165 27.5367 53.6505C27.6281 53.3761 27.9025 53.1931 28.177 53.2846C28.4514 53.3761 28.6344 53.6505 28.543 53.925C28.4515 54.2909 28.2685 54.6568 28.177 55.1143C28.0855 55.3887 27.9025 55.4802 27.7196 55.4802ZM28.543 52.8272C28.4515 52.8272 28.4515 52.8272 28.36 52.8272C28.0856 52.7357 27.9941 52.4612 27.9941 52.1868C28.0856 51.8208 28.2685 51.4549 28.36 50.9975C28.4515 50.723 28.7259 50.6315 29.0004 50.723C29.2748 50.8145 29.3664 51.089 29.2749 51.3634C29.1834 51.7294 29.0004 52.0953 28.9089 52.4612C28.9089 52.6442 28.7259 52.8272 28.543 52.8272ZM29.4578 50.1741C29.3663 50.1741 29.3664 50.1741 29.2749 50.1741C29.0004 50.0826 28.9089 49.8082 29.0004 49.5337C29.1833 49.1678 29.2748 48.8019 29.4578 48.4359C29.5493 48.1615 29.8237 48.07 30.0981 48.1615C30.3726 48.253 30.4641 48.5274 30.3726 48.8019C30.1897 49.1678 30.0982 49.5337 29.9152 49.8997C29.8237 49.9911 29.6408 50.1741 29.4578 50.1741ZM30.4641 47.5211C30.3726 47.5211 30.3727 47.5211 30.2812 47.5211C30.0067 47.4296 29.9152 47.1551 30.0067 46.8807C30.1896 46.5148 30.2811 46.1488 30.4641 45.7829C30.5556 45.5084 30.8301 45.4169 31.1046 45.5084C31.379 45.5999 31.4704 45.8744 31.3789 46.1488C31.196 46.5148 31.1045 46.8807 30.9215 47.2466C30.83 47.4296 30.6471 47.5211 30.4641 47.5211ZM31.562 44.868C31.4705 44.868 31.3789 44.868 31.3789 44.868C31.1045 44.7766 31.0131 44.5021 31.1046 44.2277C31.2875 43.8617 31.4705 43.4958 31.6534 43.1298C31.7449 42.8554 32.1108 42.7639 32.2938 42.8554C32.5682 42.9469 32.6598 43.3128 32.5683 43.4958C32.3853 43.8617 32.2023 44.2276 32.1109 44.5936C31.9279 44.7766 31.7449 44.868 31.562 44.868ZM32.7512 42.398C32.6597 42.398 32.5683 42.398 32.4768 42.3065C32.2024 42.215 32.1108 41.8491 32.2938 41.6661C32.3853 41.4831 32.4768 41.3002 32.4768 41.3002C32.6598 41.0257 32.7513 40.8427 32.9342 40.5683C33.1172 40.2938 33.3916 40.2938 33.666 40.3853C33.9405 40.5683 33.9406 40.8427 33.8491 41.1172C33.6661 41.3917 33.5746 41.5746 33.3917 41.8491C33.3917 41.8491 33.3001 41.9405 33.2086 42.1235C33.1171 42.3065 32.9342 42.398 32.7512 42.398ZM34.2149 39.9279C34.1234 39.9279 34.032 39.9279 33.9405 39.8364C33.6661 39.6534 33.666 39.379 33.7575 39.1045C33.9405 38.7386 34.215 38.4642 34.398 38.0982C34.5809 37.8238 34.8553 37.8238 35.1298 37.9153C35.4042 38.0982 35.4043 38.3727 35.3128 38.6471C35.1298 39.0131 34.8553 39.2875 34.6723 39.6534C34.5809 39.8364 34.3979 39.9279 34.2149 39.9279ZM35.7702 37.6408C35.6787 37.6408 35.5872 37.6408 35.4957 37.5493C35.2213 37.3663 35.2213 37.0919 35.4043 36.8174C35.5872 36.4515 35.8617 36.1771 36.1362 35.8111C36.3192 35.6282 36.5935 35.5367 36.868 35.7196C37.051 35.9026 37.1424 36.1771 36.9594 36.4515C36.7765 36.8174 36.5021 37.0919 36.3191 37.4578C36.1361 37.5493 35.9532 37.6408 35.7702 37.6408ZM37.4169 35.3537C37.3254 35.3537 37.234 35.3537 37.1425 35.2622C36.9595 35.0792 36.8681 34.8048 37.051 34.5303C37.3255 34.1644 37.5084 33.8899 37.7828 33.524C37.9658 33.341 38.2403 33.2496 38.5147 33.4325C38.6977 33.6155 38.7892 33.8899 38.6062 34.1644C38.3318 34.4389 38.1487 34.8048 37.8743 35.1707C37.6913 35.2622 37.5998 35.2622 37.4169 35.3537ZM39.0636 33.0666C38.9721 33.0666 38.8806 33.0666 38.6977 32.9751C38.5147 32.7921 38.4232 32.5177 38.6062 32.2432C38.8807 31.9688 39.0637 31.6028 39.3381 31.3284C39.5211 31.1454 39.7955 31.0539 40.0699 31.2369C40.2529 31.4199 40.3444 31.6943 40.1614 31.9688C39.8869 32.2432 39.704 32.6092 39.4296 32.8836C39.4296 32.9751 39.2466 33.0666 39.0636 33.0666ZM40.8933 30.871C40.8018 30.871 40.6188 30.871 40.5274 30.7795C40.3444 30.5965 40.2529 30.3221 40.4359 30.0476C40.7103 29.7732 40.9848 29.4072 41.2593 29.1328C41.4422 28.9498 41.7166 28.8583 41.9911 29.0413C42.174 29.2243 42.2656 29.4987 42.0826 29.7732C41.8082 30.0476 41.5337 30.4135 41.3507 30.688C41.1678 30.7795 40.9848 30.871 40.8933 30.871ZM42.723 28.6754C42.6315 28.6754 42.4485 28.6753 42.357 28.5839C42.1741 28.4009 42.1741 28.1265 42.2656 27.852C42.54 27.5776 42.8145 27.2116 43.089 26.9372C43.2719 26.7542 43.5463 26.7542 43.8208 26.9372C44.0037 27.1201 44.0037 27.3946 43.8208 27.669C43.5463 27.9435 43.2719 28.3094 42.9975 28.5839C42.906 28.6753 42.8145 28.6754 42.723 28.6754ZM44.5527 26.6627C44.4612 26.6627 44.2782 26.6627 44.1867 26.5712C44.0037 26.3882 44.0037 26.0223 44.1867 25.8393C44.4612 25.5649 44.7356 25.2904 45.0101 24.9245C45.1931 24.7415 45.559 24.7415 45.742 24.9245C45.925 25.1075 45.925 25.4734 45.742 25.6564C45.4676 25.9308 45.1931 26.2053 44.9186 26.4797C44.8272 26.5712 44.7356 26.6627 44.5527 26.6627ZM46.5653 24.6501C46.4738 24.6501 46.2909 24.65 46.1994 24.4671C46.0165 24.2841 46.0165 23.9182 46.1994 23.7352C46.4739 23.4608 46.7483 23.1863 47.0227 22.9119C47.2057 22.7289 47.5717 22.7289 47.7546 22.9119C47.9376 23.0948 47.9376 23.4608 47.7546 23.6437C47.4802 23.9182 47.2057 24.1926 46.9312 24.4671C46.7483 24.5586 46.6568 24.5586 46.5653 24.6501ZM48.578 22.6374C48.395 22.6374 48.3035 22.5459 48.212 22.4544C48.0291 22.2715 48.0291 21.9055 48.212 21.7226C48.4865 21.4481 48.8524 21.1737 49.1269 20.8992C49.3099 20.7162 49.6758 20.7162 49.8588 20.8992C50.0418 21.0822 50.0418 21.4481 49.8588 21.6311C49.5843 21.9055 49.3099 22.18 48.944 22.4544C48.761 22.6374 48.6695 22.6374 48.578 22.6374ZM50.6821 20.8077C50.4991 20.8077 50.4077 20.7162 50.3162 20.6248C50.1333 20.4418 50.1332 20.0758 50.4077 19.8929C50.6821 19.6184 51.0481 19.344 51.3225 19.0695C51.5055 18.8866 51.8714 18.8866 52.0543 19.161C52.2373 19.344 52.2373 19.7099 51.9629 19.8929C51.6884 20.1673 51.3225 20.4418 51.048 20.6248C50.8651 20.7162 50.7736 20.8077 50.6821 20.8077ZM52.7862 18.978C52.6033 18.978 52.5118 18.8866 52.4203 18.7951C52.2373 18.6121 52.2373 18.2462 52.5117 18.0632C52.7862 17.7887 53.1521 17.5143 53.4266 17.3313C53.6096 17.1484 53.9755 17.2398 54.1585 17.4228C54.3415 17.6058 54.25 17.9717 54.067 18.1547C53.7926 18.4291 53.4267 18.6121 53.1522 18.8866C53.0607 18.978 52.9692 18.978 52.7862 18.978ZM55.0733 17.2398C54.8904 17.2398 54.7989 17.1484 54.6159 17.0569C54.433 16.8739 54.5244 16.508 54.7074 16.325C55.0733 16.0505 55.3478 15.8676 55.7137 15.5931C55.8967 15.4102 56.2626 15.5016 56.4456 15.6846C56.6286 15.8676 56.5371 16.2335 56.3541 16.4165C55.9882 16.6909 55.7138 16.8739 55.3478 17.1484C55.2564 17.2398 55.1648 17.2398 55.0733 17.2398ZM57.3605 15.5931C57.1775 15.5931 56.9945 15.5016 56.903 15.4102C56.7201 15.2272 56.8115 14.8612 56.9945 14.6783C57.3604 14.4953 57.6349 14.2209 58.0008 14.0379C58.2752 13.8549 58.5497 13.9464 58.7327 14.2209C58.9157 14.4953 58.8242 14.7698 58.5498 14.9527C58.1839 15.1357 57.9093 15.4102 57.5434 15.5931C57.5434 15.5931 57.4519 15.5931 57.3605 15.5931ZM59.739 14.0379C59.556 14.0379 59.3731 13.9464 59.2816 13.7634C59.0986 13.489 59.1902 13.2145 59.4646 13.0316C59.8306 12.8486 60.1965 12.5741 60.4709 12.3912C60.7454 12.2082 61.0198 12.2997 61.2027 12.5741C61.3857 12.8486 61.2943 13.1231 61.0198 13.306C60.6539 13.489 60.3795 13.7634 60.0135 13.9464C59.922 14.0379 59.8305 14.0379 59.739 14.0379ZM62.1176 12.5741C61.9346 12.5741 61.7516 12.4827 61.6602 12.2997C61.4772 12.0253 61.5687 11.7508 61.8432 11.6593C62.2091 11.4763 62.575 11.2934 62.941 11.0189C63.2154 10.9274 63.4899 10.9274 63.5814 11.2019C63.6729 11.4763 63.6728 11.7508 63.3984 11.8423C63.0324 12.0253 62.6665 12.2082 62.3921 12.3912C62.3006 12.5741 62.2091 12.5741 62.1176 12.5741ZM64.5877 11.2934C64.4048 11.2934 64.2218 11.2019 64.1303 11.0189C64.0388 10.7445 64.1303 10.47 64.3132 10.3785C64.6792 10.1956 65.0452 10.0126 65.4111 9.82962C65.6856 9.73814 65.96 9.82963 66.0514 10.0126C66.1429 10.2871 66.0515 10.5615 65.8685 10.653C65.5026 10.836 65.1366 11.0189 64.7706 11.2019C64.7706 11.2019 64.6792 11.2934 64.5877 11.2934ZM67.0577 10.0126C66.8748 10.0126 66.6918 9.92111 66.6003 9.73815C66.5088 9.46369 66.6004 9.18924 66.8748 9.09776C67.2408 8.91479 67.6067 8.73182 67.9726 8.54885C68.247 8.45737 68.5216 8.54885 68.613 8.8233C68.7045 9.09776 68.613 9.37221 68.3385 9.46369C67.9726 9.64666 67.6067 9.82963 67.2408 10.0126C67.2408 10.0126 67.1492 10.0126 67.0577 10.0126ZM69.6193 8.8233C69.4364 8.8233 69.2534 8.73182 69.1619 8.54885C69.0704 8.2744 69.1619 7.99995 69.4363 7.90846C69.8022 7.7255 70.1683 7.54253 70.5342 7.45104C70.8086 7.35956 71.083 7.45105 71.1745 7.7255C71.266 7.99995 71.1746 8.2744 70.9001 8.36588C70.5342 8.54885 70.1682 8.64034 69.8023 8.8233C69.8023 8.8233 69.7108 8.8233 69.6193 8.8233ZM128.81 6.26175C128.718 6.26175 128.718 6.26175 128.627 6.26175C128.261 6.17026 127.895 6.07878 127.437 5.89582C127.163 5.80433 126.98 5.52987 127.071 5.25542C127.163 4.98096 127.437 4.798 127.712 4.88948C128.078 4.98097 128.535 5.07245 128.901 5.25542C129.175 5.3469 129.358 5.62136 129.267 5.89582C129.175 6.07878 128.992 6.26175 128.81 6.26175ZM72.2724 7.7255C72.0894 7.7255 71.9065 7.63401 71.815 7.45104C71.7235 7.17659 71.8149 6.90214 72.0894 6.81066C72.4553 6.62769 72.8213 6.5362 73.1872 6.35324C73.4617 6.26175 73.7361 6.35323 73.8276 6.62768C73.9191 6.90213 73.8275 7.17659 73.5531 7.26808C73.1872 7.45105 72.8213 7.54253 72.4553 7.7255C72.3638 7.7255 72.3639 7.7255 72.2724 7.7255ZM126.065 5.4384C125.974 5.4384 125.974 5.4384 125.882 5.4384C125.516 5.34691 125.15 5.25542 124.693 5.16394C124.418 5.07246 124.235 4.79801 124.327 4.52355C124.418 4.2491 124.693 4.06613 124.967 4.15761C125.333 4.24909 125.791 4.34058 126.156 4.43206C126.431 4.52355 126.614 4.798 126.522 5.07245C126.522 5.3469 126.339 5.4384 126.065 5.4384ZM74.9254 6.81066C74.7424 6.81066 74.4679 6.71916 74.4679 6.44471C74.3765 6.17026 74.5595 5.89581 74.7424 5.80433C75.1084 5.71284 75.4744 5.52988 75.9318 5.4384C76.2062 5.34691 76.4806 5.52987 76.5721 5.80433C76.6636 6.07878 76.4806 6.35323 76.2062 6.44471C75.8402 6.5362 75.4743 6.71917 75.1084 6.81066C75.0169 6.71917 74.9254 6.81066 74.9254 6.81066ZM123.32 4.798H123.229C122.863 4.70651 122.406 4.61504 122.04 4.52355C121.765 4.43207 121.582 4.15761 121.674 3.88315C121.765 3.6087 122.04 3.42574 122.314 3.51722C122.68 3.60871 123.138 3.70019 123.504 3.79168C123.778 3.88316 123.961 4.15761 123.869 4.43206C123.778 4.61503 123.595 4.798 123.32 4.798ZM77.5784 5.89582C77.3955 5.89582 77.121 5.80432 77.121 5.52987C77.0295 5.25542 77.2125 4.98097 77.487 4.88948C77.8529 4.798 78.2189 4.61504 78.6763 4.52355C78.9507 4.43207 79.2252 4.61503 79.3166 4.88948C79.4081 5.16394 79.2251 5.43839 78.9507 5.52987C78.5847 5.62136 78.2189 5.71285 77.7615 5.89582C77.67 5.89582 77.6699 5.89582 77.5784 5.89582ZM120.576 4.2491H120.484C120.119 4.15761 119.661 4.06613 119.295 4.06613C119.021 3.97465 118.838 3.79168 118.929 3.51722C119.021 3.24277 119.204 3.05981 119.478 3.15129C119.844 3.24278 120.301 3.33426 120.667 3.33426C120.942 3.42574 121.125 3.6087 121.033 3.88315C121.033 4.06612 120.85 4.2491 120.576 4.2491ZM80.3229 5.16394C80.14 5.16394 79.8655 4.98096 79.8655 4.798C79.774 4.52354 79.957 4.24909 80.2315 4.15761C80.5974 4.06613 81.0549 3.97464 81.4208 3.88315C81.6953 3.79167 81.9697 3.97465 82.0612 4.2491C82.1526 4.52355 81.9697 4.798 81.6952 4.88948C81.3293 4.98097 80.8719 5.07246 80.506 5.16394C80.4145 5.16394 80.3229 5.16394 80.3229 5.16394ZM117.831 3.70019H117.74C117.374 3.6087 116.917 3.60871 116.551 3.51722C116.276 3.51722 116.093 3.24277 116.093 2.96831C116.093 2.69386 116.368 2.51089 116.642 2.51089C117.008 2.60238 117.465 2.60239 117.831 2.69387C118.106 2.69387 118.289 2.96832 118.289 3.24277C118.289 3.51722 118.014 3.70019 117.831 3.70019ZM83.0675 4.43206C82.793 4.43206 82.61 4.2491 82.61 4.06613C82.5186 3.79168 82.7016 3.51722 82.976 3.42573C83.3419 3.33425 83.7994 3.24278 84.1653 3.15129C84.4398 3.05981 84.7142 3.24277 84.8057 3.51722C84.8972 3.79168 84.7142 4.06613 84.4397 4.15761C84.0738 4.24909 83.6164 4.34058 83.2505 4.43206C83.0675 4.43206 83.0675 4.43206 83.0675 4.43206ZM114.995 3.33426C114.538 3.24277 114.081 3.24278 113.715 3.15129C113.44 3.15129 113.257 2.87683 113.257 2.60238C113.257 2.32793 113.532 2.14496 113.806 2.14496C114.172 2.23645 114.63 2.23644 114.995 2.32793C115.27 2.32793 115.453 2.60238 115.453 2.87684C115.453 3.15129 115.27 3.33426 114.995 3.33426ZM85.812 3.88315C85.5375 3.88315 85.3546 3.70019 85.2631 3.51722C85.1716 3.24277 85.3546 2.96831 85.6291 2.96831C85.995 2.87683 86.4524 2.78535 86.8183 2.78535C87.0927 2.69386 87.3673 2.87684 87.3673 3.15129C87.4588 3.42574 87.2758 3.70019 87.0013 3.70019C86.6354 3.70019 86.2694 3.79167 85.812 3.88315ZM112.251 2.96831C112.251 2.96831 112.159 2.96831 112.251 2.96831C111.794 2.96831 111.428 2.87684 110.97 2.87684C110.696 2.87684 110.513 2.60238 110.513 2.32793C110.513 2.05347 110.787 1.87051 111.062 1.87051C111.428 1.87051 111.885 1.962 112.251 1.962C112.525 1.962 112.708 2.23644 112.708 2.51089C112.708 2.78534 112.525 2.96831 112.251 2.96831ZM88.5565 3.42573C88.2821 3.42573 88.0991 3.24277 88.0076 2.96831C88.0076 2.69386 88.1906 2.41942 88.465 2.41942C88.831 2.32793 89.2885 2.32794 89.6544 2.23645C89.9288 2.23645 90.2033 2.41942 90.2033 2.69387C90.2033 2.96832 90.0203 3.24277 89.7458 3.24277C89.3799 3.24277 89.0139 3.33425 88.5565 3.42573C88.648 3.42573 88.5565 3.42573 88.5565 3.42573ZM109.415 2.69387C108.958 2.69387 108.592 2.60238 108.134 2.60238C107.86 2.60238 107.677 2.32792 107.677 2.05347C107.677 1.77902 107.951 1.59605 108.226 1.59605C108.592 1.59605 109.049 1.68754 109.415 1.68754C109.689 1.68754 109.872 1.962 109.872 2.23645C109.872 2.5109 109.689 2.69387 109.415 2.69387ZM91.3925 3.0598C91.118 3.0598 90.9351 2.87683 90.8436 2.60238C90.8436 2.32793 91.0266 2.05347 91.301 2.05347C91.667 1.96199 92.1244 1.962 92.4904 1.962C92.7648 1.962 93.0393 2.14496 93.0393 2.41942C93.0393 2.69387 92.8563 2.96831 92.5818 2.96831C92.2159 2.96831 91.7584 2.96832 91.3925 3.0598ZM106.579 2.51089C106.122 2.51089 105.756 2.5109 105.298 2.41942C105.024 2.41942 104.841 2.14496 104.841 1.87051C104.841 1.59605 105.115 1.41309 105.39 1.41309C105.756 1.41309 106.213 1.41309 106.579 1.50458C106.853 1.50458 107.036 1.77902 107.036 2.05347C107.128 2.32792 106.853 2.51089 106.579 2.51089ZM94.137 2.69387C93.8626 2.69387 93.6796 2.5109 93.5881 2.23645C93.5881 1.962 93.7711 1.68754 94.0456 1.68754C94.4115 1.68754 94.869 1.59605 95.2349 1.59605C95.5094 1.59605 95.7838 1.77902 95.7838 2.05347C95.7838 2.32792 95.6008 2.60238 95.3264 2.60238C94.9604 2.69387 94.5944 2.69387 94.137 2.69387ZM103.834 2.41942C103.377 2.41942 103.011 2.41942 102.645 2.41942C102.371 2.41942 102.188 2.23644 102.188 1.87051C102.188 1.50457 102.371 1.41309 102.737 1.41309C103.102 1.41309 103.56 1.41309 103.926 1.41309C104.2 1.41309 104.383 1.68754 104.383 1.962C104.292 2.14496 104.109 2.41942 103.834 2.41942ZM96.9731 2.51089C96.6987 2.51089 96.5156 2.32792 96.4241 2.05347C96.4241 1.77902 96.6071 1.50458 96.8815 1.50458C97.2475 1.50458 97.7049 1.50457 98.0709 1.41309C98.3453 1.41309 98.6198 1.59605 98.6198 1.87051C98.6198 2.14496 98.4368 2.41942 98.1623 2.41942C97.7964 2.5109 97.3391 2.51089 96.9731 2.51089ZM100.998 2.41942C100.632 2.41942 100.175 2.41942 99.8091 2.41942C99.5347 2.41942 99.2602 2.23645 99.2602 1.962C99.2602 1.68754 99.4432 1.41309 99.7176 1.41309C100.084 1.41309 100.541 1.41309 100.907 1.41309C101.181 1.41309 101.456 1.59605 101.456 1.87051C101.456 2.14496 101.273 2.41942 100.998 2.41942Z" fill="#CCCCCC"/>
<path d="M144.452 11.0186C144.452 11.0186 144.269 10.9271 143.903 10.7441L144.452 11.0186Z" fill="#CCCCCC"/>
<path d="M142.44 10.6527C142.349 10.6527 142.349 10.6527 142.257 10.6527C141.891 10.4697 141.525 10.3782 141.159 10.1952C140.885 10.1038 140.793 9.82931 140.885 9.55485C140.976 9.2804 141.251 9.18892 141.525 9.2804C141.891 9.46337 142.257 9.55485 142.623 9.73782C142.897 9.8293 142.989 10.1038 142.898 10.3782C142.806 10.5612 142.623 10.6527 142.44 10.6527Z" fill="#CCCCCC"/>
<path d="M139.787 9.64613C139.695 9.64613 139.695 9.64613 139.604 9.64613C139.238 9.55465 138.872 9.37169 138.506 9.2802C138.232 9.18872 138.14 8.91427 138.232 8.63982C138.323 8.36536 138.597 8.27388 138.872 8.36536C139.238 8.45684 139.604 8.63981 140.061 8.73129C140.336 8.82278 140.427 9.09723 140.336 9.37168C140.244 9.55465 139.97 9.64613 139.787 9.64613Z" fill="#CCCCCC"/>
<path d="M137.134 8.73102H137.043C136.677 8.63954 136.311 8.45657 135.854 8.36509C135.579 8.2736 135.396 7.99916 135.488 7.7247C135.579 7.45025 135.854 7.26727 136.128 7.35876C136.494 7.45024 136.86 7.63322 137.317 7.7247C137.592 7.81619 137.683 8.09064 137.683 8.36509C137.5 8.63954 137.317 8.73102 137.134 8.73102Z" fill="#CCCCCC"/>
<path d="M134.389 7.90778H134.298C133.932 7.81629 133.566 7.7248 133.109 7.54183C132.834 7.45035 132.651 7.1759 132.743 6.90145C132.834 6.627 133.108 6.44403 133.383 6.53552C133.749 6.627 134.206 6.71848 134.572 6.90145C134.847 6.99293 135.03 7.26738 134.938 7.54183C134.847 7.81629 134.664 7.90778 134.389 7.90778Z" fill="#CCCCCC"/>
<path d="M131.736 7.17664H131.644C131.278 7.08516 130.821 6.99367 130.455 6.90219C130.181 6.8107 129.998 6.53625 130.089 6.2618C130.181 5.98735 130.455 5.80438 130.73 5.89587C131.096 5.98735 131.553 6.07883 131.919 6.17031C132.193 6.26179 132.376 6.53626 132.285 6.81071C132.102 7.08516 131.919 7.17664 131.736 7.17664Z" fill="#CCCCCC"/>
<path d="M285.797 73.2276L283.784 96.2816L256.339 93.903C257.345 92.1648 258.077 90.2436 258.26 88.048C258.901 81.0037 254.052 74.7828 247.374 74.2339C240.787 73.685 234.932 78.8996 234.291 86.0353C234.108 88.231 234.383 90.2436 235.115 92.1648L155.524 85.3035C155.707 86.4013 155.707 87.4991 155.615 88.6884C154.975 95.7327 149.12 101.039 142.533 100.49C135.946 99.9409 131.097 93.72 131.646 86.6757C131.738 85.4864 132.012 84.3886 132.378 83.3823L105.573 81.0952L107.586 58.0412C108.409 48.7098 118.198 41.8485 129.451 42.8548L266.86 54.7478C278.204 55.4796 286.62 63.8047 285.797 73.2276Z" fill="#C2E5FF"/>
<defs>
<linearGradient id="paint0_linear_1997_28310" x1="156.819" y1="73.0035" x2="108.891" y2="132.631" gradientUnits="userSpaceOnUse">
<stop stop-color="#F9BABA"/>
<stop offset="1" stop-color="#F5928F"/>
</linearGradient>
<linearGradient id="paint1_linear_1997_28310" x1="36.339" y1="240.21" x2="42.3408" y2="240.21" gradientUnits="userSpaceOnUse">
<stop stop-color="#F9BABA"/>
<stop offset="1" stop-color="#F5928F"/>
</linearGradient>
<linearGradient id="paint2_linear_1997_28310" x1="66.6604" y1="237.545" x2="72.6292" y2="237.545" gradientUnits="userSpaceOnUse">
<stop stop-color="#F9BABA"/>
<stop offset="1" stop-color="#F5928F"/>
</linearGradient>
<linearGradient id="paint3_linear_1997_28310" x1="112.619" y1="72.4085" x2="134.368" y2="76.7649" gradientUnits="userSpaceOnUse">
<stop stop-color="#F9BABA"/>
<stop offset="1" stop-color="#F5928F"/>
</linearGradient>
<linearGradient id="paint4_linear_1997_28310" x1="83.5901" y1="67.0618" x2="64.4775" y2="102.18" gradientUnits="userSpaceOnUse">
<stop stop-color="#F9BABA"/>
<stop offset="1" stop-color="#F5928F"/>
</linearGradient>
<linearGradient id="paint5_linear_1997_28310" x1="89.6843" y1="52.9511" x2="62.5182" y2="98.0884" gradientUnits="userSpaceOnUse">
<stop stop-color="#F9BABA"/>
<stop offset="1" stop-color="#F5928F"/>
</linearGradient>
<linearGradient id="paint6_linear_1997_28310" x1="167.304" y1="75.428" x2="113.504" y2="142.36" gradientUnits="userSpaceOnUse">
<stop stop-color="#F9BABA"/>
<stop offset="1" stop-color="#F5928F"/>
</linearGradient>
</defs>
</svg>
