<svg width="28" height="28" viewBox="0 0 28 28" fill="none" xmlns="http://www.w3.org/2000/svg">
<path d="M1.44 7.68V4.56C1.44 2.79764 2.79764 1.44 4.56 1.44H7.68C8.07765 1.44 8.4 1.11765 8.4 0.72C8.4 0.322355 8.07765 0 7.68 0H4.56C2.00235 0 0 2.00235 0 4.56V7.68C0 8.07765 0.322355 8.4 0.72 8.4C1.11765 8.4 1.44 8.07765 1.44 7.68Z" fill="#0E8EF3"/>
<path d="M26.56 7.68V4.56C26.56 2.79764 25.2024 1.44 23.44 1.44H20.32C19.9224 1.44 19.6 1.11765 19.6 0.72C19.6 0.322355 19.9224 0 20.32 0H23.44C25.9976 0 28 2.00235 28 4.56V7.68C28 8.07765 27.6776 8.4 27.28 8.4C26.8824 8.4 26.56 8.07765 26.56 7.68Z" fill="#0E8EF3"/>
<path d="M1.44 20.32V23.44C1.44 25.2024 2.79764 26.56 4.56 26.56H7.68C8.07765 26.56 8.4 26.8824 8.4 27.28C8.4 27.6776 8.07765 28 7.68 28H4.56C2.00235 28 0 25.9976 0 23.44V20.32C0 19.9224 0.322355 19.6 0.72 19.6C1.11765 19.6 1.44 19.9224 1.44 20.32Z" fill="#0E8EF3"/>
<path d="M26.56 20.32V23.44C26.56 25.2024 25.2024 26.56 23.44 26.56H20.32C19.9224 26.56 19.6 26.8824 19.6 27.28C19.6 27.6776 19.9224 28 20.32 28H23.44C25.9976 28 28 25.9976 28 23.44V20.32C28 19.9224 27.6776 19.6 27.28 19.6C26.8824 19.6 26.56 19.9224 26.56 20.32Z" fill="#0E8EF3"/>
<path d="M7.61389 10.5747V12.5758C7.61389 12.9901 7.92729 13.3258 8.31389 13.3258C8.70049 13.3258 9.01389 12.9901 9.01389 12.5758V10.5747C9.01389 10.1605 8.70049 9.82471 8.31389 9.82471C7.92729 9.82471 7.61389 10.1605 7.61389 10.5747Z" fill="#0E8EF3"/>
<path d="M19.158 10.5747V12.5758C19.158 12.9901 19.4714 13.3258 19.858 13.3258C20.2446 13.3258 20.558 12.9901 20.558 12.5758V10.5747C20.558 10.1605 20.2446 9.82471 19.858 9.82471C19.4714 9.82471 19.158 10.1605 19.158 10.5747Z" fill="#0E8EF3"/>
<path d="M9.07612 20.6791C10.4415 21.9535 12.0952 22.5965 13.9999 22.5965C15.9047 22.5965 17.5583 21.9535 18.9238 20.6791C19.2213 20.4014 19.2373 19.9351 18.9597 19.6376C18.682 19.3401 18.2157 19.3241 17.9182 19.6017C16.8275 20.6198 15.5338 21.1229 13.9999 21.1229C12.4661 21.1229 11.1724 20.6198 10.0816 19.6017C9.78415 19.3241 9.31788 19.3401 9.04021 19.6376C8.76255 19.9351 8.77862 20.4014 9.07612 20.6791Z" fill="#0E8EF3"/>
<path d="M14.0003 10.5615V15.7194C14.0003 16.0495 13.839 16.2107 13.5072 16.2107H13.0178C12.6109 16.2107 12.281 16.5406 12.281 16.9475C12.281 17.3545 12.6109 17.6844 13.0178 17.6844H13.5072C14.6525 17.6844 15.474 16.8638 15.474 15.7194V10.5615C15.474 10.1546 15.1441 9.82471 14.7371 9.82471C14.3302 9.82471 14.0003 10.1546 14.0003 10.5615Z" fill="#0E8EF3"/>
</svg>
