<svg width="20" height="20" viewBox="0 0 20 20" fill="none" xmlns="http://www.w3.org/2000/svg">
<mask id="mask0" style="mask-type:alpha" maskUnits="userSpaceOnUse" x="0" y="0" width="20" height="20">
<rect width="20" height="20" fill="#C4C4C4"/>
</mask>
<g mask="url(#mask0)">
<path d="M18.4081 6.94033C18.1555 6.70908 17.8446 6.56001 17.5089 6.50923L13.3991 5.8875L11.5611 2.01034C11.411 1.69368 11.1787 1.43185 10.8894 1.25326C10.621 1.0876 10.3135 1 9.99996 1C9.68642 1 9.37884 1.08757 9.11049 1.25326C8.82121 1.43185 8.58896 1.69365 8.43883 2.01034L6.60087 5.88753L2.49105 6.50923C2.15536 6.56001 1.84442 6.70908 1.59188 6.94033C1.3576 7.15484 1.18258 7.43232 1.08569 7.74278C0.98882 8.05321 0.973759 8.3848 1.04215 8.70172C1.1159 9.04332 1.28328 9.35422 1.52621 9.60071L4.5001 12.6187L3.79805 16.8801C3.71106 17.4081 3.85069 17.945 4.18115 18.3531C4.51406 18.7642 4.9998 19 5.51381 19C5.79375 19 6.07393 18.9276 6.32405 18.7907L9.99999 16.7788L13.6759 18.7907C13.926 18.9276 14.2062 19 14.4861 19C15.0001 19 15.4859 18.7642 15.8188 18.3531C16.1493 17.945 16.2889 17.4082 16.2019 16.8801L15.4999 12.6187L18.4738 9.60071C18.7167 9.35419 18.8841 9.04332 18.9578 8.70172C19.0262 8.3848 19.0112 8.05321 18.9143 7.74278C18.8174 7.43235 18.6423 7.15487 18.4081 6.94033ZM17.5783 8.64439L14.294 11.9774C14.186 12.087 14.1368 12.2449 14.1623 12.3996L14.9376 17.1059C14.9884 17.4142 14.7531 17.6645 14.4861 17.6645C14.4157 17.6645 14.3431 17.6471 14.2729 17.6087L10.2132 15.3867C10.1465 15.3502 10.0732 15.3319 10 15.3319C9.92681 15.3319 9.85356 15.3502 9.78682 15.3867L5.72715 17.6087C5.657 17.6471 5.58429 17.6645 5.51387 17.6645C5.24689 17.6645 5.01163 17.4142 5.06241 17.1059L5.83774 12.3996C5.86325 12.2449 5.81396 12.087 5.70598 11.9774L2.42158 8.64439C2.14967 8.36847 2.29971 7.88771 2.67547 7.83084L7.21435 7.14421C7.36356 7.12164 7.49256 7.02407 7.5593 6.88328L9.58916 2.60137C9.67318 2.42411 9.83659 2.33549 9.99999 2.33549C10.1634 2.33549 10.3268 2.42415 10.4108 2.60137L12.4406 6.88328C12.5074 7.02403 12.6364 7.12164 12.7856 7.14421L17.3244 7.83084C17.7002 7.88771 17.8503 8.36847 17.5783 8.64439Z" fill="#0E8EF3"/>
</g>
</svg>
