<svg width="13" height="19" viewBox="0 0 13 19" fill="none" xmlns="http://www.w3.org/2000/svg">
<path d="M4.26172 10.207H6.40625C8.80859 10.207 10.2969 11.4258 10.2969 13.3828C10.2969 15.2344 8.71484 16.5586 6.48828 16.5586C4.30859 16.5586 2.78516 15.3984 2.59766 13.5938H0.558594C0.710938 16.4883 3.07812 18.3984 6.51172 18.3984C9.85156 18.3984 12.4648 16.2305 12.4648 13.4414C12.4648 11.1328 11.0703 9.53906 8.77344 9.24609V9.05859C10.625 8.61328 11.7383 7.13672 11.7383 5.12109C11.7383 2.66016 9.38281 0.691406 6.42969 0.691406C3.20703 0.691406 1.10938 2.49609 0.898438 5.42578H2.94922C3.125 3.60938 4.40234 2.53125 6.34766 2.53125C8.29297 2.53125 9.59375 3.67969 9.59375 5.40234C9.59375 7.16016 8.23438 8.40234 6.3125 8.40234H4.26172V10.207Z" fill="#1A2E35"/>
</svg>
