<svg width="30" height="30" viewBox="0 0 30 30" fill="none" xmlns="http://www.w3.org/2000/svg">
<path d="M6.44971 23.443H23.5319C25.5659 23.443 26.6394 22.3883 26.6394 20.3731V10.4854C26.6394 8.47021 25.5659 7.41553 23.5319 7.41553H21.027C20.2925 7.41553 20.0571 7.29311 19.5956 6.81285L18.8517 6.01242C18.362 5.49449 17.8629 5.24023 16.9024 5.24023H13.0321C12.0716 5.24023 11.5725 5.49449 11.0828 6.01242L10.3389 6.81285C9.88686 7.28369 9.64202 7.41553 8.90751 7.41553H6.44971C4.41567 7.41553 3.35156 8.47021 3.35156 10.4854V20.3731C3.35156 22.3883 4.41567 23.443 6.44971 23.443ZM14.9908 20.4861C12.1752 20.4861 9.91511 18.2261 9.91511 15.401C9.91511 12.5665 12.1752 10.3065 14.9908 10.3065C17.8158 10.3065 20.0759 12.5665 20.0759 15.401C20.0759 18.2261 17.8158 20.4861 14.9908 20.4861ZM20.6786 11.9356C20.6786 11.267 21.253 10.6832 21.9404 10.6832C22.6184 10.6832 23.1929 11.267 23.1929 11.9356C23.1929 12.6325 22.6184 13.1786 21.9404 13.1881C21.253 13.1881 20.6786 12.6419 20.6786 11.9356ZM14.9908 18.7817C16.8647 18.7817 18.3714 17.275 18.3714 15.401C18.3714 13.5176 16.8647 12.011 14.9908 12.011C13.1263 12.011 11.6196 13.5176 11.6196 15.401C11.6196 17.275 13.1357 18.7817 14.9908 18.7817Z" fill="white"/>
</svg>
