<svg width="343" height="180" viewBox="0 0 343 180" fill="none" xmlns="http://www.w3.org/2000/svg">
<rect width="343" height="180" rx="16" fill="#3FAAFF"/>
<mask id="mask0_3243_39282" style="mask-type:alpha" maskUnits="userSpaceOnUse" x="0" y="0" width="343" height="180">
<rect width="343" height="180" rx="16" fill="#FF9500"/>
</mask>
<g mask="url(#mask0_3243_39282)">
<path opacity="0.1" d="M399.399 133.438C411.647 188.882 362.978 240.501 303.549 251.928C244.121 263.356 11.6744 320.304 100.884 199.007C190.094 77.7087 298.666 61.9368 358.095 50.5094C417.524 39.082 387.15 77.9942 399.399 133.438Z" fill="white"/>
<path opacity="0.14" d="M409.801 187.34C404.659 243.746 342.274 280.336 281.815 275.538C221.355 270.741 -18.855 263.722 103.621 171.073C226.097 78.4235 334.998 92.0832 395.458 96.8809C455.917 101.679 414.944 130.935 409.801 187.34Z" fill="white"/>
</g>
<rect opacity="0.15" x="16" y="114" width="50" height="50" rx="25" fill="white"/>
<path d="M52.567 144.273L44.4833 128.155C43.7626 126.718 42.3796 126 40.9966 126C39.6137 126 38.2307 126.718 37.51 128.136L29.4263 144.253C28.3355 146.409 29.4652 148.739 31.3742 149.593H31.3547C31.3547 149.593 33.3805 150.758 36.3218 149.127C38.0359 148.486 39.9448 148.059 40.9966 148.117C42.0485 148.059 43.9574 148.486 45.6715 149.127C48.6128 150.758 50.6386 149.593 50.6386 149.593C52.567 148.758 53.6578 146.428 52.567 144.273ZM38.7761 129.126L38.9124 128.835C39.3409 127.981 40.1785 127.553 40.9966 127.553C41.8342 127.553 42.6523 127.961 43.0809 128.835L43.2172 129.126C43.6068 130.136 43.821 131.204 43.821 132.292C43.821 135.651 42.7692 138.952 40.9772 141.729C39.2046 138.933 38.1333 135.651 38.1333 132.292C38.1527 131.204 38.3865 130.156 38.7761 129.126ZM33.3415 148.428C31.7248 148.428 29.9522 146.719 30.8288 144.972L36.6334 133.398C36.8477 136.874 38.0748 140.253 40.0227 143.127C38.406 145.418 36.2438 148.448 33.3415 148.428ZM40.9966 146.486C40.2564 146.486 39.7695 146.603 39.2241 146.758C39.789 146.137 40.3733 145.263 40.9966 144.389C41.62 145.263 42.1848 146.137 42.7692 146.758C42.2238 146.603 41.7368 146.486 40.9966 146.486ZM48.6518 148.428C45.7689 148.448 43.6068 145.418 41.9706 143.108C43.9184 140.253 45.1456 136.855 45.3599 133.379L51.1645 144.972C52.0411 146.719 50.2685 148.428 48.6518 148.428Z" fill="white" stroke="white" stroke-width="0.374999"/>
</svg>
