<svg width="20" height="21" viewBox="0 0 20 21" fill="none" xmlns="http://www.w3.org/2000/svg">
<g opacity="0.2">
<path fill-rule="evenodd" clip-rule="evenodd" d="M12.6892 14.175L10.2387 11.7248L3.73759 16.2937L16.2671 3.76577L17.8491 5.34757C18.2939 5.79237 18.2224 6.5325 17.7007 6.88395L14.1445 9.27929C14.6281 11.8142 13.8244 13.4396 13.3509 14.1368C13.1957 14.3652 12.8845 14.3703 12.6892 14.175ZM5.85573 7.34327L8.30627 9.79352L3.73676 16.2938L16.2662 3.76585L14.6843 2.18406C14.2394 1.73926 13.4992 1.81074 13.1477 2.33245L10.7521 5.88819C8.21686 5.40464 6.59124 6.20826 5.89396 6.6817C5.66549 6.83682 5.66045 7.14802 5.85573 7.34327Z" fill="black"/>
</g>
</svg>
