<svg width="18" height="14" viewBox="0 0 18 14" fill="none" xmlns="http://www.w3.org/2000/svg">
<path d="M2.55859 13.8954H15.4333C17.0681 13.8954 17.9118 13.0441 17.9118 11.4319V3.29576C17.9118 1.68359 17.0681 0.839844 15.4333 0.839844H2.55859C0.931362 0.839844 0.0800781 1.68359 0.0800781 3.29576V11.4319C0.0800781 13.0516 0.931362 13.8954 2.55859 13.8954ZM1.57924 3.43136C1.57924 2.70815 1.96345 2.34654 2.65653 2.34654H15.3354C16.0285 2.34654 16.4127 2.70815 16.4127 3.43136V3.97377H1.57924V3.43136ZM2.65653 12.3887C1.96345 12.3887 1.57924 12.0271 1.57924 11.3039V5.74414H16.4127V11.3039C16.4127 12.0271 16.0285 12.3887 15.3354 12.3887H2.65653ZM3.68108 11.0251H5.52679C5.97126 11.0251 6.2726 10.7313 6.2726 10.3094V8.9082C6.2726 8.48633 5.97126 8.19252 5.52679 8.19252H3.68108C3.24414 8.19252 2.9428 8.48633 2.9428 8.9082V10.3094C2.9428 10.7313 3.24414 11.0251 3.68108 11.0251Z" fill="#0E8EF3"/>
</svg>
