<svg width="18" height="14" viewBox="0 0 18 14" fill="none" xmlns="http://www.w3.org/2000/svg">
<path d="M2.55859 13.243H15.4333C17.0681 13.243 17.9118 12.3917 17.9118 10.7796V2.64342C17.9118 1.03125 17.0681 0.1875 15.4333 0.1875H2.55859C0.931362 0.1875 0.0800781 1.03125 0.0800781 2.64342V10.7796C0.0800781 12.3993 0.931362 13.243 2.55859 13.243ZM1.57924 2.77902C1.57924 2.0558 1.96345 1.6942 2.65653 1.6942H15.3354C16.0285 1.6942 16.4127 2.0558 16.4127 2.77902V3.32143H1.57924V2.77902ZM2.65653 11.7363C1.96345 11.7363 1.57924 11.3747 1.57924 10.6515V5.0918H16.4127V10.6515C16.4127 11.3747 16.0285 11.7363 15.3354 11.7363H2.65653ZM3.68108 10.3728H5.52679C5.97126 10.3728 6.2726 10.079 6.2726 9.65709V8.25586C6.2726 7.83398 5.97126 7.54018 5.52679 7.54018H3.68108C3.24414 7.54018 2.9428 7.83398 2.9428 8.25586V9.65709C2.9428 10.079 3.24414 10.3728 3.68108 10.3728Z" fill="#0E8EF3"/>
</svg>
