<svg width="22" height="22" viewBox="0 0 22 22" fill="none" xmlns="http://www.w3.org/2000/svg">
<path d="M7.65067 17.3786H14.3492C15.2746 17.3786 15.7303 16.9228 15.7303 15.9146V10.7422C15.7303 9.83065 15.3574 9.36797 14.584 9.29201V7.5863C14.584 4.96214 12.8368 3.69839 10.9999 3.69839C9.16302 3.69839 7.41588 4.96214 7.41588 7.5863V9.31272C6.69768 9.42321 6.26953 9.87899 6.26953 10.7422V15.9146C6.26953 16.9228 6.72531 17.3786 7.65067 17.3786ZM8.74177 7.462C8.74177 5.85297 9.76381 4.96904 10.9999 4.96904C12.2291 4.96904 13.2581 5.85297 13.2581 7.462V9.27819L8.74177 9.2851V7.462Z" fill="#89909B"/>
</svg>
