<svg width="20" height="21" viewBox="0 0 20 21" fill="none" xmlns="http://www.w3.org/2000/svg">
<path d="M0.851172 19.1402C1.23322 19.5297 1.71771 19.803 2.24859 19.9287C2.77948 20.0543 3.33509 20.0271 3.85117 19.8502L18.0012 15.1202C18.5719 14.9334 19.0705 14.5741 19.4282 14.0918C19.786 13.6095 19.9852 13.0281 19.9983 12.4277C20.0115 11.8274 19.838 11.2378 19.5017 10.7403C19.1655 10.2428 18.6831 9.86188 18.1212 9.65023L12.8812 7.65023C12.7619 7.60461 12.6532 7.53489 12.562 7.44542C12.4708 7.35596 12.3991 7.24866 12.3512 7.13023L10.3512 1.88023C10.1476 1.32624 9.77815 0.848487 9.29321 0.512065C8.80826 0.175643 8.23138 -0.00308521 7.64117 0.000233524L7.57117 0.000233517C6.97015 0.011174 6.38762 0.209899 5.90523 0.568558C5.42283 0.927218 5.06475 1.42783 4.88117 2.00023L0.151171 16.1702C-0.0208508 16.6813 -0.0464551 17.2303 0.0772478 17.7551C0.200951 18.28 0.469029 18.7598 0.851172 19.1402ZM2.00117 16.8002L6.78117 2.62023C6.83668 2.44077 6.94815 2.28377 7.0993 2.17221C7.25044 2.06065 7.43332 2.00039 7.62117 2.00023C7.80792 1.99717 7.99118 2.05102 8.14658 2.15462C8.30198 2.25823 8.42217 2.40667 8.49117 2.58023L10.4912 7.83023C10.6362 8.21171 10.8598 8.55842 11.1475 8.84785C11.4352 9.13728 11.7806 9.36296 12.1612 9.51023L17.4112 11.5102C17.5883 11.5751 17.7405 11.694 17.8464 11.8501C17.9523 12.0063 18.0064 12.1917 18.0012 12.3802C18.001 12.5681 17.9408 12.751 17.8292 12.9021C17.7176 13.0533 17.5606 13.1647 17.3812 13.2202L3.20117 17.9502C3.03837 18.0166 2.85983 18.0344 2.68714 18.0014C2.51445 17.9685 2.35501 17.8862 2.22808 17.7645C2.10115 17.6429 2.01217 17.4871 1.97191 17.316C1.93164 17.1448 1.9418 16.9657 2.00117 16.8002Z" fill="white"/>
</svg>
