<svg width="60" height="60" viewBox="0 0 60 60" fill="none" xmlns="http://www.w3.org/2000/svg">
<circle opacity="0.1" cx="30" cy="30" r="30" fill="#3E9AE2"/>
<path d="M38.3789 23.8889H42.2C42.5378 23.8889 42.8618 24.0177 43.1006 24.2469C43.3395 24.4761 43.4737 24.787 43.4737 25.1111V39.7778C43.4737 40.1019 43.3395 40.4128 43.1006 40.642C42.8618 40.8712 42.5378 41 42.2 41H19.2737C18.9359 41 18.6119 40.8712 18.3731 40.642C18.1342 40.4128 18 40.1019 18 39.7778V20.2222C18 19.8981 18.1342 19.5872 18.3731 19.358C18.6119 19.1288 18.9359 19 19.2737 19H38.3789V23.8889ZM20.5474 26.3333V38.5556H40.9263V26.3333H20.5474ZM20.5474 21.4444V23.8889H35.8316V21.4444H20.5474ZM34.5579 31.2222H38.3789V33.6667H34.5579V31.2222Z" fill="#3E9AE2"/>
</svg>
