<svg width="20" height="23" viewBox="0 0 20 23" fill="none" xmlns="http://www.w3.org/2000/svg">
<path d="M17.0993 12.0272L9.38932 19.7372C8.71797 20.4085 7.99592 20.8438 7.22317 21.0431C6.45042 21.2424 5.69165 21.2319 4.94687 21.0117C4.20209 20.7914 3.54298 20.391 2.96954 19.8106C2.39609 19.2372 1.99923 18.5798 1.77894 17.8385C1.55866 17.0972 1.54817 16.3402 1.74748 15.5675C1.94678 14.7947 2.37861 14.0727 3.04297 13.4013L13.5643 2.89047C13.9629 2.48487 14.4104 2.20165 14.907 2.0408C15.4035 1.87996 15.8966 1.84849 16.3861 1.94639C16.8756 2.0443 17.3126 2.28207 17.6973 2.6597C18.0819 3.05132 18.3232 3.49014 18.4211 3.97617C18.519 4.4622 18.4858 4.95348 18.3214 5.45C18.1571 5.94652 17.8756 6.39408 17.477 6.7927L7.19695 17.0727C6.9382 17.3385 6.66896 17.4521 6.38922 17.4136C6.1095 17.3752 5.87872 17.2686 5.69689 17.0938C5.51507 16.9119 5.40668 16.6811 5.37171 16.4014C5.33675 16.1216 5.44864 15.8489 5.70739 15.5832L12.8929 8.41863C13.0467 8.25778 13.1289 8.07421 13.1394 7.8679C13.1499 7.66161 13.0782 7.48153 12.9244 7.32768C12.7706 7.18082 12.5905 7.11089 12.3842 7.11788C12.1779 7.12488 11.9978 7.2088 11.8439 7.36963L4.63743 14.5761C4.28077 14.9328 4.04475 15.335 3.92936 15.7825C3.81397 16.2301 3.81047 16.6706 3.91887 17.1042C4.02727 17.5378 4.23881 17.9119 4.5535 18.2267C4.89618 18.5693 5.2843 18.7948 5.71787 18.9032C6.15145 19.0116 6.58679 19.0029 7.02387 18.877C7.46094 18.7511 7.85781 18.5098 8.21446 18.1532L18.5365 7.83119C19.1938 7.17383 19.6274 6.47101 19.8372 5.72273C20.047 4.97446 20.054 4.24017 19.8582 3.51987C19.6624 2.79956 19.2777 2.15269 18.7043 1.57925C18.1519 1.02678 17.5137 0.650893 16.7899 0.451587C16.0661 0.252279 15.3266 0.254027 14.5713 0.456832C13.816 0.659635 13.1097 1.08972 12.4523 1.74708L1.8786 12.3314C1.22823 12.9817 0.749188 13.6846 0.441485 14.4398C0.133783 15.1951 -0.0130743 15.9626 0.000912165 16.7423C0.0148986 17.5221 0.175743 18.2756 0.483445 19.0029C0.791147 19.7301 1.23871 20.384 1.82615 20.9645C2.40658 21.5449 3.06045 21.9907 3.78775 22.3019C4.51504 22.6131 5.26856 22.774 6.04831 22.7844C6.82805 22.795 7.59556 22.6464 8.35083 22.3387C9.1061 22.031 9.80892 21.5554 10.4593 20.9121L18.2217 13.1496C18.3756 12.9957 18.4526 12.8034 18.4526 12.5726C18.4526 12.3418 18.3721 12.153 18.2113 12.0061C18.0644 11.8383 17.8809 11.7632 17.6606 11.7806C17.4403 11.7981 17.2532 11.8803 17.0993 12.0272Z" fill="#CFE8FD"/>
</svg>
