<svg width="32" height="32" viewBox="0 0 32 32" fill="none" xmlns="http://www.w3.org/2000/svg">
<circle cx="16" cy="16" r="16" fill="#0E8EF3"/>
<path d="M22.7153 18.3395C22.9714 17.6065 23.1111 16.8193 23.1111 16C23.1111 15.1807 22.9714 14.3936 22.7153 13.6606C22.7091 13.6386 22.7017 13.6171 22.6927 13.5964C21.705 10.8547 19.0779 8.88892 16 8.88892C12.9221 8.88892 10.295 10.8547 9.30734 13.5964C9.29837 13.6172 9.29089 13.6386 9.28471 13.6606C9.02864 14.3936 8.88892 15.1807 8.88892 16C8.88892 16.8193 9.02864 17.6065 9.28471 18.3395C9.29096 18.3615 9.29837 18.383 9.30734 18.4036C10.295 21.1455 12.9221 23.1111 16 23.1111C19.0779 23.1111 21.705 21.1454 22.6927 18.4036C22.7017 18.383 22.7091 18.3616 22.7153 18.3395ZM16 22.0918C15.7292 22.0918 15.2926 21.6017 14.9276 20.5068C14.7515 19.9784 14.6105 19.371 14.5077 18.7103H17.4923C17.3896 19.371 17.2486 19.9783 17.0725 20.5068C16.7075 21.6017 16.2708 22.0918 16 22.0918ZM14.384 17.6909C14.335 17.1474 14.3092 16.5803 14.3092 16C14.3092 15.4197 14.335 14.8527 14.384 14.3092H17.6159C17.6649 14.8527 17.6908 15.4197 17.6908 16C17.6908 16.5803 17.6649 17.1474 17.6159 17.6909H14.384ZM9.90823 16.0001C9.90823 15.4136 9.99175 14.8463 10.1472 14.3092H13.3616C13.314 14.864 13.2898 15.4325 13.2898 16.0001C13.2898 16.5677 13.3139 17.1362 13.3616 17.691H10.1472C9.99175 17.1538 9.90823 16.5866 9.90823 16.0001ZM16 9.90828C16.2708 9.90828 16.7075 10.3984 17.0725 11.4933C17.2486 12.0217 17.3896 12.6291 17.4923 13.2898H14.5077C14.6104 12.629 14.7514 12.0217 14.9276 11.4933C15.2926 10.3984 15.7292 9.90828 16 9.90828ZM18.6384 14.3092H21.8528C22.0082 14.8463 22.0918 15.4136 22.0918 16.0001C22.0918 16.5866 22.0082 17.1539 21.8528 17.691H18.6384C18.686 17.1362 18.7102 16.5677 18.7102 16.0001C18.7102 15.4325 18.686 14.864 18.6384 14.3092ZM21.4545 13.2899H18.5214C18.3401 12.0396 18.0291 10.918 17.5927 10.12C19.2845 10.5787 20.6862 11.7497 21.4545 13.2899ZM14.4073 10.12C13.9709 10.9179 13.6599 12.0396 13.4786 13.2899H10.5455C11.3139 11.7497 12.7155 10.5787 14.4073 10.12ZM10.5455 18.7103H13.4786C13.6599 19.9605 13.9709 21.0821 14.4073 21.8802C12.7155 21.4214 11.3139 20.2505 10.5455 18.7103ZM17.5927 21.8802C18.0291 21.0822 18.3401 19.9605 18.5214 18.7103H21.4545C20.6862 20.2505 19.2845 21.4214 17.5927 21.8802Z" fill="white"/>
</svg>
