<svg width="248" height="141" viewBox="0 0 248 141" fill="none" xmlns="http://www.w3.org/2000/svg">
<path fill-rule="evenodd" clip-rule="evenodd" d="M62 100.714H153C153.515 100.714 154.017 100.658 154.5 100.552C154.983 100.658 155.485 100.714 156 100.714H208C211.866 100.714 215 97.5577 215 93.6641C215 89.7705 211.866 86.6141 208 86.6141H202C198.134 86.6141 195 83.4577 195 79.5641C195 75.6705 198.134 72.5141 202 72.5141H221C224.866 72.5141 228 69.3577 228 65.4641C228 61.5705 224.866 58.4141 221 58.4141H199C202.866 58.4141 206 55.2577 206 51.3641C206 47.4705 202.866 44.3141 199 44.3141H135C138.866 44.3141 142 41.1577 142 37.2641C142 33.3705 138.866 30.2141 135 30.2141H78C74.134 30.2141 71 33.3705 71 37.2641C71 41.1577 74.134 44.3141 78 44.3141H38C34.134 44.3141 31 47.4705 31 51.3641C31 55.2577 34.134 58.4141 38 58.4141H63C66.866 58.4141 70 61.5705 70 65.4641C70 69.3577 66.866 72.5141 63 72.5141H23C19.134 72.5141 16 75.6705 16 79.5641C16 83.4577 19.134 86.6141 23 86.6141H62C58.134 86.6141 55 89.7705 55 93.6641C55 97.5577 58.134 100.714 62 100.714ZM225 100.714C228.866 100.714 232 97.5578 232 93.6642C232 89.7706 228.866 86.6142 225 86.6142C221.134 86.6142 218 89.7706 218 93.6642C218 97.5578 221.134 100.714 225 100.714Z" fill="#F2F7FC"/>
<path d="M165 11.0784V17.1212" stroke="#75A4FE" stroke-width="2.5" stroke-linecap="round" stroke-linejoin="round"/>
<path d="M165 25.1782V31.2211" stroke="#75A4FE" stroke-width="2.5" stroke-linecap="round" stroke-linejoin="round"/>
<path d="M155 21.1497H161" stroke="#75A4FE" stroke-width="2.5" stroke-linecap="round" stroke-linejoin="round"/>
<path d="M169 21.1497H175" stroke="#75A4FE" stroke-width="2.5" stroke-linecap="round" stroke-linejoin="round"/>
<path d="M72 109.779V113.807" stroke="#75A4FE" stroke-width="2.5" stroke-linecap="round" stroke-linejoin="round"/>
<path d="M72 121.865V125.893" stroke="#75A4FE" stroke-width="2.5" stroke-linecap="round" stroke-linejoin="round"/>
<path d="M64 117.836H68" stroke="#75A4FE" stroke-width="2.5" stroke-linecap="round" stroke-linejoin="round"/>
<path d="M75.999 117.836H79.999" stroke="#75A4FE" stroke-width="2.5" stroke-linecap="round" stroke-linejoin="round"/>
<path d="M70.745 62.3717C71.0609 60.8862 72.5163 59.9603 73.9958 60.3038L136.423 74.7967C136.729 74.8678 137.022 74.991 137.288 75.1611L153.392 85.4386C154.379 86.068 154.876 87.2482 154.634 88.3859L149.264 113.641C148.948 115.126 147.492 116.052 146.013 115.709L66.1567 97.1692C64.6773 96.8258 63.7341 95.343 64.05 93.8575L70.745 62.3717Z" fill="white" stroke="#0E8EF3" stroke-width="2.5"/>
<path fill-rule="evenodd" clip-rule="evenodd" d="M73.9278 64.3492C74.0426 63.809 74.5719 63.4723 75.1098 63.5972L133.871 77.2393C133.97 77.2622 134.065 77.3002 134.154 77.3518L150.608 87.0021C150.987 87.2244 151.183 87.6664 151.092 88.0939L146.105 111.546C145.99 112.086 145.461 112.423 144.923 112.298L68.5255 94.562C67.9876 94.4371 67.6446 93.8979 67.7594 93.3577L73.9278 64.3492Z" fill="#F2F7FC"/>
<path d="M94.4707 53.838C94.2079 52.3421 95.2069 50.9134 96.7021 50.6469L159.202 39.5067C159.521 39.4498 159.847 39.4498 160.166 39.5066L178.755 42.8199C179.889 43.022 180.775 43.9107 180.975 45.0459L185.587 71.2924C185.85 72.7883 184.851 74.217 183.355 74.4835L103.395 88.7359C101.9 89.0024 100.475 88.0058 100.212 86.5099L94.4707 53.838Z" fill="white" stroke="#0E8EF3" stroke-width="2.5"/>
<rect width="44.1902" height="6.04157" transform="matrix(0.984595 -0.174851 0.172453 0.985018 136.944 55.062)" fill="#F2F7FC"/>
<path d="M143.491 54.1686L138.083 55.1291M196.765 44.7078L147.281 53.4956L196.765 44.7078ZM193.385 51.9586L134.13 62.4814L193.385 51.9586ZM162.636 67.1392L141.36 70.9175L162.636 67.1392Z" stroke="#0E8EF3" stroke-width="2.5" stroke-linecap="round" stroke-linejoin="round"/>
<path d="M122.299 58.2328C121.891 57.9104 121.401 57.7107 120.886 57.6568C120.37 57.6029 119.85 57.6971 119.385 57.9283L106.631 64.1554C106.116 64.4028 105.69 64.805 105.412 65.3064C105.134 65.8079 105.017 66.3839 105.078 66.955C105.139 67.5261 105.375 68.064 105.752 68.4946C106.13 68.9252 106.631 69.2271 107.186 69.3587L112.367 70.6113C112.485 70.64 112.596 70.6927 112.693 70.7664C112.79 70.84 112.87 70.933 112.93 71.0394L115.455 75.7733C115.715 76.2738 116.121 76.6815 116.619 76.941C117.117 77.2005 117.682 77.299 118.238 77.2233L118.304 77.2147C118.869 77.1304 119.393 76.8702 119.804 76.4707C120.215 76.0712 120.491 75.5523 120.594 74.9867L123.321 60.9639C123.42 60.458 123.378 59.9341 123.197 59.4514C123.016 58.9688 122.705 58.5467 122.299 58.2328ZM121.501 60.5939L118.728 74.6323C118.698 74.8094 118.612 74.972 118.483 75.0964C118.355 75.2208 118.19 75.3005 118.013 75.3237C117.837 75.3496 117.658 75.3211 117.499 75.2419C117.34 75.1627 117.208 75.0367 117.122 74.8806L114.597 70.1466C114.414 69.8026 114.161 69.5013 113.854 69.2621C113.548 69.023 113.195 68.8514 112.818 68.7585L107.628 67.5071C107.453 67.4673 107.295 67.3733 107.176 67.2382C107.057 67.1031 106.984 66.9339 106.966 66.7544C106.943 66.5762 106.977 66.3953 107.064 66.2382C107.151 66.0812 107.285 65.9561 107.447 65.8814L120.23 59.6506C120.375 59.5677 120.541 59.5288 120.708 59.5388C120.875 59.5489 121.035 59.6073 121.169 59.7071C121.304 59.8068 121.407 59.9437 121.465 60.1011C121.524 60.2584 121.537 60.4296 121.501 60.5939Z" fill="#0E8EF3"/>
</svg>
