<svg width="30" height="30" viewBox="0 0 30 30" fill="none" xmlns="http://www.w3.org/2000/svg">
<path d="M19.4024 6.50251V12.454H17.5567V6.80385C17.5567 6.06933 17.1235 5.64558 16.3514 5.64558H6.2659C5.49372 5.64558 5.06055 6.06933 5.06055 6.80385V22.4452C5.06055 23.1798 5.49372 23.6035 6.2659 23.6035H16.3514C17.1235 23.6035 17.5567 23.1798 17.5567 22.4452V16.7857H19.4024V22.7466C19.4024 24.3757 18.2912 25.4492 16.6056 25.4492H6.01165C4.32603 25.4492 3.21484 24.3757 3.21484 22.7466V6.50251C3.21484 4.86398 4.32603 3.79987 6.01165 3.79987H16.6056C18.2912 3.79987 19.4024 4.86398 19.4024 6.50251Z" fill="#E81E4E"/>
<path d="M23.0069 18.8435C22.6887 19.1528 22.18 19.1457 21.8706 18.8275C21.5613 18.5092 21.5684 18.0005 21.8866 17.6911L24.3246 15.3209L13.4468 15.3209C13.003 15.3209 12.6432 14.9611 12.6432 14.5173C12.6432 14.0735 13.003 13.7137 13.4468 13.7137L24.3246 13.7137L21.8866 11.3435C21.5684 11.0341 21.5613 10.5253 21.8706 10.2071C22.18 9.88894 22.6887 9.88178 23.0069 10.1911L26.8641 13.9411C27.0197 14.0924 27.1075 14.3003 27.1075 14.5173C27.1075 14.7343 27.0197 14.9422 26.8641 15.0935L23.0069 18.8435Z" fill="#E81E4E"/>
</svg>
