<svg width="24" height="24" viewBox="0 0 24 24" fill="none" xmlns="http://www.w3.org/2000/svg">
<path d="M11.9996 11.8698C13.8227 11.8698 15.2992 10.2577 15.2992 8.2839C15.2992 6.34026 13.8227 4.7959 11.9996 4.7959C10.184 4.7959 8.69238 6.36286 8.69992 8.29897C8.70745 10.2652 10.1765 11.8698 11.9996 11.8698ZM11.9996 10.5515C10.96 10.5515 10.0785 9.56459 10.0785 8.29897C10.071 7.06348 10.9524 6.11426 11.9996 6.11426C13.0543 6.11426 13.9206 7.04841 13.9206 8.2839C13.9206 9.54953 13.0467 10.5515 11.9996 10.5515ZM7.29869 18.876H16.6929C17.9962 18.876 18.6215 18.4616 18.6215 17.5727C18.6215 15.501 16.0375 12.7437 11.9996 12.7437C7.96164 12.7437 5.37012 15.501 5.37012 17.5727C5.37012 18.4616 5.9954 18.876 7.29869 18.876ZM7.06515 17.5576C6.88435 17.5576 6.81655 17.4974 6.81655 17.3617C6.81655 16.2091 8.67732 14.0621 11.9996 14.0621C15.3143 14.0621 17.1751 16.2091 17.1751 17.3617C17.1751 17.4974 17.1073 17.5576 16.9265 17.5576H7.06515Z" fill="#0E8EF3"/>
</svg>
