<svg width="54" height="48" viewBox="0 0 54 48" fill="none" xmlns="http://www.w3.org/2000/svg">
<path d="M52.9328 40.0737L31.386 2.64218C30.4338 0.987894 28.7282 0 26.8235 0C24.9188 0 23.2131 0.987675 22.2609 2.64218L0.714344 40.0737C-0.238115 41.728 -0.238115 43.7033 0.714344 45.3578C1.6668 47.0123 3.3722 48 5.2769 48H48.3707C50.2751 48 51.9808 47.0123 52.933 45.358C53.8852 43.7035 53.885 41.7282 52.9328 40.0737ZM26.8237 41.9104C24.9327 41.9104 23.3943 40.3674 23.3943 38.4708C23.3943 36.5744 24.9327 35.0314 26.8237 35.0314C28.7146 35.0314 30.253 36.5744 30.253 38.4708C30.2528 40.3676 28.7144 41.9104 26.8237 41.9104ZM30.2761 27.2076C30.2761 29.1169 28.7273 30.6704 26.8237 30.6704C24.9201 30.6704 23.3712 29.1169 23.3712 27.2076V11.315C23.3712 10.4091 24.1034 9.67467 25.0066 9.67467H28.6409C29.5443 9.67467 30.2763 10.4091 30.2763 11.315V27.2076H30.2761Z" fill="#FBA04D"/>
</svg>
