<svg width="40" height="40" viewBox="0 0 40 40" fill="none" xmlns="http://www.w3.org/2000/svg">
<path opacity="0.1" fill-rule="evenodd" clip-rule="evenodd" d="M20 40C31.0457 40 40 31.0457 40 20C40 8.9543 31.0457 0 20 0C8.9543 0 0 8.9543 0 20C0 31.0457 8.9543 40 20 40Z" fill="#0E8EF3"/>
<path d="M15.2241 26.793C15.5555 26.9889 16.0301 26.9362 16.2938 26.5519L24.9573 13.6848C25.2436 13.2629 25.0929 12.7958 24.7464 12.5924C24.4224 12.4116 23.9855 12.4794 23.7068 12.8937L15.0432 25.7233C14.7494 26.1527 14.8775 26.5896 15.2241 26.793ZM15.4576 19.704C17.1828 19.704 18.2374 18.3404 18.2374 16.1482C18.2374 13.9409 17.1752 12.615 15.4576 12.615C13.7475 12.615 12.6777 13.9484 12.6777 16.1482C12.6777 18.348 13.74 19.704 15.4576 19.704ZM15.4576 18.461C14.6364 18.461 14.1694 17.6323 14.1694 16.1482C14.1694 14.6867 14.644 13.858 15.4576 13.858C16.2712 13.858 16.7458 14.6792 16.7458 16.1482C16.7458 17.6323 16.2787 18.461 15.4576 18.461ZM24.5354 26.8005C26.2606 26.8005 27.3153 25.437 27.3153 23.2447C27.3153 21.0374 26.2455 19.7115 24.5354 19.7115C22.8178 19.7115 21.748 21.045 21.748 23.2447C21.748 25.4445 22.8103 26.8005 24.5354 26.8005ZM24.5354 25.5575C23.7143 25.5575 23.2472 24.7288 23.2472 23.2447C23.2472 21.7832 23.7218 20.9546 24.5354 20.9546C25.3491 20.9546 25.8161 21.7757 25.8161 23.2447C25.8161 24.7288 25.3491 25.5575 24.5354 25.5575Z" fill="#0E8EF3"/>
</svg>
