<svg width="18" height="20" viewBox="0 0 18 20" fill="none" xmlns="http://www.w3.org/2000/svg">
<path d="M17.978 4.82807C16.724 4.82804 15.5214 4.32987 14.6348 3.44316C13.7481 2.55645 13.25 1.35383 13.25 0.0998535H9.87197V13.3275C9.87134 13.9306 9.68092 14.5182 9.32769 15.007C8.97446 15.4958 8.47635 15.861 7.90394 16.0509C7.33154 16.2408 6.71389 16.2457 6.13853 16.065C5.56317 15.8843 5.05929 15.527 4.69831 15.0439C4.33733 14.5608 4.13755 13.9763 4.1273 13.3733C4.11705 12.7703 4.29684 12.1794 4.64119 11.6843C4.98554 11.1892 5.47699 10.815 6.04587 10.6149C6.61475 10.4147 7.23221 10.3986 7.81074 10.5689V7.2852C6.58127 7.11941 5.33048 7.33265 4.22539 7.89645C3.1203 8.46025 2.21352 9.34776 1.62612 10.4405C1.03871 11.5332 0.798656 12.7791 0.937996 14.0119C1.07734 15.2446 1.58944 16.4055 2.40594 17.3396C3.22243 18.2736 4.30444 18.9363 5.50749 19.2392C6.71055 19.5421 7.97738 19.4708 9.13882 19.0348C10.3003 18.5987 11.301 17.8187 12.0075 16.7989C12.714 15.7792 13.0926 14.5681 13.0926 13.3275L13.1912 6.64135C14.5791 7.66023 16.2566 8.20845 17.9783 8.20588L17.978 4.82807Z" fill="white"/>
</svg>
