<svg width="28" height="28" viewBox="0 0 28 28" fill="none" xmlns="http://www.w3.org/2000/svg">
<path d="M4.5227 23.4936H5.91555C6.23452 23.4936 6.36211 23.4298 6.59602 23.249L7.3084 22.7068C7.7018 23.1002 8.28658 23.1852 8.87137 22.93L12.3907 21.4628C12.6565 21.3564 12.7947 21.2501 12.9649 21.08L23.2358 10.8835C24.2565 9.86278 24.2565 8.64005 23.2252 7.59807L20.9179 5.2802C19.8866 4.24886 18.6638 4.23822 17.6431 5.25894L7.37219 15.4448C7.19144 15.6256 7.09575 15.7532 6.97879 16.0296L5.49025 19.5383C5.2457 20.1018 5.3095 20.6547 5.7029 21.0906L4.17183 22.6749C3.84222 23.0257 4.00171 23.4936 4.5227 23.4936ZM18.8233 6.66242C19.0998 6.39661 19.4294 6.38598 19.6846 6.65179L21.8536 8.83144C22.1194 9.09725 22.1087 9.41622 21.8217 9.69266L21.1306 10.3838L18.1216 7.36416L18.8233 6.66242ZM9.25413 16.1785L16.9733 8.51246L19.9716 11.5321L12.2631 19.1981L9.25413 16.1785ZM8.65872 21.0481C8.4567 21.1225 8.31848 21.1225 8.13773 20.9418L7.46788 20.2826C7.29777 20.1125 7.29777 19.953 7.37219 19.7722L8.32911 17.55L10.8809 20.1231L8.65872 21.0481Z" fill="#0E8EF3"/>
</svg>
