<svg width="33" height="26" viewBox="0 0 33 26" fill="none" xmlns="http://www.w3.org/2000/svg">
<path d="M7.279 6.759H1.281C0.939 6.759 0.618 6.892 0.376 7.134C0.137 7.373 0 7.703 0 8.04V17.162C0 17.498 0.137 17.828 0.376 18.068C0.617 18.309 0.939 18.442 1.28 18.442H7.28L15.391 25.082C15.468 25.145 15.56 25.185 15.659 25.197L15.722 25.2C15.8 25.2 15.878 25.183 15.949 25.15C16.035 25.108 16.112 25.041 16.164 24.958C16.216 24.875 16.244 24.778 16.244 24.68V0.522C16.244 0.421 16.217 0.328 16.162 0.241C16.111 0.16 16.036 0.094 15.945 0.051C15.877 0.019 15.798 0 15.726 0C15.562 0.017 15.47 0.057 15.392 0.12L7.279 6.759ZM13.682 20.374L8.193 15.881H2.563V9.321H8.193L13.682 4.828V20.374Z" fill="white"/>
<path d="M32.9661 12.601C32.9691 10.227 32.4441 7.83205 31.4451 5.67405C30.4771 3.58305 29.0511 1.68705 27.3151 0.175049L25.4971 1.99105C26.9951 3.26205 28.2261 4.86305 29.0641 6.63705C29.9431 8.48405 30.4071 10.546 30.4061 12.601C30.4071 14.58 29.9981 16.4971 29.1911 18.2971C28.4191 20.021 27.3241 21.542 25.9361 22.8221L27.7491 24.635C31.0681 21.525 32.9661 17.153 32.9661 12.601Z" fill="white"/>
<path d="M25.365 12.601C25.367 11.216 25.038 9.83 24.412 8.594C23.821 7.42 22.96 6.38 21.917 5.573L20.083 7.405C21.792 8.59 22.805 10.509 22.805 12.6C22.806 13.562 22.581 14.527 22.157 15.391C21.772 16.172 21.22 16.875 20.553 17.437L22.368 19.253C24.276 17.565 25.365 15.154 25.365 12.601Z" fill="white"/>
</svg>
