<svg width="30" height="31" viewBox="0 0 30 31" fill="none" xmlns="http://www.w3.org/2000/svg">
<path d="M9.98081 25.3375H20.0192C22.0438 25.3375 23.0891 24.2734 23.0891 22.2393V13.6888C23.0891 12.3705 22.9196 11.7678 22.1003 10.9297L17.1753 5.92934C16.3749 5.11949 15.7157 4.93115 14.5292 4.93115H9.98081C7.96561 4.93115 6.91092 5.99526 6.91092 8.03871V22.2393C6.91092 24.2734 7.96561 25.3375 9.98081 25.3375ZM10.1409 23.4541C9.23688 23.4541 8.78487 22.9833 8.78487 22.1169V8.15172C8.78487 7.29478 9.23688 6.81452 10.1503 6.81452H14.1431V11.9373C14.1431 13.3027 14.8117 13.9619 16.1677 13.9619H21.2151V22.1169C21.2151 22.9833 20.7631 23.4541 19.8497 23.4541H10.1409ZM16.3466 12.314C15.9511 12.314 15.7816 12.1445 15.7816 11.7584V7.05936L20.9609 12.314H16.3466Z" fill="#0E8EF3"/>
</svg>
