<svg width="24" height="24" viewBox="0 0 24 24" fill="none" xmlns="http://www.w3.org/2000/svg">
<rect width="24" height="24" rx="12" fill="#0E8EF3"/>
<path d="M16.8003 12.4468V15.7563H14.8631V12.6486C14.8631 11.8818 14.5806 11.3571 13.8945 11.3571C13.3698 11.3571 13.0469 11.7204 12.9259 12.0432C12.8855 12.1643 12.8451 12.3258 12.8451 12.5275V15.7563H10.9079C10.9079 15.7563 10.9483 10.5096 10.9079 9.98495H12.8451V10.7921C13.0873 10.3885 13.5716 9.82351 14.5806 9.82351C15.8317 9.82351 16.8003 10.671 16.8003 12.4468ZM8.88998 7.2002C8.24424 7.2002 7.80029 7.64414 7.80029 8.20916C7.80029 8.77419 8.20388 9.21813 8.84962 9.21813C9.53572 9.21813 9.93931 8.77419 9.93931 8.20916C9.97967 7.60378 9.57608 7.2002 8.88998 7.2002ZM7.92137 15.7563H9.85859V9.98495H7.92137V15.7563Z" fill="white"/>
</svg>
