<svg width="32" height="32" viewBox="0 0 32 32" fill="none" xmlns="http://www.w3.org/2000/svg">
<circle cx="16" cy="16" r="16" fill="#0E8EF3"/>
<path d="M19.0538 9.27661L13.7204 9.27661C11.2662 9.27661 9.276 11.2668 9.276 13.7211L9.276 19.0544C9.276 21.5086 11.2662 23.4988 13.7204 23.4988H19.0538C21.508 23.4988 23.4982 21.5086 23.4982 19.0544V13.7211C23.4982 11.2668 21.508 9.27661 19.0538 9.27661ZM22.1649 19.0544C22.1649 20.7699 20.7693 22.1655 19.0538 22.1655H13.7204C12.0049 22.1655 10.6093 20.7699 10.6093 19.0544L10.6093 13.7211C10.6093 12.0055 12.0049 10.6099 13.7204 10.6099L19.0538 10.6099C20.7693 10.6099 22.1649 12.0055 22.1649 13.7211V19.0544Z" fill="white"/>
<path d="M16.3875 12.8323C14.4239 12.8323 12.8319 14.4243 12.8319 16.3878C12.8319 18.3514 14.4239 19.9434 16.3875 19.9434C18.351 19.9434 19.943 18.3514 19.943 16.3878C19.943 14.4243 18.351 12.8323 16.3875 12.8323ZM16.3875 18.6101C15.1626 18.6101 14.1652 17.6127 14.1652 16.3878C14.1652 15.1621 15.1626 14.1656 16.3875 14.1656C17.6124 14.1656 18.6097 15.1621 18.6097 16.3878C18.6097 17.6127 17.6124 18.6101 16.3875 18.6101Z" fill="white"/>
<path d="M20.2097 13.0391C20.4714 13.0391 20.6835 12.827 20.6835 12.5653C20.6835 12.3037 20.4714 12.0916 20.2097 12.0916C19.9481 12.0916 19.736 12.3037 19.736 12.5653C19.736 12.827 19.9481 13.0391 20.2097 13.0391Z" fill="white"/>
</svg>
