<svg width="250" height="143" viewBox="0 0 250 143" fill="none" xmlns="http://www.w3.org/2000/svg">
<path fill-rule="evenodd" clip-rule="evenodd" d="M207 37C210.866 37 214 40.134 214 44C214 47.866 210.866 51 207 51H167C170.866 51 174 54.134 174 58C174 61.866 170.866 65 167 65H189C192.866 65 196 68.134 196 72C196 75.866 192.866 79 189 79H178.826C173.952 79 170 82.134 170 86C170 88.5773 172 90.9107 176 93C179.866 93 183 96.134 183 100C183 103.866 179.866 107 176 107H93C89.134 107 86 103.866 86 100C86 96.134 89.134 93 93 93H54C50.134 93 47 89.866 47 86C47 82.134 50.134 79 54 79H94C97.866 79 101 75.866 101 72C101 68.134 97.866 65 94 65H69C65.134 65 62 61.866 62 58C62 54.134 65.134 51 69 51H109C105.134 51 102 47.866 102 44C102 40.134 105.134 37 109 37H207ZM207 65C210.866 65 214 68.134 214 72C214 75.866 210.866 79 207 79C203.134 79 200 75.866 200 72C200 68.134 203.134 65 207 65Z" fill="#F2F7FC"/>
<path fill-rule="evenodd" clip-rule="evenodd" d="M153.672 35.9997L162.974 103.842L163.809 110.649C164.079 112.841 162.519 114.837 160.327 115.106L101.766 122.297C99.5738 122.566 97.578 121.007 97.3088 118.814L88.2931 45.3865C88.1584 44.2901 88.9381 43.2922 90.0344 43.1576C90.0413 43.1568 90.0483 43.156 90.0552 43.1552L94.9136 42.6102M98.8421 42.1695L103.429 41.655L98.8421 42.1695Z" fill="white"/>
<path d="M154.91 35.8299C154.816 35.1459 154.186 34.6675 153.502 34.7613C152.818 34.8551 152.34 35.4855 152.433 36.1695L154.91 35.8299ZM162.974 103.842L164.214 103.69C164.214 103.684 164.213 103.678 164.212 103.673L162.974 103.842ZM97.3088 118.814L98.5495 118.662L97.3088 118.814ZM90.0552 43.1552L89.9159 41.913L90.0552 43.1552ZM95.0529 43.8524C95.739 43.7755 96.2327 43.1569 96.1558 42.4709C96.0788 41.7848 95.4603 41.291 94.7742 41.368L95.0529 43.8524ZM98.7028 40.9273C98.0167 41.0043 97.5229 41.6228 97.5999 42.3089C97.6768 42.9949 98.2954 43.4887 98.9814 43.4117L98.7028 40.9273ZM103.568 42.8972C104.255 42.8202 104.748 42.2017 104.671 41.5156C104.594 40.8296 103.976 40.3358 103.29 40.4128L103.568 42.8972ZM152.433 36.1695L161.735 104.012L164.212 103.673L154.91 35.8299L152.433 36.1695ZM161.733 103.995L162.569 110.801L165.05 110.496L164.214 103.69L161.733 103.995ZM162.569 110.801C162.754 112.309 161.682 113.681 160.174 113.866L160.479 116.347C163.357 115.994 165.403 113.374 165.05 110.496L162.569 110.801ZM160.174 113.866L101.614 121.056L101.919 123.537L160.479 116.347L160.174 113.866ZM101.614 121.056C100.107 121.241 98.7346 120.169 98.5495 118.662L96.0681 118.966C96.4215 121.844 99.0409 123.891 101.919 123.537L101.614 121.056ZM98.5495 118.662L89.5337 45.2341L87.0524 45.5388L96.0681 118.966L98.5495 118.662ZM89.5337 45.2341C89.4833 44.823 89.7756 44.4488 90.1867 44.3983L89.8821 41.9169C88.1005 42.1357 86.8336 43.7572 87.0524 45.5388L89.5337 45.2341ZM90.1867 44.3983C90.1893 44.398 90.1919 44.3977 90.1945 44.3974L89.9159 41.913C89.9046 41.9142 89.8933 41.9156 89.8821 41.9169L90.1867 44.3983ZM90.1945 44.3974L95.0529 43.8524L94.7742 41.368L89.9159 41.913L90.1945 44.3974ZM98.9814 43.4117L103.568 42.8972L103.29 40.4128L98.7028 40.9273L98.9814 43.4117ZM103.29 40.4128L98.7028 40.9273L98.9814 43.4117L103.568 42.8972L103.29 40.4128Z" fill="#0E8EF3"/>
<path fill-rule="evenodd" clip-rule="evenodd" d="M151.14 40.2696L159.56 101.753L160.317 107.922C160.561 109.909 159.167 111.715 157.204 111.956L104.762 118.395C102.798 118.636 101.008 117.221 100.764 115.234L92.6143 48.8572C92.4797 47.7608 93.2594 46.7629 94.3557 46.6283L100.843 45.8318" fill="#F2F7FC"/>
<path d="M107.922 26C107.922 24.4812 109.153 23.25 110.672 23.25H156.229C156.958 23.25 157.657 23.5395 158.173 24.0549L171.616 37.4898C172.132 38.0056 172.422 38.7053 172.422 39.4349V102C172.422 103.519 171.191 104.75 169.672 104.75H110.672C109.153 104.75 107.922 103.519 107.922 102V26Z" fill="white" stroke="#0E8EF3" stroke-width="2.5"/>
<path d="M156.672 24.4023V35.9995C156.672 37.6564 158.015 38.9995 159.672 38.9995H167.605" stroke="#0E8EF3" stroke-width="2.5" stroke-linecap="round" stroke-linejoin="round"/>
<path d="M118 90H144M118 39H144H118ZM118 51H161H118ZM118 64H161H118ZM118 77H161H118Z" stroke="#0E8EF3" stroke-width="2.5" stroke-linecap="round" stroke-linejoin="round"/>
</svg>
