<svg width="60" height="60" viewBox="0 0 60 60" fill="none" xmlns="http://www.w3.org/2000/svg">
<path d="M58.9177 45.6884L38.7084 5.38939C36.9067 1.79646 33.4492 0 29.9917 0C26.5342 0 23.0767 1.79646 21.2749 5.34084L1.06573 45.6399C-1.6613 51.0293 1.16312 56.8556 5.93542 58.992H5.88672C5.88672 58.992 10.9512 61.9052 18.3044 57.8267C22.5898 56.2245 27.3621 55.1563 29.9917 55.302C32.6213 55.1563 37.3936 56.2245 41.6789 57.8267C49.0322 61.9052 54.0967 58.992 54.0967 58.992C58.9177 56.9042 61.6447 51.0778 58.9177 45.6884ZM24.4402 7.81704L24.7811 7.08875C25.8525 4.95241 27.9464 3.88425 29.9917 3.88425C32.0857 3.88425 34.1309 4.90386 35.2023 7.08875L35.5431 7.81704C36.5171 10.3418 37.0527 13.0122 37.0527 15.7312C37.0527 24.1309 34.4231 32.3849 29.943 39.328C25.5116 32.3363 22.8332 24.1309 22.8332 15.7312C22.8819 13.0122 23.4663 10.3904 24.4402 7.81704ZM10.8538 56.0788C6.81196 56.0788 2.38055 51.8061 4.57191 47.4363L19.0836 18.4987C19.6193 27.1897 22.6872 35.638 27.5568 42.8238C23.515 48.5531 18.1096 56.1273 10.8538 56.0788ZM29.9917 51.2235C28.1412 51.2235 26.9238 51.5148 25.5603 51.9032C26.9725 50.3495 28.4334 48.1646 29.9917 45.9798C31.55 48.1646 32.9622 50.3495 34.4231 51.9032C33.0596 51.5148 31.8422 51.2235 29.9917 51.2235ZM49.1296 56.0788C41.9224 56.1273 36.5171 48.5531 32.4265 42.7753C37.2962 35.638 40.3641 27.1412 40.8998 18.4502L55.4115 47.4363C57.6028 51.8061 53.1714 56.0788 49.1296 56.0788Z" fill="#E81E4E"/>
</svg>
