<svg width="26" height="22" viewBox="0 0 26 22" fill="none" xmlns="http://www.w3.org/2000/svg">
<path fill-rule="evenodd" clip-rule="evenodd" d="M7.01648 3.36272C7.10021 3.24631 7.1932 3.10382 7.31178 2.91167C7.37823 2.804 7.62068 2.40295 7.66031 2.33812C8.64002 0.735549 9.35219 0 10.6364 0H15.3636C16.6478 0 17.36 0.735549 18.3397 2.33812C18.3793 2.40295 18.6218 2.804 18.6882 2.91167C18.8068 3.10382 18.8998 3.24631 18.9835 3.36272C19.0387 3.43948 19.087 3.50047 19.1263 3.54545H22.4545C24.4126 3.54545 26 5.13281 26 7.09091V17.7273C26 19.6854 24.4126 21.2727 22.4545 21.2727H3.54545C1.58735 21.2727 0 19.6854 0 17.7273V7.09091C0 5.13281 1.58735 3.54545 3.54545 3.54545H6.87369C6.91303 3.50047 6.96126 3.43948 7.01648 3.36272ZM3.54545 5.90909C2.89275 5.90909 2.36364 6.43821 2.36364 7.09091V17.7273C2.36364 18.38 2.89275 18.9091 3.54545 18.9091H22.4545C23.1072 18.9091 23.6364 18.38 23.6364 17.7273V7.09091C23.6364 6.43821 23.1072 5.90909 22.4545 5.90909H18.9091C18.124 5.90909 17.5945 5.47939 17.0647 4.74294C16.9428 4.57349 16.8221 4.38847 16.6768 4.15301C16.6034 4.03411 16.3574 3.6271 16.323 3.57097C15.7885 2.69658 15.4661 2.36364 15.3636 2.36364H10.6364C10.5339 2.36364 10.2115 2.69658 9.67696 3.57097C9.64265 3.6271 9.39659 4.03411 9.32321 4.15301C9.1779 4.38847 9.05716 4.57349 8.93527 4.74294C8.40553 5.47939 7.87604 5.90909 7.09091 5.90909H3.54545ZM21.2727 9.45455C21.9254 9.45455 22.4545 8.92543 22.4545 8.27273C22.4545 7.62003 21.9254 7.09091 21.2727 7.09091C20.62 7.09091 20.0909 7.62003 20.0909 8.27273C20.0909 8.92543 20.62 9.45455 21.2727 9.45455ZM13 17.7273C9.7365 17.7273 7.09091 15.0817 7.09091 11.8182C7.09091 8.55468 9.7365 5.90909 13 5.90909C16.2635 5.90909 18.9091 8.55468 18.9091 11.8182C18.9091 15.0817 16.2635 17.7273 13 17.7273ZM13 15.3636C14.9581 15.3636 16.5455 13.7763 16.5455 11.8182C16.5455 9.86008 14.9581 8.27273 13 8.27273C11.0419 8.27273 9.45455 9.86008 9.45455 11.8182C9.45455 13.7763 11.0419 15.3636 13 15.3636Z" fill="white"/>
</svg>
