<svg width="30" height="30" viewBox="0 0 30 30" fill="none" xmlns="http://www.w3.org/2000/svg">
<path d="M19.4023 6.50251V12.454H17.5566V6.80385C17.5566 6.06933 17.1234 5.64558 16.3512 5.64558H6.26578C5.4936 5.64558 5.06042 6.06933 5.06042 6.80385V22.4452C5.06042 23.1798 5.4936 23.6035 6.26578 23.6035H16.3512C17.1234 23.6035 17.5566 23.1798 17.5566 22.4452V16.7857H19.4023V22.7466C19.4023 24.3757 18.2911 25.4492 16.6055 25.4492H6.01153C4.32591 25.4492 3.21472 24.3757 3.21472 22.7466V6.50251C3.21472 4.86398 4.32591 3.79987 6.01153 3.79987H16.6055C18.2911 3.79987 19.4023 4.86398 19.4023 6.50251Z" fill="#E81E4E"/>
<path d="M23.0068 18.8435C22.6886 19.1528 22.1799 19.1457 21.8705 18.8275C21.5611 18.5092 21.5683 18.0005 21.8865 17.6911L24.3245 15.3209L13.4467 15.3209C13.0029 15.3209 12.6431 14.9611 12.6431 14.5173C12.6431 14.0735 13.0029 13.7137 13.4467 13.7137L24.3245 13.7137L21.8865 11.3435C21.5683 11.0341 21.5611 10.5253 21.8705 10.2071C22.1799 9.88894 22.6886 9.88178 23.0068 10.1911L26.864 13.9411C27.0196 14.0924 27.1074 14.3003 27.1074 14.5173C27.1074 14.7343 27.0196 14.9422 26.864 15.0935L23.0068 18.8435Z" fill="#E81E4E"/>
</svg>
