<svg width="304" height="404" viewBox="0 0 304 404" fill="none" xmlns="http://www.w3.org/2000/svg">
<path d="M251.443 67.6883C253.279 67.495 254.728 65.9489 254.728 64.1128V44.3994C254.728 43.8196 255.115 43.3365 255.694 43.2398L261.299 42.4668C263.039 42.1769 264.391 40.6307 264.391 38.8913V20.6275H265.841C267.29 20.6275 268.45 19.4679 268.45 18.0184V11.1573C268.45 9.51456 267.001 8.35494 265.358 8.64485H259.656C258.4 8.83811 257.53 9.90109 257.53 11.1573V17.9217C257.53 19.3712 258.69 20.5308 260.14 20.5308H261.879V38.7947C261.879 39.3745 261.492 39.8577 260.913 39.9543L255.308 40.7274C253.569 41.0173 252.216 42.5634 252.216 44.3028V64.0162C252.216 64.596 251.829 65.0791 251.249 65.1758L216.654 65.0791L216.944 67.5916L251.443 67.6883Z" fill="#E6E6E6"/>
<path d="M258.593 76.9651L258.69 86.0487H256.854C255.598 86.242 254.728 87.305 254.728 88.5612V95.3256C254.728 96.7751 255.888 97.9347 257.337 97.9347H263.039C264.488 97.9347 265.648 96.7751 265.648 95.3256V88.4646C265.648 86.8218 264.198 85.6622 262.555 85.9521H261.203L261.106 76.7718L267.967 76.3853C269.9 76.2887 271.349 74.6459 271.349 72.7132V63.533H273.378C274.828 63.533 275.987 62.3734 275.987 60.9239V54.0628C275.987 52.4201 274.538 51.2605 272.895 51.5504H267.194C265.938 51.7436 265.068 52.8066 265.068 54.0628V60.8272C265.068 62.2767 266.227 63.4363 267.677 63.4363H268.837V72.6166C268.837 73.1964 268.353 73.6796 267.774 73.7762L216.461 74.0661L216.558 76.5786L258.593 76.9651Z" fill="#E6E6E6"/>
<path d="M300.726 74.356H295.025C293.769 74.5492 292.899 75.6122 292.899 76.8685V79.5742L278.79 79.3809V69.8142C278.79 69.2344 279.274 68.6546 279.95 68.6546H284.492C286.424 68.6546 288.067 67.1084 288.067 65.1757L288.84 40.7273H290.87C292.319 40.7273 293.479 39.5677 293.479 38.1182V31.2572C293.479 29.6144 292.029 28.4548 290.386 28.7447H284.685C283.429 28.938 282.559 30.0009 282.559 31.2572V38.0216C282.559 39.4711 283.719 40.6307 285.168 40.6307H286.231L285.458 64.9825C285.458 65.5623 284.975 66.0455 284.299 66.0455H279.757C277.727 66.0455 276.181 67.6882 276.181 69.7175V79.1877H274.345C273.379 79.1877 272.413 79.5742 271.736 80.2507C271.06 80.9271 270.673 81.8934 270.673 82.8598V101.414C270.673 101.703 270.576 101.993 270.383 102.187C270.19 102.38 269.9 102.476 269.61 102.476L252.699 102.283C252.119 102.283 251.54 101.8 251.54 101.124V87.7881C251.54 85.7588 249.897 84.116 247.867 84.116H217.331V86.6285H247.867C248.447 86.6285 249.027 87.1117 249.027 87.7881V101.124C249.027 103.056 250.67 104.699 252.602 104.796L269.513 104.989C270.48 104.989 271.349 104.602 272.026 103.926C272.702 103.25 273.089 102.283 273.089 101.317V82.7631C273.089 82.4732 273.186 82.1833 273.379 81.9901C273.572 81.7968 273.862 81.7002 274.152 81.7002L292.706 81.9901V83.5362C292.706 84.9857 293.865 86.1453 295.315 86.1453H301.016C302.466 86.1453 303.625 84.9857 303.625 83.5362V76.6752C303.819 75.3223 302.369 74.0661 300.726 74.356Z" fill="#E6E6E6"/>
<path d="M203.318 393.107L90.7394 393.01C77.2106 393.01 66.1943 381.994 66.1943 368.465L66.2909 86.1007C66.2909 72.5719 77.3073 61.5557 90.836 61.5557L203.415 61.6523C216.943 61.6523 227.96 72.6686 227.96 86.1974L227.863 368.562C227.863 382.091 216.847 393.107 203.318 393.107Z" fill="#192E35"/>
<path d="M203.316 71.7024H181.476C178.577 71.7024 176.162 74.2149 176.162 77.2105V81.1725C176.162 84.2648 173.746 86.6807 170.847 86.6807H128.328C125.429 86.6807 123.013 84.1682 123.013 81.1725V77.2105C123.013 74.1182 120.597 71.7024 117.698 71.7024H110.064H90.9303C81.4601 71.7024 73.7294 79.4331 73.7294 88.9033L73.6328 364.504C73.6328 373.974 81.3635 381.704 90.8337 381.704L203.219 381.801C212.689 381.801 220.42 374.07 220.42 364.6L220.517 88.9999C220.42 79.3365 212.786 71.7024 203.316 71.7024Z" fill="url(#paint0_linear_1266_27727)"/>
<path d="M50.4429 193.431C50.153 193.431 49.7665 193.334 49.5733 193.044C49.38 192.851 49.1867 192.465 49.1867 192.175V187.826C49.1867 186.763 48.8002 185.797 48.0271 185.024C47.254 184.347 46.3843 183.961 45.3213 183.864V171.012C45.3213 168.886 43.5819 167.147 41.456 167.147H29.1834V164.924C29.1834 163.185 27.6373 161.832 25.8979 162.218H19.81C18.4571 162.508 17.5874 163.571 17.5874 164.924V172.172C17.5874 173.718 18.8436 174.974 20.3898 174.974H26.4777C28.0238 174.974 29.2801 173.718 29.2801 172.172V169.949H41.5526C42.2291 169.949 42.8089 170.529 42.8089 171.205V184.057L8.31051 184.541C8.0206 184.541 7.63404 184.444 7.44078 184.154C7.24751 183.961 7.05427 183.574 7.05427 183.284V149.076H8.79368C10.3398 149.076 11.5961 147.82 11.5961 146.274V138.929C11.5961 137.19 10.0499 135.837 8.31051 136.224H2.22257C0.869695 136.514 0 137.577 0 138.929V146.177C0 147.723 1.25621 148.979 2.80235 148.979H4.54175V183.188C4.54175 184.251 4.9283 185.217 5.70137 185.99C6.47445 186.763 7.44081 187.15 8.50379 187.15L45.6112 186.667C45.9011 186.667 46.2877 186.763 46.481 187.053C46.6742 187.246 46.8675 187.633 46.8675 187.923V192.271C46.8675 193.334 47.254 194.301 48.0271 195.074C48.8002 195.75 49.6699 196.137 50.7329 196.137H50.8295L103.688 195.654L103.592 192.948L50.4429 193.431Z" fill="#E6E6E6"/>
<path d="M31.2125 198.842C29.0866 198.842 27.3471 200.582 27.3471 202.708C27.3471 203.384 26.7673 203.964 26.0909 203.964H15.0746V201.645C15.0746 199.905 13.5284 198.553 11.789 198.939H5.70109C4.34821 199.229 3.47852 200.292 3.47852 201.645V208.892C3.47852 210.439 4.73478 211.695 6.28093 211.695H12.3689C13.915 211.695 15.1712 210.439 15.1712 208.892V206.573H26.1875C28.3135 206.573 30.0529 204.834 30.0529 202.708C30.0529 202.031 30.6327 201.548 31.2125 201.452L101.755 200.872V198.166L31.2125 198.842Z" fill="#E6E6E6"/>
<path d="M50.056 207.926V209.376C50.056 210.052 49.4762 210.632 48.7997 210.632H25.6075C23.4816 210.632 21.7422 212.371 21.7422 214.497V219.716C21.7422 220.779 22.1287 221.745 22.9017 222.518C23.6748 223.194 24.5446 223.581 25.6075 223.581C25.7042 223.581 25.7041 223.581 25.8008 223.581L38.2666 223.098V225.997C38.2666 227.543 39.5229 228.799 41.069 228.799H47.1569C48.7031 228.799 49.9593 227.543 49.9593 225.997V218.653C49.9593 216.913 48.4132 215.56 46.6738 215.947H40.5858C39.233 216.237 38.3632 217.3 38.3632 218.653V220.295L25.8008 220.779C25.5109 220.779 25.1244 220.682 24.9311 220.392C24.7378 220.199 24.5445 219.812 24.5445 219.522V214.304C24.5445 213.628 25.1243 213.048 25.8008 213.048H48.9929C51.1189 213.048 52.8583 211.308 52.8583 209.182V207.733C52.8583 207.057 53.4382 206.477 54.1146 206.477H101.948V203.771H54.1146C51.7954 203.964 50.056 205.704 50.056 207.926Z" fill="#E6E6E6"/>
<path d="M32.5659 157.773C37.4942 157.773 46.3846 157.676 50.7331 157.773C51.4095 157.773 51.8927 158.353 51.8927 159.029V186.473C51.8927 188.599 53.6321 190.339 55.758 190.339H101.852V187.633H55.758C55.0816 187.633 54.5018 187.053 54.5018 186.377V158.933C54.5018 156.807 52.7624 155.067 50.6364 155.067C46.2879 155.067 37.3976 155.067 32.4692 155.067C31.1164 155.067 30.0534 154.004 29.9568 152.652C29.9568 150.622 29.9568 147.723 29.9568 145.694C29.9568 145.017 30.4399 144.534 31.1163 144.534L40.2966 143.858V146.467C40.2966 148.013 41.5529 149.269 43.099 149.269H49.1869C50.7331 149.269 51.9893 148.013 51.9893 146.467V139.123C51.9893 137.383 50.4432 136.03 48.7038 136.417H42.6158C41.2629 136.707 40.3933 137.77 40.3933 139.123V141.055L31.0197 141.732C28.9904 141.829 27.4443 143.471 27.3477 145.597C27.3477 147.627 27.3477 150.526 27.3477 152.652C27.4443 155.454 29.6668 157.773 32.5659 157.773Z" fill="#E6E6E6"/>
<path d="M207.185 235.304H102.434C100.308 235.304 98.5684 233.564 98.5684 231.438V167.853C98.5684 165.727 100.308 163.988 102.434 163.988H207.088C209.214 163.988 210.954 165.727 210.954 167.853V231.438C211.05 233.564 209.311 235.304 207.185 235.304Z" fill="#F5F6F6"/>
<path d="M204.091 230.665H99.4367C97.3107 230.665 95.5713 228.926 95.5713 226.8V163.215C95.5713 161.089 97.3107 159.349 99.4367 159.349H204.091C206.217 159.349 207.957 161.089 207.957 163.215V226.8C207.957 228.926 206.217 230.665 204.091 230.665Z" fill="#E1E1E1"/>
<path d="M200.515 226.8H95.8605C93.7345 226.8 91.9951 225.061 91.9951 222.935V159.349C91.9951 157.224 93.7345 155.484 95.8605 155.484H200.515C202.641 155.484 204.381 157.224 204.381 159.349V222.935C204.381 225.061 202.641 226.8 200.515 226.8Z" fill="#0E8EF3"/>
<g opacity="0.2">
<path d="M200.613 155.484H95.6682C93.6389 155.484 91.8994 157.127 91.8994 159.253V178.096C98.5672 182.735 107.651 183.508 115.768 181.865C125.335 179.836 133.935 175.004 142.826 171.042C151.716 167.08 161.476 163.795 171.043 165.534C180.126 167.08 187.857 172.685 195.974 176.937C198.583 178.29 201.482 179.449 204.381 180.319V159.349C204.381 157.127 202.739 155.484 200.613 155.484Z" fill="white"/>
</g>
<path d="M189.917 159.966C202.343 155.105 208.476 141.092 203.615 128.666C198.754 116.24 184.741 110.107 172.315 114.968C159.889 119.829 153.757 133.842 158.617 146.268C163.478 158.694 177.491 164.826 189.917 159.966Z" fill="#B4B4B4"/>
<path d="M185.973 160.417C198.604 157.723 206.66 145.299 203.966 132.668C201.272 120.037 188.848 111.981 176.217 114.675C163.585 117.369 155.53 129.793 158.224 142.424C160.918 155.056 173.342 163.111 185.973 160.417Z" fill="#CCCCCC"/>
<path opacity="0.78" d="M160.218 135.173C160.025 135.27 159.832 135.27 159.542 135.173C158.769 135.077 158.286 134.304 158.382 133.531C159.832 124.93 165.92 117.973 174.327 115.46C175.68 115.074 177.033 114.784 178.386 114.59C179.159 114.494 179.835 115.074 179.932 115.847C180.028 116.62 179.449 117.296 178.676 117.393C177.516 117.489 176.26 117.779 175.1 118.166C167.756 120.388 162.441 126.476 161.088 134.11C161.088 134.594 160.701 134.98 160.218 135.173Z" fill="white"/>
<path opacity="0.63" d="M185.489 157.212C196.238 155.167 203.293 144.796 201.248 134.048C199.203 123.3 188.833 116.245 178.084 118.289C167.336 120.334 160.281 130.705 162.326 141.453C164.37 152.201 174.741 159.257 185.489 157.212Z" fill="white"/>
<path d="M187.662 135.56C188.048 134.497 188.048 133.338 187.758 132.081C186.889 129.279 184.086 127.636 181.284 128.119L180.511 125.317L178.095 126.09L178.868 128.796L177.225 129.279L176.452 126.573L174.036 127.346L174.81 130.052L170.654 131.308L171.524 134.401L174.423 133.531L178.095 146.093L175.196 146.963L176.066 150.055L180.221 148.799L180.994 151.505L183.41 150.732L182.637 148.026L184.28 147.543L185.053 150.248L187.469 149.475L186.696 146.77L187.758 146.48C190.754 145.61 192.494 142.421 191.624 139.425C191.044 137.396 189.498 136.043 187.662 135.56ZM181.574 131.308C182.83 130.922 184.28 131.695 184.666 132.951C185.053 134.207 184.28 135.657 183.024 136.043L178.868 137.3L177.419 132.564L181.574 131.308ZM186.889 143.387L181.091 145.127L179.641 140.392L183.797 139.136L185.439 138.652C186.696 138.266 188.145 139.039 188.532 140.295C189.015 141.648 188.242 143.001 186.889 143.387Z" fill="#CCCCCC"/>
<path opacity="0.78" d="M174.906 127.829L175.679 130.438" stroke="white" stroke-width="0.748817" stroke-miterlimit="10" stroke-linecap="round"/>
<g opacity="0.78">
<path d="M182.154 129.086C182.154 129.086 185.536 128.796 186.599 132.178L182.154 129.086Z" fill="#CCCCCC"/>
<path d="M182.154 129.086C182.154 129.086 185.536 128.796 186.599 132.178" stroke="white" stroke-width="0.748817" stroke-miterlimit="10" stroke-linecap="round"/>
</g>
<path d="M128.857 327.471V327.278C127.214 329.404 124.412 332.303 122.672 333.946C122.672 334.042 122.576 334.139 122.576 334.139C121.609 336.361 120.353 338.681 118.614 341.096C116.971 343.512 114.845 345.832 112.332 347.957C112.042 348.247 111.656 348.441 111.366 348.731C111.173 348.827 111.076 349.02 110.883 349.117L110.69 349.31C110.593 349.407 110.496 349.407 110.4 349.504C110.013 349.794 109.723 349.987 109.337 350.277L109.047 350.47L108.757 350.663C108.564 350.76 108.37 350.856 108.177 351.05C107.501 351.533 106.728 351.919 105.955 352.403C105.568 352.596 105.181 352.789 104.795 352.982C104.602 353.079 104.408 353.176 104.215 353.272C104.022 353.369 103.829 353.466 103.635 353.562C100.446 355.108 96.9676 356.171 93.3922 356.848C92.909 356.944 92.5224 356.944 92.0392 357.041C91.5561 357.138 91.1695 357.138 90.6863 357.234L90.01 357.331H89.3335H88.6571C88.4638 357.331 88.1739 357.331 87.9806 357.331C87.4974 357.331 87.1109 357.331 86.6278 357.331C86.5311 357.331 86.4344 357.331 86.3378 357.331H86.0479H85.4681H84.8883C84.7917 357.331 84.7917 357.331 84.6951 357.331H84.1152L83.3422 357.234H82.7624H82.6657C82.6657 357.234 82.4725 357.234 82.7624 357.234L81.4095 357.041C81.2162 357.041 80.9263 356.944 80.733 356.944L80.0566 356.848L79.3802 356.751L79.0903 356.655C78.9936 356.655 78.897 356.558 78.8004 356.558C78.4138 356.461 77.9307 356.365 77.5441 356.268C77.3509 356.268 77.1576 356.171 76.9644 356.075L76.3845 355.881L75.8047 355.688L75.2249 355.495C74.8384 355.398 74.4519 355.205 74.0653 355.108C73.6788 354.915 73.2923 354.818 72.9057 354.625C69.8134 353.369 67.1077 351.63 64.6918 349.697L64.2086 349.31L63.8221 348.924C63.5322 348.634 63.2423 348.441 62.9524 348.151C62.4692 347.668 61.8894 347.184 61.4062 346.605C61.3096 346.508 61.1164 346.315 61.0197 346.218L60.8265 346.025L60.6332 345.832C60.4399 345.542 60.15 345.252 59.9567 345.058C59.8601 344.962 59.8601 344.962 59.7634 344.865L59.5702 344.672C59.4736 344.575 59.3769 344.382 59.2803 344.285C59.087 343.995 58.8938 343.802 58.7005 343.512C57.1544 341.29 55.9948 339.164 55.2217 337.038C54.4486 335.009 53.9654 332.979 53.6755 331.336C53.6755 331.143 53.5789 330.95 53.5789 330.66C53.5789 330.467 53.4822 330.273 53.4822 330.08C53.4822 329.694 53.3856 329.307 53.3856 328.921C53.3856 328.534 53.3856 328.147 53.3856 327.858C53.3856 327.664 53.3856 327.568 53.3856 327.374C53.3856 327.181 53.3856 327.085 53.3856 326.891C53.3856 326.601 53.3856 326.311 53.3856 326.022C53.3856 325.925 53.3856 325.925 53.3856 325.828C53.3856 325.732 53.3856 325.732 53.3856 325.635C53.3856 325.538 53.3856 325.538 53.3856 325.442C53.3856 325.345 53.3856 325.345 53.3856 325.345H68.4605L59.2803 315.682L38.0208 293.552L7.58105 325.345H23.6223C23.6223 325.345 23.6223 325.635 23.719 325.828C23.8156 326.311 23.8156 326.698 23.9122 327.181C23.9122 327.471 24.0088 327.664 24.0088 327.954C24.0088 328.051 24.0089 328.244 24.1055 328.341C24.1055 328.437 24.1055 328.631 24.2021 328.727C24.2988 329.21 24.3954 329.79 24.5887 330.37C24.6853 330.66 24.6853 330.95 24.782 331.24C24.8786 331.53 24.9752 331.82 25.0719 332.206C25.2651 332.883 25.4584 333.559 25.6516 334.235C25.8449 334.912 26.1348 335.685 26.3281 336.361C26.4247 336.748 26.618 337.134 26.7146 337.521C26.8113 337.908 27.0045 338.294 27.1978 338.681C28.4541 341.773 30.0968 345.155 32.416 348.537C34.6386 351.919 37.5376 355.302 40.9198 358.491C41.3063 358.877 41.7895 359.264 42.2727 359.65C42.466 359.843 42.7559 360.037 42.9492 360.23L43.3357 360.52L43.7222 360.81C44.2054 361.196 44.6886 361.583 45.1717 361.873L45.5583 362.163L45.9448 362.453C46.2347 362.646 46.4279 362.839 46.7178 362.936C47.6842 363.612 48.7472 364.289 49.8102 364.965C50.2933 365.255 50.8731 365.545 51.4529 365.931C51.7428 366.125 52.0327 366.221 52.226 366.415C52.5159 366.511 52.8058 366.704 53.0957 366.801C57.5409 369.12 62.4692 370.86 67.5908 371.923C68.2673 372.019 68.8471 372.213 69.5235 372.309C70.2 372.406 70.7798 372.503 71.4562 372.599L72.4225 372.696L73.3889 372.792L74.3552 372.889C74.6451 372.889 75.0317 372.986 75.3216 372.986C75.998 372.986 76.5778 373.082 77.2542 373.082C77.4475 373.082 77.5442 373.179 77.7374 373.179H78.2206L79.1869 373.082H80.1533C80.4432 373.082 80.8297 373.082 81.1196 372.986L83.0523 372.889C83.5355 372.889 83.2455 372.889 83.3422 372.889H83.4388H83.5355H83.7287H84.1152L84.8883 372.792H85.2749H85.4681H85.758L86.821 372.696L87.884 372.503L88.3672 372.406C88.5604 372.406 88.6571 372.309 88.8503 372.309C89.4301 372.213 90.1065 372.019 90.6863 371.923C90.9762 371.826 91.2662 371.826 91.6527 371.729L92.619 371.536L93.4888 371.343L94.3585 371.053C94.9383 370.86 95.5181 370.666 96.1945 370.473C96.7743 370.28 97.3541 370.087 97.9339 369.893C102.572 368.154 106.824 365.835 110.4 363.129C110.593 362.936 110.883 362.839 111.076 362.646C111.269 362.453 111.559 362.259 111.753 362.163C112.236 361.776 112.622 361.486 113.009 361.1C113.879 360.327 114.652 359.65 115.425 358.877C115.618 358.684 115.811 358.491 116.005 358.297L116.294 358.007L116.584 357.717C116.971 357.331 117.261 356.944 117.647 356.558L117.937 356.268L118.227 355.978C118.42 355.785 118.517 355.592 118.71 355.398C119 355.012 119.387 354.625 119.677 354.239C121.319 352.113 122.769 349.987 123.928 347.764C124.508 346.701 124.991 345.735 125.475 344.672C126.827 341.58 127.697 338.584 128.277 335.975C128.374 335.685 128.374 335.298 128.47 335.008C128.567 334.719 128.567 334.332 128.664 334.042C128.76 333.462 128.857 332.786 128.953 332.206C129.05 331.626 129.05 331.047 129.147 330.563C129.147 330.273 129.147 330.08 129.243 329.79C129.243 329.5 129.34 329.307 129.34 329.017C128.76 328.341 128.857 327.858 128.857 327.471Z" fill="#B4B4B4"/>
<path d="M125.957 310.174H130.499C130.499 310.174 132.722 332.979 123.542 346.411C118.227 354.239 105.471 361.196 92.812 361.196C80.4428 361.196 69.5232 355.978 62.7588 348.054C63.0487 348.344 63.3386 348.537 63.6285 348.827L64.015 349.214L64.4982 349.6C66.8174 351.533 69.6198 353.176 72.7121 354.529C73.0986 354.722 73.4852 354.819 73.8717 355.012C74.2582 355.205 74.6448 355.302 75.0313 355.398L75.6111 355.592L76.1909 355.785L76.7707 355.978C76.964 356.075 77.1572 356.075 77.3505 356.171C77.737 356.268 78.2202 356.365 78.6067 356.461C78.7034 356.461 78.8001 356.558 78.8967 356.558L79.1866 356.655L79.863 356.751L80.5394 356.848C80.7327 356.848 81.0226 356.944 81.2159 356.944L82.5688 357.138C82.1822 357.138 82.4721 357.138 82.4721 357.138H82.5688H83.1486L83.9216 357.234H84.5015C84.5981 357.234 84.5981 357.234 84.6947 357.234H85.2745H85.8543H86.1442C86.2409 357.234 86.3375 357.234 86.4341 357.234C86.9173 357.234 87.3038 357.234 87.787 357.234C87.9802 357.234 88.2702 357.234 88.4634 357.234H89.1399H89.8163L90.4928 357.138C90.9759 357.041 91.3624 357.041 91.8456 356.944C92.3288 356.848 92.7153 356.848 93.1985 356.751C96.774 356.171 100.253 355.012 103.442 353.466C103.635 353.369 103.828 353.272 104.022 353.176C104.215 353.079 104.408 352.982 104.601 352.886C104.988 352.693 105.374 352.499 105.761 352.306C106.534 351.823 107.307 351.436 107.984 350.953C108.177 350.857 108.37 350.76 108.563 350.567L108.853 350.373L109.143 350.18C109.53 349.89 109.82 349.697 110.206 349.407C110.303 349.31 117.26 344.285 120.546 337.618C126.247 326.505 125.957 311.526 125.957 310.174Z" fill="#F0EFEF"/>
<path d="M93.3477 48.2204V48.4137C94.9904 46.1911 98.0827 43.1954 99.8222 41.456C99.8222 41.3594 99.9188 41.2627 99.9188 41.2627C100.885 38.9435 102.335 36.431 104.074 34.0152C105.813 31.5027 108.036 29.0869 110.742 26.7676C111.032 26.4777 111.418 26.1878 111.708 25.8979C111.901 25.8013 112.095 25.608 112.191 25.5114L112.481 25.3181C112.578 25.2215 112.674 25.2215 112.771 25.1249C113.158 24.835 113.448 24.6417 113.834 24.3518L114.124 24.1585L114.414 23.9652C114.607 23.8686 114.8 23.6753 114.994 23.5787C115.767 23.0955 116.54 22.6124 117.313 22.1292C117.699 21.9359 118.086 21.646 118.569 21.4528C118.762 21.3561 118.956 21.2595 119.149 21.1629C119.342 21.0662 119.536 20.9696 119.825 20.873C123.208 19.2302 126.783 18.0706 130.552 17.4908C131.035 17.3941 131.518 17.2975 132.001 17.2975C132.484 17.2009 132.968 17.2009 133.451 17.1042L134.127 17.0076H134.804H135.48C135.673 17.0076 135.963 17.0076 136.157 17.0076C136.64 17.0076 137.123 17.0076 137.606 17.0076C137.703 17.0076 137.799 17.0076 137.993 17.0076H138.282H138.959H139.539C139.635 17.0076 139.635 17.0076 139.732 17.0076H140.409L141.278 17.1042H141.955H142.051C142.051 17.1042 142.245 17.1042 141.858 17.1042L143.211 17.2975C143.404 17.2975 143.694 17.3941 143.887 17.3941L144.564 17.4908L145.24 17.5874L145.627 17.684C145.723 17.684 145.82 17.7807 145.917 17.7807C146.4 17.8773 146.786 17.9739 147.27 18.0706C147.463 18.0706 147.753 18.1672 147.946 18.2638L148.622 18.4571L149.299 18.6504L149.975 18.8436C150.362 19.0369 150.845 19.1335 151.231 19.3268C151.618 19.5201 152.005 19.6167 152.488 19.81C155.773 21.1629 158.672 22.9989 161.088 24.9316L161.571 25.3181L162.054 25.7047C162.344 25.9946 162.634 26.1878 162.924 26.4777C163.504 27.0575 163.987 27.5407 164.47 28.1205C164.567 28.2171 164.76 28.4104 164.857 28.5071L165.05 28.7003L165.243 28.8936C165.437 29.1835 165.727 29.4734 165.92 29.7633C166.016 29.8599 166.017 29.8599 166.113 29.9566L166.306 30.1498C166.403 30.2465 166.5 30.4397 166.596 30.5364C166.79 30.8263 167.079 31.1162 167.273 31.4061C168.915 33.7253 170.075 35.9479 170.945 38.1705C171.815 40.393 172.298 42.4224 172.588 44.1618C172.588 44.355 172.684 44.6449 172.684 44.8382C172.684 45.0315 172.781 45.2247 172.781 45.5146C172.781 45.9012 172.878 46.3843 172.878 46.7709C172.878 47.1574 172.878 47.544 172.878 47.9305C172.878 48.1238 172.878 48.317 172.878 48.4137C172.878 48.6069 172.878 48.8002 172.878 48.8968C172.878 49.1867 172.878 49.4766 172.878 49.7665C172.878 49.8632 172.878 49.8632 172.878 49.9598C172.878 50.0564 172.878 50.0564 172.878 50.1531C172.878 50.2497 172.878 50.2497 172.878 50.3463C172.878 50.443 172.878 50.443 172.878 50.443H157.03L166.693 60.5896L189.112 83.8784L221.098 50.443H204.284C204.284 50.443 204.187 50.1531 204.187 49.9598C204.09 49.4766 204.09 48.9935 203.994 48.5103C203.994 48.2204 203.897 47.9305 203.897 47.6406C203.897 47.5439 203.897 47.3507 203.8 47.2541C203.8 47.0608 203.8 46.9642 203.704 46.7709C203.607 46.1911 203.511 45.6113 203.317 45.0315C203.221 44.7416 203.221 44.4517 203.124 44.0651C203.027 43.7752 202.931 43.3887 202.834 43.0988C202.641 42.4223 202.448 41.7459 202.254 40.9728C202.061 40.1998 201.771 39.5233 201.481 38.7503C201.385 38.3637 201.191 37.9772 201.095 37.5906C200.901 37.2041 200.805 36.8176 200.611 36.3344C199.259 33.0488 197.519 29.4734 195.103 25.8979C192.688 22.3225 189.692 18.747 186.116 15.4614C185.633 15.0749 185.247 14.6884 184.763 14.2052C184.57 14.0119 184.28 13.8187 184.087 13.6254L183.701 13.3355L183.314 13.0456C182.831 12.6591 182.348 12.2725 181.864 11.886L181.478 11.5961L181.091 11.3062C180.802 11.1129 180.608 10.9196 180.318 10.7264C179.255 9.95331 178.192 9.27687 177.129 8.60043C176.55 8.2139 175.97 7.92399 175.39 7.63409C175.1 7.44082 174.81 7.34419 174.52 7.15092C174.23 6.95765 173.94 6.86102 173.651 6.66775C169.012 4.2519 163.794 2.41585 158.382 1.25625C157.706 1.15961 157.03 0.966342 156.353 0.869708C155.677 0.773074 155 0.676437 154.324 0.579803L153.261 0.48317L152.198 0.386538L151.135 0.289905C150.748 0.289905 150.458 0.193273 150.072 0.193273C149.395 0.193273 148.719 0.0966326 148.043 0.0966326C147.849 0.0966326 147.656 0 147.559 0H147.076L146.013 0.0966326H144.95C144.564 0.0966326 144.274 0.0966385 143.887 0.193273L141.858 0.289905C141.375 0.289905 141.665 0.289905 141.568 0.289905H141.471H141.375H141.182L140.795 0.386538L139.925 0.48317L139.539 0.579803H139.345H139.056L137.993 0.773075L136.93 0.966341L136.35 1.06297C136.157 1.06297 136.06 1.15961 135.867 1.15961C135.19 1.25625 134.514 1.44951 133.934 1.54614C133.644 1.64278 133.258 1.73942 132.968 1.73942L132.001 2.02931L131.035 2.31922L130.069 2.60912C129.392 2.80239 128.812 2.99566 128.233 3.18893C127.653 3.38219 126.976 3.67209 126.397 3.86536C121.565 5.70141 117.12 8.2139 113.254 11.0163C113.061 11.2096 112.771 11.4028 112.578 11.5961C112.385 11.7894 112.095 11.9826 111.901 12.1759C111.418 12.5624 111.032 12.949 110.549 13.2389C109.679 14.0119 108.809 14.785 108.036 15.5581C107.843 15.7513 107.649 15.9446 107.456 16.1379L107.166 16.4278L106.876 16.7177C106.49 17.1042 106.103 17.4908 105.717 17.9739L105.427 18.2638L105.137 18.5537C104.944 18.747 104.75 18.9403 104.654 19.1335C104.267 19.5201 103.977 19.9066 103.688 20.3898C101.948 22.6124 100.499 24.9316 99.2424 27.1542C98.6626 28.2171 98.0827 29.2801 97.5996 30.4397C96.1501 33.7253 95.1838 36.8176 94.6039 39.62C94.5073 40.0065 94.5073 40.2964 94.4107 40.6829C94.314 40.9728 94.314 41.3594 94.2174 41.6493C94.1208 42.3257 94.0241 42.9055 93.9275 43.4853C93.8309 44.0651 93.8309 44.6449 93.7342 45.2247C93.7342 45.5146 93.6376 45.8045 93.6376 45.9978C93.6376 46.2877 93.5409 46.481 93.5409 46.7709C93.4443 47.3507 93.3477 47.8339 93.3477 48.2204Z" fill="#E6E6E5"/>
<path d="M96.3432 61.6524H91.5115C91.5115 61.6524 89.1923 42.5189 98.8557 28.3137C104.46 20.0998 117.796 12.7556 131.131 12.7556C144.177 12.7556 155.677 18.1671 162.731 26.5743C162.441 26.2844 162.151 26.0911 161.861 25.8012L161.378 25.4147L160.895 25.0281C158.382 22.9988 155.483 21.2594 152.294 19.9065C151.908 19.7133 151.521 19.6166 151.038 19.4234C150.652 19.2301 150.168 19.1335 149.782 18.9402L149.105 18.7469L148.429 18.5537L147.753 18.3604C147.559 18.2638 147.366 18.2638 147.076 18.1671C146.593 18.0705 146.206 17.9739 145.723 17.8772C145.627 17.8772 145.53 17.7806 145.433 17.7806L145.047 17.684L144.37 17.5873L143.694 17.4907C143.501 17.4907 143.211 17.394 143.017 17.394L141.665 17.2008C142.051 17.2008 141.858 17.2008 141.858 17.2008H141.761H141.085L140.215 17.1041H139.539C139.442 17.1041 139.442 17.1041 139.345 17.1041H138.766H138.089H137.799C137.703 17.1041 137.606 17.1041 137.413 17.1041C136.929 17.1041 136.446 17.1041 135.963 17.1041C135.77 17.1041 135.48 17.1041 135.287 17.1041H134.61H133.934L133.257 17.2008C132.774 17.2974 132.291 17.2974 131.808 17.394C131.325 17.4907 130.842 17.5873 130.358 17.5873C126.59 18.2638 123.014 19.4234 119.632 20.9695C119.439 21.0661 119.245 21.1628 118.956 21.2594C118.762 21.356 118.569 21.4527 118.376 21.5493C117.989 21.7426 117.603 21.9358 117.12 22.2257C116.346 22.7089 115.573 23.0955 114.8 23.6753C114.607 23.7719 114.414 23.9652 114.22 24.0618L113.931 24.2551L113.641 24.4483C113.254 24.7382 112.964 24.9315 112.578 25.2214C112.481 25.318 105.234 30.6329 101.658 37.6872C95.9567 49.2833 96.3432 60.2029 96.3432 61.6524Z" fill="#B4B4B4"/>
<path d="M182.736 267.58H111.71C106.975 267.58 103.013 263.714 103.013 258.883C103.013 254.148 106.878 250.186 111.71 250.186H182.736C187.471 250.186 191.433 254.051 191.433 258.883C191.433 263.618 187.471 267.58 182.736 267.58Z" fill="#0E8EF3"/>
<path d="M158.872 339.096C170.897 328.851 172.34 310.798 162.096 298.773C151.851 286.748 133.798 285.305 121.773 295.55C109.748 305.794 108.305 323.847 118.549 335.872C128.794 347.897 146.847 349.34 158.872 339.096Z" fill="#B4B4B4"/>
<path d="M167.217 322.99C170.821 308.158 161.719 293.213 146.887 289.61C132.055 286.006 117.11 295.108 113.507 309.94C109.903 324.771 119.005 339.716 133.837 343.32C148.668 346.924 163.613 337.822 167.217 322.99Z" fill="#CCCCCC"/>
<g opacity="0.63">
<path d="M151.394 338.055C162.933 332.254 167.584 318.197 161.782 306.658C155.98 295.119 141.923 290.469 130.385 296.27C118.846 302.072 114.195 316.129 119.997 327.667C125.799 339.206 139.856 343.857 151.394 338.055Z" fill="white"/>
<path d="M147.098 320.61C148.123 320.132 148.942 319.312 149.626 318.218C150.992 315.622 150.172 312.479 147.849 310.839L149.284 308.311L147.029 307.149L145.663 309.609L144.159 308.789L145.526 306.329L143.271 305.167L141.904 307.627L138.078 305.577L136.506 308.379L139.171 309.814L132.885 321.293L130.22 319.858L128.648 322.66L132.475 324.71L131.108 327.17L133.363 328.331L134.73 325.872L136.233 326.691L134.866 329.151L137.121 330.313L138.488 327.853L139.445 328.4C142.178 329.903 145.663 328.878 147.166 326.145C148.191 324.3 148.054 322.25 147.098 320.61ZM145.799 313.299C146.961 313.914 147.439 315.485 146.824 316.647C146.209 317.809 144.638 318.287 143.476 317.672L139.65 315.622L141.973 311.249L145.799 313.299ZM141.016 325.598L135.686 322.728L138.01 318.355L141.836 320.405L143.339 321.225C144.501 321.84 144.979 323.412 144.364 324.573C143.749 325.872 142.246 326.282 141.016 325.598Z" fill="#CCCCCC"/>
<path opacity="0.78" d="M143.545 306.125L142.247 308.516" stroke="white" stroke-width="0.748817" stroke-miterlimit="10" stroke-linecap="round"/>
<g opacity="0.78">
<path d="M147.781 312.137C147.781 312.137 150.377 314.324 148.737 317.467L147.781 312.137Z" fill="#CCCCCC"/>
<path d="M147.781 312.137C147.781 312.137 150.377 314.324 148.737 317.467" stroke="white" stroke-width="0.748817" stroke-miterlimit="10" stroke-linecap="round"/>
</g>
</g>
<g opacity="0.78">
<path d="M118.584 304.789C118.487 304.789 118.294 304.693 118.197 304.693C117.714 304.403 117.617 303.823 117.907 303.437C123.222 294.933 132.692 290.101 142.742 291.067C144.385 291.164 145.931 291.454 147.477 291.937C147.96 292.034 148.25 292.614 148.154 293.097C148.057 293.58 147.477 293.87 146.994 293.773C145.545 293.387 144.095 293.097 142.645 293C133.369 292.227 124.575 296.575 119.647 304.499C119.26 304.693 118.874 304.789 118.584 304.789Z" fill="white"/>
</g>
<path d="M268.96 399.968C268.767 401.128 267.704 402.191 267.221 402.577C264.322 404.607 259.2 404.51 255.431 401.998C254.851 401.611 252.919 400.065 253.402 395.813C260.456 397.359 265.964 400.451 268.96 399.968Z" fill="url(#paint1_linear_1266_27727)"/>
<path d="M254.369 399.002C252.34 396.779 253.886 392.817 251.953 390.981C247.315 386.439 252.63 379.578 252.63 379.578L259.104 380.545C261.23 387.889 269.734 397.359 268.961 399.775C268.188 402.191 257.365 402.287 254.369 399.002Z" fill="url(#paint2_linear_1266_27727)"/>
<path d="M278.818 219.166C281.717 222.451 285.969 225.254 288.964 226.993C284.519 232.888 278.431 238.782 270.41 244.484L268.091 249.992L260.747 240.619C260.747 240.619 273.986 233.661 278.818 219.166Z" fill="url(#paint3_linear_1266_27727)"/>
<path d="M260.264 372.621L259.201 382.767C259.008 383.54 258.524 384.024 257.848 384.12C257.075 384.217 255.915 384.217 254.756 384.023C253.693 383.83 253.016 382.767 253.21 381.608L252.437 372.234L260.264 372.621Z" fill="url(#paint4_linear_1266_27727)"/>
<path d="M222.867 393.397C229.052 391.271 227.505 390.208 228.858 389.628C228.858 390.208 229.148 389.435 229.341 393.01C229.535 396.586 227.892 397.552 224.51 398.132C221.128 398.808 216.779 397.745 209.241 401.224C201.801 404.606 198.322 399.292 199.095 397.939C202.767 398.325 215.33 396.103 222.867 393.397Z" fill="url(#paint5_linear_1266_27727)"/>
<path d="M205.665 400.258C203.926 400.548 202.187 400.065 200.641 399.098C199.771 398.519 198.998 398.036 198.998 397.939C198.901 393.977 209.531 388.082 219.581 381.414L225.669 381.221C225.669 381.221 230.307 388.952 229.148 391.948C228.375 394.074 227.698 395.91 219.194 396.103C213.493 396.199 209.144 399.678 205.665 400.258Z" fill="url(#paint6_linear_1266_27727)"/>
<path d="M226.828 371.461C226.732 371.944 225.959 379.192 225.572 381.994C225.475 382.671 224.992 383.154 224.509 383.251C223.446 383.347 221.803 383.54 220.354 383.154C219.581 382.961 219.001 382.188 219.001 381.221V369.818L226.828 371.461Z" fill="url(#paint7_linear_1266_27727)"/>
<path d="M231.66 238.686C231.66 238.686 217.068 297.536 217.358 371.654C217.358 373.007 218.228 374.167 219.484 374.457C221.32 374.843 224.026 375.326 226.248 375.326C227.408 375.326 228.471 374.36 228.664 373.104C230.693 360.348 242.483 288.646 249.15 276.953C249.15 276.953 253.596 340.828 252.146 373.973C252.146 374.843 252.726 375.52 253.499 375.616C254.659 375.713 256.591 375.906 258.91 375.616C259.78 375.52 260.553 374.747 260.65 373.877C262.099 363.054 270.506 298.889 270.12 252.698C270.12 250.089 263.646 238.782 263.646 238.782H231.66V238.686Z" fill="#B4B4B4"/>
<path d="M209.24 159.446C210.207 156.837 211.463 154.518 212.816 152.295C216.778 146.207 224.025 143.018 231.176 144.081C246.638 146.4 265.578 148.43 274.468 149.686C277.947 150.169 281.136 152.005 283.359 154.808C292.442 165.92 312.349 196.36 288.867 227.09C285.871 225.35 281.619 222.451 278.72 219.262C281.329 211.532 281.523 201.578 276.111 189.499C275.918 190.466 275.724 191.432 275.435 192.398C267.994 217.523 267.511 238.493 267.607 243.324C267.607 244.001 267.221 244.581 266.641 244.774C256.784 248.929 237.844 246.513 231.466 245.45C230.306 245.257 229.533 244.097 229.63 242.841C232.722 218.876 216.681 179.353 212.526 169.496C211.946 168.046 210.786 166.887 209.434 166.21C208.757 165.92 208.081 165.534 207.404 165.244C207.984 163.215 208.564 161.282 209.24 159.446Z" fill="#2E368F"/>
<path d="M257.461 126.59L258.621 148.043C258.621 148.72 258.234 149.203 257.655 149.396C255.045 150.072 247.991 151.425 241.807 147.753C241.034 147.27 240.647 146.207 240.84 145.337L245.962 126.01L257.461 126.59Z" fill="url(#paint8_linear_1266_27727)"/>
<path d="M244.801 103.108C244.511 103.398 233.688 125.914 233.688 125.914L245.961 132.195L259.2 112.482C259.2 112.482 249.247 98.7598 244.801 103.108Z" fill="url(#paint9_linear_1266_27727)"/>
<path d="M253.788 112.965C253.982 113.545 253.982 114.221 253.595 114.801L247.507 125.624C247.411 125.817 247.314 125.914 247.217 126.107C246.444 126.784 244.028 128.91 242.096 126.107C240.453 123.691 238.907 121.469 237.264 120.599C236.298 120.116 235.138 120.502 234.655 121.565C233.689 123.691 231.659 128.04 230.5 132.098C230.21 133.161 230.693 134.224 231.659 134.611C234.172 135.674 239.003 137.607 243.449 138.283C244.125 138.38 244.898 138.09 245.285 137.413C247.121 134.708 252.436 127.074 254.272 125.141C255.914 123.401 259.007 124.078 260.456 124.464C260.939 124.658 261.519 124.561 262.002 124.271C263.452 123.401 265.868 121.082 263.645 117.313C263.065 116.347 263.355 115.091 264.225 114.511C265.771 113.448 267.511 111.322 265.868 108.037C264.225 104.654 261.229 104.365 259.297 104.654C258.427 104.751 257.461 104.268 257.171 103.398C256.977 103.012 256.687 102.722 256.204 102.528C255.141 102.335 254.465 101.272 254.658 100.209C255.045 98.2766 254.755 95.7641 251.856 94.1213C246.541 91.029 241.902 96.054 240.743 100.306C239.583 104.558 245.478 107.553 249.247 108.037C251.662 108.133 253.209 111.322 253.788 112.965Z" fill="#192E35"/>
<path d="M251.76 129.006C251.76 129.006 254.079 121.662 257.171 121.952C260.167 122.242 262.583 125.431 258.814 129.006C254.176 133.451 251.76 129.006 251.76 129.006Z" fill="url(#paint10_linear_1266_27727)"/>
<path d="M277.174 187.47C281.136 175.97 279.687 162.055 279.687 161.862L278.624 161.958C278.624 162.055 280.073 175.777 276.208 186.987L277.174 187.47Z" fill="#292D6E"/>
<path d="M249.634 275.407C249.924 275.407 250.117 275.214 250.214 274.924C251.47 269.995 260.457 264.487 260.554 264.487C260.844 264.294 260.94 264.004 260.747 263.714C260.554 263.424 260.264 263.328 259.974 263.521C259.587 263.714 250.407 269.222 249.054 274.731C248.958 275.02 249.151 275.407 249.441 275.407C249.538 275.407 249.634 275.407 249.634 275.407Z" fill="#919091"/>
<path d="M216.778 199.453C218.518 182.928 244.705 159.446 244.705 159.446L225.282 147.464C222.286 145.627 218.421 146.111 216.102 148.72C199.674 166.307 195.036 181.285 196.388 193.655C203.733 198.003 211.367 199.259 216.778 199.453Z" fill="#2E368F"/>
<path d="M231.852 234.724L236.008 229.602C236.008 229.602 217.357 218.103 216.778 201.579C216.778 200.902 216.778 200.129 216.874 199.453C211.366 199.259 203.732 198.1 196.581 193.558C199.577 220.615 231.852 234.724 231.852 234.724Z" fill="url(#paint11_linear_1266_27727)"/>
<path d="M233.206 228.829L235.139 228.443C235.139 228.443 239.777 226.993 244.416 230.472C251.18 235.497 248.861 239.266 248.861 239.266C248.861 239.266 247.411 239.073 246.155 239.073C245.189 239.073 244.706 240.232 245.382 240.909L253.789 249.122C253.789 249.122 240.84 251.828 231.37 233.951L233.206 228.829Z" fill="#F8B2B1"/>
<path d="M277.315 187.435C277.369 187.229 277.162 186.995 276.853 186.913C276.543 186.832 276.248 186.933 276.193 187.139C276.139 187.346 276.346 187.579 276.655 187.661C276.965 187.743 277.26 187.641 277.315 187.435Z" fill="#292D6E"/>
<path d="M279.222 162.389C279.539 162.348 279.774 162.143 279.747 161.931C279.719 161.719 279.439 161.581 279.122 161.622C278.804 161.664 278.569 161.869 278.597 162.081C278.624 162.292 278.904 162.43 279.222 162.389Z" fill="#292D6E"/>
<path d="M250.282 124.561L255.017 127.75C255.017 127.75 253.084 128.62 251.538 127.46C249.895 126.204 250.282 124.561 250.282 124.561Z" fill="white"/>
<path d="M114.513 100.875C118.764 92.3792 115.323 82.0458 106.827 77.7947C98.3317 73.5435 87.9983 76.9844 83.7472 85.4801C79.496 93.9757 82.9369 104.309 91.4325 108.56C99.9282 112.811 110.261 109.37 114.513 100.875Z" fill="#B4B4B4"/>
<path d="M112.674 102.959C118.058 95.524 116.395 85.132 108.96 79.7482C101.524 74.3644 91.1321 76.0275 85.7483 83.463C80.3644 90.8984 82.0276 101.29 89.4631 106.674C96.8985 112.058 107.291 110.395 112.674 102.959Z" fill="#CCCCCC"/>
<path opacity="0.78" d="M90.4666 81.139C90.37 81.0424 90.1767 80.9458 90.1767 80.8491C89.8868 80.366 89.9835 79.7861 90.4666 79.4962C95.6849 76.2107 102.256 76.114 107.571 79.303C108.441 79.7861 109.214 80.366 109.987 81.0424C110.373 81.4289 110.47 82.0087 110.083 82.3953C109.697 82.7818 109.117 82.8784 108.73 82.4919C108.054 81.9121 107.378 81.4289 106.604 80.9457C101.966 78.1434 96.168 78.24 91.5296 81.139C91.1431 81.3323 90.7565 81.3323 90.4666 81.139Z" fill="white"/>
<path opacity="0.63" d="M110.508 102.213C115.217 96.0049 114.001 87.1547 107.792 82.446C101.584 77.7373 92.7335 78.9532 88.0248 85.1619C83.3161 91.3705 84.5321 100.221 90.7407 104.929C96.9494 109.638 105.8 108.422 110.508 102.213Z" fill="white"/>
<path d="M103.32 95.7307C104.093 95.4408 104.673 94.861 105.156 94.088C106.219 92.3486 105.833 90.0293 104.19 88.7731L105.253 87.0337L103.707 86.0673L102.644 87.8068L101.581 87.1303L102.644 85.3909L101.097 84.4246L100.034 86.164L97.4254 84.5212L96.2657 86.4539L98.1018 87.6135L93.2701 95.5375L91.434 94.3779L90.2744 96.3106L92.8835 97.9533L91.8206 99.6927L93.3667 100.659L94.4297 98.9197L95.4927 99.5961L94.4297 101.336L95.9758 102.302L97.0388 100.562L97.7152 100.949C99.6479 102.109 102.064 101.529 103.223 99.5961C103.9 98.4365 103.9 96.987 103.32 95.7307ZM102.644 90.6091C103.513 91.0923 103.707 92.1553 103.223 93.025C102.74 93.8947 101.677 94.088 100.808 93.6048L98.1984 91.962L100.034 88.9664L102.644 90.6091ZM98.7782 99.1129L95.1061 96.8903L96.9422 93.8947L99.5513 95.5375L100.614 96.2139C101.484 96.6971 101.677 97.7601 101.194 98.6298C100.711 99.4028 99.6479 99.5961 98.7782 99.1129Z" fill="#CCCCCC"/>
<path opacity="0.78" d="M101.291 85.3909L100.324 87.0336" stroke="white" stroke-width="0.532067" stroke-miterlimit="10" stroke-linecap="round"/>
<g opacity="0.78">
<path d="M104.093 89.7395C104.093 89.7395 105.832 91.3823 104.576 93.6049L104.093 89.7395Z" fill="#CCCCCC"/>
<path d="M104.093 89.7395C104.093 89.7395 105.832 91.3823 104.576 93.6049" stroke="white" stroke-width="0.532067" stroke-miterlimit="10" stroke-linecap="round"/>
</g>
<defs>
<linearGradient id="paint0_linear_1266_27727" x1="147.065" y1="437.377" x2="147.065" y2="174.581" gradientUnits="userSpaceOnUse">
<stop stop-color="white"/>
<stop offset="1" stop-color="white"/>
</linearGradient>
<linearGradient id="paint1_linear_1266_27727" x1="226.819" y1="349.784" x2="312.015" y2="387.979" gradientUnits="userSpaceOnUse">
<stop stop-color="#4C57A6"/>
<stop offset="1" stop-color="#5560AB"/>
</linearGradient>
<linearGradient id="paint2_linear_1266_27727" x1="268.953" y1="390.531" x2="249.997" y2="390.531" gradientUnits="userSpaceOnUse">
<stop stop-color="#201B59"/>
<stop offset="1" stop-color="#2D2D84"/>
</linearGradient>
<linearGradient id="paint3_linear_1266_27727" x1="288.96" y1="234.583" x2="260.773" y2="234.583" gradientUnits="userSpaceOnUse">
<stop stop-color="#F5928F"/>
<stop offset="1" stop-color="#F8B2B1"/>
</linearGradient>
<linearGradient id="paint4_linear_1266_27727" x1="255.01" y1="361.873" x2="259.511" y2="401.151" gradientUnits="userSpaceOnUse">
<stop stop-color="#F7B777"/>
<stop offset="1" stop-color="#F47960"/>
</linearGradient>
<linearGradient id="paint5_linear_1266_27727" x1="197.722" y1="381.992" x2="266.734" y2="436.18" gradientUnits="userSpaceOnUse">
<stop stop-color="#4C57A6"/>
<stop offset="1" stop-color="#5560AB"/>
</linearGradient>
<linearGradient id="paint6_linear_1266_27727" x1="229.39" y1="390.782" x2="199.052" y2="390.782" gradientUnits="userSpaceOnUse">
<stop stop-color="#201B59"/>
<stop offset="1" stop-color="#2D2D84"/>
</linearGradient>
<linearGradient id="paint7_linear_1266_27727" x1="221.795" y1="366.933" x2="226.066" y2="404.214" gradientUnits="userSpaceOnUse">
<stop stop-color="#F7B777"/>
<stop offset="1" stop-color="#F47960"/>
</linearGradient>
<linearGradient id="paint8_linear_1266_27727" x1="255.197" y1="153.513" x2="246.339" y2="128.388" gradientUnits="userSpaceOnUse">
<stop stop-color="#F5928F"/>
<stop offset="1" stop-color="#F8B2B1"/>
</linearGradient>
<linearGradient id="paint9_linear_1266_27727" x1="-139.756" y1="-34.4508" x2="-106.089" y2="-21.2432" gradientUnits="userSpaceOnUse">
<stop stop-color="#F5928F"/>
<stop offset="1" stop-color="#F8B2B1"/>
</linearGradient>
<linearGradient id="paint10_linear_1266_27727" x1="-141.689" y1="-29.5275" x2="-108.022" y2="-16.3198" gradientUnits="userSpaceOnUse">
<stop stop-color="#F5928F"/>
<stop offset="1" stop-color="#F8B2B1"/>
</linearGradient>
<linearGradient id="paint11_linear_1266_27727" x1="1464.12" y1="126.681" x2="1431.47" y2="128.968" gradientUnits="userSpaceOnUse">
<stop stop-color="#F5928F"/>
<stop offset="1" stop-color="#F8B2B1"/>
</linearGradient>
</defs>
</svg>
