<svg width="30" height="31" viewBox="0 0 30 31" fill="none" xmlns="http://www.w3.org/2000/svg">
<path d="M19.9156 15.2238C22.1945 15.2238 24.0402 13.218 24.0402 10.7508C24.0402 8.32122 22.2039 6.38135 19.9156 6.38135C17.6556 6.38135 15.7911 8.34947 15.7911 10.7696C15.8005 13.2274 17.6462 15.2238 19.9156 15.2238ZM9.00152 15.4404C10.9885 15.4404 12.5893 13.6794 12.5893 11.5041C12.5893 9.38532 10.9885 7.67146 9.00152 7.67146C7.03339 7.67146 5.40428 9.41357 5.4137 11.5135C5.4137 13.6888 7.02398 15.4404 9.00152 15.4404ZM19.9156 13.5758C18.6161 13.5758 17.5144 12.3516 17.5144 10.7602C17.5144 9.22524 18.6067 8.0293 19.9156 8.0293C21.234 8.0293 22.3169 9.2064 22.3169 10.7508C22.3169 12.3328 21.2246 13.5758 19.9156 13.5758ZM9.00152 13.8112C7.93741 13.8112 7.03339 12.7942 7.03339 11.5135C7.03339 10.2893 7.928 9.29116 9.00152 9.29116C10.0939 9.29116 10.9791 10.2705 10.9791 11.5041C10.9791 12.7942 10.075 13.8112 9.00152 13.8112ZM3.82225 24.0944H11.1391C10.6212 23.7931 10.2728 23.1057 10.3387 22.4842H3.7375C3.55858 22.4842 3.48324 22.3994 3.48324 22.2393C3.48324 20.0829 6.00696 18.03 8.9921 18.03C10.0468 18.03 11.1015 18.2937 11.9113 18.7457C12.2315 18.2843 12.627 17.8887 13.1449 17.5497C11.949 16.8152 10.4611 16.4197 8.9921 16.4197C5.00877 16.4197 1.78821 19.2636 1.78821 22.39C1.78821 23.52 2.46622 24.0944 3.82225 24.0944ZM14.049 24.0944H25.7823C27.4115 24.0944 28.2025 23.5765 28.2025 22.4653C28.2025 19.8757 24.9631 16.4291 19.9156 16.4291C14.8682 16.4291 11.6288 19.8757 11.6288 22.4653C11.6288 23.5765 12.4198 24.0944 14.049 24.0944ZM13.7476 22.4465C13.531 22.4465 13.4463 22.3712 13.4463 22.2017C13.4463 20.7609 15.7722 18.0771 19.9156 18.0771C24.0591 18.0771 26.385 20.7609 26.385 22.2017C26.385 22.3712 26.3003 22.4465 26.0743 22.4465H13.7476Z" fill="#0E8EF3"/>
</svg>
