<svg width="28" height="28" viewBox="0 0 28 28" fill="none" xmlns="http://www.w3.org/2000/svg">
<path d="M12.8311 21.8379C13.5078 21.8379 14.0176 21.3369 14.0176 20.6514V17.5049H14.2373C17.4453 17.5049 19.4053 18.4453 20.7852 21.0117C21.1367 21.6533 21.5586 21.8027 22.0244 21.8027C22.6396 21.8027 23.1143 21.2227 23.1143 20.1064C23.1143 13.7256 20.293 9.83203 14.2373 9.83203H14.0176V6.70312C14.0176 6.01758 13.5078 5.47266 12.8135 5.47266C12.3477 5.47266 12.0137 5.66602 11.5039 6.14062L4.54297 12.627C4.2002 12.9521 4.06836 13.3213 4.06836 13.6553C4.06836 13.9805 4.2002 14.3584 4.54297 14.6836L11.5039 21.2139C11.9697 21.6533 12.3477 21.8379 12.8311 21.8379ZM12.2686 19.5703C12.2246 19.5703 12.1719 19.5439 12.1191 19.5L6.11621 13.8223C6.0459 13.752 6.01953 13.708 6.01953 13.6553C6.01953 13.6025 6.0459 13.5586 6.11621 13.4883L12.1191 7.75781C12.1631 7.71387 12.2158 7.6875 12.2686 7.6875C12.3477 7.6875 12.4004 7.74023 12.4004 7.81934V11.1416C12.4004 11.3438 12.4883 11.4316 12.6904 11.4316H13.8154C19.4756 11.4316 21.4619 15.167 21.6113 19.3594C21.6113 19.4209 21.585 19.4473 21.541 19.4473C21.5059 19.4473 21.4883 19.4209 21.4619 19.3682C20.416 17.1709 17.8408 15.8965 13.8154 15.8965H12.6904C12.4883 15.8965 12.4004 15.9844 12.4004 16.1865V19.4297C12.4004 19.5176 12.3477 19.5703 12.2686 19.5703Z" fill="#0E8EF3"/>
</svg>
