<svg width="19" height="20" viewBox="0 0 19 20" fill="none" xmlns="http://www.w3.org/2000/svg">
<path d="M16.6667 2.85714H13.5238V1.52381C13.5238 0.666667 12.8571 0 12 0H6.28571C5.33333 0 4.66667 0.666667 4.66667 1.52381V2.7619H1.52381C0.761905 2.7619 0 3.52381 0 4.38095V6.28571C0 7.14286 0.666667 7.80952 1.52381 7.80952H1.90476V8.09524L2.7619 18.4762C2.7619 18.8571 2.95238 19.2381 3.2381 19.5238C3.52381 19.8095 4 20 4.38095 20H13.7143C14.5714 20 15.2381 19.3333 15.2381 18.4762L16.1905 7.80952H16.5714C17.4286 7.80952 18.0952 7.14286 18.0952 6.28571V4.38095C18.1905 3.52381 17.5238 2.85714 16.6667 2.85714ZM3.2381 7.90476H14.8571V8.09524L14 18.6667H4.19048V18.381L3.2381 7.90476ZM6 2.7619V1.33333H12.0952V2.7619H6ZM16.8571 4.19048V6.57143H1.33333V4.19048H16.8571Z" fill="#E81E62"/>
</svg>
