<svg width="20" height="14" viewBox="0 0 20 14" fill="none" xmlns="http://www.w3.org/2000/svg">
<path d="M10.8839 13.3C4.11897 13.3 0.260384 8.57022 0.0996094 0.699951H3.48824C3.59955 6.47653 6.09774 8.92337 8.0765 9.42788V0.699951H11.2673V5.68193C13.2213 5.46752 15.2743 3.19725 15.9668 0.699951H19.1576C18.8966 1.99512 18.3764 3.22144 17.6295 4.3022C16.8825 5.38297 15.925 6.29492 14.8167 6.98103C16.0538 7.60795 17.1465 8.4953 18.0227 9.58452C18.8988 10.6737 19.5386 11.9401 19.8996 13.3H16.3873C16.0632 12.1188 15.4045 11.0615 14.4937 10.2605C13.5829 9.45951 12.4605 8.9505 11.2673 8.79725V13.3H10.8839Z" fill="white"/>
</svg>
