<svg width="30" height="31" viewBox="0 0 30 31" fill="none" xmlns="http://www.w3.org/2000/svg">
<path d="M14.9907 24.8666C20.33 24.8666 24.7371 20.4595 24.7371 15.1296C24.7371 9.79966 20.3206 5.39258 14.9813 5.39258C9.65133 5.39258 5.25366 9.79966 5.25366 15.1296C5.25366 20.4595 9.66075 24.8666 14.9907 24.8666ZM14.9907 18.3878C12.3351 18.3878 10.2728 19.3389 9.27466 20.4313C7.99397 19.047 7.21237 17.1825 7.21237 15.1296C7.21237 10.8073 10.6684 7.34187 14.9813 7.34187C19.3036 7.34187 22.7784 10.8073 22.7878 15.1296C22.7878 17.1825 22.0062 19.047 20.7161 20.4407C19.7179 19.3389 17.6557 18.3878 14.9907 18.3878ZM14.9907 16.8435C16.8176 16.8623 18.2395 15.2991 18.2395 13.2839C18.2395 11.3817 16.8081 9.79025 14.9907 9.79025C13.1827 9.79025 11.7419 11.3817 11.7513 13.2839C11.7607 15.2991 13.1732 16.8341 14.9907 16.8435Z" fill="#0E8EF3"/>
</svg>
