<svg width="30" height="30" viewBox="0 0 30 30" fill="none" xmlns="http://www.w3.org/2000/svg">
<mask id="mask0" mask-type="alpha" maskUnits="userSpaceOnUse" x="0" y="0" width="30" height="30">
<rect width="30" height="30" fill="#C4C4C4"/>
</mask>
<g mask="url(#mask0)">
<path d="M9.38862 24.765C8.4811 23.1374 8.00114 21.1425 8.00114 18.9825C8.00114 15.3525 11.1436 12.3975 14.9986 12.3975C18.8611 12.3975 21.9961 15.3525 21.9961 18.9825C21.9961 19.395 22.3336 19.7325 22.7462 19.7325C23.1587 19.7325 23.4962 19.395 23.4962 18.9825C23.4962 14.52 19.6862 10.8975 14.9987 10.8975C10.3113 10.8975 6.5011 14.5275 6.5011 18.9825C6.5011 21.3975 7.04862 23.6549 8.08362 25.4999C9.09612 27.3075 9.80114 28.14 11.0986 29.4524C11.2486 29.6024 11.4361 29.6774 11.6311 29.6774C11.8186 29.6774 12.0136 29.6099 12.1486 29.4524C12.4486 29.1674 12.4486 28.6874 12.1561 28.3949C11.0011 27.2325 10.3561 26.49 9.38862 24.765Z" fill="#0E8EF3"/>
<path d="M6.65847 3.61497C9.23099 2.21245 12.036 1.49998 15.0135 1.49998C17.9985 1.49998 20.496 2.1375 23.3685 3.6225C23.481 3.67502 23.5935 3.70497 23.7135 3.70497C23.9835 3.70497 24.246 3.555 24.381 3.29997C24.5685 2.93245 24.426 2.475 24.0585 2.28747C20.9985 0.705023 18.2085 0 15.0135 0C11.7885 0 8.73599 0.772523 5.93847 2.295C5.57095 2.4975 5.44347 2.9475 5.63845 3.31502C5.84095 3.68247 6.29095 3.81002 6.65847 3.61497Z" fill="#0E8EF3"/>
<path d="M14.946 7.24487C10.1085 7.24487 5.68354 9.95239 3.68104 14.1374C2.99852 15.5549 2.65356 17.1899 2.65356 18.9899C2.65356 21.0149 3.01356 22.9499 3.74854 24.9223C3.89852 25.3124 4.32602 25.5073 4.71604 25.3648C5.10606 25.2148 5.30104 24.7873 5.15852 24.3973C4.26597 22.0049 4.16099 20.1599 4.16099 18.9899C4.16099 17.4149 4.45349 15.9974 5.03849 14.7824C6.79349 11.1073 10.686 8.7374 14.9535 8.7374C20.946 8.7374 25.821 13.3349 25.821 18.9899C25.821 20.6023 24.4184 21.9073 22.701 21.9073C20.9835 21.9073 19.581 20.5948 19.581 18.9899C19.581 16.5523 17.511 14.5723 14.961 14.5723C12.411 14.5723 10.341 16.5523 10.341 18.9899C10.341 21.9523 11.496 24.7349 13.5885 26.8199C15.2085 28.4323 16.7685 29.3174 19.161 29.9699C19.2209 29.9924 19.2884 29.9999 19.3559 29.9999C19.6859 29.9999 19.9859 29.7824 20.0759 29.4524C20.1884 29.0549 19.9485 28.6424 19.5509 28.5299C17.4359 27.9524 16.0559 27.1723 14.6384 25.7624C12.8309 23.9624 11.8334 21.5549 11.8334 18.9974C11.8334 17.3849 13.2359 16.0799 14.9534 16.0799C16.6708 16.0799 18.0734 17.3924 18.0734 18.9974C18.0734 21.4349 20.1509 23.4149 22.6934 23.4149C25.2359 23.4149 27.3134 21.4349 27.3134 18.9974C27.3135 12.5174 21.7635 7.24487 14.946 7.24487Z" fill="#0E8EF3"/>
<path d="M28.3636 10.35C26.8711 8.26504 24.9811 6.62999 22.7386 5.47504C18.0136 3.04504 11.9836 3.05257 7.26613 5.49002C5.01613 6.65249 3.11861 8.30252 1.63361 10.4025C1.39364 10.74 1.47611 11.205 1.81361 11.4451C1.94861 11.5351 2.09859 11.5801 2.24864 11.5801C2.48116 11.5801 2.71361 11.4751 2.86366 11.2726C4.20613 9.36761 5.92366 7.87509 7.95618 6.82511C12.2537 4.60514 17.7512 4.59761 22.0561 6.81013C24.0811 7.84513 25.7911 9.33013 27.1411 11.2201C27.3811 11.5576 27.8536 11.6327 28.1911 11.3926C28.5286 11.1525 28.6036 10.6875 28.3636 10.35Z" fill="#0E8EF3"/>
<path d="M23.9462 25.26C23.3462 25.365 22.7387 25.4025 22.3787 25.4025C20.8787 25.4025 19.6337 25.05 18.5762 24.33C16.7537 23.0925 15.6662 21.0976 15.6662 18.99C15.6662 18.5775 15.3287 18.24 14.9162 18.24C14.5036 18.24 14.1661 18.5775 14.1661 18.99C14.1661 21.6 15.5012 24.06 17.7287 25.575C19.0261 26.4525 20.5937 26.9025 22.3786 26.9025C22.5887 26.9025 23.3312 26.895 24.2087 26.7375C24.6137 26.6624 24.8912 26.2725 24.8161 25.8675C24.7411 25.4625 24.3512 25.185 23.9462 25.26Z" fill="#0E8EF3"/>
</g>
</svg>
