<svg width="23" height="19" viewBox="0 0 23 19" fill="none" xmlns="http://www.w3.org/2000/svg">
<path fill-rule="evenodd" clip-rule="evenodd" d="M22.0791 9.6543C22.0791 14.6289 17.9658 18.7334 13 18.7334C11.7695 18.7334 10.5918 18.4785 9.52832 18.0215C9.8623 17.6523 10.126 17.2393 10.3369 16.791C10.5303 16.8701 10.7324 16.9404 10.9434 16.9932C10.7852 16.8525 10.627 16.668 10.5039 16.4482C10.6973 15.9824 10.8379 15.499 10.9082 14.9893C11.3213 15.8506 11.8311 16.457 12.3848 16.7031V13.9785C11.875 14.0049 11.3916 14.04 10.9434 14.1104C10.9258 13.6885 10.8643 13.2754 10.7588 12.9062C11.2773 12.8271 11.8311 12.7656 12.3848 12.748V10.2695H9.27344C8.78125 9.75098 8.20117 9.3291 7.55957 9.02148H8.51758C8.56152 7.93164 8.70215 6.92969 8.93945 6.02441C8.13086 5.76953 7.43652 5.43555 6.91797 5.04004C6.14453 6.02441 5.6084 7.21094 5.42383 8.50293C5.0459 8.46777 4.39551 8.5293 3.98242 8.62598C4.50098 4.12598 8.36816 0.575195 12.9912 0.575195C17.957 0.575195 22.0791 4.68848 22.0791 9.6543ZM10.8379 2.31543C9.66016 2.6582 8.5791 3.29102 7.70898 4.13477C8.14844 4.43359 8.67578 4.67969 9.29102 4.88184C9.68652 3.79199 10.2227 2.91309 10.8379 2.31543ZM15.1533 2.31543C15.7773 2.91309 16.3047 3.79199 16.7002 4.88184C17.3242 4.68848 17.8516 4.43359 18.2734 4.13477C17.4121 3.29102 16.3486 2.66699 15.1533 2.31543ZM12.3848 2.61426C11.6553 2.93945 10.9785 3.88867 10.5127 5.18066C11.0928 5.28613 11.7168 5.34766 12.3848 5.37402V2.61426ZM13.6152 2.61426V5.37402C14.2744 5.34766 14.9072 5.28613 15.4873 5.18066C15.0127 3.88867 14.3447 2.93945 13.6152 2.61426ZM17.0605 6.02441C17.2891 6.93848 17.4385 7.94043 17.4736 9.03906H20.6377C20.5234 7.55371 19.9521 6.17383 19.082 5.04883C18.5459 5.43555 17.8604 5.76953 17.0605 6.02441ZM10.1523 6.34082C9.9502 7.1582 9.80957 8.08105 9.76562 9.03906H12.3848V6.60449C11.6025 6.57812 10.8467 6.48145 10.1523 6.34082ZM13.6152 6.60449V9.03906H16.2256C16.1904 8.08105 16.0498 7.1582 15.8389 6.34082C15.1445 6.48145 14.3887 6.57812 13.6152 6.60449ZM9.71289 14.251C9.71289 16.7207 7.64746 18.7773 5.18652 18.7773C2.70801 18.7773 0.668945 16.7383 0.668945 14.251C0.668945 11.7725 2.70801 9.7334 5.18652 9.7334C7.67383 9.7334 9.71289 11.7725 9.71289 14.251ZM13.6152 10.2695V12.748C14.3887 12.7744 15.1357 12.8711 15.8301 13.0029C16.0498 12.168 16.1904 11.2451 16.2256 10.2695H13.6152ZM17.4736 10.2695C17.4385 11.377 17.2891 12.4053 17.0518 13.3193C17.8516 13.5742 18.5371 13.8994 19.0557 14.2949C19.9434 13.1611 20.5234 11.7725 20.6377 10.2695H17.4736ZM13.6152 13.9785V16.7031C14.3447 16.3604 14.9951 15.4375 15.4697 14.1719C14.8984 14.0664 14.2744 14.0049 13.6152 13.9785ZM16.6914 14.4707C16.3047 15.5254 15.7773 16.3955 15.1797 16.9932C16.3398 16.6504 17.3945 16.0264 18.2559 15.2002C17.8252 14.9014 17.3066 14.6641 16.6914 14.4707ZM2.94019 14.5401H4.76V16.3599C4.76 16.5449 4.91215 16.7 5.1001 16.7C5.28804 16.7 5.44019 16.5449 5.44019 16.3599V14.5401H7.26C7.44497 14.5401 7.6001 14.3879 7.6001 14.2C7.6001 14.0121 7.44497 13.8599 7.26 13.8599H5.44019V12.0401C5.44019 11.8551 5.28804 11.7 5.1001 11.7C4.91215 11.7 4.76 11.8551 4.76 12.0401V13.8599H2.94019C2.75523 13.8599 2.6001 14.0121 2.6001 14.2C2.6001 14.3879 2.75523 14.5401 2.94019 14.5401Z" fill="white"/>
</svg>
