<svg width="36" height="36" viewBox="0 0 36 36" fill="none" xmlns="http://www.w3.org/2000/svg">
<path d="M35.3558 27.4131L23.2285 3.23363C22.1473 1.07788 20.0725 0 17.9977 0C15.9229 0 13.8481 1.07788 12.7668 3.2045L0.639532 27.3839C-0.996925 30.6176 0.697977 34.1134 3.56178 35.3952H3.53255C3.53255 35.3952 6.57169 37.1431 10.9843 34.696C13.5559 33.7347 16.4197 33.0938 17.9977 33.1812C19.5757 33.0938 22.4395 33.7347 25.0111 34.696C29.4236 37.1431 32.4628 35.3952 32.4628 35.3952H32.4336C35.3266 34.1425 36.9923 30.6467 35.3558 27.4131ZM14.6663 4.69023L14.8709 4.25325C15.5138 2.97145 16.7703 2.33055 17.9977 2.33055C19.2542 2.33055 20.4816 2.94232 21.1245 4.25325L21.329 4.69023C21.9135 6.20508 22.2349 7.80733 22.2349 9.43872C22.2349 14.4785 20.6569 19.4309 17.9684 23.5968C15.3092 19.4018 13.702 14.4785 13.702 9.43872C13.7312 7.80733 14.0819 6.23421 14.6663 4.69023ZM6.51324 33.6473C4.08778 33.6473 1.42854 31.0837 2.74355 28.4618L11.4518 11.0992C11.7733 16.3138 13.6143 21.3828 16.5365 25.6943C14.1111 29.1318 10.8674 33.6764 6.51324 33.6473ZM17.9977 30.7341C16.8872 30.7341 16.1567 30.9089 15.3384 31.1419C16.1859 30.2097 17.0625 28.8988 17.9977 27.5879C18.9328 28.8988 19.7802 30.2097 20.6569 31.1419C19.8387 30.9089 19.1081 30.7341 17.9977 30.7341ZM29.4821 33.6473C25.1572 33.6764 21.9135 29.1318 19.4588 25.6652C22.381 21.3828 24.222 16.2847 24.5435 11.0701L33.2518 28.4618C34.5668 31.0837 31.9076 33.6473 29.4821 33.6473Z" fill="white"/>
</svg>
