<svg width="24" height="24" viewBox="0 0 24 24" fill="none" xmlns="http://www.w3.org/2000/svg">
<mask id="mask0_1460_7142" style="mask-type:alpha" maskUnits="userSpaceOnUse" x="0" y="0" width="24" height="24">
<rect width="24" height="24" fill="#C4C4C4"/>
</mask>
<g mask="url(#mask0_1460_7142)">
<path d="M21.51 16.51H22.51V7H21.51V3.755C21.51 3.556 21.43 3.362 21.289 3.221C21.146 3.079 20.956 3 20.755 3H2.755C2.556 3 2.362 3.081 2.221 3.221C2.08 3.361 2 3.556 2 3.755V19.755C2 19.956 2.079 20.147 2.221 20.289C2.362 20.43 2.556 20.51 2.755 20.51H20.755C20.956 20.51 21.147 20.432 21.289 20.289C21.431 20.146 21.51 19.956 21.51 19.755V16.51ZM20 19H3.51V4.51H20V7H13.755C12.485 7 11.291 7.495 10.393 8.393C9.495 9.291 9 10.485 9 11.755C9 13.025 9.495 14.219 10.393 15.117C11.291 16.015 12.485 16.51 13.755 16.51H20V19ZM21 15H13.755C12.889 15 12.074 14.662 11.461 14.049C10.848 13.437 10.51 12.622 10.51 11.755C10.51 10.888 10.848 10.073 11.46 9.46C12.072 8.847 12.887 8.509 13.754 8.509H21V15Z" fill="#0E8EF3"/>
<path d="M16.51 11H14V12.51H16.51V11Z" fill="#0E8EF3"/>
</g>
</svg>
