<svg width="26" height="32" viewBox="0 0 26 32" fill="none" xmlns="http://www.w3.org/2000/svg">
<path d="M25.549 14.5341H23.016C22.626 16.9331 21.404 19.1231 19.563 20.7161C17.677 22.3471 15.266 23.2451 12.774 23.2451C10.282 23.2451 7.871 22.3471 5.985 20.7161C4.144 19.1231 2.922 16.9341 2.532 14.5341H0C0.365 17.3441 1.662 19.9821 3.667 21.9881C5.726 24.0471 8.452 25.3581 11.344 25.6811L11.522 25.7021V31.5741H14.028V25.7021L14.206 25.6811C17.099 25.3571 19.825 24.0441 21.882 21.9871C23.887 19.9821 25.184 17.3441 25.549 14.5341Z" fill="white"/>
<path d="M17.772 2.069C17.113 1.409 16.341 0.894 15.48 0.537C14.619 0.181 13.708 0 12.775 0C10.888 0 9.11301 0.734 7.77801 2.069C6.44301 3.404 5.70801 5.178 5.70801 7.066V12.879C5.70801 14.768 6.44301 16.542 7.77801 17.876C9.11201 19.211 10.887 19.946 12.775 19.946C14.663 19.946 16.438 19.211 17.772 17.876C19.107 16.542 19.842 14.768 19.842 12.879V7.066C19.842 6.133 19.661 5.223 19.304 4.362C18.947 3.5 18.431 2.729 17.772 2.069ZM17.335 12.88C17.335 14.098 16.86 15.243 16 16.106C15.139 16.966 13.993 17.441 12.775 17.441C11.557 17.441 10.412 16.966 9.55001 16.106C8.68901 15.244 8.21501 14.098 8.21501 12.88V7.066C8.21501 5.847 8.69001 4.702 9.55001 3.841C10.412 2.98 11.557 2.505 12.775 2.505C13.993 2.505 15.138 2.98 16 3.841C16.849 4.69 17.335 5.865 17.335 7.066V12.88Z" fill="white"/>
</svg>
