<svg width="16" height="18" viewBox="0 0 16 18" fill="none" xmlns="http://www.w3.org/2000/svg">
<path d="M14.1718 5.10404H6.45756V6.66248H14.1718V16.0131H1.82899V6.66248H3.37185V9.77936H4.9147V3.54559H8.54328C9.09556 3.54559 9.54327 3.09788 9.54327 2.54559V1.42871C9.54327 0.876426 9.09556 0.428711 8.54327 0.428711H6.45756H4.37185C3.81956 0.428711 3.37185 0.876426 3.37185 1.42871V5.10404H1.82899C0.980419 5.10404 0.286133 5.80533 0.286133 6.66248V16.0131C0.286133 16.8703 0.980419 17.5716 1.82899 17.5716H14.1718C15.0204 17.5716 15.7147 16.8703 15.7147 16.0131V6.66248C15.7147 5.80533 15.0204 5.10404 14.1718 5.10404Z" fill="#0E8EF3"/>
</svg>
