<svg width="16" height="18" viewBox="0 0 16 18" fill="none" xmlns="http://www.w3.org/2000/svg">
<path d="M14.1718 4.75638H6.45756V6.31482H14.1718V15.6655H1.82899V6.31482H3.37185V9.4317H4.9147V3.19794H8.54328C9.09556 3.19794 9.54327 2.75022 9.54327 2.19794V1.08105C9.54327 0.52877 9.09556 0.0810547 8.54327 0.0810547H6.45756H4.37185C3.81956 0.0810547 3.37185 0.52877 3.37185 1.08105V4.75638H1.82899C0.980419 4.75638 0.286133 5.45768 0.286133 6.31482V15.6655C0.286133 16.5226 0.980419 17.2239 1.82899 17.2239H14.1718C15.0204 17.2239 15.7147 16.5226 15.7147 15.6655V6.31482C15.7147 5.45768 15.0204 4.75638 14.1718 4.75638Z" fill="#0E8EF3"/>
</svg>
