<svg width="31" height="28" viewBox="0 0 31 28" fill="none" xmlns="http://www.w3.org/2000/svg">
<path fill-rule="evenodd" clip-rule="evenodd" d="M6.125 14.5C6.125 9.32233 10.3223 5.125 15.5 5.125C20.6777 5.125 24.875 9.32233 24.875 14.5C24.875 19.6777 20.6777 23.875 15.5 23.875C10.3223 23.875 6.125 19.6777 6.125 14.5ZM15.5 6.45833C11.0587 6.45833 7.45833 10.0587 7.45833 14.5C7.45833 16.6034 8.26603 18.5184 9.58797 19.9513L9.66144 20.031L9.7507 19.9696C11.4221 18.8195 13.4125 18.1875 15.5 18.1875C17.5877 18.1875 19.5784 18.8197 21.2501 19.9685L21.3393 20.0298L21.4127 19.9502C22.7343 18.5177 23.5417 16.603 23.5417 14.5C23.5417 10.0587 19.9413 6.45833 15.5 6.45833ZM11.8646 13.1146C11.8646 11.1062 13.4916 9.47917 15.5 9.47917C17.5084 9.47917 19.1354 11.1062 19.1354 13.1146C19.1354 15.123 17.5084 16.75 15.5 16.75C13.4916 16.75 11.8646 15.123 11.8646 13.1146ZM15.5 10.8125C14.228 10.8125 13.1979 11.8425 13.1979 13.1146C13.1979 14.3866 14.228 15.4167 15.5 15.4167C16.772 15.4167 17.8021 14.3866 17.8021 13.1146C17.8021 11.8425 16.772 10.8125 15.5 10.8125ZM15.5 19.5208C13.8252 19.5208 12.2237 19.9882 10.8449 20.8451L10.6855 20.9442L10.8383 21.0531C12.1531 21.9904 13.7624 22.5417 15.5 22.5417C17.2373 22.5417 18.8462 21.9906 20.1611 21.0539L20.3138 20.945L20.1546 20.8459C18.7759 19.9881 17.1746 19.5208 15.5 19.5208Z" fill="#89909A"/>
</svg>
