<svg width="40" height="40" viewBox="0 0 40 40" fill="none" xmlns="http://www.w3.org/2000/svg">
<rect width="40" height="40" rx="20" fill="#27AE60"/>
<path d="M11.8512 28.1397C12.2332 28.5292 12.7177 28.8025 13.2486 28.9282C13.7795 29.0538 14.3351 29.0266 14.8512 28.8497L29.0012 24.1197C29.5719 23.9329 30.0705 23.5736 30.4282 23.0913C30.786 22.609 30.9852 22.0276 30.9983 21.4272C31.0115 20.8269 30.838 20.2373 30.5017 19.7398C30.1655 19.2423 29.6831 18.8614 29.1212 18.6497L23.8812 16.6497C23.7619 16.6041 23.6532 16.5344 23.562 16.4449C23.4708 16.3555 23.3991 16.2482 23.3512 16.1297L21.3512 10.8797C21.1476 10.3258 20.7782 9.848 20.2932 9.51158C19.8083 9.17515 19.2314 8.99643 18.6412 8.99975L18.5712 8.99975C17.9702 9.01069 17.3876 9.20941 16.9052 9.56807C16.4228 9.92673 16.0647 10.4273 15.8812 10.9997L11.1512 25.1697C10.9791 25.6808 10.9535 26.2298 11.0772 26.7547C11.201 27.2795 11.469 27.7593 11.8512 28.1397ZM13.0012 25.7997L17.7812 11.6197C17.8367 11.4403 17.9482 11.2833 18.0993 11.1717C18.2504 11.0602 18.4333 10.9999 18.6212 10.9997C18.8079 10.9967 18.9912 11.0505 19.1466 11.1541C19.302 11.2577 19.4222 11.4062 19.4912 11.5797L21.4912 16.8297C21.6362 17.2112 21.8598 17.5579 22.1475 17.8474C22.4352 18.1368 22.7806 18.3625 23.1612 18.5097L28.4112 20.5097C28.5883 20.5746 28.7405 20.6935 28.8464 20.8497C28.9523 21.0058 29.0064 21.1912 29.0012 21.3797C29.001 21.5676 28.9408 21.7505 28.8292 21.9016C28.7176 22.0528 28.5606 22.1642 28.3812 22.2197L14.2012 26.9497C14.0384 27.0161 13.8598 27.0339 13.6871 27.0009C13.5145 26.968 13.355 26.8857 13.2281 26.7641C13.1012 26.6424 13.0122 26.4866 12.9719 26.3155C12.9316 26.1444 12.9418 25.9652 13.0012 25.7997Z" fill="white"/>
</svg>
