<svg width="8" height="15" viewBox="0 0 8 15" fill="none" xmlns="http://www.w3.org/2000/svg">
<path d="M7.84403 7.35603C7.8365 7.09236 7.73856 6.86635 7.53516 6.66295L1.67411 0.929967C1.50084 0.76423 1.29743 0.673828 1.04883 0.673828C0.544085 0.673828 0.152344 1.06557 0.152344 1.57031C0.152344 1.81138 0.250279 2.03739 0.423549 2.21066L5.69699 7.35603L0.423549 12.5014C0.250279 12.6747 0.152344 12.8931 0.152344 13.1417C0.152344 13.6465 0.544085 14.0382 1.04883 14.0382C1.2899 14.0382 1.50084 13.9478 1.67411 13.7821L7.53516 8.04157C7.74609 7.8457 7.84403 7.6197 7.84403 7.35603Z" fill="#CFD2D6"/>
</svg>
