<svg width="32" height="24" viewBox="0 0 32 24" fill="none" xmlns="http://www.w3.org/2000/svg">
<path d="M12 0H20L22.6667 2.66667H30.6667C31.0203 2.66667 31.3594 2.80714 31.6095 3.05719C31.8595 3.30724 32 3.64638 32 4V22.6667C32 23.0203 31.8595 23.3594 31.6095 23.6095C31.3594 23.8595 31.0203 24 30.6667 24H1.33333C0.979711 24 0.640573 23.8595 0.390524 23.6095C0.140476 23.3594 0 23.0203 0 22.6667V4C0 3.64638 0.140476 3.30724 0.390524 3.05719C0.640573 2.80714 0.979711 2.66667 1.33333 2.66667H9.33333L12 0ZM16 21.3333C18.1217 21.3333 20.1566 20.4905 21.6569 18.9902C23.1571 17.4899 24 15.4551 24 13.3333C24 11.2116 23.1571 9.17677 21.6569 7.67648C20.1566 6.17619 18.1217 5.33333 16 5.33333C13.8783 5.33333 11.8434 6.17619 10.3431 7.67648C8.84286 9.17677 8 11.2116 8 13.3333C8 15.4551 8.84286 17.4899 10.3431 18.9902C11.8434 20.4905 13.8783 21.3333 16 21.3333ZM16 18.6667C14.5855 18.6667 13.229 18.1048 12.2288 17.1046C11.2286 16.1044 10.6667 14.7478 10.6667 13.3333C10.6667 11.9188 11.2286 10.5623 12.2288 9.5621C13.229 8.5619 14.5855 8 16 8C17.4145 8 18.771 8.5619 19.7712 9.5621C20.7714 10.5623 21.3333 11.9188 21.3333 13.3333C21.3333 14.7478 20.7714 16.1044 19.7712 17.1046C18.771 18.1048 17.4145 18.6667 16 18.6667Z" fill="white"/>
</svg>
